<svg width="70" height="70" viewBox="0 0 70 70" xmlns="http://www.w3.org/2000/svg">
<path fill-rule="evenodd" clip-rule="evenodd" d="M8.64742 9.76765L8.47065 9.59088C8.17775 9.29798 8.17775 8.82311 8.47065 8.53022C8.76354 8.23732 9.23841 8.23732 9.53131 8.53022L34.0005 32.9994L33.9999 32.9999H36.001L36.0005 32.9994L60.4697 8.53022C60.7626 8.23732 61.2374 8.23732 61.5303 8.53022C61.8232 8.82311 61.8232 9.29798 61.5303 9.59088L61.3536 9.76765C61.1073 10.0139 58.343 12.6924 54.7401 16.1835L54.74 16.1836L54.7391 16.1845L54.7389 16.1846L54.7384 16.1852L54.7358 16.1876L54.735 16.1884C48.3226 22.4018 39.2573 31.1859 37 33.4162V36.5826C39.2577 38.8133 48.3262 47.6004 54.7389 53.8141C58.3424 57.3058 61.1072 59.9848 61.3536 60.2311L61.5303 60.4079C61.8232 60.7008 61.8232 61.1757 61.5303 61.4686C61.2374 61.7615 60.7626 61.7615 60.4697 61.4686L36.001 36.9999H33.999L9.53033 61.4686C9.23744 61.7615 8.76256 61.7615 8.46967 61.4686C8.17678 61.1757 8.17678 60.7008 8.46967 60.4079L8.64645 60.2311C8.89276 59.9848 11.6576 57.3058 15.2611 53.8141L15.2621 53.8132C21.6746 47.5996 30.7424 38.8132 33 36.5826V33.4152C30.7409 31.1832 21.6759 22.3995 15.2644 16.1869L15.2632 16.1858L15.262 16.1846C11.6585 12.693 8.89373 10.014 8.64742 9.76765Z" />
</svg>
