<svg width="20" height="20" viewBox="0 0 20 20" xmlns="http://www.w3.org/2000/svg">
<path fill-rule="evenodd" clip-rule="evenodd" d="M8.50262 10.5026C8.50124 10.5026 8.49987 10.5027 8.49849 10.5027C6.52175 10.524 5.15913 10.6691 3.95705 10.7971L3.95704 10.7971C2.94769 10.9046 2.05151 11 0.999998 11C0.447714 11 0 10.5523 0 10C0 9.44772 0.447715 9 0.999998 9C2.39232 9 3.35386 9.1077 4.38444 9.22312C5.47852 9.34567 6.65041 9.47692 8.49812 9.49728C8.49963 9.4973 8.50114 9.49732 8.50265 9.49735L10 8L11.4974 9.49738C11.4988 9.49736 11.5001 9.49734 11.5015 9.49732C13.4782 9.47597 14.8409 9.33088 16.0429 9.20289C17.0523 9.09542 17.9485 9 19 9C19.5523 9 20 9.44772 20 10C20 10.5523 19.5523 11 19 11C17.6077 11 16.6461 10.8923 15.6156 10.7769C14.5215 10.6543 13.3496 10.5231 11.5019 10.5027C11.5004 10.5027 11.4989 10.5027 11.4974 10.5026L10 12L8.50262 10.5026Z" />
</svg>
