<svg width="20" height="20" viewBox="0 0 20 20" xmlns="http://www.w3.org/2000/svg">
    <g clip-path="url(#clip0_1854_5501)">
    <path fill-rule="evenodd" clip-rule="evenodd" d="M3.17023 7.70573C3.34606 8.40906 3.70973 9.05138 4.22237 9.56402L9.33486 14.6765C9.8475 15.1891 10.4898 15.5528 11.1931 15.7287L12.76 16.1204C14.1231 16.4611 15.5651 16.0617 16.5586 15.0682L17.3852 14.2416L13.8497 10.706L12.4355 12.1203L14.5568 14.2416L14.2032 14.5951L11.7789 12.7769L11.3748 13.1809C10.789 13.7667 9.83928 13.7667 9.25349 13.1809L5.71796 9.64539C5.13217 9.0596 5.13217 8.10986 5.71796 7.52407L8.19283 5.0492L4.6573 1.51366L3.83065 2.3403C3.63094 2.54002 3.45524 2.75785 3.30472 2.98952L4.12697 3.81176L5.3644 5.0492L5.01085 5.40275L2.89484 3.81574C2.63107 4.54977 2.58312 5.35728 2.77851 6.13887L3.17023 7.70573L2.20008 7.94827L1.80837 6.38141C1.3824 4.67753 1.88165 2.8751 3.12355 1.6332L3.95019 0.806555C4.34071 0.41603 4.97388 0.416031 5.3644 0.806555L8.89994 4.34209C9.29046 4.73261 9.29046 5.36578 8.89994 5.7563L6.42506 8.23118C6.2298 8.42644 6.2298 8.74302 6.42506 8.93828L9.9606 12.4738C10.1559 12.6691 10.4724 12.6691 10.6677 12.4738L13.1426 9.99894C13.5331 9.60842 14.1663 9.60842 14.5568 9.99894L18.0923 13.5345C18.4828 13.925 18.4828 14.5582 18.0923 14.9487L17.2657 15.7753C16.0238 17.0172 14.2213 17.5165 12.5175 17.0905L10.9506 16.6988C10.0715 16.479 9.26855 16.0244 8.62776 15.3836L3.51526 10.2711C2.87447 9.63033 2.41987 8.82743 2.20008 7.94827L3.17023 7.70573Z" />
    </g>
    <defs>
    <clipPath id="clip0_1854_5501">
    <rect width="20" height="20" />
    </clipPath>
    </defs>
    </svg>
    