<svg width="21" height="21" viewBox="0 0 21 21" xmlns="http://www.w3.org/2000/svg">
<path fill-rule="evenodd" clip-rule="evenodd" d="M15.0957 7.02549L15.2725 6.84872C15.5654 6.55582 15.5654 6.08095 15.2725 5.78806C14.9796 5.49516 14.5048 5.49516 14.2119 5.78806L10.4995 9.50037L10.4996 9.50043L10.4995 9.50043L9.49942 10.5005L10.4994 11.5004L10.4993 11.5005L14.2116 15.2128C14.5045 15.5057 14.9794 15.5057 15.2723 15.2128C15.5652 14.9199 15.5652 14.445 15.2723 14.1521L15.0955 13.9754C14.8492 13.7291 14.6029 13.5685 14.2819 13.3593C13.7187 12.9924 12.9257 12.4756 11.4994 11.0829L11.4993 10.5005L11.4994 9.91815C12.9258 8.52536 13.7189 8.00852 14.2821 7.64151C14.6031 7.43231 14.8494 7.2718 15.0957 7.02549ZM10.2726 6.84869L10.0958 7.02547C9.84947 7.27178 9.60316 7.43229 9.28213 7.64149C8.71896 8.00849 7.92584 8.52534 6.49938 9.91816L6.4993 10.5003L6.49938 11.0828C7.92569 12.4754 8.71876 12.9922 9.28191 13.3592C9.60293 13.5684 9.84924 13.7289 10.0955 13.9752L10.2723 14.152C10.5652 14.4449 10.5652 14.9198 10.2723 15.2127C9.97943 15.5056 9.50456 15.5056 9.21166 15.2127L5.49935 11.5003L5.49944 11.5003L5.49936 11.5003L4.49943 10.5003L5.49949 9.50026L5.49966 9.50026L9.21189 5.78803C9.50479 5.49514 9.97966 5.49514 10.2726 5.78803C10.5654 6.08092 10.5654 6.5558 10.2726 6.84869Z" />
</svg>
