<svg width="20" height="20" viewBox="0 0 20 20" xmlns="http://www.w3.org/2000/svg">
    <path fill-rule="evenodd" clip-rule="evenodd" d="M8 15C11.866 15 15 11.866 15 8C15 4.13401 11.866 1 8 1C4.13401 1 1 4.13401 1 8C1 11.866 4.13401 15 8 15ZM8 16C9.95453 16 11.7454 15.2991 13.1348 14.1349C13.6001 14.6003 15.1562 16.1568 16 17.0004C16.9999 18 18 20 18 20C19.1045 20 19.9999 19.1045 20 18C20 18 18 17 17 16.0004C16.019 15.0197 14.5779 13.5784 14.1347 13.1351C15.299 11.7456 16 9.95465 16 8C16 3.58172 12.4183 0 8 0C3.58172 0 0 3.58172 0 8C0 12.4183 3.58172 16 8 16ZM3 8C3 5 5 3 8 3C8.5 3 8.5 3.5 8.5 3.5C8.5 3.5 8.5 4 8 4C5 4 3.5 6 3 8Z" />
</svg>
