<svg width="20" height="20" viewBox="0 0 20 20" xmlns="http://www.w3.org/2000/svg">
<path fill-rule="evenodd" clip-rule="evenodd" d="M0 0H20V20H0V0ZM1 1H19V19H1V1ZM15.3337 5.46961L15.1569 5.64638C14.9106 5.89269 14.2951 6.59402 13.4928 7.50808L13.4928 7.5081C12.0803 9.11759 10.0888 11.3867 8.51481 12.9926H7.93196H7.34975C5.95697 11.5662 5.44013 10.7731 5.07313 10.2099C4.86393 9.88891 4.70342 9.64261 4.45711 9.3963L4.28033 9.21952C3.98744 8.92663 3.51256 8.92663 3.21967 9.21952C2.92678 9.51241 2.92678 9.98729 3.21967 10.2802L6.9319 13.9924V13.9926L7.93196 14.9926L8.9319 13.9927V13.9926L8.93199 13.9927L16.3943 6.53027C16.6872 6.23738 16.6872 5.7625 16.3943 5.46961C16.1014 5.17672 15.6266 5.17672 15.3337 5.46961Z" />
</svg>
