<svg width="20" height="20" viewBox="0 0 20 20" xmlns="http://www.w3.org/2000/svg">
<path fill-rule="evenodd" clip-rule="evenodd" d="M10.7769 4.38444C10.8923 3.35386 11 2.39232 11 0.999998C11 0.447715 10.5523 0 10 0C9.44772 0 9 0.447714 9 0.999998C9 2.0515 9.09542 2.94766 9.20289 3.957L9.20289 3.95703L9.20289 3.95704C9.33088 5.15913 9.47597 6.52175 9.49732 8.49849C9.49734 8.49987 9.49736 8.50124 9.49738 8.50262L8.50271 9.49729C8.50118 9.49726 8.49965 9.49724 8.49812 9.49722C6.65041 9.47686 5.47853 9.3456 4.38445 9.22306H4.38444C3.35386 9.10763 2.39232 8.99994 0.999998 8.99994C0.447715 8.99994 0 9.44765 0 9.99994C0 10.5522 0.447714 10.9999 0.999998 10.9999C2.05151 10.9999 2.94769 10.9045 3.95704 10.797C5.15913 10.6691 6.52175 10.524 8.49849 10.5026C8.49985 10.5026 8.5012 10.5026 8.50256 10.5026L9.49735 11.4974C9.49732 11.4989 9.4973 11.5004 9.49728 11.5019C9.47692 13.3496 9.34567 14.5215 9.22312 15.6156C9.1077 16.6461 9 17.6077 9 19C9 19.5523 9.44772 20 10 20C10.5523 20 11 19.5523 11 19C11 17.9485 10.9046 17.0523 10.7971 16.043C10.6691 14.8409 10.524 13.4782 10.5027 11.5015C10.5027 11.5001 10.5026 11.4988 10.5026 11.4974L11.4974 10.5026C11.4989 10.5026 11.5004 10.5026 11.5019 10.5027C13.3496 10.523 14.5215 10.6543 15.6156 10.7768C16.6461 10.8922 17.6077 10.9999 19 10.9999C19.5523 10.9999 20 10.5522 20 9.99994C20 9.44765 19.5523 8.99994 19 8.99994C17.9485 8.99994 17.0523 9.09536 16.0429 9.20283C14.8409 9.33082 13.4782 9.4759 11.5015 9.49726C11.5001 9.49727 11.4987 9.49729 11.4973 9.49732L10.5026 8.50265C10.5027 8.50114 10.5027 8.49963 10.5027 8.49812C10.5231 6.65041 10.6543 5.47852 10.7769 4.38444Z" />
</svg>
