<svg width="21" height="21" viewBox="0 0 21 21" xmlns="http://www.w3.org/2000/svg">
<path fill-rule="evenodd" clip-rule="evenodd" d="M5.89645 13.9745L5.71967 14.1513C5.42678 14.4442 5.42678 14.9191 5.71967 15.2119C6.01256 15.5048 6.48744 15.5048 6.78033 15.2119L10.4926 11.4996L10.4926 11.4996L10.4927 11.4996L11.4928 10.4995L10.4928 9.49957L10.4929 9.49951L6.78057 5.7872C6.48768 5.49431 6.01281 5.49431 5.71991 5.7872C5.42702 6.08009 5.42702 6.55497 5.71991 6.84786L5.89669 7.02464C6.143 7.27095 6.38931 7.43146 6.71033 7.64066C7.27346 8.00763 8.06649 8.52442 9.49271 9.91696L9.49264 10.4995L9.49271 11.0819C8.06633 12.4747 7.27325 12.9915 6.71009 13.3585C6.38906 13.5677 6.14276 13.7282 5.89645 13.9745ZM10.7196 14.1513L10.8964 13.9745C11.1427 13.7282 11.389 13.5677 11.7101 13.3585C12.2732 12.9915 13.0663 12.4747 14.4927 11.0819L14.4926 10.4997L14.4927 9.91715C13.0665 8.52457 12.2734 8.00777 11.7103 7.6408C11.3893 7.4316 11.143 7.27109 10.8966 7.02478L10.7199 6.848C10.427 6.55511 10.427 6.08023 10.7199 5.78734C11.0128 5.49445 11.4876 5.49445 11.7805 5.78734L15.4928 9.49965L15.4927 9.49974L15.4928 9.49974L16.4928 10.4997L15.4927 11.4997L15.4925 11.4997L11.7803 15.212C11.4874 15.5049 11.0125 15.5049 10.7196 15.212C10.4267 14.9191 10.4267 14.4442 10.7196 14.1513Z" />
</svg>
