<svg width="20" height="21" viewBox="0 0 20 21" xmlns="http://www.w3.org/2000/svg">
<path fill-rule="evenodd" clip-rule="evenodd" d="M10.7769 4.88444C10.8923 3.85386 11 2.89232 11 1.5C11 0.947714 10.5523 0.5 10 0.5C9.44772 0.5 9 0.947714 9 1.5C9 2.5515 9.09542 3.44766 9.20289 4.457L9.20289 4.45703L9.20289 4.45704C9.33088 5.65913 9.47597 7.02175 9.49732 8.99849C9.49734 8.99987 9.49736 9.00124 9.49738 9.00262L8.50271 9.99729C8.50118 9.99726 8.49965 9.99724 8.49812 9.99722C6.65041 9.97686 5.47853 9.8456 4.38445 9.72306H4.38444C3.35386 9.60763 2.39232 9.49994 0.999998 9.49994C0.447714 9.49994 0 9.94765 0 10.4999C0 11.0522 0.447714 11.4999 0.999998 11.4999C2.05151 11.4999 2.94769 11.4045 3.95704 11.297C5.15913 11.1691 6.52175 11.024 8.49849 11.0026C8.49985 11.0026 8.5012 11.0026 8.50256 11.0026L9.49735 11.9974C9.49732 11.9989 9.4973 12.0004 9.49728 12.0019C9.47692 13.8496 9.34567 15.0215 9.22312 16.1156C9.1077 17.1461 9 18.1077 9 19.5C9 20.0523 9.44772 20.5 10 20.5C10.5523 20.5 11 20.0523 11 19.5C11 18.4485 10.9046 17.5523 10.7971 16.543C10.6691 15.3409 10.524 13.9782 10.5027 12.0015C10.5027 12.0001 10.5026 11.9988 10.5026 11.9974L11.4974 11.0026C11.4989 11.0026 11.5004 11.0026 11.5019 11.0027C13.3496 11.023 14.5215 11.1543 15.6156 11.2768C16.6461 11.3922 17.6077 11.4999 19 11.4999C19.5523 11.4999 20 11.0522 20 10.4999C20 9.94765 19.5523 9.49994 19 9.49994C17.9485 9.49994 17.0523 9.59536 16.0429 9.70283C14.8409 9.83082 13.4782 9.9759 11.5015 9.99726C11.5001 9.99727 11.4987 9.99729 11.4973 9.99732L10.5026 9.00265C10.5027 9.00114 10.5027 8.99963 10.5027 8.99812C10.5231 7.15041 10.6543 5.97852 10.7769 4.88444Z" />
</svg>
