<svg width="20" height="21" viewBox="0 0 20 21" xmlns="http://www.w3.org/2000/svg">
    <path fill-rule="evenodd" clip-rule="evenodd" d="M2.25 10.0002L17.5001 10.0002L17.7878 9.71249C16.4938 8.47311 15.7521 7.98973 15.2175 7.64137C14.8965 7.43217 14.6502 7.27166 14.4039 7.02535L14.2271 6.84857C13.9342 6.55568 13.9342 6.08081 14.2271 5.78791C14.52 5.49502 14.9949 5.49502 15.2878 5.78791L19.0001 9.50022L19 9.50032L19.0001 9.50032L20 10.5003L18.9999 11.5003L18.9998 11.5003L15.2875 15.2125C14.9946 15.5054 14.5198 15.5054 14.2269 15.2125C13.934 14.9197 13.934 14.4448 14.2269 14.1519L14.4037 13.9751C14.65 13.7288 14.8963 13.5683 15.2173 13.3591C15.7519 13.0107 16.4936 12.5273 17.7876 11.2879L17.4999 11.0002L2.25 11.0002L-1.28159e-07 12.5002L-3.03005e-07 8.5002L2.25 10.0002Z" />
</svg>
