<svg width="20" height="20" viewBox="0 0 20 20" xmlns="http://www.w3.org/2000/svg">
    <path fill-rule="evenodd" clip-rule="evenodd" d="M5.39645 6.52498L5.21967 6.3482C4.92678 6.05531 4.92678 5.58043 5.21967 5.28754C5.51256 4.99465 5.98744 4.99465 6.28033 5.28754L9.99256 8.99977H9.99273L9.9964 9.00343L10.0001 8.99977H10.0002L13.7125 5.28754C14.0054 4.99465 14.4802 4.99465 14.7731 5.28754C15.066 5.58043 15.066 6.05531 14.7731 6.3482L14.5964 6.52498C14.35 6.77129 14.1037 6.9318 13.7827 7.141C13.2195 7.508 12.4264 8.02486 11 9.41767L10.9999 9.99983L11 10.5823C12.4263 11.9749 13.2193 12.4917 13.7825 12.8587C14.1035 13.0679 14.3498 13.2284 14.5961 13.4747L14.7729 13.6515C15.0658 13.9444 15.0658 14.4193 14.7729 14.7122C14.48 15.0051 14.0051 15.0051 13.7122 14.7122L9.99993 10.9999L10 10.9998H9.99994L9.9964 10.9962L9.99286 10.9998H9.99278L9.99287 10.9999L6.28056 14.7122C5.98767 15.0051 5.51279 15.0051 5.2199 14.7122C4.92701 14.4193 4.92701 13.9444 5.2199 13.6515L5.39668 13.4747C5.64298 13.2284 5.88929 13.0679 6.21031 12.8587L6.21032 12.8587C6.77346 12.4917 7.56653 11.9749 8.99285 10.5823L8.99292 9.99983L8.99285 9.41767C7.56638 8.02486 6.77326 7.508 6.21009 7.141C5.88907 6.9318 5.64276 6.77129 5.39645 6.52498Z" />
</svg>
