<svg width="20" height="20" viewBox="0 0 20 20" xmlns="http://www.w3.org/2000/svg">
<path fill-rule="evenodd" clip-rule="evenodd" d="M5.2632 3.20263C4.11677 3.09526 3.09954 3 1.90909 3C1.40701 3 1 3.40701 1 3.90909V4.09091C1 4.59299 1.40701 5 1.90909 5C2.80543 5 3.73014 4.9161 4.82198 4.81704L4.82199 4.81704C6.19201 4.69275 7.82519 4.54457 9.99572 4.50831C12.0172 4.54268 13.4575 4.67756 14.7369 4.79737C15.8833 4.90474 16.9005 5 18.0909 5C18.593 5 19 4.59299 19 4.09092V3.90908C19 3.40701 18.593 3 18.0909 3C17.1946 3 16.2699 3.0839 15.1781 3.18295C13.8081 3.30725 12.1749 3.45543 10.0044 3.49169C7.98286 3.45732 6.54258 3.32244 5.2632 3.20263ZM5.2632 9.20263C4.11677 9.09526 3.09954 9 1.90909 9C1.40701 9 1 9.40701 1 9.90909V10.0909C1 10.593 1.40701 11 1.90909 11C2.80543 11 3.73014 10.9161 4.82198 10.817L4.82199 10.817C6.19202 10.6927 7.8252 10.5446 9.99572 10.5083C12.0172 10.5427 13.4575 10.6776 14.7369 10.7974C15.8833 10.9047 16.9005 11 18.0909 11C18.593 11 19 10.593 19 10.0909V9.90908C19 9.40701 18.593 9 18.0909 9C17.1946 9 16.2699 9.0839 15.1781 9.18295C13.8081 9.30725 12.1749 9.45543 10.0044 9.49169C7.98287 9.45732 6.54258 9.32244 5.26321 9.20263L5.2632 9.20263ZM5.26319 15.2026H5.2632C6.54258 15.3224 7.98286 15.4573 10.0044 15.4917C12.1749 15.4554 13.808 15.3073 15.178 15.183L15.1781 15.183C16.2699 15.0839 17.1946 15 18.0909 15C18.593 15 19 15.407 19 15.9091V16.0909C19 16.593 18.593 17 18.0909 17C16.9005 17 15.8833 16.9047 14.7369 16.7974C13.4575 16.6776 12.0172 16.5427 9.99572 16.5083C7.8252 16.5446 6.19202 16.6927 4.82199 16.817H4.82198C3.73014 16.9161 2.80543 17 1.90909 17C1.40701 17 1 16.593 1 16.0909V15.9091C1 15.407 1.40701 15 1.90909 15C3.09954 15 4.11676 15.0953 5.26319 15.2026Z" />
</svg>
