<svg width="20" height="20" viewBox="0 0 20 20" xmlns="http://www.w3.org/2000/svg">
<path d="M19.5795 5.23502C19.3523 4.35945 18.6705 3.6682 17.8068 3.42627C16.25 3 10 3 10 3C10 3 3.75 3 2.18182 3.42627C1.31818 3.65668 0.647727 4.34793 0.409091 5.23502C0 6.82488 0 10.1429 0 10.1429C0 10.1429 0 13.4608 0.420455 15.0507C0.647727 15.9263 1.32955 16.6175 2.19318 16.8594C3.75 17.2857 10 17.2857 10 17.2857C10 17.2857 16.25 17.2857 17.8182 16.8594C18.6818 16.629 19.3523 15.9378 19.5909 15.0507C20 13.4608 20 10.1429 20 10.1429C20 10.1429 20 6.82488 19.5795 5.23502ZM7.95455 13.1613V7.12442L13.1818 10.1429L7.95455 13.1613Z" />
</svg>
