<svg width="20" height="20" viewBox="0 0 20 20" xmlns="http://www.w3.org/2000/svg">
<path fill-rule="evenodd" clip-rule="evenodd" d="M12.75 1.5H13C13.3483 1.5 13.636 1.43933 14.0109 1.36026C14.7123 1.21234 15.7192 1 18 1V1.29296L8.05728 11.2357L5 12L8 15L8.76427 11.9429L18.7072 2H19C19 4.28084 18.7877 5.28766 18.6397 5.98908C18.5607 6.364 18.5 6.65167 18.5 7V7.25C18.5 7.66421 18.8358 8 19.25 8C19.6642 8 20 7.66421 20 7.25V2V0H18H12.75C12.3358 0 12 0.335786 12 0.75C12 1.16421 12.3358 1.5 12.75 1.5ZM6 6L8 7V5L0 5V6H6ZM0 6.00007H1V19.0001H14V14L13 12H15V20H14V20.0001H1H0V19.0001V6.00007Z" />
</svg>
