<svg width="140" height="40" viewBox="0 0 140 40" xmlns="http://www.w3.org/2000/svg">
    <path fill-rule="evenodd" clip-rule="evenodd" d="M79.0941 0H79.9523L83.6233 8.15256H82.6221L81.6686 6.00715H77.3301L76.3766 8.15256H75.4231L79.0941 0ZM81.3826 5.19666L79.5232 1.04887L77.6638 5.19666H81.3826ZM0.858188 0.0476642H1.71635L6.81766 6.53157V0.0476642H7.7235V8.15255H7.00837L1.76403 1.52561V8.15255H0.858188V0.0476642ZM16.8772 20.7866C16.8772 17.0203 19.6901 14.1597 23.5518 14.1597C27.8903 14.1597 30.0834 17.3063 30.0834 20.5959C30.0834 24.3623 27.1752 27.1275 23.5518 27.1275C19.404 27.1275 16.8772 24.1716 16.8772 20.7866ZM28.1764 21.1681C28.1764 18.0691 26.7938 14.7318 23.2181 14.7318C21.2634 14.7318 18.7365 16.0667 18.7365 20.1669C18.7365 22.9321 20.0715 26.5554 23.7902 26.5554C26.0309 26.5554 28.1764 24.8868 28.1764 21.1681ZM2.38379 15.7807C3.76639 14.7318 5.48272 14.2074 7.43743 14.2074C8.43862 14.2074 9.86889 14.3981 10.7747 14.6365C10.8542 14.6524 10.9178 14.6683 10.9743 14.6824C11.0873 14.7106 11.172 14.7318 11.2992 14.7318C11.2992 15.1609 11.3945 16.3528 11.5852 17.497C11.4899 17.6401 11.2038 17.6401 11.0608 17.5447C10.7747 16.2575 9.91657 14.8272 7.19905 14.8272C4.3385 14.8272 1.90703 16.6389 1.90703 20.5483C1.90703 24.5054 4.38617 26.6508 7.4851 26.6508C9.91657 26.6508 10.9654 25.0775 11.3945 23.9809C11.5375 23.8856 11.8236 23.9333 11.8713 24.0763C11.7282 25.0298 11.2515 26.2694 10.9654 26.6508C10.7271 26.6985 10.5364 26.7461 10.298 26.8415C9.86889 26.9845 8.53397 27.2706 7.34207 27.2706C5.67342 27.2706 4.05244 26.9368 2.66984 26.031C1.19189 24.9821 0 23.3135 0 20.882C0.0476758 18.6413 0.953516 16.8772 2.38379 15.7807ZM35.8523 14.8749C37.0442 14.9702 37.0919 15.3039 37.0919 17.2586V23.9809C37.0919 25.9356 37.0442 26.2217 35.9476 26.317L35.3755 26.3647C35.2802 26.5077 35.3279 26.7938 35.4232 26.8415C36.4721 26.7938 37.0442 26.7938 37.8547 26.7938H39.571C41.5257 26.7938 43.2897 26.7938 44.2432 26.8415C44.5293 26.317 45.0537 24.41 45.0537 24.2193C45.0537 24.124 44.6723 24.0286 44.577 24.124C44.1956 25.0775 43.7188 25.7449 43.3374 25.9833C43.0513 26.1263 42.6223 26.2217 41.049 26.2217C39.571 26.2217 39.1896 25.9833 38.9989 25.7926C38.6652 25.4589 38.6175 24.9821 38.6175 23.7902V17.2586C38.6175 15.2563 38.6652 14.9702 39.7617 14.8749L40.1908 14.8272C40.2861 14.7318 40.2385 14.3981 40.1431 14.3504C39.2373 14.3981 38.5698 14.3981 37.8547 14.3981C37.0919 14.3981 36.4721 14.3981 35.4232 14.3504C35.2802 14.3981 35.2802 14.7318 35.3755 14.8272L35.8523 14.8749ZM51.2038 17.2586C51.2038 15.3039 51.1561 14.9702 49.9643 14.8749L49.4875 14.8272C49.3921 14.7318 49.3921 14.3981 49.5352 14.3504C50.584 14.3981 51.2038 14.3981 51.9666 14.3981C52.6818 14.3981 53.3492 14.3981 54.2551 14.3504C54.3504 14.3981 54.3981 14.7318 54.3027 14.8272L53.8737 14.8749C52.7771 14.9702 52.7295 15.2563 52.7295 17.2586V23.7902C52.7295 24.9821 52.7771 25.4589 53.1109 25.7926C53.3016 25.9833 53.683 26.2217 55.1609 26.2217C56.7342 26.2217 57.1633 26.1263 57.4494 25.9833C57.8308 25.7449 58.3075 25.0775 58.6889 24.124C58.7843 24.0286 59.1657 24.124 59.1657 24.2193C59.1657 24.41 58.6413 26.317 58.3552 26.8415C57.4017 26.7938 55.6377 26.7938 53.683 26.7938H51.9666C51.1562 26.7938 50.584 26.7938 49.5352 26.8415C49.4398 26.7938 49.3921 26.5077 49.4875 26.3647L50.0596 26.317C51.1562 26.2217 51.2038 25.9356 51.2038 23.9809V17.2586ZM64.1716 14.8749C65.2682 15.0179 65.3158 15.3039 65.3158 17.2586H65.2205V24.0763C65.2205 26.031 65.1251 26.317 64.0763 26.4124L63.4565 26.4601C63.3611 26.6031 63.4088 26.8892 63.5042 26.9368C64.6484 26.8892 65.2682 26.8892 66.0787 26.8892H67.7473C69.416 26.8892 71.0846 26.8892 72.7533 26.9368C72.9916 26.4124 73.4684 24.9821 73.6114 24.3147C73.5161 24.124 73.2777 24.0763 73.1347 24.1716C72.6579 25.1252 72.1335 25.7926 71.7998 25.9833C71.4183 26.174 70.8462 26.2694 69.416 26.2694C67.7473 26.2694 67.3659 26.0787 67.1275 25.8403C66.8415 25.5066 66.7938 24.8868 66.7938 23.8856V21.2634C66.7938 20.739 66.8415 20.739 67.4136 20.739H68.5101C69.2253 20.739 69.6543 20.739 69.9404 20.8343C70.3218 20.9297 70.4172 21.2157 70.5125 21.5495L70.7032 22.2646C70.7986 22.4076 71.0846 22.4076 71.18 22.2646C71.18 22.0742 71.1611 21.8275 71.1402 21.5536L71.1402 21.5523L71.1401 21.5521V21.552V21.5518V21.5517V21.5516V21.5515V21.5514V21.5513C71.114 21.2085 71.0846 20.8234 71.0846 20.4529C71.0846 20.0499 71.1149 19.6318 71.1413 19.2668C71.1618 18.9841 71.18 18.7332 71.18 18.5459C71.1323 18.4505 70.7986 18.4505 70.7032 18.5459L70.5602 19.3087C70.4648 19.7855 70.3695 19.8808 70.1311 19.9762C69.9404 20.0238 69.3683 20.0715 68.5578 20.0715H67.4613C66.8891 20.0715 66.8415 20.0715 66.8415 19.5471V15.7807C66.8415 15.0656 66.8415 15.0179 67.4136 15.0179H68.7485C69.559 15.0179 70.1788 15.0179 70.5602 15.1132C71.4864 15.3338 71.6782 15.9215 71.9282 16.6877L71.9283 16.688C71.9427 16.7323 71.9574 16.7772 71.9724 16.8227L71.9905 16.8772C72.0858 16.9726 72.3719 16.9249 72.4672 16.8296C72.4195 16.0191 72.2765 14.6842 72.1812 14.3504C71.9428 14.3981 70.8462 14.3981 69.6543 14.3981H66.1263C65.3635 14.3981 64.7437 14.3981 63.9332 14.3504C63.7902 14.3981 63.7902 14.7318 63.8856 14.8272L64.1716 14.8749ZM89.8212 24.9345C89.8212 25.6973 89.9166 26.1263 90.2503 26.2694C90.298 26.3171 90.298 26.4601 90.2503 26.5078C90.0119 26.5078 89.6782 26.6031 89.3445 26.6985C88.3433 26.9845 87.0083 27.1752 86.0072 27.1752C83.7664 27.1752 81.7163 26.5554 80.2861 25.0775C79.1418 23.9333 78.5697 22.4553 78.5697 20.8343C78.5697 19.261 79.0942 17.6401 80.2384 16.4005C81.478 15.0656 83.3373 14.2074 86.1979 14.2074C87.2467 14.2074 88.2479 14.3981 88.5817 14.4935C88.9154 14.5888 89.5352 14.6842 89.7259 14.6842C89.7259 15.3039 89.8212 16.2575 90.0119 17.4017C89.9642 17.5447 89.6305 17.5924 89.4875 17.4494C88.9631 15.3993 87.5328 14.7795 85.6257 14.7795C82.0024 14.7795 80.3814 17.354 80.3814 20.1669C80.3814 23.7902 82.2408 26.6031 86.0072 26.6031C87.1514 26.6031 87.8665 26.3647 88.0572 26.031C88.1526 25.888 88.2479 25.5542 88.2479 24.9821V24.2193C88.2479 22.646 88.2002 22.5507 87.0084 22.4076L86.1979 22.3123C86.0548 22.2169 86.0548 21.8832 86.1979 21.8355C86.7223 21.8832 87.7712 21.8832 88.8677 21.8832C89.5828 21.8832 90.2503 21.8832 90.8701 21.8355C91.0131 21.9309 91.0131 22.1693 90.8701 22.3123L90.584 22.36C89.7735 22.4553 89.7736 22.9797 89.7736 23.9333V24.9345H89.8212ZM96.6865 14.9225C97.7831 15.0179 97.8308 15.3039 97.8308 17.3063V23.9809C97.8308 25.9833 97.7831 26.2217 96.6865 26.3647L96.2098 26.4124C96.1144 26.5554 96.1621 26.8415 96.2575 26.8891C97.211 26.8415 97.8308 26.8415 98.6412 26.8415C99.4041 26.8415 100.024 26.8415 100.977 26.8891C101.12 26.8415 101.12 26.5077 101.025 26.4124L100.548 26.3647C99.4517 26.2217 99.4041 25.9833 99.4041 23.9809V17.3063C99.4041 15.3516 99.4517 15.0179 100.548 14.9225L101.025 14.8748C101.12 14.7795 101.073 14.4458 100.977 14.3981C100.024 14.4458 99.4041 14.4458 98.6412 14.4458C97.8308 14.4458 97.211 14.4458 96.2575 14.3981C96.1144 14.4458 96.1144 14.7795 96.2098 14.8748L96.6865 14.9225ZM116.853 19.1657C116.853 18.0215 116.806 15.8284 116.52 15.3039C116.377 15.0656 116.043 14.9702 115.566 14.9225L115.089 14.8749C114.994 14.7318 114.994 14.4935 115.137 14.4458C115.852 14.4935 116.567 14.4935 117.282 14.4935C118.093 14.4935 118.57 14.4935 119.237 14.4458C119.38 14.5411 119.38 14.7795 119.285 14.8749L118.856 14.9225C118.379 14.9702 118.045 15.1132 117.902 15.3516C117.616 15.9714 117.616 18.1168 117.616 19.1657V21.2634C117.616 22.8844 117.33 24.6007 116.281 25.7449C115.471 26.6031 114.088 27.1275 112.706 27.1275C111.418 27.1275 110.131 26.8892 109.178 26.0787C108.176 25.2682 107.7 23.8856 107.7 21.6448V17.211C107.7 15.2563 107.652 14.9225 106.555 14.8272L106.079 14.7795C105.983 14.6842 105.983 14.3981 106.126 14.3504C107.08 14.3981 107.7 14.3981 108.462 14.3981C109.225 14.3981 109.845 14.3981 110.751 14.3504C110.846 14.3981 110.894 14.7318 110.799 14.7795L110.369 14.8272C109.273 14.9225 109.225 15.2563 109.225 17.211V21.2634C109.225 24.267 110.179 26.2694 113.039 26.2694C115.757 26.2694 116.806 24.124 116.806 21.2634V19.1657H116.853ZM130.966 22.7047L130.965 22.7043C130.822 22.413 130.679 22.1216 130.536 21.8355L128.439 17.497C127.866 16.3051 127.39 15.1132 127.485 14.3981C126.865 14.4458 126.341 14.4458 125.912 14.4458C125.435 14.4458 125.006 14.4458 124.434 14.3981C124.243 14.4934 124.243 14.7795 124.338 14.8748L124.625 14.9225C125.769 15.0655 125.912 15.3516 125.864 16.5435C125.864 17.5924 125.769 19.1657 125.673 20.739C125.595 21.7577 125.531 22.5332 125.473 23.23L125.473 23.2378L125.473 23.2399C125.425 23.8109 125.383 24.3296 125.34 24.8868C125.244 26.174 125.006 26.317 124.195 26.4124L123.766 26.4601C123.671 26.5554 123.719 26.8415 123.814 26.9368C124.434 26.8891 125.101 26.8891 125.721 26.8891H125.721H125.721C126.436 26.8891 127.199 26.8891 127.819 26.9368C127.914 26.8891 127.962 26.5554 127.819 26.4601L127.104 26.4124C126.341 26.317 126.246 26.031 126.246 24.6484C126.246 23.3553 126.306 22.032 126.355 20.9686L126.355 20.9656C126.367 20.6971 126.379 20.4452 126.389 20.2145C126.436 19.118 126.484 18.0214 126.579 16.8772H126.627C126.818 17.3063 127.02 17.7712 127.223 18.236C127.425 18.7009 127.628 19.1657 127.819 19.5947L129.487 23.2181C129.605 23.4794 129.758 23.805 129.926 24.1608L129.928 24.1658L129.929 24.1663L129.93 24.1684C130.373 25.1097 130.914 26.2596 131.156 26.9845C131.204 27.0798 131.299 27.0799 131.347 27.0799C131.442 27.0799 131.49 27.0322 131.538 26.9845C131.871 26.1263 132.682 24.3623 133.54 22.6937L135.209 19.404C135.374 19.0946 135.601 18.6334 135.818 18.1943L135.818 18.1937L135.819 18.1923L135.819 18.1922C136.061 17.7019 136.289 17.2395 136.401 17.047L136.448 24.7914C136.448 25.9833 136.448 26.2694 135.542 26.3647L135.018 26.4124C134.923 26.5554 134.923 26.7938 135.066 26.8891C135.828 26.8415 136.687 26.8415 137.354 26.8415C138.021 26.8415 138.784 26.8415 139.547 26.8891C139.69 26.7938 139.69 26.5077 139.595 26.4124L138.975 26.3647C138.14 26.2719 138.117 25.8179 138.073 24.9147L138.069 24.8391C137.97 22.984 137.939 20.7376 137.914 18.8676V18.8675L137.914 18.8631C137.903 18.0436 137.893 17.2965 137.878 16.6865C137.878 15.3993 138.021 15.0179 139.213 14.9225L139.595 14.8748C139.69 14.7795 139.69 14.4934 139.595 14.3981C139.023 14.4458 138.403 14.4458 137.926 14.4458C137.545 14.4458 137.116 14.4458 136.496 14.3981C136.451 15.2552 135.979 16.1976 135.201 17.7505L135.066 18.0214L133.302 21.5971C133.158 21.8841 133.019 22.1753 132.88 22.4657L132.88 22.4658C132.558 23.1403 132.238 23.8101 131.871 24.41H131.824C131.538 23.8698 131.252 23.2872 130.966 22.7047ZM1.95473 36.472C1.95473 36.584 1.95473 36.6433 1.98436 36.6748C2.01783 36.7104 2.08908 36.7104 2.24079 36.7104H2.86057C3.24198 36.7104 3.52803 36.7104 3.62338 36.6627C3.71873 36.615 3.81409 36.5673 3.86176 36.3766L3.95711 36.0429C4.00479 35.9952 4.14782 35.9952 4.19549 36.0429C4.19549 36.125 4.18666 36.2425 4.17659 36.3762C4.16328 36.5532 4.14782 36.7587 4.14782 36.9488C4.14782 37.1388 4.16328 37.3289 4.17659 37.4925C4.18666 37.6162 4.19549 37.7248 4.19549 37.8069C4.14782 37.8546 4.00479 37.8546 3.95711 37.8069L3.86176 37.4732C3.81409 37.3302 3.76641 37.1871 3.57571 37.1395C3.43268 37.0918 3.24198 37.0918 2.90825 37.0918H2.24079C2.08908 37.0918 2.01783 37.0918 1.98436 37.1273C1.95473 37.1588 1.95473 37.2182 1.95473 37.3302V38.5697C1.95473 39.4756 1.95473 39.6186 2.47916 39.6663L2.76522 39.714C2.8129 39.7616 2.8129 39.9047 2.76522 39.9523C2.48217 39.9523 2.26856 39.9384 2.07192 39.9257H2.07186H2.07182H2.07179C1.90415 39.9148 1.74883 39.9047 1.57332 39.9047C1.19192 39.9047 0.905863 39.9047 0.476781 39.9523C0.429105 39.9047 0.429105 39.8093 0.476781 39.714L0.667484 39.5709C1.19192 39.5232 1.19192 39.3802 1.19192 38.4744V35.2801C1.19192 34.3743 1.19192 34.2312 0.667484 34.1836H0.524457C0.476781 34.1359 0.476781 33.9929 0.524457 33.9452C0.72149 33.9452 0.893076 33.9579 1.05893 33.9702L1.05902 33.9702H1.05908H1.05914H1.05919H1.05923H1.05927H1.0593C1.21437 33.9817 1.36445 33.9929 1.52565 33.9929H3.14663C3.71873 33.9929 4.24317 33.9929 4.33852 33.9452C4.33852 34.3743 4.33852 34.7557 4.3862 35.0894C4.33852 35.1371 4.24317 35.1847 4.19549 35.1371C4.14782 34.7557 4.00479 34.4219 3.57571 34.2789C3.385 34.2312 3.09895 34.2312 2.71754 34.2312H2.19311C2.05743 34.2312 1.9861 34.2312 1.94861 34.2668C1.90706 34.3063 1.90706 34.3895 1.90706 34.565V36.472H1.95473ZM9.24913 33.8498C7.43745 33.8498 6.10253 35.1847 6.10253 36.9487C6.10253 38.5697 7.29442 39.9523 9.24913 40C10.9178 40 12.3004 38.6651 12.3004 36.9011C12.3004 35.3278 11.2992 33.8498 9.24913 33.8498ZM9.1061 34.0882C10.7748 34.0882 11.4422 35.6615 11.4422 37.1395C11.4422 38.9035 10.441 39.6663 9.39216 39.6663C7.62815 39.6663 7.00837 37.9499 7.00837 36.6627C7.00837 34.708 8.20026 34.0882 9.1061 34.0882ZM14.7318 35.3278C14.7318 34.4696 14.6841 34.3266 14.3504 34.2789L14.0643 34.2312C14.0167 34.1836 14.0167 34.0405 14.0643 33.9929C14.5411 33.9452 15.1609 33.9452 16.019 33.9452C16.5435 33.9452 17.0679 33.9929 17.497 34.2312C17.9261 34.4696 18.2121 34.851 18.2121 35.4708C18.2121 36.329 17.5447 36.758 17.1156 36.9488C17.0679 36.9964 17.1156 37.0918 17.1633 37.1395C17.8784 38.2837 18.3552 38.9988 18.9273 39.4756C19.0703 39.6186 19.3087 39.714 19.5471 39.714C19.5947 39.714 19.5947 39.8093 19.5471 39.857C19.4517 39.9047 19.3087 39.9047 19.1656 39.9047C18.4028 39.9047 17.9738 39.6663 17.354 38.8081C17.2474 38.6589 17.1218 38.4525 16.9899 38.2359L16.9898 38.2358L16.9898 38.2357L16.9896 38.2355L16.9895 38.2353C16.8265 37.9675 16.6539 37.6839 16.4958 37.4732C16.3528 37.2825 16.2097 37.1871 15.876 37.1871C15.4946 37.1871 15.4469 37.1871 15.4469 37.3778V38.4744C15.4469 39.3802 15.4469 39.5232 15.9714 39.5709L16.1621 39.6186C16.2097 39.6663 16.2097 39.8093 16.1621 39.857C15.965 39.857 15.7807 39.8443 15.6026 39.832L15.6025 39.8319C15.4358 39.8204 15.2745 39.8093 15.1132 39.8093C14.7318 39.8093 14.4457 39.8093 14.0167 39.857C13.969 39.8093 13.969 39.7139 14.0167 39.6186L14.255 39.5709C14.7795 39.5232 14.7795 39.3802 14.7795 38.4744V35.3278H14.7318ZM15.4469 36.5673C15.4469 36.7104 15.4469 36.8057 15.4946 36.8534C15.5423 36.9011 15.6376 36.9011 16.1144 36.9011C16.4481 36.9011 16.7819 36.8534 17.0202 36.6627C17.2586 36.472 17.4493 36.1859 17.4493 35.5662C17.4493 34.851 17.0202 34.1836 16.019 34.1836C15.4469 34.1836 15.4469 34.2312 15.4469 34.4696V36.5673ZM27.1751 33.8498C26.2693 33.8498 25.4588 34.0882 24.7913 34.6126C24.1239 35.1371 23.6471 35.9476 23.7901 36.9011C23.7901 38.0453 24.3146 38.8558 25.0297 39.3325C25.6495 39.7616 26.4123 39.9046 27.2228 39.9046C27.7949 39.9046 28.4147 39.7616 28.6054 39.7139C28.7008 39.6663 28.7961 39.6186 28.8915 39.6186C29.0345 39.4756 29.2729 38.9035 29.3205 38.4267C29.2729 38.3313 29.1298 38.3313 29.0822 38.379C28.8438 38.8558 28.367 39.6186 27.2228 39.6186C25.7925 39.6186 24.6006 38.6174 24.6006 36.758C24.6006 34.9464 25.7449 34.0882 27.0798 34.0882C28.367 34.0882 28.7484 34.7557 28.8915 35.3754C28.9391 35.4231 29.0822 35.4231 29.1298 35.3754C29.0345 34.851 28.9868 34.2789 28.9868 34.0882C28.9391 34.0882 28.8438 34.0882 28.7484 34.0405C28.3193 33.9452 27.6519 33.8498 27.1751 33.8498ZM35.6614 36.1859C35.6614 35.6615 35.6614 34.6126 35.4707 34.3742C35.4231 34.2789 35.2324 34.1835 35.0417 34.1835H34.8033C34.7556 34.1359 34.7556 33.9928 34.8033 33.9928C34.9701 33.9928 35.1369 34.0048 35.3037 34.0167L35.3039 34.0167L35.3041 34.0167C35.4709 34.0286 35.6377 34.0405 35.8045 34.0405C36.1859 34.0405 36.4243 34.0405 36.7103 33.9928C36.758 34.0405 36.758 34.1359 36.7103 34.1835H36.5196C36.2812 34.1835 36.1382 34.2789 36.0905 34.3742C35.9475 34.6603 35.9475 35.6615 35.9475 36.1859V37.1871C35.9475 37.9499 35.8045 38.7604 35.3277 39.2849C34.9463 39.7139 34.2789 39.9523 33.6591 39.9523C33.0393 39.9523 32.4195 39.857 31.9904 39.4756C31.5137 39.0942 31.323 38.4267 31.323 37.3778V35.2801C31.323 34.3742 31.323 34.2312 30.7985 34.1835H30.5601C30.5125 34.1359 30.5125 33.9928 30.5601 33.9928C30.7881 33.9928 30.9892 34.0063 31.1776 34.0189H31.1777H31.1777H31.1778C31.3439 34.03 31.5003 34.0405 31.6567 34.0405C32.0381 34.0405 32.3241 34.0405 32.7532 33.9928C32.8009 34.0405 32.8009 34.1835 32.7532 34.1835H32.5625C32.0381 34.2312 32.0381 34.3742 32.0381 35.2801V37.1871C32.0381 38.6174 32.4672 39.5232 33.8498 39.5232C35.137 39.5232 35.6138 38.522 35.6138 37.1871V36.1859H35.6614ZM38.3313 34.2312C38.9034 34.2789 38.9034 34.4219 38.9034 35.3278H38.9511V38.4744C38.9511 39.3802 38.9511 39.5232 38.4267 39.5709L38.1406 39.6186C38.0929 39.7139 38.0929 39.8093 38.1406 39.857C38.6174 39.8093 38.9034 39.8093 39.2848 39.8093H40.0953C40.6308 39.8093 41.1497 39.826 41.5731 39.8396H41.5732H41.5732L41.5735 39.8396H41.5736H41.5737H41.5738H41.5739H41.5739L41.5741 39.8396H41.5743H41.5744H41.5745H41.5745H41.5746L41.5748 39.8396H41.5749H41.575H41.5751H41.5752H41.5753L41.5754 39.8396H41.5756C41.8673 39.849 42.1135 39.857 42.2884 39.857C42.4314 39.6186 42.6698 38.7127 42.6698 38.6174C42.6698 38.5697 42.4791 38.522 42.4314 38.5697C42.2884 38.9988 42.05 39.3325 41.8593 39.4279C41.7163 39.4756 41.5256 39.5232 40.7628 39.5232C40.0953 39.5232 39.9046 39.4279 39.8093 39.3325C39.6662 39.1895 39.6186 38.9511 39.6186 38.379V35.3278C39.6186 34.4219 39.6186 34.2789 40.143 34.2312H40.3337C40.3814 34.1835 40.3814 34.0405 40.3337 33.9928C39.9046 34.0405 39.5709 34.0405 39.2372 34.0405C39.0851 34.0405 38.9331 34.0306 38.7676 34.0199C38.5697 34.007 38.3525 33.9928 38.0929 33.9928C38.0453 34.0405 38.0453 34.1835 38.0929 34.2312H38.3313ZM45.9117 38.4744C45.9117 39.3802 45.9117 39.5232 46.4362 39.5709L46.7222 39.6186C46.7699 39.6663 46.7699 39.8093 46.7222 39.857C46.4305 39.857 46.2125 39.8422 46.0191 39.8291C45.8648 39.8187 45.7261 39.8093 45.578 39.8093C45.2443 39.8093 44.9105 39.8093 44.3384 39.857C44.2907 39.8093 44.2907 39.6663 44.3384 39.6186L44.6722 39.5709C45.1966 39.5232 45.1966 39.3802 45.1966 38.4744V34.5173C45.1966 34.3743 45.1966 34.3027 45.1608 34.267C45.1251 34.2312 45.0536 34.2312 44.9106 34.2312H44.9105H44.4338C44.0524 34.2312 43.5756 34.2312 43.3372 34.4696C43.1465 34.6603 43.0512 34.851 42.9558 35.0894C42.9081 35.1371 42.7651 35.0894 42.7174 35.0417C42.8605 34.6603 43.0035 34.0882 43.0512 33.7068C43.0656 33.7068 43.0844 33.7024 43.1049 33.6977C43.1522 33.6867 43.2086 33.6736 43.2419 33.7068C43.2896 33.9929 43.5756 33.9929 44.0047 33.9929H47.5804C48.0571 33.9929 48.1525 33.9929 48.2478 33.7545C48.2955 33.7545 48.3909 33.7545 48.3909 33.8022C48.2955 34.1836 48.2478 34.8987 48.2478 35.1371C48.2002 35.1847 48.0571 35.1847 48.0095 35.1371L47.9993 35.0859C47.9546 34.859 47.904 34.6025 47.7711 34.4696C47.5804 34.3266 47.2466 34.2312 46.7699 34.2312H46.1501C46.0151 34.2312 45.9544 34.2312 45.928 34.2613C45.9064 34.2859 45.9077 34.3304 45.9099 34.4114L45.9111 34.4584C45.9115 34.4766 45.9117 34.4962 45.9117 34.5173V38.4744ZM54.4935 34.3742C54.6842 34.6126 54.6842 35.6615 54.6842 36.1859H54.6365V37.1871C54.6365 38.522 54.1597 39.5232 52.8725 39.5232C51.4899 39.5232 51.0608 38.6174 51.0608 37.1871V35.2801C51.0608 34.3742 51.0608 34.2312 51.5852 34.1835H51.7759C51.8236 34.1835 51.8236 34.0405 51.7759 33.9928C51.3469 34.0405 51.0608 34.0405 50.6794 34.0405C50.523 34.0405 50.3667 34.03 50.2005 34.0189H50.2005H50.2005H50.2004H50.2004H50.2003C50.0119 34.0063 49.8108 33.9928 49.5829 33.9928C49.5352 33.9928 49.5352 34.1359 49.5829 34.1835H49.8212C50.3457 34.2312 50.3457 34.3742 50.3457 35.2801V37.3778C50.3457 38.4267 50.5364 39.0942 51.0131 39.4756C51.4422 39.857 52.062 39.9523 52.6818 39.9523C53.3016 39.9523 53.969 39.7139 54.3504 39.2849C54.8272 38.7604 54.9702 37.9499 54.9702 37.1871V36.1859C54.9702 35.6615 54.9702 34.6603 55.1132 34.3742C55.1609 34.2789 55.3039 34.1835 55.5423 34.1835H55.733C55.7807 34.1359 55.7807 34.0405 55.733 33.9928C55.447 34.0405 55.2086 34.0405 54.8272 34.0405C54.6603 34.0405 54.4935 34.0286 54.3266 34.0167C54.1597 34.0048 53.9929 33.9928 53.826 33.9928C53.7783 33.9928 53.7783 34.1359 53.826 34.1835H54.0644C54.2551 34.1835 54.4458 34.2789 54.4935 34.3742ZM57.9737 35.3278C57.9737 34.4696 57.926 34.3266 57.5923 34.2789L57.3063 34.2312C57.2586 34.1836 57.2586 34.0405 57.3063 33.9929C57.783 33.9452 58.4028 33.9452 59.261 33.9452C59.7854 33.9452 60.3098 33.9929 60.7389 34.2312C61.168 34.4696 61.4541 34.851 61.4541 35.4708C61.4541 36.329 60.7866 36.758 60.3575 36.9488C60.3098 36.9964 60.3575 37.0918 60.4052 37.1395C61.1203 38.2837 61.5971 38.9988 62.1692 39.4756C62.3122 39.6186 62.5506 39.714 62.789 39.714C62.8367 39.714 62.8367 39.8093 62.789 39.857C62.6936 39.9047 62.5506 39.9047 62.4076 39.9047C61.6448 39.9047 61.2157 39.6663 60.5959 38.8081C60.4893 38.6589 60.3637 38.4525 60.2318 38.2358C60.0686 37.9678 59.8959 37.6841 59.7377 37.4732C59.5947 37.2825 59.4517 37.1871 59.1179 37.1871C58.7365 37.1871 58.6889 37.1871 58.6889 37.3778V38.4744C58.6889 39.3802 58.6889 39.5232 59.2133 39.5709L59.404 39.6186C59.4517 39.6663 59.4517 39.8093 59.404 39.857C59.207 39.857 59.0227 39.8443 58.8445 39.832L58.8444 39.8319C58.6777 39.8204 58.5164 39.8093 58.3551 39.8093C57.9737 39.8093 57.6877 39.8093 57.2586 39.857C57.2109 39.8093 57.2109 39.7139 57.2586 39.6186L57.497 39.5709C58.0214 39.5232 58.0214 39.3802 58.0214 38.4744V35.3278H57.9737ZM58.6889 36.5673C58.6889 36.7104 58.6889 36.8057 58.7365 36.8534C58.7842 36.9011 58.8796 36.9011 59.3563 36.9011C59.6901 36.9011 60.0238 36.8534 60.2622 36.6627C60.5005 36.472 60.6912 36.1859 60.6912 35.5662C60.6912 34.851 60.2622 34.1836 59.261 34.1836C58.7365 34.1836 58.6889 34.2312 58.6889 34.4696V36.5673ZM63.9809 34.2312C64.5054 34.2789 64.5054 34.4219 64.5054 35.3278V38.4744C64.5054 39.3802 64.5054 39.5232 63.9809 39.5709H63.6472C63.5995 39.6663 63.5995 39.7616 63.6472 39.8093C64.1716 39.7616 64.4577 39.7616 64.839 39.7616H64.8391H65.6496C66.0548 39.7616 66.4482 39.7735 66.8415 39.7854L66.8419 39.7855C67.2351 39.7974 67.6283 39.8093 68.0334 39.8093C68.1287 39.5709 68.3671 38.8558 68.4148 38.5697C68.3671 38.522 68.2241 38.4744 68.1764 38.522C67.938 38.9988 67.6997 39.2849 67.5566 39.3802C67.3659 39.4756 67.0799 39.5232 66.4124 39.5232C65.6496 39.5232 65.4589 39.4279 65.3635 39.3325C65.2205 39.1895 65.1728 38.9034 65.1728 38.4267V37.1871C65.1728 37.0752 65.1728 37.0158 65.2025 36.9843C65.2359 36.9487 65.3072 36.9487 65.4589 36.9487H65.9833C66.3171 36.9487 66.5078 36.9487 66.6508 36.9964C66.8415 37.0441 66.8892 37.1871 66.9368 37.3301L67.0322 37.6639C67.0799 37.7116 67.2229 37.7116 67.2706 37.6639C67.2706 37.5818 67.2617 37.4732 67.2517 37.3495V37.3494V37.3493V37.3492L67.2517 37.3491C67.2383 37.1855 67.2229 36.9956 67.2229 36.8057C67.2229 36.6158 67.2383 36.4105 67.2517 36.2337L67.2517 36.2335V36.2334V36.2333V36.2332C67.2617 36.0994 67.2706 35.982 67.2706 35.8999C67.2229 35.8522 67.0799 35.8522 67.0322 35.8999L66.9845 36.2813C66.9845 36.472 66.8892 36.5197 66.7938 36.5673C66.6985 36.615 66.4124 36.615 66.031 36.615H65.5066C65.2682 36.615 65.2205 36.615 65.2205 36.3766V34.6126V34.6125C65.2205 34.4372 65.2205 34.354 65.2621 34.3145C65.2996 34.2789 65.3709 34.2789 65.5066 34.2789H66.1264C66.5078 34.2789 66.7938 34.2789 66.9845 34.3266C67.4165 34.4562 67.4962 34.7032 67.6138 35.0677C67.626 35.1055 67.6386 35.1445 67.652 35.1847C67.6997 35.2324 67.8427 35.2324 67.8904 35.1847C67.8767 35.0621 67.8631 34.924 67.8495 34.7858C67.8155 34.4404 67.7814 34.095 67.7473 33.9928C67.652 34.0405 67.1275 34.0405 66.5554 34.0405H64.8868C64.6961 34.0405 64.5292 34.0286 64.3624 34.0167C64.1955 34.0048 64.0286 33.9928 63.8379 33.9928C63.7902 34.0405 63.7902 34.1835 63.8379 34.2312H63.9809ZM76.1382 37.7592C76.0905 37.5685 76.0428 37.5209 75.7568 37.5209H74.4219C74.1835 37.5209 74.1358 37.5685 74.0881 37.7116L73.8021 38.6174C73.659 38.9988 73.6114 39.2372 73.6114 39.3325C73.6114 39.4279 73.659 39.4756 73.8497 39.5232L74.1358 39.5709C74.1835 39.6186 74.1835 39.7616 74.1358 39.8093C73.8974 39.8093 73.6114 39.8093 73.2299 39.7616H73.2299C72.9439 39.7616 72.6102 39.7616 72.3718 39.8093C72.3241 39.7616 72.3241 39.6186 72.3718 39.5709L72.6578 39.5232C72.8485 39.5232 73.0869 39.4279 73.1823 39.0942C73.2435 38.9104 73.331 38.7005 73.4372 38.4456L73.4373 38.4455L73.4374 38.4451L73.4375 38.4449L73.4376 38.4447L73.4379 38.444C73.5796 38.1039 73.7546 37.6838 73.9451 37.1395L74.8509 34.7557C74.994 34.4219 75.0416 34.2789 74.994 34.1359C75.1847 34.0882 75.3754 33.8975 75.4707 33.8022C75.5184 33.8022 75.5661 33.8022 75.6137 33.8975C75.7091 34.2789 75.8521 34.708 75.9952 35.0894L77.187 38.6174C77.4254 39.3802 77.5685 39.5232 77.9499 39.5709L78.1882 39.6186C78.2359 39.6663 78.2359 39.8093 78.1882 39.857C77.9976 39.857 77.8307 39.8451 77.6639 39.8331L77.6638 39.8331L77.6637 39.8331C77.4969 39.8212 77.33 39.8093 77.1394 39.8093C76.7103 39.8093 76.3766 39.8093 76.1382 39.857C76.0905 39.8093 76.0428 39.6663 76.1382 39.6186L76.3766 39.5709C76.5673 39.5709 76.6626 39.5232 76.6626 39.4279C76.6626 39.369 76.6444 39.2919 76.6193 39.1853L76.6192 39.1852L76.6192 39.185C76.6036 39.1192 76.5854 39.0421 76.5673 38.9511L76.1382 37.7592ZM74.3742 36.9964C74.3518 37.0861 74.3399 37.1336 74.3584 37.1588C74.3792 37.1871 74.4386 37.1871 74.5649 37.1871H75.6614C75.8998 37.1871 75.9475 37.1395 75.8521 36.9011L75.3754 35.4708C75.3421 35.338 75.2858 35.1819 75.2385 35.0512L75.2385 35.051L75.2384 35.0508C75.2179 34.994 75.1991 34.942 75.1847 34.8987C75.1504 34.933 75.116 35.0414 75.0639 35.2062L75.0638 35.2064L75.0638 35.2066L75.0638 35.2067L75.0637 35.2068L75.0637 35.2071L75.0633 35.2082C75.0432 35.2718 75.0204 35.3438 74.994 35.4231L74.3742 36.9964ZM84.8152 39.857C84.7675 39.6663 84.7675 38.6174 84.7675 38.3314H84.8629V36.1859C84.8629 35.8045 84.8629 34.708 85.0059 34.3743C85.0059 34.2789 85.1966 34.2312 85.4827 34.1836H85.6257C85.6733 34.0882 85.6733 33.9929 85.6257 33.9452C85.3396 33.9929 85.1012 33.9929 84.7198 33.9929C84.5634 33.9929 84.4175 33.9824 84.2624 33.9713C84.0866 33.9586 83.899 33.9452 83.671 33.9452C83.6233 33.9929 83.6233 34.1359 83.671 34.1836H83.814C84.1477 34.2312 84.2908 34.2789 84.3384 34.3743C84.5291 34.6126 84.5291 35.7569 84.5291 36.1859V38.093C84.5291 38.2837 84.5291 38.4267 84.4815 38.4744C84.2368 38.2297 83.9921 37.954 83.712 37.6384L83.7117 37.638C83.5007 37.4004 83.2697 37.1401 83.0035 36.8534L82.1454 35.8999C82.1172 35.8671 82.0817 35.826 82.0404 35.7781C81.6614 35.3392 80.7917 34.3321 80.6197 33.9452C80.4767 33.9929 80.3337 33.9929 80.1907 33.9929C80.0476 33.9929 79.5709 33.9929 79.1895 33.9452C79.1418 33.9929 79.1418 34.1359 79.1895 34.1836H79.3325C79.5232 34.1836 79.7139 34.2312 79.8569 34.3743C80.0476 34.565 80.0476 34.7557 80.0476 34.994V37.5685C80.0476 37.6436 80.0491 37.7375 80.0507 37.8433C80.0585 38.3426 80.0703 39.1048 79.9523 39.3802C79.9046 39.4756 79.7616 39.5232 79.5709 39.5709L79.3325 39.6186C79.2848 39.7139 79.2848 39.8093 79.3325 39.857C79.6185 39.8093 79.8569 39.8093 80.2383 39.8093C80.3996 39.8093 80.5609 39.8204 80.7276 39.8319L80.7277 39.832C80.9058 39.8443 81.0902 39.857 81.2872 39.857C81.3349 39.8093 81.3349 39.6663 81.2872 39.6186L81.0011 39.5709C80.8104 39.5232 80.6197 39.4756 80.5721 39.3802C80.429 39.1418 80.429 37.9976 80.429 37.5685V35.6615C80.429 35.3755 80.429 35.1847 80.4767 35.0894C80.5703 35.2142 80.8682 35.5638 81.1297 35.8706L81.1299 35.8708C81.2678 36.0326 81.3956 36.1825 81.4779 36.2813L83.5279 38.6174C84.2908 39.4756 84.5768 39.8093 84.6722 39.9523C84.7675 39.9523 84.8152 39.9047 84.8152 39.857ZM87.8187 35.1371C87.8187 34.5173 87.7711 34.3266 87.3897 34.2789L87.199 34.2312C87.1513 34.1836 87.1036 34.0405 87.199 33.9929C87.9618 33.9452 88.6769 33.9452 89.3921 33.9452C90.1549 33.9452 90.7747 33.9929 91.3468 34.2312C92.5387 34.6603 93.1584 35.6615 93.1584 36.8534C93.1584 37.9976 92.634 38.9511 91.6328 39.4756C91.0607 39.7616 90.3456 39.9047 89.6781 39.9047C89.343 39.9047 89.0078 39.8883 88.7302 39.8747C88.5339 39.8652 88.3663 39.857 88.2478 39.857C87.8664 39.857 87.5804 39.857 87.1513 39.9047C87.1036 39.857 87.1036 39.7616 87.1513 39.6663L87.342 39.6186C87.8664 39.5709 87.8664 39.4279 87.8664 38.5221V35.1371H87.8187ZM88.5339 38.2837C88.5339 38.7604 88.5816 39.0465 88.7246 39.2372C88.9153 39.5232 89.249 39.6186 89.8211 39.6186C91.5375 39.6186 92.3003 38.4744 92.3003 36.8534C92.3003 35.8999 91.8235 34.2312 89.5351 34.2312C89.0106 34.2312 88.7246 34.2789 88.6769 34.3743C88.6292 34.4219 88.5816 34.6603 88.5816 35.0417V38.2837H88.5339ZM98.1962 39.6346C98.4007 39.7381 98.824 39.9523 99.547 39.9523C100.691 39.9523 101.406 39.2849 101.359 38.379C101.359 37.5209 100.834 36.9964 100.262 36.6627L99.547 36.2336C99.2133 36.0429 98.7842 35.6615 98.7842 35.1371C98.7842 34.708 98.9749 34.1359 99.8331 34.1359C100.691 34.1359 100.93 34.708 101.025 35.1371C101.073 35.1847 101.216 35.1371 101.263 35.0894C101.263 34.708 101.216 34.1836 101.12 33.9928C101.073 33.9928 100.93 33.9928 100.834 33.9452C100.596 33.8975 100.31 33.8498 100.024 33.8498C98.8796 33.8498 98.2121 34.5173 98.2121 35.3754C98.2121 36.0906 98.7365 36.615 99.1656 36.9011L100.024 37.4255C100.644 37.8546 100.739 38.2837 100.739 38.6651C100.739 39.1895 100.405 39.6663 99.6424 39.6663C98.5935 39.6663 98.2598 38.7604 98.1168 38.3313C98.1168 38.2837 97.9737 38.3313 97.926 38.379C97.926 38.8081 98.0691 39.4279 98.1644 39.6186L98.1962 39.6346ZM103.17 36.9487C103.17 35.1847 104.505 33.8498 106.317 33.8498C108.367 33.8498 109.368 35.3278 109.368 36.9011C109.368 38.6651 107.986 40 106.317 40C104.362 39.9523 103.17 38.5697 103.17 36.9487ZM108.462 37.1395C108.462 35.6615 107.795 34.0882 106.126 34.0882C105.22 34.0882 104.029 34.708 104.029 36.6627C104.029 37.9499 104.648 39.6663 106.412 39.6663C107.461 39.6663 108.462 38.9035 108.462 37.1395ZM114.517 33.8498C113.611 33.8498 112.801 34.0882 112.133 34.6126C111.466 35.1371 111.037 35.9476 111.132 36.9011C111.132 38.0453 111.657 38.8558 112.372 39.3325C112.992 39.7616 113.754 39.9046 114.565 39.9046C115.137 39.9046 115.757 39.7616 115.948 39.7139C116.043 39.6663 116.138 39.6186 116.234 39.6186C116.377 39.4756 116.615 38.9035 116.663 38.4267C116.615 38.3313 116.472 38.3313 116.424 38.379C116.186 38.8558 115.709 39.6186 114.565 39.6186C113.135 39.6186 111.943 38.6174 111.943 36.758C111.943 34.9464 113.087 34.0882 114.422 34.0882C115.709 34.0882 116.091 34.7557 116.234 35.3754C116.281 35.4231 116.424 35.4231 116.472 35.3754C116.377 34.851 116.329 34.2789 116.329 34.0882C116.234 34.0882 116.186 34.0882 116.091 34.0405C115.661 33.9452 114.994 33.8498 114.517 33.8498ZM118.808 35.3278C118.808 34.3743 118.808 34.2312 118.284 34.1836H118.045C117.998 34.1359 117.998 33.9929 118.045 33.9452C118.273 33.9452 118.474 33.9586 118.663 33.9713C118.829 33.9824 118.985 33.9929 119.142 33.9929C119.475 33.9929 119.809 33.9929 120.238 33.9452C120.286 33.9929 120.286 34.1359 120.238 34.1836H120C119.475 34.2312 119.475 34.3743 119.475 35.3278V38.4744C119.475 39.4279 119.475 39.5232 120 39.6186L120.238 39.6663C120.286 39.7139 120.286 39.857 120.238 39.9047C120.01 39.9047 119.809 39.8912 119.621 39.8786H119.621C119.455 39.8674 119.298 39.857 119.142 39.857C118.76 39.857 118.474 39.857 118.045 39.9047C117.998 39.857 117.998 39.7616 118.045 39.6663L118.284 39.6186C118.808 39.5709 118.808 39.4279 118.808 38.4744V35.3278ZM122.145 34.2312C122.67 34.2789 122.67 34.4219 122.67 35.3278V38.4744C122.67 39.3802 122.67 39.5232 122.145 39.5709H121.764C121.716 39.6663 121.716 39.7616 121.764 39.8093C122.288 39.7616 122.574 39.7616 122.956 39.7616H122.956H123.766C124.172 39.7616 124.565 39.7735 124.958 39.7854L124.959 39.7855C125.352 39.7974 125.745 39.8093 126.15 39.8093C126.245 39.5709 126.484 38.8558 126.532 38.5697C126.484 38.522 126.341 38.4744 126.293 38.522C126.055 38.9988 125.816 39.2849 125.673 39.3802C125.483 39.4756 125.197 39.5232 124.529 39.5232C123.766 39.5232 123.576 39.4279 123.48 39.3325C123.385 39.1895 123.337 38.9034 123.337 38.4267V37.1871C123.337 36.9487 123.337 36.9487 123.623 36.9487H124.148C124.481 36.9487 124.672 36.9487 124.815 36.9964C125.006 37.0441 125.054 37.1871 125.101 37.3301L125.197 37.6639C125.244 37.7116 125.387 37.7116 125.435 37.6639C125.435 37.5818 125.426 37.4732 125.416 37.3495C125.403 37.1858 125.387 36.9958 125.387 36.8057C125.387 36.6157 125.403 36.4101 125.416 36.2332C125.426 36.0994 125.435 35.982 125.435 35.8999C125.387 35.8522 125.244 35.8522 125.197 35.8999L125.149 36.2813C125.101 36.472 125.054 36.5197 124.958 36.5673C124.863 36.615 124.577 36.615 124.195 36.615H123.671C123.433 36.615 123.385 36.615 123.385 36.3766V34.6126C123.385 34.4372 123.385 34.354 123.426 34.3145C123.464 34.2789 123.535 34.2789 123.671 34.2789H124.291C124.672 34.2789 124.958 34.2789 125.149 34.3266C125.581 34.4562 125.661 34.7032 125.778 35.0677L125.778 35.0682C125.791 35.1058 125.803 35.1446 125.816 35.1847C125.864 35.2324 126.007 35.2324 126.055 35.1847C126.041 35.0622 126.028 34.924 126.014 34.7859C125.98 34.4405 125.946 34.095 125.912 33.9928C125.816 34.0405 125.292 34.0405 124.72 34.0405H123.051C122.861 34.0405 122.694 34.0286 122.527 34.0167C122.36 34.0048 122.193 33.9928 122.002 33.9928C121.955 34.0405 121.955 34.1835 122.002 34.2312H122.145ZM130.822 38.4744C130.822 39.3802 130.822 39.5232 131.347 39.5709L131.633 39.6186C131.681 39.6663 131.681 39.8093 131.633 39.857C131.341 39.857 131.123 39.8422 130.93 39.8291C130.775 39.8187 130.637 39.8093 130.489 39.8093C130.155 39.8093 129.821 39.8093 129.249 39.857C129.201 39.8093 129.201 39.6663 129.249 39.6186L129.583 39.5709C130.107 39.5232 130.107 39.3802 130.107 38.4744V34.5173C130.107 34.3743 130.107 34.3027 130.071 34.267C130.036 34.2312 129.964 34.2312 129.821 34.2312H129.344C128.963 34.2312 128.486 34.2312 128.248 34.4696C128.057 34.6603 127.962 34.851 127.866 35.0894C127.819 35.1371 127.676 35.0894 127.628 35.0417C127.771 34.6603 127.914 34.0882 127.962 33.7068C127.978 33.7068 127.999 33.7015 128.02 33.6962C128.062 33.6856 128.105 33.675 128.105 33.7068C128.153 33.9929 128.439 33.9929 128.868 33.9929H132.443C132.92 33.9929 133.015 33.9929 133.111 33.7545C133.158 33.7545 133.254 33.7545 133.254 33.8022C133.158 34.1836 133.111 34.8987 133.111 35.1371C133.063 35.1847 132.92 35.1847 132.872 35.1371L132.862 35.0859C132.818 34.859 132.767 34.6025 132.634 34.4696C132.443 34.3266 132.11 34.2312 131.633 34.2312H131.013C130.878 34.2312 130.817 34.2312 130.791 34.2613C130.769 34.2859 130.771 34.3304 130.773 34.4114L130.774 34.4453L130.774 34.4764C130.775 34.4894 130.775 34.503 130.775 34.5173V38.4744H130.822ZM137.878 39.6186C137.402 39.5709 137.354 39.4279 137.354 38.4744V37.9976C137.354 37.3302 137.402 37.2348 137.783 36.5673L138.355 35.6138C138.402 35.5305 138.447 35.45 138.49 35.3726L138.49 35.3717C138.839 34.7412 139.075 34.3161 139.499 34.2312L139.738 34.1836C139.833 34.0882 139.785 33.9929 139.738 33.9452C139.452 33.9929 139.213 33.9929 138.927 33.9929C138.79 33.9929 138.663 33.9818 138.532 33.9704C138.39 33.958 138.242 33.9452 138.069 33.9452C138.021 33.9929 138.021 34.1359 138.069 34.1836H138.212C138.451 34.2312 138.594 34.2789 138.594 34.3266C138.594 34.3877 138.457 34.6445 138.295 34.9465L138.295 34.9467L138.294 34.9483C138.204 35.1172 138.107 35.3001 138.021 35.4708C137.783 35.9476 137.497 36.472 137.211 36.9488C136.877 36.3294 136.544 35.6624 136.21 34.9953L136.21 34.994L136.21 34.9938C136.162 34.8977 135.924 34.4218 135.924 34.3266C135.924 34.2789 136.019 34.2312 136.305 34.1836H136.4C136.448 34.0882 136.448 33.9929 136.353 33.9452C136.114 33.9929 135.828 33.9929 135.399 33.9929C135.195 33.9929 135.004 33.9792 134.827 33.9665C134.674 33.9554 134.531 33.9452 134.398 33.9452C134.35 33.9929 134.35 34.1359 134.398 34.1836L134.636 34.2312C134.923 34.2789 135.066 34.3266 135.352 34.8987L136.4 36.9488C136.639 37.4255 136.686 37.5685 136.686 38.0453V38.4744C136.686 39.4279 136.686 39.5709 136.162 39.6186L135.876 39.6663C135.828 39.7616 135.828 39.857 135.876 39.9047C136.353 39.857 136.639 39.857 137.02 39.857C137.168 39.857 137.316 39.8664 137.481 39.8768C137.688 39.8899 137.92 39.9047 138.212 39.9047C138.26 39.857 138.26 39.7139 138.212 39.6663L137.878 39.6186ZM26.1739 0.0476642H20.3098V8.0572H26.2216V7.24671H21.2157V4.43384H25.6495V3.62335H21.2157V0.858153H26.1739V0.0476642ZM38.236 4.76757V0.0476642H39.1418V4.71989C39.1418 6.4839 40.0476 7.43741 41.6209 7.43741C43.0989 7.43741 44.0524 6.53157 44.0524 4.76757V0.0476642H44.9583V4.67222C44.9583 7.00833 43.6233 8.2479 41.5733 8.2479C39.6186 8.29558 38.236 7.05601 38.236 4.76757ZM60.882 0.0476642H57.4493H57.4016V8.10487H60.9773C62.7413 8.10487 63.9332 7.29439 63.9332 5.91179C63.9332 4.81524 63.1704 4.24313 62.2169 3.95708C62.8367 3.67102 63.5041 3.14659 63.5041 2.09772V2.05005C63.5041 1.52561 63.3134 1.09653 62.9797 0.762801C62.5506 0.333719 61.7878 0.0476642 60.882 0.0476642ZM62.5983 2.24075C62.5983 3.19427 61.8355 3.67102 60.7389 3.67102V3.62335H58.3075V0.858153H60.7866C61.9785 0.858153 62.5983 1.38259 62.5983 2.19308V2.24075ZM63.075 5.91179C63.075 6.81763 62.3122 7.34206 61.0727 7.34206V7.38974H58.3551V4.52919H60.9296C62.3122 4.52919 63.075 5.05362 63.075 5.91179ZM95.1132 0.0476642V4.76757C95.1132 7.05601 96.4958 8.29558 98.4505 8.2479C100.501 8.2479 101.835 7.00833 101.835 4.67222V0.0476642H100.93V4.76757C100.93 6.53157 99.9761 7.43741 98.4982 7.43741C96.9249 7.43741 96.0191 6.4839 96.0191 4.71989V0.0476642H95.1132ZM114.327 0.0476642H120.191V0.858153H115.232V3.62335H119.666V4.43384H115.232V7.24671H120.238V8.0572H114.327V0.0476642ZM135.876 0.0476642H132.396H132.348V8.0572H133.254V4.9106H135.59L137.926 8.0572H139.07L136.591 4.76757C137.878 4.57687 138.784 3.76638 138.784 2.43145C138.784 1.81167 138.546 1.23956 138.164 0.858153C137.688 0.333719 136.877 0.0476642 135.876 0.0476642ZM137.926 2.52681C137.926 3.57567 137.02 4.19546 135.828 4.19546H133.397V0.905828H135.876C137.163 0.905828 137.926 1.47794 137.926 2.47913V2.52681Z" />
</svg>
