<svg width="141" height="40" viewBox="0 0 141 40" xmlns="http://www.w3.org/2000/svg">
<path fill-rule="evenodd" clip-rule="evenodd" d="M79.3695 0H80.2277L83.8987 8.15256H82.8975L81.944 6.00715H77.6055L76.652 8.15256H75.6985L79.3695 0ZM81.658 5.19666L79.7986 1.04887L77.9392 5.19666H81.658ZM1.13358 0.0476642H1.99174L7.09305 6.53157V0.0476642H7.99889V8.15255H7.28376L2.03942 1.52561V8.15255H1.13358V0.0476642ZM17.1526 20.7866C17.1526 17.0203 19.9654 14.1597 23.8272 14.1597C28.1657 14.1597 30.3588 17.3063 30.3588 20.5959C30.3588 24.3623 27.4506 27.1275 23.8272 27.1275C19.6794 27.1275 17.1526 24.1716 17.1526 20.7866ZM28.4517 21.1681C28.4517 18.0691 27.0691 14.7318 23.4935 14.7318C21.5388 14.7318 19.0119 16.0667 19.0119 20.1669C19.0119 22.9321 20.3469 26.5554 24.0656 26.5554C26.3063 26.5554 28.4517 24.8868 28.4517 21.1681ZM2.65918 15.7807C4.04178 14.7318 5.75811 14.2074 7.71282 14.2074C8.71401 14.2074 10.1443 14.3981 11.0501 14.6365C11.1296 14.6524 11.1932 14.6683 11.2497 14.6824C11.3627 14.7106 11.4474 14.7318 11.5746 14.7318C11.5746 15.1609 11.6699 16.3528 11.8606 17.497C11.7653 17.6401 11.4792 17.6401 11.3362 17.5447C11.0501 16.2575 10.192 14.8272 7.47444 14.8272C4.61389 14.8272 2.18242 16.6389 2.18242 20.5483C2.18242 24.5054 4.66156 26.6508 7.76049 26.6508C10.192 26.6508 11.2408 25.0775 11.6699 23.9809C11.8129 23.8856 12.099 23.9333 12.1467 24.0763C12.0036 25.0298 11.5269 26.2694 11.2408 26.6508C11.0024 26.6985 10.8117 26.7461 10.5734 26.8415C10.1443 26.9845 8.80936 27.2706 7.61746 27.2706C5.94881 27.2706 4.32783 26.9368 2.94524 26.031C1.46729 24.9821 0.275391 23.3135 0.275391 20.882C0.323066 18.6413 1.22891 16.8772 2.65918 15.7807ZM36.1277 14.8749C37.3196 14.9702 37.3672 15.3039 37.3672 17.2586V23.9809C37.3672 25.9356 37.3196 26.2217 36.223 26.317L35.6509 26.3647C35.5556 26.5077 35.6032 26.7938 35.6986 26.8415C36.7475 26.7938 37.3196 26.7938 38.1301 26.7938H39.8464C41.8011 26.7938 43.5651 26.7938 44.5186 26.8415C44.8047 26.317 45.3291 24.41 45.3291 24.2193C45.3291 24.124 44.9477 24.0286 44.8524 24.124C44.471 25.0775 43.9942 25.7449 43.6128 25.9833C43.3267 26.1263 42.8976 26.2217 41.3243 26.2217C39.8464 26.2217 39.465 25.9833 39.2743 25.7926C38.9406 25.4589 38.8929 24.9821 38.8929 23.7902V17.2586C38.8929 15.2563 38.9406 14.9702 40.0371 14.8749L40.4662 14.8272C40.5615 14.7318 40.5139 14.3981 40.4185 14.3504C39.5127 14.3981 38.8452 14.3981 38.1301 14.3981C37.3672 14.3981 36.7475 14.3981 35.6986 14.3504C35.5556 14.3981 35.5556 14.7318 35.6509 14.8272L36.1277 14.8749ZM51.4792 17.2586C51.4792 15.3039 51.4315 14.9702 50.2396 14.8749L49.7629 14.8272C49.6675 14.7318 49.6675 14.3981 49.8106 14.3504C50.8594 14.3981 51.4792 14.3981 52.242 14.3981C52.9572 14.3981 53.6246 14.3981 54.5305 14.3504C54.6258 14.3981 54.6735 14.7318 54.5781 14.8272L54.1491 14.8749C53.0525 14.9702 53.0048 15.2563 53.0048 17.2586V23.7902C53.0048 24.9821 53.0525 25.4589 53.3862 25.7926C53.577 25.9833 53.9584 26.2217 55.4363 26.2217C57.0096 26.2217 57.4387 26.1263 57.7247 25.9833C58.1062 25.7449 58.5829 25.0775 58.9643 24.124C59.0597 24.0286 59.4411 24.124 59.4411 24.2193C59.4411 24.41 58.9166 26.317 58.6306 26.8415C57.6771 26.7938 55.9131 26.7938 53.9584 26.7938H52.242C51.4315 26.7938 50.8594 26.7938 49.8106 26.8415C49.7152 26.7938 49.6675 26.5077 49.7629 26.3647L50.335 26.317C51.4315 26.2217 51.4792 25.9356 51.4792 23.9809V17.2586ZM64.447 14.8749C65.5435 15.0179 65.5912 15.3039 65.5912 17.2586H65.4959V24.0763C65.4959 26.031 65.4005 26.317 64.3517 26.4124L63.7319 26.4601C63.6365 26.6031 63.6842 26.8892 63.7795 26.9368C64.9238 26.8892 65.5435 26.8892 66.354 26.8892H68.0227C69.6914 26.8892 71.36 26.8892 73.0287 26.9368C73.267 26.4124 73.7438 24.9821 73.8868 24.3147C73.7915 24.124 73.5531 24.0763 73.4101 24.1716C72.9333 25.1252 72.4089 25.7926 72.0751 25.9833C71.6937 26.174 71.1216 26.2694 69.6913 26.2694C68.0227 26.2694 67.6413 26.0787 67.4029 25.8403C67.1169 25.5066 67.0692 24.8868 67.0692 23.8856V21.2634C67.0692 20.739 67.1169 20.739 67.689 20.739H68.7855C69.5006 20.739 69.9297 20.739 70.2158 20.8343C70.5972 20.9297 70.6925 21.2157 70.7879 21.5495L70.9786 22.2646C71.074 22.4076 71.36 22.4076 71.4554 22.2646C71.4554 22.0742 71.4365 21.8275 71.4156 21.5536L71.4155 21.5523L71.4155 21.5521V21.552V21.5518V21.5517V21.5516V21.5515V21.5514V21.5513C71.3894 21.2085 71.36 20.8234 71.36 20.4529C71.36 20.0499 71.3903 19.6318 71.4167 19.2668C71.4372 18.9841 71.4554 18.7332 71.4554 18.5459C71.4077 18.4505 71.074 18.4505 70.9786 18.5459L70.8356 19.3087C70.7402 19.7855 70.6449 19.8808 70.4065 19.9762C70.2158 20.0238 69.6437 20.0715 68.8332 20.0715H67.7366C67.1645 20.0715 67.1169 20.0715 67.1169 19.5471V15.7807C67.1169 15.0656 67.1169 15.0179 67.689 15.0179H69.0239C69.8344 15.0179 70.4542 15.0179 70.8356 15.1132C71.7618 15.3338 71.9536 15.9215 72.2036 16.6877L72.2037 16.688C72.2181 16.7323 72.2327 16.7772 72.2477 16.8227L72.2658 16.8772C72.3612 16.9726 72.6473 16.9249 72.7426 16.8296C72.6949 16.0191 72.5519 14.6842 72.4566 14.3504C72.2182 14.3981 71.1216 14.3981 69.9297 14.3981H66.4017C65.6389 14.3981 65.0191 14.3981 64.2086 14.3504C64.0656 14.3981 64.0656 14.7318 64.161 14.8272L64.447 14.8749ZM90.0966 24.9345C90.0966 25.6973 90.192 26.1263 90.5257 26.2694C90.5734 26.3171 90.5734 26.4601 90.5257 26.5078C90.2873 26.5078 89.9536 26.6031 89.6199 26.6985C88.6187 26.9845 87.2837 27.1752 86.2825 27.1752C84.0418 27.1752 81.9917 26.5554 80.5615 25.0775C79.4172 23.9333 78.8451 22.4553 78.8451 20.8343C78.8451 19.261 79.3696 17.6401 80.5138 16.4005C81.7534 15.0656 83.6127 14.2074 86.4733 14.2074C87.5221 14.2074 88.5233 14.3981 88.857 14.4935C89.1908 14.5888 89.8106 14.6842 90.0013 14.6842C90.0013 15.3039 90.0966 16.2575 90.2873 17.4017C90.2396 17.5447 89.9059 17.5924 89.7629 17.4494C89.2384 15.3993 87.8082 14.7795 85.9011 14.7795C82.2778 14.7795 80.6568 17.354 80.6568 20.1669C80.6568 23.7902 82.5162 26.6031 86.2825 26.6031C87.4268 26.6031 88.1419 26.3647 88.3326 26.031C88.428 25.888 88.5233 25.5542 88.5233 24.9821V24.2193C88.5233 22.646 88.4756 22.5507 87.2837 22.4076L86.4733 22.3123C86.3302 22.2169 86.3302 21.8832 86.4733 21.8355C86.9977 21.8832 88.0466 21.8832 89.1431 21.8832C89.8582 21.8832 90.5257 21.8832 91.1455 21.8355C91.2885 21.9309 91.2885 22.1693 91.1455 22.3123L90.8594 22.36C90.0489 22.4553 90.0489 22.9797 90.0489 23.9333V24.9345H90.0966ZM96.9619 14.9225C98.0585 15.0179 98.1061 15.3039 98.1061 17.3063V23.9809C98.1061 25.9833 98.0585 26.2217 96.9619 26.3647L96.4852 26.4124C96.3898 26.5554 96.4375 26.8415 96.5328 26.8891C97.4864 26.8415 98.1061 26.8415 98.9166 26.8415C99.6794 26.8415 100.299 26.8415 101.253 26.8891C101.396 26.8415 101.396 26.5077 101.3 26.4124L100.824 26.3647C99.7271 26.2217 99.6795 25.9833 99.6795 23.9809V17.3063C99.6795 15.3516 99.7271 15.0179 100.824 14.9225L101.3 14.8748C101.396 14.7795 101.348 14.4458 101.253 14.3981C100.299 14.4458 99.6794 14.4458 98.9166 14.4458C98.1061 14.4458 97.4864 14.4458 96.5328 14.3981C96.3898 14.4458 96.3898 14.7795 96.4852 14.8748L96.9619 14.9225ZM117.129 19.1657C117.129 18.0215 117.081 15.8284 116.795 15.3039C116.652 15.0656 116.318 14.9702 115.842 14.9225L115.365 14.8749C115.269 14.7318 115.269 14.4935 115.412 14.4458C116.128 14.4935 116.843 14.4935 117.558 14.4935C118.368 14.4935 118.845 14.4935 119.513 14.4458C119.656 14.5411 119.656 14.7795 119.56 14.8749L119.131 14.9225C118.654 14.9702 118.321 15.1132 118.178 15.3516C117.892 15.9714 117.892 18.1168 117.892 19.1657V21.2634C117.892 22.8844 117.606 24.6007 116.557 25.7449C115.746 26.6031 114.364 27.1275 112.981 27.1275C111.694 27.1275 110.406 26.8892 109.453 26.0787C108.452 25.2682 107.975 23.8856 107.975 21.6448V17.211C107.975 15.2563 107.927 14.9225 106.831 14.8272L106.354 14.7795C106.259 14.6842 106.259 14.3981 106.402 14.3504C107.355 14.3981 107.975 14.3981 108.738 14.3981C109.501 14.3981 110.12 14.3981 111.026 14.3504C111.122 14.3981 111.169 14.7318 111.074 14.7795L110.645 14.8272C109.548 14.9225 109.501 15.2563 109.501 17.211V21.2634C109.501 24.267 110.454 26.2694 113.315 26.2694C116.032 26.2694 117.081 24.124 117.081 21.2634V19.1657H117.129ZM131.241 22.7047L131.241 22.7043C131.098 22.413 130.955 22.1216 130.812 21.8355L128.714 17.497C128.142 16.3051 127.665 15.1132 127.76 14.3981C127.141 14.4458 126.616 14.4458 126.187 14.4458C125.71 14.4458 125.281 14.4458 124.709 14.3981C124.519 14.4934 124.519 14.7795 124.614 14.8748L124.9 14.9225C126.044 15.0655 126.187 15.3516 126.139 16.5435C126.139 17.5924 126.044 19.1657 125.949 20.739C125.87 21.7577 125.806 22.5332 125.749 23.23L125.748 23.2378L125.748 23.2399C125.701 23.8109 125.658 24.3296 125.615 24.8868C125.52 26.174 125.281 26.317 124.471 26.4124L124.042 26.4601C123.946 26.5554 123.994 26.8415 124.089 26.9368C124.709 26.8891 125.377 26.8891 125.996 26.8891H125.996H125.997C126.712 26.8891 127.474 26.8891 128.094 26.9368C128.19 26.8891 128.237 26.5554 128.094 26.4601L127.379 26.4124C126.616 26.317 126.521 26.031 126.521 24.6484C126.521 23.3553 126.582 22.032 126.63 20.9686L126.63 20.9656C126.643 20.6971 126.654 20.4452 126.664 20.2145C126.712 19.118 126.759 18.0214 126.855 16.8772H126.902C127.093 17.3063 127.296 17.7712 127.498 18.236C127.701 18.7009 127.904 19.1657 128.094 19.5947L129.763 23.2181C129.88 23.4794 130.034 23.805 130.201 24.1608L130.204 24.1658L130.204 24.1663L130.205 24.1684C130.648 25.1097 131.19 26.2596 131.432 26.9845C131.479 27.0798 131.575 27.0799 131.622 27.0799C131.718 27.0799 131.765 27.0322 131.813 26.9845C132.147 26.1263 132.957 24.3623 133.815 22.6937L135.484 19.404C135.649 19.0946 135.877 18.6334 136.093 18.1943L136.093 18.1937L136.094 18.1923L136.094 18.1922C136.336 17.7019 136.564 17.2395 136.676 17.047L136.724 24.7914C136.724 25.9833 136.724 26.2694 135.818 26.3647L135.293 26.4124C135.198 26.5554 135.198 26.7938 135.341 26.8891C136.104 26.8415 136.962 26.8415 137.629 26.8415C138.297 26.8415 139.06 26.8415 139.822 26.8891C139.965 26.7938 139.965 26.5077 139.87 26.4124L139.25 26.3647C138.415 26.2719 138.393 25.8179 138.348 24.9147L138.344 24.8391C138.245 22.984 138.215 20.7376 138.19 18.8676V18.8675L138.189 18.8631C138.178 18.0436 138.168 17.2965 138.154 16.6865C138.154 15.3993 138.297 15.0179 139.489 14.9225L139.87 14.8748C139.965 14.7795 139.965 14.4934 139.87 14.3981C139.298 14.4458 138.678 14.4458 138.201 14.4458C137.82 14.4458 137.391 14.4458 136.771 14.3981C136.726 15.2552 136.254 16.1976 135.477 17.7505L135.341 18.0214L133.577 21.5971C133.433 21.8841 133.294 22.1753 133.156 22.4657L133.156 22.4658C132.833 23.1403 132.513 23.8101 132.147 24.41H132.099C131.813 23.8698 131.527 23.2872 131.241 22.7047ZM2.23012 36.472C2.23012 36.584 2.23012 36.6433 2.25975 36.6748C2.29322 36.7104 2.36447 36.7104 2.51618 36.7104H3.13596C3.51737 36.7104 3.80342 36.7104 3.89877 36.6627C3.99413 36.615 4.08948 36.5673 4.13715 36.3766L4.2325 36.0429C4.28018 35.9952 4.42321 35.9952 4.47088 36.0429C4.47088 36.125 4.46205 36.2425 4.45198 36.3762C4.43867 36.5532 4.42321 36.7587 4.42321 36.9488C4.42321 37.1388 4.43867 37.3289 4.45198 37.4925C4.46205 37.6162 4.47088 37.7248 4.47088 37.8069C4.42321 37.8546 4.28018 37.8546 4.2325 37.8069L4.13715 37.4732C4.08948 37.3302 4.0418 37.1871 3.8511 37.1395C3.70807 37.0918 3.51737 37.0918 3.18364 37.0918H2.51618C2.36447 37.0918 2.29322 37.0918 2.25975 37.1273C2.23012 37.1588 2.23012 37.2182 2.23012 37.3302V38.5697C2.23012 39.4756 2.23012 39.6186 2.75455 39.6663L3.04061 39.714C3.08829 39.7616 3.08829 39.9047 3.04061 39.9523C2.75756 39.9523 2.54395 39.9384 2.34731 39.9257H2.34725H2.34721H2.34718C2.17954 39.9148 2.02422 39.9047 1.84872 39.9047C1.46731 39.9047 1.18125 39.9047 0.752172 39.9523C0.704496 39.9047 0.704496 39.8093 0.752172 39.714L0.942875 39.5709C1.46731 39.5232 1.46731 39.3802 1.46731 38.4744V35.2801C1.46731 34.3743 1.46731 34.2312 0.942875 34.1836H0.799848C0.752172 34.1359 0.752172 33.9929 0.799848 33.9452C0.996881 33.9452 1.16847 33.9579 1.33433 33.9702L1.33441 33.9702H1.33447H1.33453H1.33458H1.33462H1.33466H1.33469C1.48976 33.9817 1.63984 33.9929 1.80104 33.9929H3.42202C3.99413 33.9929 4.51856 33.9929 4.61391 33.9452C4.61391 34.3743 4.61391 34.7557 4.66159 35.0894C4.61391 35.1371 4.51856 35.1847 4.47088 35.1371C4.42321 34.7557 4.28018 34.4219 3.8511 34.2789C3.6604 34.2312 3.37434 34.2312 2.99293 34.2312H2.4685C2.33282 34.2312 2.26149 34.2312 2.224 34.2668C2.18245 34.3063 2.18245 34.3895 2.18245 34.565V36.472H2.23012ZM9.52452 33.8498C7.71284 33.8498 6.37792 35.1847 6.37792 36.9487C6.37792 38.5697 7.56981 39.9523 9.52452 40C11.1932 40 12.5758 38.6651 12.5758 36.9011C12.5758 35.3278 11.5746 33.8498 9.52452 33.8498ZM9.38149 34.0882C11.0501 34.0882 11.7176 35.6615 11.7176 37.1395C11.7176 38.9035 10.7164 39.6663 9.66755 39.6663C7.90354 39.6663 7.28376 37.9499 7.28376 36.6627C7.28376 34.708 8.47565 34.0882 9.38149 34.0882ZM15.0072 35.3278C15.0072 34.4696 14.9595 34.3266 14.6258 34.2789L14.3397 34.2312C14.2921 34.1836 14.2921 34.0405 14.3397 33.9929C14.8165 33.9452 15.4363 33.9452 16.2944 33.9452C16.8189 33.9452 17.3433 33.9929 17.7724 34.2312C18.2015 34.4696 18.4875 34.851 18.4875 35.4708C18.4875 36.329 17.8201 36.758 17.391 36.9488C17.3433 36.9964 17.391 37.0918 17.4387 37.1395C18.1538 38.2837 18.6305 38.9988 19.2027 39.4756C19.3457 39.6186 19.5841 39.714 19.8224 39.714C19.8701 39.714 19.8701 39.8093 19.8224 39.857C19.7271 39.9047 19.5841 39.9047 19.441 39.9047C18.6782 39.9047 18.2491 39.6663 17.6294 38.8081C17.5228 38.6589 17.3972 38.4525 17.2652 38.2359L17.2652 38.2358L17.2652 38.2357L17.265 38.2355L17.2649 38.2353C17.1019 37.9675 16.9293 37.6839 16.7712 37.4732C16.6282 37.2825 16.4851 37.1871 16.1514 37.1871C15.77 37.1871 15.7223 37.1871 15.7223 37.3778V38.4744C15.7223 39.3802 15.7223 39.5232 16.2468 39.5709L16.4375 39.6186C16.4851 39.6663 16.4851 39.8093 16.4375 39.857C16.2404 39.857 16.0561 39.8443 15.878 39.832L15.8779 39.8319C15.7112 39.8204 15.5499 39.8093 15.3886 39.8093C15.0072 39.8093 14.7211 39.8093 14.2921 39.857C14.2444 39.8093 14.2444 39.7139 14.2921 39.6186L14.5304 39.5709C15.0549 39.5232 15.0549 39.3802 15.0549 38.4744V35.3278H15.0072ZM15.7223 36.5673C15.7223 36.7104 15.7223 36.8057 15.77 36.8534C15.8177 36.9011 15.913 36.9011 16.3898 36.9011C16.7235 36.9011 17.0572 36.8534 17.2956 36.6627C17.534 36.472 17.7247 36.1859 17.7247 35.5662C17.7247 34.851 17.2956 34.1836 16.2944 34.1836C15.7223 34.1836 15.7223 34.2312 15.7223 34.4696V36.5673ZM27.4505 33.8498C26.5447 33.8498 25.7342 34.0882 25.0667 34.6126C24.3993 35.1371 23.9225 35.9476 24.0655 36.9011C24.0655 38.0453 24.59 38.8558 25.3051 39.3325C25.9249 39.7616 26.6877 39.9046 27.4982 39.9046C28.0703 39.9046 28.6901 39.7616 28.8808 39.7139C28.9761 39.6663 29.0715 39.6186 29.1668 39.6186C29.3099 39.4756 29.5483 38.9035 29.5959 38.4267C29.5483 38.3313 29.4052 38.3313 29.3575 38.379C29.1192 38.8558 28.6424 39.6186 27.4982 39.6186C26.0679 39.6186 24.876 38.6174 24.876 36.758C24.876 34.9464 26.0202 34.0882 27.3552 34.0882C28.6424 34.0882 29.0238 34.7557 29.1668 35.3754C29.2145 35.4231 29.3575 35.4231 29.4052 35.3754C29.3099 34.851 29.2622 34.2789 29.2622 34.0882C29.2145 34.0882 29.1192 34.0882 29.0238 34.0405C28.5947 33.9452 27.9273 33.8498 27.4505 33.8498ZM35.9368 36.1859C35.9368 35.6615 35.9368 34.6126 35.7461 34.3742C35.6985 34.2789 35.5078 34.1835 35.3171 34.1835H35.0787C35.031 34.1359 35.031 33.9928 35.0787 33.9928C35.2455 33.9928 35.4123 34.0048 35.5791 34.0167L35.5793 34.0167L35.5794 34.0167C35.7463 34.0286 35.9131 34.0405 36.0799 34.0405C36.4613 34.0405 36.6997 34.0405 36.9857 33.9928C37.0334 34.0405 37.0334 34.1359 36.9857 34.1835H36.795C36.5566 34.1835 36.4136 34.2789 36.3659 34.3742C36.2229 34.6603 36.2229 35.6615 36.2229 36.1859V37.1871C36.2229 37.9499 36.0799 38.7604 35.6031 39.2849C35.2217 39.7139 34.5542 39.9523 33.9345 39.9523C33.3147 39.9523 32.6949 39.857 32.2658 39.4756C31.789 39.0942 31.5983 38.4267 31.5983 37.3778V35.2801C31.5983 34.3742 31.5983 34.2312 31.0739 34.1835H30.8355C30.7879 34.1359 30.7879 33.9928 30.8355 33.9928C31.0635 33.9928 31.2646 34.0063 31.453 34.0189H31.4531H31.4531H31.4532C31.6193 34.03 31.7757 34.0405 31.9321 34.0405C32.3135 34.0405 32.5995 34.0405 33.0286 33.9928C33.0763 34.0405 33.0763 34.1835 33.0286 34.1835H32.8379C32.3135 34.2312 32.3135 34.3742 32.3135 35.2801V37.1871C32.3135 38.6174 32.7426 39.5232 34.1252 39.5232C35.4124 39.5232 35.8892 38.522 35.8892 37.1871V36.1859H35.9368ZM38.6067 34.2312C39.1788 34.2789 39.1788 34.4219 39.1788 35.3278H39.2265V38.4744C39.2265 39.3802 39.2265 39.5232 38.7021 39.5709L38.416 39.6186C38.3683 39.7139 38.3683 39.8093 38.416 39.857C38.8928 39.8093 39.1788 39.8093 39.5602 39.8093H40.3707C40.9062 39.8093 41.4251 39.826 41.8485 39.8396H41.8486H41.8486L41.8488 39.8396H41.849H41.8491H41.8492H41.8492H41.8493L41.8495 39.8396H41.8497H41.8498H41.8498H41.8499H41.85L41.8502 39.8396H41.8503H41.8504H41.8505H41.8506H41.8507L41.8508 39.8396H41.8509C42.1426 39.849 42.3889 39.857 42.5638 39.857C42.7068 39.6186 42.9452 38.7127 42.9452 38.6174C42.9452 38.5697 42.7545 38.522 42.7068 38.5697C42.5638 38.9988 42.3254 39.3325 42.1347 39.4279C41.9917 39.4756 41.801 39.5232 41.0382 39.5232C40.3707 39.5232 40.18 39.4279 40.0847 39.3325C39.9416 39.1895 39.894 38.9511 39.894 38.379V35.3278C39.894 34.4219 39.894 34.2789 40.4184 34.2312H40.6091C40.6568 34.1835 40.6568 34.0405 40.6091 33.9928C40.18 34.0405 39.8463 34.0405 39.5126 34.0405C39.3605 34.0405 39.2085 34.0306 39.043 34.0199C38.8451 34.007 38.6279 33.9928 38.3683 33.9928C38.3207 34.0405 38.3207 34.1835 38.3683 34.2312H38.6067ZM46.1871 38.4744C46.1871 39.3802 46.1871 39.5232 46.7115 39.5709L46.9976 39.6186C47.0453 39.6663 47.0453 39.8093 46.9976 39.857C46.7059 39.857 46.4879 39.8422 46.2945 39.8291C46.1402 39.8187 46.0015 39.8093 45.8534 39.8093C45.5197 39.8093 45.1859 39.8093 44.6138 39.857C44.5661 39.8093 44.5661 39.6663 44.6138 39.6186L44.9475 39.5709C45.472 39.5232 45.472 39.3802 45.472 38.4744V34.5173C45.472 34.3743 45.472 34.3027 45.4362 34.267C45.4005 34.2312 45.329 34.2312 45.186 34.2312H45.1859H44.7092C44.3278 34.2312 43.851 34.2312 43.6126 34.4696C43.4219 34.6603 43.3266 34.851 43.2312 35.0894C43.1835 35.1371 43.0405 35.0894 42.9928 35.0417C43.1359 34.6603 43.2789 34.0882 43.3266 33.7068C43.341 33.7068 43.3598 33.7024 43.3803 33.6977C43.4276 33.6867 43.484 33.6736 43.5173 33.7068C43.5649 33.9929 43.851 33.9929 44.2801 33.9929H47.8558C48.3325 33.9929 48.4279 33.9929 48.5232 33.7545C48.5709 33.7545 48.6663 33.7545 48.6663 33.8022C48.5709 34.1836 48.5232 34.8987 48.5232 35.1371C48.4756 35.1847 48.3325 35.1847 48.2848 35.1371L48.2747 35.0859C48.23 34.859 48.1794 34.6025 48.0465 34.4696C47.8558 34.3266 47.522 34.2312 47.0453 34.2312H46.4255C46.2905 34.2312 46.2298 34.2312 46.2034 34.2613C46.1818 34.2859 46.1831 34.3304 46.1853 34.4114L46.1865 34.4584C46.1869 34.4766 46.1871 34.4962 46.1871 34.5173V38.4744ZM54.7688 34.3742C54.9595 34.6126 54.9595 35.6615 54.9595 36.1859H54.9119V37.1871C54.9119 38.522 54.4351 39.5232 53.1479 39.5232C51.7653 39.5232 51.3362 38.6174 51.3362 37.1871V35.2801C51.3362 34.3742 51.3362 34.2312 51.8606 34.1835H52.0513C52.099 34.1835 52.099 34.0405 52.0513 33.9928C51.6222 34.0405 51.3362 34.0405 50.9548 34.0405C50.7984 34.0405 50.6421 34.03 50.4759 34.0189H50.4759H50.4759H50.4758H50.4758H50.4757C50.2873 34.0063 50.0862 33.9928 49.8582 33.9928C49.8106 33.9928 49.8106 34.1359 49.8582 34.1835H50.0966C50.6211 34.2312 50.6211 34.3742 50.6211 35.2801V37.3778C50.6211 38.4267 50.8118 39.0942 51.2885 39.4756C51.7176 39.857 52.3374 39.9523 52.9572 39.9523C53.577 39.9523 54.2444 39.7139 54.6258 39.2849C55.1026 38.7604 55.2456 37.9499 55.2456 37.1871V36.1859C55.2456 35.6615 55.2456 34.6603 55.3886 34.3742C55.4363 34.2789 55.5793 34.1835 55.8177 34.1835H56.0084C56.0561 34.1359 56.0561 34.0405 56.0084 33.9928C55.7224 34.0405 55.484 34.0405 55.1026 34.0405C54.9357 34.0405 54.7688 34.0286 54.602 34.0167C54.4351 34.0048 54.2682 33.9928 54.1014 33.9928C54.0537 33.9928 54.0537 34.1359 54.1014 34.1835H54.3398C54.5305 34.1835 54.7212 34.2789 54.7688 34.3742ZM58.2491 35.3278C58.2491 34.4696 58.2014 34.3266 57.8677 34.2789L57.5817 34.2312C57.534 34.1836 57.534 34.0405 57.5817 33.9929C58.0584 33.9452 58.6782 33.9452 59.5364 33.9452C60.0608 33.9452 60.5852 33.9929 61.0143 34.2312C61.4434 34.4696 61.7294 34.851 61.7294 35.4708C61.7294 36.329 61.062 36.758 60.6329 36.9488C60.5852 36.9964 60.6329 37.0918 60.6806 37.1395C61.3957 38.2837 61.8725 38.9988 62.4446 39.4756C62.5876 39.6186 62.826 39.714 63.0644 39.714C63.112 39.714 63.112 39.8093 63.0644 39.857C62.969 39.9047 62.826 39.9047 62.683 39.9047C61.9201 39.9047 61.4911 39.6663 60.8713 38.8081C60.7647 38.6589 60.6391 38.4525 60.5072 38.2358C60.344 37.9678 60.1713 37.6841 60.0131 37.4732C59.8701 37.2825 59.7271 37.1871 59.3933 37.1871C59.0119 37.1871 58.9643 37.1871 58.9643 37.3778V38.4744C58.9643 39.3802 58.9643 39.5232 59.4887 39.5709L59.6794 39.6186C59.7271 39.6663 59.7271 39.8093 59.6794 39.857C59.4824 39.857 59.298 39.8443 59.1199 39.832L59.1198 39.8319C58.9531 39.8204 58.7918 39.8093 58.6305 39.8093C58.2491 39.8093 57.9631 39.8093 57.534 39.857C57.4863 39.8093 57.4863 39.7139 57.534 39.6186L57.7724 39.5709C58.2968 39.5232 58.2968 39.3802 58.2968 38.4744V35.3278H58.2491ZM58.9643 36.5673C58.9643 36.7104 58.9643 36.8057 59.0119 36.8534C59.0596 36.9011 59.155 36.9011 59.6317 36.9011C59.9654 36.9011 60.2992 36.8534 60.5376 36.6627C60.7759 36.472 60.9666 36.1859 60.9666 35.5662C60.9666 34.851 60.5376 34.1836 59.5364 34.1836C59.0119 34.1836 58.9643 34.2312 58.9643 34.4696V36.5673ZM64.2563 34.2312C64.7808 34.2789 64.7808 34.4219 64.7808 35.3278V38.4744C64.7808 39.3802 64.7808 39.5232 64.2563 39.5709H63.9226C63.8749 39.6663 63.8749 39.7616 63.9226 39.8093C64.447 39.7616 64.733 39.7616 65.1144 39.7616H65.1145H65.925C66.3302 39.7616 66.7236 39.7735 67.1169 39.7854L67.1172 39.7855C67.5105 39.7974 67.9037 39.8093 68.3088 39.8093C68.4041 39.5709 68.6425 38.8558 68.6902 38.5697C68.6425 38.522 68.4995 38.4744 68.4518 38.522C68.2134 38.9988 67.9751 39.2849 67.832 39.3802C67.6413 39.4756 67.3553 39.5232 66.6878 39.5232C65.925 39.5232 65.7343 39.4279 65.6389 39.3325C65.4959 39.1895 65.4482 38.9034 65.4482 38.4267V37.1871C65.4482 37.0752 65.4482 37.0158 65.4779 36.9843C65.5113 36.9487 65.5826 36.9487 65.7343 36.9487H66.2587C66.5925 36.9487 66.7832 36.9487 66.9262 36.9964C67.1169 37.0441 67.1646 37.1871 67.2122 37.3301L67.3076 37.6639C67.3553 37.7116 67.4983 37.7116 67.546 37.6639C67.546 37.5818 67.5371 37.4732 67.5271 37.3495V37.3494V37.3493V37.3492L67.527 37.3491C67.5137 37.1855 67.4983 36.9956 67.4983 36.8057C67.4983 36.6158 67.5137 36.4105 67.527 36.2337L67.5271 36.2335V36.2334V36.2333V36.2332C67.5371 36.0994 67.546 35.982 67.546 35.8999C67.4983 35.8522 67.3553 35.8522 67.3076 35.8999L67.2599 36.2813C67.2599 36.472 67.1646 36.5197 67.0692 36.5673C66.9739 36.615 66.6878 36.615 66.3064 36.615H65.782C65.5436 36.615 65.4959 36.615 65.4959 36.3766V34.6126V34.6125C65.4959 34.4372 65.4959 34.354 65.5375 34.3145C65.575 34.2789 65.6463 34.2789 65.782 34.2789H66.4017C66.7832 34.2789 67.0692 34.2789 67.2599 34.3266C67.6919 34.4562 67.7716 34.7032 67.8892 35.0677C67.9014 35.1055 67.914 35.1445 67.9274 35.1847C67.9751 35.2324 68.1181 35.2324 68.1658 35.1847C68.1521 35.0621 68.1385 34.924 68.1249 34.7858C68.0908 34.4404 68.0568 34.095 68.0227 33.9928C67.9274 34.0405 67.4029 34.0405 66.8308 34.0405H65.1622C64.9715 34.0405 64.8046 34.0286 64.6377 34.0167C64.4709 34.0048 64.304 33.9928 64.1133 33.9928C64.0656 34.0405 64.0656 34.1835 64.1133 34.2312H64.2563ZM76.4136 37.7592C76.3659 37.5685 76.3182 37.5209 76.0322 37.5209H74.6972C74.4589 37.5209 74.4112 37.5685 74.3635 37.7116L74.0775 38.6174C73.9344 38.9988 73.8867 39.2372 73.8867 39.3325C73.8867 39.4279 73.9344 39.4756 74.1251 39.5232L74.4112 39.5709C74.4589 39.6186 74.4589 39.7616 74.4112 39.8093C74.1728 39.8093 73.8867 39.8093 73.5053 39.7616H73.5053C73.2192 39.7616 72.8856 39.7616 72.6472 39.8093C72.5995 39.7616 72.5995 39.6186 72.6472 39.5709L72.9332 39.5232C73.1239 39.5232 73.3623 39.4279 73.4577 39.0942C73.5189 38.9104 73.6064 38.7005 73.7126 38.4456L73.7126 38.4455L73.7128 38.4451L73.7129 38.4449L73.713 38.4447L73.7133 38.444C73.855 38.1039 74.03 37.6838 74.2205 37.1395L75.1263 34.7557C75.2694 34.4219 75.317 34.2789 75.2694 34.1359C75.4601 34.0882 75.6508 33.8975 75.7461 33.8022C75.7938 33.8022 75.8415 33.8022 75.8891 33.8975C75.9845 34.2789 76.1275 34.708 76.2705 35.0894L77.4624 38.6174C77.7008 39.3802 77.8438 39.5232 78.2253 39.5709L78.4636 39.6186C78.5113 39.6663 78.5113 39.8093 78.4636 39.857C78.273 39.857 78.1061 39.8451 77.9393 39.8331L77.9392 39.8331L77.9391 39.8331C77.7723 39.8212 77.6054 39.8093 77.4148 39.8093C76.9857 39.8093 76.652 39.8093 76.4136 39.857C76.3659 39.8093 76.3182 39.6663 76.4136 39.6186L76.652 39.5709C76.8427 39.5709 76.938 39.5232 76.938 39.4279C76.938 39.369 76.9198 39.2919 76.8947 39.1853L76.8946 39.1852L76.8946 39.185C76.879 39.1192 76.8608 39.0421 76.8427 38.9511L76.4136 37.7592ZM74.6496 36.9964C74.6271 37.0861 74.6153 37.1336 74.6338 37.1588C74.6546 37.1871 74.714 37.1871 74.8403 37.1871H75.9368C76.1752 37.1871 76.2229 37.1395 76.1275 36.9011L75.6508 35.4708C75.6175 35.338 75.5612 35.1819 75.5139 35.0512L75.5139 35.051L75.5138 35.0508C75.4933 34.994 75.4745 34.942 75.4601 34.8987C75.4257 34.933 75.3914 35.0414 75.3393 35.2062L75.3392 35.2064L75.3392 35.2066L75.3392 35.2067L75.3391 35.2068L75.339 35.2071L75.3387 35.2082C75.3186 35.2718 75.2958 35.3438 75.2694 35.4231L74.6496 36.9964ZM85.0906 39.857C85.0429 39.6663 85.0429 38.6174 85.0429 38.3314H85.1383V36.1859C85.1383 35.8045 85.1383 34.708 85.2813 34.3743C85.2813 34.2789 85.472 34.2312 85.758 34.1836H85.9011C85.9487 34.0882 85.9487 33.9929 85.9011 33.9452C85.615 33.9929 85.3766 33.9929 84.9952 33.9929C84.8388 33.9929 84.6929 33.9824 84.5378 33.9713C84.362 33.9586 84.1744 33.9452 83.9464 33.9452C83.8987 33.9929 83.8987 34.1359 83.9464 34.1836H84.0894C84.4231 34.2312 84.5661 34.2789 84.6138 34.3743C84.8045 34.6126 84.8045 35.7569 84.8045 36.1859V38.093C84.8045 38.2837 84.8045 38.4267 84.7569 38.4744C84.5122 38.2297 84.2675 37.954 83.9874 37.6384L83.9871 37.638C83.7761 37.4004 83.5451 37.1401 83.2789 36.8534L82.4207 35.8999C82.3926 35.8671 82.3571 35.826 82.3158 35.7781C81.9368 35.3392 81.0671 34.3321 80.8951 33.9452C80.7521 33.9929 80.6091 33.9929 80.466 33.9929C80.323 33.9929 79.8463 33.9929 79.4649 33.9452C79.4172 33.9929 79.4172 34.1359 79.4649 34.1836H79.6079C79.7986 34.1836 79.9893 34.2312 80.1323 34.3743C80.323 34.565 80.323 34.7557 80.323 34.994V37.5685C80.323 37.6436 80.3245 37.7375 80.3261 37.8433C80.3339 38.3426 80.3457 39.1048 80.2277 39.3802C80.18 39.4756 80.037 39.5232 79.8463 39.5709L79.6079 39.6186C79.5602 39.7139 79.5602 39.8093 79.6079 39.857C79.8939 39.8093 80.1323 39.8093 80.5137 39.8093C80.675 39.8093 80.8363 39.8204 81.003 39.8319L81.0031 39.832C81.1812 39.8443 81.3655 39.857 81.5626 39.857C81.6103 39.8093 81.6103 39.6663 81.5626 39.6186L81.2765 39.5709C81.0858 39.5232 80.8951 39.4756 80.8475 39.3802C80.7044 39.1418 80.7044 37.9976 80.7044 37.5685V35.6615C80.7044 35.3755 80.7044 35.1847 80.7521 35.0894C80.8457 35.2142 81.1436 35.5638 81.4051 35.8706L81.4053 35.8708C81.5432 36.0326 81.671 36.1825 81.7533 36.2813L83.8033 38.6174C84.5661 39.4756 84.8522 39.8093 84.9475 39.9523C85.0429 39.9523 85.0906 39.9047 85.0906 39.857ZM88.0941 35.1371C88.0941 34.5173 88.0465 34.3266 87.6651 34.2789L87.4743 34.2312C87.4267 34.1836 87.379 34.0405 87.4743 33.9929C88.2372 33.9452 88.9523 33.9452 89.6674 33.9452C90.4303 33.9452 91.05 33.9929 91.6221 34.2312C92.814 34.6603 93.4338 35.6615 93.4338 36.8534C93.4338 37.9976 92.9094 38.9511 91.9082 39.4756C91.3361 39.7616 90.621 39.9047 89.9535 39.9047C89.6184 39.9047 89.2832 39.8883 89.0056 39.8747C88.8093 39.8652 88.6417 39.857 88.5232 39.857C88.1418 39.857 87.8558 39.857 87.4267 39.9047C87.379 39.857 87.379 39.7616 87.4267 39.6663L87.6174 39.6186C88.1418 39.5709 88.1418 39.4279 88.1418 38.5221V35.1371H88.0941ZM88.8093 38.2837C88.8093 38.7604 88.8569 39.0465 89 39.2372C89.1907 39.5232 89.5244 39.6186 90.0965 39.6186C91.8129 39.6186 92.5757 38.4744 92.5757 36.8534C92.5757 35.8999 92.0989 34.2312 89.8105 34.2312C89.286 34.2312 89 34.2789 88.9523 34.3743C88.9046 34.4219 88.857 34.6603 88.857 35.0417V38.2837H88.8093ZM98.4716 39.6346C98.6761 39.7381 99.0993 39.9523 99.8224 39.9523C100.967 39.9523 101.682 39.2849 101.634 38.379C101.634 37.5209 101.11 36.9964 100.538 36.6627L99.8224 36.2336C99.4887 36.0429 99.0596 35.6615 99.0596 35.1371C99.0596 34.708 99.2503 34.1359 100.108 34.1359C100.967 34.1359 101.205 34.708 101.3 35.1371C101.348 35.1847 101.491 35.1371 101.539 35.0894C101.539 34.708 101.491 34.1836 101.396 33.9928C101.348 33.9928 101.205 33.9928 101.11 33.9452C100.871 33.8975 100.585 33.8498 100.299 33.8498C99.155 33.8498 98.4875 34.5173 98.4875 35.3754C98.4875 36.0906 99.0119 36.615 99.441 36.9011L100.299 37.4255C100.919 37.8546 101.014 38.2837 101.014 38.6651C101.014 39.1895 100.681 39.6663 99.9178 39.6663C98.8689 39.6663 98.5352 38.7604 98.3921 38.3313C98.3921 38.2837 98.2491 38.3313 98.2014 38.379C98.2014 38.8081 98.3445 39.4279 98.4398 39.6186L98.4716 39.6346ZM103.446 36.9487C103.446 35.1847 104.781 33.8498 106.592 33.8498C108.642 33.8498 109.644 35.3278 109.644 36.9011C109.644 38.6651 108.261 40 106.592 40C104.638 39.9523 103.446 38.5697 103.446 36.9487ZM108.738 37.1395C108.738 35.6615 108.07 34.0882 106.402 34.0882C105.496 34.0882 104.304 34.708 104.304 36.6627C104.304 37.9499 104.924 39.6663 106.688 39.6663C107.737 39.6663 108.738 38.9035 108.738 37.1395ZM114.793 33.8498C113.887 33.8498 113.076 34.0882 112.409 34.6126C111.741 35.1371 111.312 35.9476 111.408 36.9011C111.408 38.0453 111.932 38.8558 112.647 39.3325C113.267 39.7616 114.03 39.9046 114.84 39.9046C115.412 39.9046 116.032 39.7616 116.223 39.7139C116.318 39.6663 116.414 39.6186 116.509 39.6186C116.652 39.4756 116.89 38.9035 116.938 38.4267C116.89 38.3313 116.747 38.3313 116.7 38.379C116.461 38.8558 115.985 39.6186 114.84 39.6186C113.41 39.6186 112.218 38.6174 112.218 36.758C112.218 34.9464 113.362 34.0882 114.697 34.0882C115.985 34.0882 116.366 34.7557 116.509 35.3754C116.557 35.4231 116.7 35.4231 116.747 35.3754C116.652 34.851 116.604 34.2789 116.604 34.0882C116.509 34.0882 116.461 34.0882 116.366 34.0405C115.937 33.9452 115.269 33.8498 114.793 33.8498ZM119.083 35.3278C119.083 34.3743 119.083 34.2312 118.559 34.1836H118.321C118.273 34.1359 118.273 33.9929 118.321 33.9452C118.549 33.9452 118.75 33.9586 118.938 33.9713C119.104 33.9824 119.261 33.9929 119.417 33.9929C119.751 33.9929 120.085 33.9929 120.514 33.9452C120.561 33.9929 120.561 34.1359 120.514 34.1836H120.275C119.751 34.2312 119.751 34.3743 119.751 35.3278V38.4744C119.751 39.4279 119.751 39.5232 120.275 39.6186L120.514 39.6663C120.561 39.7139 120.561 39.857 120.514 39.9047C120.286 39.9047 120.085 39.8912 119.896 39.8786H119.896C119.73 39.8674 119.574 39.857 119.417 39.857C119.036 39.857 118.75 39.857 118.321 39.9047C118.273 39.857 118.273 39.7616 118.321 39.6663L118.559 39.6186C119.083 39.5709 119.083 39.4279 119.083 38.4744V35.3278ZM122.421 34.2312C122.945 34.2789 122.945 34.4219 122.945 35.3278V38.4744C122.945 39.3802 122.945 39.5232 122.421 39.5709H122.039C121.992 39.6663 121.992 39.7616 122.039 39.8093C122.564 39.7616 122.85 39.7616 123.231 39.7616H123.231H124.042C124.447 39.7616 124.84 39.7735 125.234 39.7854L125.234 39.7855C125.627 39.7974 126.02 39.8093 126.426 39.8093C126.521 39.5709 126.759 38.8558 126.807 38.5697C126.759 38.522 126.616 38.4744 126.569 38.522C126.33 38.9988 126.092 39.2849 125.949 39.3802C125.758 39.4756 125.472 39.5232 124.805 39.5232C124.042 39.5232 123.851 39.4279 123.756 39.3325C123.66 39.1895 123.613 38.9034 123.613 38.4267V37.1871C123.613 36.9487 123.613 36.9487 123.899 36.9487H124.423C124.757 36.9487 124.948 36.9487 125.091 36.9964C125.281 37.0441 125.329 37.1871 125.377 37.3301L125.472 37.6639C125.52 37.7116 125.663 37.7116 125.71 37.6639C125.71 37.5818 125.702 37.4732 125.691 37.3495C125.678 37.1858 125.663 36.9958 125.663 36.8057C125.663 36.6157 125.678 36.4101 125.691 36.2332C125.702 36.0994 125.71 35.982 125.71 35.8999C125.663 35.8522 125.52 35.8522 125.472 35.8999L125.424 36.2813C125.377 36.472 125.329 36.5197 125.234 36.5673C125.138 36.615 124.852 36.615 124.471 36.615H123.946C123.708 36.615 123.66 36.615 123.66 36.3766V34.6126C123.66 34.4372 123.66 34.354 123.702 34.3145C123.739 34.2789 123.811 34.2789 123.946 34.2789H124.566C124.948 34.2789 125.234 34.2789 125.424 34.3266C125.856 34.4562 125.936 34.7032 126.054 35.0677L126.054 35.0682C126.066 35.1058 126.078 35.1446 126.092 35.1847C126.139 35.2324 126.282 35.2324 126.33 35.1847C126.317 35.0622 126.303 34.924 126.289 34.7859C126.255 34.4405 126.221 34.095 126.187 33.9928C126.092 34.0405 125.567 34.0405 124.995 34.0405H123.327C123.136 34.0405 122.969 34.0286 122.802 34.0167C122.635 34.0048 122.468 33.9928 122.278 33.9928C122.23 34.0405 122.23 34.1835 122.278 34.2312H122.421ZM131.098 38.4744C131.098 39.3802 131.098 39.5232 131.622 39.5709L131.908 39.6186C131.956 39.6663 131.956 39.8093 131.908 39.857C131.617 39.857 131.399 39.8422 131.205 39.8291C131.051 39.8187 130.912 39.8093 130.764 39.8093C130.43 39.8093 130.097 39.8093 129.524 39.857C129.477 39.8093 129.477 39.6663 129.524 39.6186L129.858 39.5709C130.383 39.5232 130.383 39.3802 130.383 38.4744V34.5173C130.383 34.3743 130.383 34.3027 130.347 34.267C130.311 34.2312 130.24 34.2312 130.097 34.2312H129.62C129.238 34.2312 128.762 34.2312 128.523 34.4696C128.333 34.6603 128.237 34.851 128.142 35.0894C128.094 35.1371 127.951 35.0894 127.903 35.0417C128.047 34.6603 128.19 34.0882 128.237 33.7068C128.253 33.7068 128.274 33.7015 128.295 33.6962C128.338 33.6856 128.38 33.675 128.38 33.7068C128.428 33.9929 128.714 33.9929 129.143 33.9929H132.719C133.196 33.9929 133.291 33.9929 133.386 33.7545C133.434 33.7545 133.529 33.7545 133.529 33.8022C133.434 34.1836 133.386 34.8987 133.386 35.1371C133.339 35.1847 133.196 35.1847 133.148 35.1371L133.138 35.0859C133.093 34.859 133.042 34.6025 132.909 34.4696C132.719 34.3266 132.385 34.2312 131.908 34.2312H131.288C131.153 34.2312 131.093 34.2312 131.066 34.2613C131.045 34.2859 131.046 34.3304 131.048 34.4114L131.049 34.4453L131.05 34.4764C131.05 34.4894 131.05 34.503 131.05 34.5173V38.4744H131.098ZM138.154 39.6186C137.677 39.5709 137.629 39.4279 137.629 38.4744V37.9976C137.629 37.3302 137.677 37.2348 138.058 36.5673L138.631 35.6138C138.677 35.5305 138.722 35.45 138.765 35.3726L138.765 35.3717C139.115 34.7412 139.35 34.3161 139.775 34.2312L140.013 34.1836C140.108 34.0882 140.061 33.9929 140.013 33.9452C139.727 33.9929 139.489 33.9929 139.203 33.9929C139.065 33.9929 138.939 33.9818 138.807 33.9704C138.665 33.958 138.518 33.9452 138.344 33.9452C138.297 33.9929 138.297 34.1359 138.344 34.1836H138.488C138.726 34.2312 138.869 34.2789 138.869 34.3266C138.869 34.3877 138.732 34.6445 138.571 34.9465L138.571 34.9467L138.57 34.9483C138.48 35.1172 138.382 35.3001 138.297 35.4708C138.058 35.9476 137.772 36.472 137.486 36.9488C137.153 36.3294 136.819 35.6624 136.486 34.9953L136.485 34.994L136.485 34.9938C136.437 34.8977 136.199 34.4218 136.199 34.3266C136.199 34.2789 136.294 34.2312 136.58 34.1836H136.676C136.724 34.0882 136.724 33.9929 136.628 33.9452C136.39 33.9929 136.104 33.9929 135.675 33.9929C135.47 33.9929 135.28 33.9792 135.103 33.9665C134.949 33.9554 134.806 33.9452 134.673 33.9452C134.626 33.9929 134.626 34.1359 134.673 34.1836L134.912 34.2312C135.198 34.2789 135.341 34.3266 135.627 34.8987L136.676 36.9488C136.914 37.4255 136.962 37.5685 136.962 38.0453V38.4744C136.962 39.4279 136.962 39.5709 136.437 39.6186L136.151 39.6663C136.104 39.7616 136.104 39.857 136.151 39.9047C136.628 39.857 136.914 39.857 137.296 39.857C137.444 39.857 137.592 39.8664 137.757 39.8768C137.963 39.8899 138.196 39.9047 138.488 39.9047C138.535 39.857 138.535 39.7139 138.488 39.6663L138.154 39.6186ZM26.4493 0.0476642H20.5852V8.0572H26.497V7.24671H21.4911V4.43384H25.9249V3.62335H21.4911V0.858153H26.4493V0.0476642ZM38.5114 4.76757V0.0476642H39.4172V4.71989C39.4172 6.4839 40.323 7.43741 41.8963 7.43741C43.3743 7.43741 44.3278 6.53157 44.3278 4.76757V0.0476642H45.2336V4.67222C45.2336 7.00833 43.8987 8.2479 41.8487 8.2479C39.894 8.29558 38.5114 7.05601 38.5114 4.76757ZM61.1573 0.0476642H57.7247H57.677V8.10487H61.2527C63.0167 8.10487 64.2086 7.29439 64.2086 5.91179C64.2086 4.81524 63.4458 4.24313 62.4923 3.95708C63.112 3.67102 63.7795 3.14659 63.7795 2.09772V2.05005C63.7795 1.52561 63.5888 1.09653 63.2551 0.762801C62.826 0.333719 62.0632 0.0476642 61.1573 0.0476642ZM62.8737 2.24075C62.8737 3.19427 62.1109 3.67102 61.0143 3.67102V3.62335H58.5828V0.858153H61.062C62.2539 0.858153 62.8737 1.38259 62.8737 2.19308V2.24075ZM63.3504 5.91179C63.3504 6.81763 62.5876 7.34206 61.348 7.34206V7.38974H58.6305V4.52919H61.205C62.5876 4.52919 63.3504 5.05362 63.3504 5.91179ZM95.3886 0.0476642V4.76757C95.3886 7.05601 96.7712 8.29558 98.7259 8.2479C100.776 8.2479 102.111 7.00833 102.111 4.67222V0.0476642H101.205V4.76757C101.205 6.53157 100.252 7.43741 98.7736 7.43741C97.2003 7.43741 96.2944 6.4839 96.2944 4.71989V0.0476642H95.3886ZM114.602 0.0476642H120.466V0.858153H115.508V3.62335H119.942V4.43384H115.508V7.24671H120.514V8.0572H114.602V0.0476642ZM136.151 0.0476642H132.671H132.623V8.0572H133.529V4.9106H135.865L138.201 8.0572H139.346L136.866 4.76757C138.154 4.57687 139.06 3.76638 139.06 2.43145C139.06 1.81167 138.821 1.23956 138.44 0.858153C137.963 0.333719 137.153 0.0476642 136.151 0.0476642ZM138.201 2.52681C138.201 3.57567 137.296 4.19546 136.104 4.19546H133.672V0.905828H136.151C137.439 0.905828 138.201 1.47794 138.201 2.47913V2.52681Z" />
</svg>
