<svg xmlns="http://www.w3.org/2000/svg"><symbol id="icon-arrow-right-20" viewBox="0 0 20 21"><title>icon-arrow-right-20</title><path fill-rule="evenodd" clip-rule="evenodd" d="M2.25 10H17.5l.288-.288c-1.294-1.239-2.036-1.722-2.57-2.07-.322-.21-.568-.37-.814-.617l-.177-.176a.75.75 0 111.06-1.061L19 9.5l1 1-1 1-3.713 3.713a.75.75 0 11-1.06-1.061l.177-.177c.246-.246.492-.407.813-.616.535-.348 1.277-.832 2.57-2.071L17.5 11H2.25L0 12.5v-4L2.25 10z"/></symbol><symbol id="icon-close-20" viewBox="0 0 20 20"><title>icon-close-20</title><path fill-rule="evenodd" clip-rule="evenodd" d="M5.396 6.525l-.176-.177a.75.75 0 011.06-1.06L9.993 9l.003.003L10 9l3.713-3.712a.75.75 0 111.06 1.06l-.177.177c-.246.246-.492.407-.813.616-.563.367-1.357.884-2.783 2.277v1.164c1.426 1.393 2.22 1.91 2.783 2.277.32.209.567.37.813.616l.177.177a.75.75 0 01-1.06 1.06L10 11l-.004-.004-.003.004-3.712 3.712a.75.75 0 11-1.061-1.06l.177-.177c.246-.247.492-.407.813-.616.563-.367 1.357-.884 2.783-2.277V9.418C7.566 8.025 6.773 7.508 6.21 7.14c-.32-.21-.567-.37-.814-.616z"/></symbol><symbol id="icon-search-20" viewBox="0 0 20 20"><title>icon-search-20</title><path fill-rule="evenodd" clip-rule="evenodd" d="M8 15A7 7 0 108 1a7 7 0 000 14zm0 1c1.955 0 3.745-.7 5.135-1.865L16 17c1 1 2 3 2 3a2 2 0 002-2s-2-1-3-2l-2.865-2.865A8 8 0 108 16zM3 8c0-3 2-5 5-5 .5 0 .5.5.5.5s0 .5-.5.5C5 4 3.5 6 3 8z"/></symbol><symbol id="logo-neubauer" viewBox="0 0 140 40"><title>logo-neubauer</title><path fill-rule="evenodd" clip-rule="evenodd" d="M79.094 0h.858l3.671 8.153h-1l-.954-2.146H77.33l-.953 2.146h-.954L79.094 0zm2.289 5.197l-1.86-4.148-1.86 4.148h3.72zM.858.047h.858l5.102 6.485V.048h.905v8.105h-.715L1.764 1.526v6.627H.858V.048zm16.02 20.74c0-3.767 2.812-6.627 6.674-6.627 4.338 0 6.531 3.146 6.531 6.436 0 3.766-2.908 6.532-6.531 6.532-4.148 0-6.675-2.956-6.675-6.341zm11.298.381c0-3.099-1.382-6.436-4.958-6.436-1.955 0-4.482 1.335-4.482 5.435 0 2.765 1.335 6.388 5.054 6.388 2.24 0 4.386-1.668 4.386-5.387zM2.384 15.781c1.382-1.05 3.099-1.574 5.053-1.574 1.002 0 2.432.191 3.338.43.08.015.143.031.2.045.112.029.197.05.324.05 0 .429.096 1.62.286 2.765-.095.143-.381.143-.524.048-.286-1.288-1.144-2.718-3.862-2.718-2.86 0-5.292 1.812-5.292 5.721 0 3.957 2.48 6.103 5.578 6.103 2.432 0 3.48-1.573 3.91-2.67.143-.095.429-.048.476.095-.143.954-.62 2.193-.906 2.575a3.512 3.512 0 00-.667.19c-.43.143-1.764.43-2.956.43-1.669 0-3.29-.334-4.672-1.24C1.192 24.982 0 23.314 0 20.882c.048-2.24.954-4.005 2.384-5.101zm33.468-.906c1.192.095 1.24.429 1.24 2.384v6.722c0 1.955-.048 2.24-1.144 2.336l-.572.048c-.096.143-.048.429.047.477 1.05-.048 1.621-.048 2.432-.048h1.716c1.955 0 3.719 0 4.672.047.286-.524.81-2.431.81-2.622 0-.095-.38-.19-.476-.095-.381.954-.858 1.62-1.24 1.86-.286.142-.715.238-2.288.238-1.478 0-1.86-.239-2.05-.43-.334-.333-.382-.81-.382-2.002v-6.53c0-2.003.048-2.289 1.145-2.384l.429-.048c.095-.095.047-.429-.048-.477-.906.048-1.573.048-2.288.048-.763 0-1.383 0-2.432-.048-.143.048-.143.382-.047.477l.476.048zm15.352 2.384c0-1.955-.048-2.289-1.24-2.384l-.477-.048c-.095-.095-.095-.429.048-.477 1.049.048 1.669.048 2.432.048.715 0 1.382 0 2.288-.048.095.048.143.382.048.477l-.43.048c-1.096.095-1.143.381-1.143 2.384v6.531c0 1.192.047 1.669.38 2.003.192.19.573.429 2.05.429 1.574 0 2.003-.096 2.29-.239.38-.238.857-.905 1.239-1.859.095-.095.477 0 .477.095 0 .191-.525 2.098-.81 2.622-.954-.047-2.718-.047-4.673-.047h-1.716c-.81 0-1.383 0-2.432.047-.095-.047-.143-.333-.047-.476l.572-.048c1.096-.095 1.144-.381 1.144-2.336v-6.722zm12.968-2.384c1.096.143 1.144.429 1.144 2.384h-.096v6.817c0 1.955-.095 2.241-1.144 2.336l-.62.048c-.095.143-.047.43.048.477 1.144-.048 1.764-.048 2.575-.048h1.668c1.669 0 3.338 0 5.006.048.239-.525.715-1.955.858-2.622-.095-.191-.333-.239-.476-.143-.477.953-1.002 1.62-1.335 1.811-.382.191-.954.286-2.384.286-1.669 0-2.05-.19-2.288-.429-.287-.333-.334-.953-.334-1.954v-2.623c0-.524.047-.524.62-.524h1.096c.715 0 1.144 0 1.43.095.382.096.477.382.573.715l.19.716c.096.143.382.143.477 0 0-.19-.019-.438-.04-.711v-.002a14.776 14.776 0 01-.055-1.1c0-.402.03-.82.056-1.185.02-.283.039-.534.039-.721-.048-.095-.381-.095-.477 0l-.143.763c-.095.476-.19.572-.429.667-.19.048-.763.096-1.573.096H67.46c-.572 0-.62 0-.62-.525v-3.766c0-.715 0-.763.573-.763h1.335c.81 0 1.43 0 1.811.095.926.22 1.118.809 1.368 1.575l.044.135.019.054c.095.096.38.048.476-.047-.047-.81-.19-2.146-.286-2.48-.238.048-1.335.048-2.527.048h-3.528c-.763 0-1.382 0-2.193-.048-.143.048-.143.382-.047.477l.286.048zm25.65 10.06c0 .762.095 1.191.428 1.334.048.048.048.191 0 .239-.238 0-.572.095-.906.19-1 .287-2.336.477-3.337.477-2.24 0-4.29-.62-5.72-2.098-1.145-1.144-1.717-2.622-1.717-4.243 0-1.573.524-3.194 1.668-4.433 1.24-1.335 3.1-2.194 5.96-2.194 1.049 0 2.05.191 2.384.286.333.096.953.191 1.144.191 0 .62.095 1.574.286 2.718-.048.143-.382.19-.525.047-.524-2.05-1.954-2.67-3.861-2.67-3.624 0-5.245 2.575-5.245 5.388 0 3.623 1.86 6.436 5.626 6.436 1.144 0 1.86-.238 2.05-.572.096-.143.19-.477.19-1.049v-.763c0-1.573-.047-1.668-1.239-1.811l-.81-.096c-.143-.095-.143-.429 0-.477.524.048 1.573.048 2.67.048.715 0 1.382 0 2.002-.047.143.095.143.333 0 .476l-.286.048c-.81.095-.81.62-.81 1.573v1.002h.047zm6.864-10.012c1.097.095 1.145.38 1.145 2.383v6.675c0 2.002-.048 2.24-1.145 2.384l-.476.047c-.096.143-.048.43.047.477.954-.047 1.574-.047 2.384-.047.763 0 1.383 0 2.336.047.143-.047.143-.381.048-.477l-.477-.047c-1.096-.143-1.144-.382-1.144-2.384v-6.675c0-1.954.048-2.288 1.144-2.384l.477-.047c.095-.095.048-.43-.048-.477-.953.048-1.573.048-2.336.048-.81 0-1.43 0-2.384-.048-.143.048-.143.382-.047.477l.477.047zm20.167 4.243c0-1.145-.047-3.338-.333-3.862-.143-.238-.477-.334-.954-.382l-.477-.047c-.095-.143-.095-.382.048-.43.715.048 1.43.048 2.145.048.811 0 1.288 0 1.955-.047.143.095.143.334.048.429l-.429.047c-.477.048-.811.191-.954.43-.286.62-.286 2.765-.286 3.814v2.097c0 1.621-.286 3.338-1.335 4.482-.81.858-2.193 1.383-3.575 1.383-1.288 0-2.575-.239-3.528-1.05-1.002-.81-1.478-2.192-1.478-4.433V17.21c0-1.955-.048-2.288-1.145-2.384l-.476-.047c-.096-.096-.096-.382.047-.43.954.048 1.574.048 2.336.048.763 0 1.383 0 2.289-.048.095.048.143.382.048.43l-.43.047c-1.096.095-1.144.43-1.144 2.384v4.052c0 3.004.954 5.006 3.814 5.006 2.718 0 3.767-2.145 3.767-5.006v-2.097h.047zm14.113 3.539h-.001c-.143-.292-.286-.583-.429-.87l-2.097-4.338c-.573-1.192-1.049-2.384-.954-3.099-.62.048-1.144.048-1.573.048-.477 0-.906 0-1.478-.048-.191.095-.191.382-.096.477l.287.047c1.144.143 1.287.43 1.239 1.622 0 1.048-.095 2.622-.191 4.195a353.948 353.948 0 01-.2 2.491v.01c-.048.57-.09 1.09-.133 1.647-.096 1.287-.334 1.43-1.145 1.525l-.429.048c-.095.095-.047.381.048.477.62-.048 1.287-.048 1.907-.048.715 0 1.478 0 2.098.048.095-.048.143-.382 0-.477l-.715-.048c-.763-.095-.858-.381-.858-1.764 0-1.293.06-2.616.109-3.68v-.002l.034-.752a82.38 82.38 0 01.19-3.337h.048c.191.43.393.894.596 1.359.202.465.405.93.596 1.359l1.668 3.623c.118.261.271.587.439.943l.002.005h.001l.001.002c.443.942.984 2.092 1.226 2.817.048.095.143.095.191.095.095 0 .143-.048.191-.095.333-.859 1.144-2.623 2.002-4.291l1.669-3.29c.165-.31.392-.77.609-1.21l.001-.002c.242-.49.47-.953.582-1.145l.047 7.744c0 1.192 0 1.478-.906 1.574l-.524.047c-.095.143-.095.382.048.477.762-.047 1.621-.047 2.288-.047.667 0 1.43 0 2.193.047.143-.095.143-.381.048-.477l-.62-.047c-.835-.093-.858-.547-.902-1.45l-.004-.076c-.099-1.855-.13-4.101-.155-5.971v-.005c-.011-.82-.021-1.566-.036-2.177 0-1.287.143-1.668 1.335-1.764l.382-.047c.095-.095.095-.382 0-.477-.572.048-1.192.048-1.669.048-.381 0-.81 0-1.43-.048-.045.857-.517 1.8-1.295 3.352l-.135.271-1.764 3.576c-.144.287-.283.578-.422.869-.322.674-.642 1.344-1.009 1.944h-.047c-.286-.54-.572-1.123-.858-1.705zM1.955 36.472c0 .112 0 .171.03.203.033.035.104.035.256.035h.62c.381 0 .667 0 .762-.047.096-.048.191-.096.239-.286l.095-.334c.048-.048.19-.048.238 0 0 .082-.008.2-.018.333-.014.177-.03.383-.03.573 0 .19.016.38.03.544.01.123.018.232.018.314-.047.048-.19.048-.238 0l-.095-.334c-.048-.143-.096-.286-.286-.334-.143-.047-.334-.047-.668-.047h-.667c-.152 0-.223 0-.257.035-.03.032-.03.091-.03.203v1.24c0 .906 0 1.049.525 1.096l.286.048c.048.048.048.19 0 .238-.283 0-.496-.014-.693-.026a7.342 7.342 0 00-.499-.021c-.381 0-.667 0-1.096.047-.048-.047-.048-.143 0-.238l.19-.143c.525-.048.525-.19.525-1.097V35.28c0-.906 0-1.049-.525-1.096H.524c-.047-.048-.047-.191 0-.239.197 0 .37.013.535.025.155.012.305.023.467.023h1.62c.573 0 1.097 0 1.193-.048 0 .43 0 .81.047 1.144-.047.048-.143.096-.19.048-.048-.381-.191-.715-.62-.858-.191-.048-.477-.048-.858-.048h-.525c-.136 0-.207 0-.244.036-.042.04-.042.122-.042.298v1.907h.048zm7.294-2.622c-1.812 0-3.146 1.335-3.146 3.099 0 1.62 1.191 3.003 3.146 3.051 1.669 0 3.051-1.335 3.051-3.099 0-1.573-1-3.051-3.05-3.051zm-.143.238c1.669 0 2.336 1.573 2.336 3.051 0 1.764-1.001 2.527-2.05 2.527-1.764 0-2.384-1.716-2.384-3.003 0-1.955 1.192-2.575 2.098-2.575zm5.626 1.24c0-.858-.048-1.001-.382-1.05l-.286-.047c-.047-.047-.047-.19 0-.238.477-.048 1.097-.048 1.955-.048.525 0 1.049.048 1.478.286.43.239.715.62.715 1.24 0 .858-.667 1.287-1.096 1.478-.048.047 0 .143.047.19.715 1.145 1.192 1.86 1.764 2.337a.906.906 0 00.62.238c.048 0 .048.095 0 .143-.095.048-.238.048-.381.048-.763 0-1.192-.239-1.812-1.097a10.24 10.24 0 01-.364-.572 10.27 10.27 0 00-.494-.763c-.143-.19-.286-.286-.62-.286-.381 0-.43 0-.43.19v1.097c0 .906 0 1.05.525 1.097l.191.048c.048.047.048.19 0 .238-.197 0-.381-.013-.56-.025a8.807 8.807 0 00-1.586.025c-.047-.048-.047-.143 0-.238l.239-.048c.524-.048.524-.19.524-1.097v-3.146h-.047zm.715 1.24c0 .142 0 .238.048.285.047.048.143.048.62.048.333 0 .667-.048.905-.238.239-.191.43-.477.43-1.097 0-.715-.43-1.382-1.431-1.382-.572 0-.572.047-.572.286v2.097zm11.728-2.718c-.906 0-1.716.238-2.384.763-.667.524-1.144 1.335-1 2.288 0 1.144.524 1.955 1.239 2.431.62.43 1.382.573 2.193.573.572 0 1.192-.143 1.382-.191.096-.048.191-.095.287-.095.143-.143.38-.715.428-1.192-.047-.096-.19-.096-.238-.048-.238.477-.715 1.24-1.86 1.24-1.43 0-2.621-1.002-2.621-2.861 0-1.812 1.144-2.67 2.479-2.67 1.287 0 1.668.668 1.812 1.287.047.048.19.048.238 0a9.294 9.294 0 01-.143-1.287c-.048 0-.143 0-.239-.047a8.36 8.36 0 00-1.573-.191zm8.486 2.336c0-.525 0-1.573-.19-1.812-.048-.095-.239-.19-.43-.19h-.238c-.047-.048-.047-.191 0-.191.167 0 .334.012.5.024h.001c.167.012.334.023.5.023.382 0 .62 0 .906-.047a.145.145 0 010 .19h-.19c-.239 0-.382.096-.43.191-.143.286-.143 1.287-.143 1.812v1.001c0 .763-.143 1.573-.62 2.098-.38.429-1.048.667-1.668.667-.62 0-1.24-.095-1.669-.476-.476-.382-.667-1.05-.667-2.098V35.28c0-.906 0-1.049-.524-1.096h-.239c-.047-.048-.047-.191 0-.191.228 0 .43.013.618.026.166.011.322.022.479.022.381 0 .667 0 1.096-.048.048.047.048.19 0 .19h-.19c-.525.048-.525.191-.525 1.097v1.907c0 1.43.43 2.336 1.812 2.336 1.287 0 1.764-1.001 1.764-2.336v-1.001h.047zm2.67-1.955c.572.048.572.19.572 1.097h.048v3.146c0 .906 0 1.05-.524 1.097l-.286.048c-.048.095-.048.19 0 .238.476-.048.762-.048 1.144-.048h.81c.536 0 1.055.017 1.478.03h.002c.292.01.538.018.713.018.143-.238.382-1.144.382-1.24 0-.047-.19-.095-.239-.047-.143.429-.381.763-.572.858-.143.048-.333.095-1.096.095-.668 0-.858-.095-.954-.19-.143-.143-.19-.382-.19-.954v-3.051c0-.906 0-1.05.524-1.097h.19c.048-.047.048-.19 0-.238-.428.047-.762.047-1.096.047-.152 0-.304-.01-.47-.02a9.76 9.76 0 00-.674-.027c-.048.047-.048.19 0 .238h.238zm7.58 4.243c0 .906 0 1.05.525 1.097l.286.048c.048.047.048.19 0 .238-.291 0-.51-.015-.703-.028-.154-.01-.293-.02-.441-.02-.334 0-.668 0-1.24.048-.047-.048-.047-.19 0-.238l.334-.048c.525-.048.525-.19.525-1.097v-3.957c0-.143 0-.214-.036-.25-.036-.036-.107-.036-.25-.036h-.477c-.382 0-.858 0-1.097.239-.19.19-.286.381-.381.62-.048.047-.19 0-.239-.048.144-.382.287-.954.334-1.335.015 0 .033-.005.054-.01.047-.01.104-.023.137.01.048.286.334.286.763.286h3.575c.477 0 .573 0 .668-.239.047 0 .143 0 .143.048-.096.382-.143 1.097-.143 1.335-.048.048-.19.048-.238 0l-.01-.051c-.045-.227-.096-.483-.229-.616-.19-.143-.524-.239-1.001-.239h-.62c-.135 0-.196 0-.222.03-.022.025-.02.07-.018.15l.001.047v4.016zm8.582-4.1c.191.239.191 1.287.191 1.812h-.047v1.001c0 1.335-.477 2.336-1.764 2.336-1.383 0-1.812-.906-1.812-2.336V35.28c0-.906 0-1.049.524-1.096h.19c.049 0 .049-.143 0-.191-.428.047-.714.047-1.096.047-.156 0-.312-.01-.479-.021a8.673 8.673 0 00-.617-.026c-.048 0-.048.143 0 .19h.238c.525.048.525.191.525 1.097v2.098c0 1.049.19 1.716.667 2.098.43.381 1.049.476 1.669.476.62 0 1.287-.238 1.668-.667.477-.525.62-1.335.62-2.098v-1.001c0-.525 0-1.526.143-1.812.048-.095.19-.19.43-.19h.19a.145.145 0 000-.191c-.286.047-.524.047-.906.047-.167 0-.334-.011-.5-.023a6.999 6.999 0 00-.501-.024c-.048 0-.048.143 0 .19h.238c.191 0 .382.096.43.191zm3.48.954c0-.858-.047-1.001-.38-1.05l-.287-.047c-.047-.047-.047-.19 0-.238.477-.048 1.097-.048 1.955-.048.524 0 1.049.048 1.478.286.429.239.715.62.715 1.24 0 .858-.667 1.287-1.096 1.478-.048.047 0 .143.047.19.715 1.145 1.192 1.86 1.764 2.337a.906.906 0 00.62.238c.048 0 .048.095 0 .143-.095.048-.238.048-.381.048-.763 0-1.192-.239-1.812-1.097a10.24 10.24 0 01-.364-.572 10.27 10.27 0 00-.494-.763c-.143-.19-.286-.286-.62-.286-.382 0-.43 0-.43.19v1.097c0 .906 0 1.05.525 1.097l.191.048c.048.047.048.19 0 .238-.197 0-.381-.013-.56-.025a7.118 7.118 0 00-.489-.023c-.381 0-.667 0-1.096.048-.048-.048-.048-.143 0-.238l.238-.048c.524-.048.524-.19.524-1.097v-3.146h-.047zm.716 1.24c0 .142 0 .238.047.285.048.048.144.048.62.048.334 0 .668-.048.906-.238.239-.191.43-.477.43-1.097 0-.715-.43-1.382-1.431-1.382-.525 0-.572.047-.572.286v2.097zm5.292-2.337c.524.048.524.19.524 1.097v3.146c0 .906 0 1.05-.524 1.097h-.334c-.047.095-.047.19 0 .238.525-.047.81-.047 1.192-.047h.81c.406 0 .8.011 1.192.023.394.012.787.024 1.192.024.096-.238.334-.953.382-1.24-.048-.047-.19-.095-.239-.047-.238.477-.476.763-.62.858-.19.096-.476.143-1.144.143-.762 0-.953-.095-1.049-.19-.142-.143-.19-.43-.19-.906v-1.24c0-.112 0-.171.03-.203.033-.035.104-.035.256-.035h.524c.334 0 .525 0 .668.047.19.048.238.191.286.334l.095.334c.048.048.19.048.239 0 0-.082-.01-.19-.02-.315a6.676 6.676 0 01-.028-.543c0-.19.015-.395.029-.572.01-.135.019-.252.019-.334-.048-.048-.191-.048-.239 0l-.047.381c0 .191-.096.239-.191.286-.096.048-.382.048-.763.048h-.524c-.239 0-.287 0-.287-.238v-1.764c0-.176 0-.259.042-.298.038-.036.109-.036.245-.036h.62c.38 0 .667 0 .858.048.431.13.511.376.629.74l.038.118c.048.047.19.047.238 0l-.04-.4c-.034-.345-.069-.69-.103-.792-.095.047-.62.047-1.192.047h-1.668c-.19 0-.358-.011-.525-.023a6.979 6.979 0 00-.524-.024c-.048.047-.048.19 0 .238h.143zm12.157 3.528c-.047-.19-.095-.238-.381-.238h-1.335c-.239 0-.286.047-.334.19l-.286.906c-.143.382-.19.62-.19.716 0 .095.047.143.238.19l.286.048c.047.048.047.19 0 .238-.239 0-.525 0-.906-.047-.286 0-.62 0-.858.047-.048-.047-.048-.19 0-.238l.286-.048c.19 0 .429-.095.524-.429.061-.184.149-.394.255-.648v-.002c.143-.34.318-.76.508-1.305l.906-2.383c.143-.334.19-.477.143-.62.19-.048.381-.239.477-.334.047 0 .095 0 .143.096.095.38.238.81.381 1.191l1.192 3.528c.238.763.382.906.763.954l.238.048c.048.047.048.19 0 .238a7.02 7.02 0 01-.524-.024 7.076 7.076 0 00-.525-.024c-.429 0-.762 0-1 .048-.048-.048-.096-.19 0-.238l.238-.048c.19 0 .286-.048.286-.143 0-.059-.019-.136-.044-.243a6.3 6.3 0 01-.052-.234l-.429-1.192zm-1.764-.763c-.022.09-.034.138-.016.163.021.028.08.028.207.028h1.096c.239 0 .287-.047.191-.286l-.477-1.43a4.654 4.654 0 00-.136-.42 4.52 4.52 0 01-.054-.152c-.035.034-.069.142-.121.307v.002l-.07.215-.62 1.573zm10.441 2.861c-.047-.19-.047-1.24-.047-1.526h.095v-2.145c0-.382 0-1.478.143-1.812 0-.095.19-.143.477-.19h.143c.047-.096.047-.191 0-.239-.286.048-.525.048-.906.048-.157 0-.302-.01-.458-.022a7.763 7.763 0 00-.591-.026c-.048.048-.048.19 0 .239h.143c.334.047.477.095.524.19.191.239.191 1.383.191 1.812v1.907c0 .19 0 .334-.047.381a18.65 18.65 0 01-.77-.836 42.678 42.678 0 00-.709-.785l-.858-.953-.105-.122c-.379-.439-1.248-1.446-1.42-1.833-.143.048-.286.048-.43.048-.142 0-.62 0-1-.048-.048.048-.048.19 0 .239h.142c.191 0 .382.047.525.19.19.191.19.382.19.62v2.575c0 .075.002.168.004.274.007.5.02 1.262-.099 1.537-.047.096-.19.143-.381.19l-.239.049c-.047.095-.047.19 0 .238.287-.048.525-.048.906-.048.162 0 .323.011.49.023.178.012.362.025.56.025.047-.048.047-.19 0-.238L81 39.57c-.19-.048-.381-.095-.429-.19-.143-.24-.143-1.383-.143-1.813V35.66c0-.285 0-.476.048-.572.093.125.391.475.653.782.138.162.266.311.348.41l2.05 2.336c.763.859 1.049 1.192 1.144 1.335.096 0 .143-.047.143-.095zm3.004-4.72c0-.62-.048-.81-.43-.858l-.19-.048c-.048-.047-.095-.19 0-.238.763-.048 1.478-.048 2.193-.048.763 0 1.383.048 1.955.286 1.192.43 1.811 1.43 1.811 2.622 0 1.145-.524 2.098-1.525 2.623-.572.286-1.287.429-1.955.429-.335 0-.67-.017-.948-.03-.196-.01-.364-.018-.482-.018-.382 0-.668 0-1.097.048-.047-.048-.047-.143 0-.239l.191-.047c.524-.048.524-.191.524-1.097v-3.385h-.047zm.715 3.147c0 .476.048.763.19.953.191.286.525.382 1.097.382 1.716 0 2.48-1.145 2.48-2.766 0-.953-.478-2.622-2.766-2.622-.524 0-.81.048-.858.143-.048.048-.095.286-.095.668v3.242h-.048zm9.662 1.35c.205.104.628.318 1.351.318 1.144 0 1.859-.667 1.812-1.573 0-.858-.525-1.383-1.097-1.716l-.715-.43c-.334-.19-.763-.572-.763-1.096 0-.429.19-1.001 1.05-1.001.857 0 1.096.572 1.191 1.001.048.048.191 0 .238-.048 0-.381-.047-.905-.143-1.096-.047 0-.19 0-.286-.048a4.188 4.188 0 00-.81-.095c-1.144 0-1.812.667-1.812 1.525 0 .716.525 1.24.954 1.526l.858.524c.62.43.715.859.715 1.24 0 .525-.334 1.001-1.097 1.001-1.048 0-1.382-.906-1.525-1.335 0-.047-.143 0-.191.048 0 .43.143 1.049.238 1.24l.032.016zm4.974-2.685c0-1.764 1.335-3.1 3.147-3.1 2.05 0 3.051 1.479 3.051 3.052 0 1.764-1.382 3.099-3.051 3.099-1.955-.048-3.147-1.43-3.147-3.051zm5.292.19c0-1.478-.667-3.05-2.336-3.05-.906 0-2.097.619-2.097 2.574 0 1.287.619 3.003 2.383 3.003 1.049 0 2.05-.762 2.05-2.526zm6.055-3.29c-.906 0-1.716.24-2.384.764-.667.524-1.096 1.335-1.001 2.288 0 1.144.525 1.955 1.24 2.431.62.43 1.382.573 2.193.573.572 0 1.192-.143 1.383-.191.095-.048.19-.095.286-.095.143-.143.381-.715.429-1.192-.048-.096-.191-.096-.239-.048-.238.477-.715 1.24-1.859 1.24-1.43 0-2.622-1.002-2.622-2.861 0-1.812 1.144-2.67 2.479-2.67 1.287 0 1.669.668 1.812 1.287.047.048.19.048.238 0a9.342 9.342 0 01-.143-1.287c-.095 0-.143 0-.238-.047a8.317 8.317 0 00-1.574-.191zm4.291 1.479c0-.954 0-1.097-.524-1.144h-.239c-.047-.048-.047-.191 0-.239.228 0 .429.014.618.026.166.011.322.022.479.022.333 0 .667 0 1.096-.048.048.048.048.19 0 .239H120c-.525.047-.525.19-.525 1.144v3.146c0 .954 0 1.05.525 1.145l.238.047c.048.048.048.191 0 .239-.228 0-.429-.014-.617-.026a7.137 7.137 0 00-.479-.022c-.382 0-.668 0-1.097.048-.047-.048-.047-.143 0-.239l.239-.047c.524-.048.524-.191.524-1.145v-3.146zm3.337-1.097c.525.048.525.19.525 1.097v3.146c0 .906 0 1.05-.525 1.097h-.381c-.048.095-.048.19 0 .238.524-.047.81-.047 1.192-.047h.81c.406 0 .799.011 1.192.023h.001c.393.012.786.024 1.191.024.095-.238.334-.953.382-1.24-.048-.047-.191-.095-.239-.047-.238.477-.477.763-.62.858-.19.096-.476.143-1.144.143-.763 0-.953-.095-1.049-.19-.095-.143-.143-.43-.143-.906v-1.24c0-.238 0-.238.286-.238h.525c.333 0 .524 0 .667.047.191.048.239.191.286.334l.096.334c.047.048.19.048.238 0 0-.082-.009-.19-.019-.315-.013-.163-.029-.353-.029-.543 0-.19.016-.396.029-.573.01-.134.019-.251.019-.333-.048-.048-.191-.048-.238 0l-.048.381c-.048.191-.095.239-.191.286-.095.048-.381.048-.763.048h-.524c-.238 0-.286 0-.286-.238v-1.764c0-.176 0-.259.041-.298.038-.036.109-.036.245-.036h.62c.381 0 .667 0 .858.048.432.13.512.376.629.74v.001l.038.117c.048.047.191.047.239 0-.014-.123-.027-.261-.041-.4-.034-.344-.068-.69-.102-.792-.096.047-.62.047-1.192.047h-1.669a7.05 7.05 0 01-.524-.023c-.167-.012-.334-.024-.525-.024-.047.047-.047.19 0 .238h.143zm8.677 4.243c0 .906 0 1.05.525 1.097l.286.048c.048.047.048.19 0 .238-.292 0-.51-.015-.703-.028-.155-.01-.293-.02-.441-.02-.334 0-.668 0-1.24.048-.048-.048-.048-.19 0-.238l.334-.048c.524-.048.524-.19.524-1.097v-3.957c0-.143 0-.214-.036-.25-.035-.036-.107-.036-.25-.036h-.477c-.381 0-.858 0-1.096.239-.191.19-.286.381-.382.62-.047.047-.19 0-.238-.048.143-.382.286-.954.334-1.335a.268.268 0 00.058-.01c.042-.011.085-.022.085.01.048.286.334.286.763.286h3.575c.477 0 .572 0 .668-.239.047 0 .143 0 .143.048-.096.382-.143 1.097-.143 1.335-.048.048-.191.048-.239 0l-.01-.051c-.044-.227-.095-.483-.228-.616-.191-.143-.524-.239-1.001-.239h-.62c-.135 0-.196 0-.222.03-.022.025-.02.07-.018.15l.001.034v.031a.54.54 0 01.001.041v3.957h.047zm7.056 1.145c-.476-.048-.524-.191-.524-1.145v-.476c0-.668.048-.763.429-1.43l.572-.954.135-.241v-.001c.349-.63.585-1.056 1.009-1.14l.239-.048c.095-.096.047-.191 0-.239-.286.048-.525.048-.811.048-.137 0-.264-.011-.395-.023a5.085 5.085 0 00-.463-.025c-.048.048-.048.19 0 .239h.143c.239.047.382.095.382.143 0 .06-.137.318-.299.62l-.001.001c-.09.17-.187.352-.273.523a22.5 22.5 0 01-.81 1.478c-.334-.62-.667-1.287-1.001-1.954v-.001c-.048-.096-.286-.572-.286-.667 0-.048.095-.096.381-.143h.095c.048-.096.048-.191-.047-.239-.239.048-.525.048-.954.048-.204 0-.395-.014-.572-.026a6.086 6.086 0 00-.429-.022c-.048.048-.048.19 0 .239l.238.047c.287.048.43.096.716.668l1.048 2.05c.239.477.286.62.286 1.096v.43c0 .953 0 1.096-.524 1.144l-.286.047c-.048.096-.048.191 0 .239.477-.048.763-.048 1.144-.048.148 0 .296.01.461.02.207.013.439.028.731.028.048-.048.048-.191 0-.239l-.334-.047zM26.174.048H20.31v8.01h5.912v-.811h-5.006V4.434h4.433v-.81h-4.433V.857h4.958v-.81zm12.062 4.72V.048h.906V4.72c0 1.764.906 2.717 2.479 2.717 1.478 0 2.431-.905 2.431-2.67V.048h.906v4.625c0 2.336-1.335 3.576-3.385 3.576-1.954.048-3.337-1.192-3.337-3.48zM60.882.048h-3.48v8.057h3.575c1.764 0 2.956-.81 2.956-2.193 0-1.097-.763-1.669-1.716-1.955.62-.286 1.287-.81 1.287-1.86V2.05c0-.524-.19-.953-.524-1.287-.43-.43-1.192-.715-2.098-.715zm1.716 2.193c0 .953-.762 1.43-1.86 1.43v-.048h-2.43V.858h2.479c1.191 0 1.811.525 1.811 1.335v.048zm.477 3.67c0 .907-.763 1.431-2.002 1.431v.048h-2.718V4.53h2.575c1.382 0 2.145.524 2.145 1.382zM95.113.049v4.72c0 2.288 1.383 3.528 3.338 3.48 2.05 0 3.384-1.24 3.384-3.576V.048h-.905v4.72c0 1.764-.954 2.67-2.432 2.67-1.573 0-2.479-.954-2.479-2.718V.048h-.906zm19.214 0h5.864v.81h-4.959v2.765h4.434v.81h-4.434v2.814h5.006v.81h-5.911V.047zm21.549 0h-3.528v8.01h.906V4.91h2.336l2.336 3.146h1.144l-2.479-3.29c1.287-.19 2.193-1 2.193-2.336 0-.62-.238-1.191-.62-1.573-.476-.524-1.287-.81-2.288-.81zm2.05 2.479c0 1.049-.906 1.668-2.098 1.668h-2.431V.905h2.479c1.287 0 2.05.573 2.05 1.574v.048z"/></symbol></svg>