<svg xmlns="http://www.w3.org/2000/svg"><symbol id="icon-arrow-down-20" viewBox="0 0 20 20"><title>icon-arrow-down-20</title><path fill-rule="evenodd" clip-rule="evenodd" d="M10.5 2.25V17.5l.288.288c1.24-1.294 1.723-2.036 2.071-2.57.21-.322.37-.568.616-.814l.177-.177a.75.75 0 011.06 1.06L11 19l-1 1-1-1-3.712-3.713a.75.75 0 111.06-1.06l.177.177c.247.246.407.492.616.813.349.535.832 1.277 2.072 2.57L9.5 17.5V2.25L8 0h4l-1.5 2.25z"/></symbol><symbol id="icon-arrow-left-20" viewBox="0 0 20 20"><title>icon-arrow-left-20</title><path fill-rule="evenodd" clip-rule="evenodd" d="M17.75 10.5H2.5l-.288.288c1.294 1.24 2.036 1.723 2.57 2.071.322.21.568.37.814.616l.177.177a.75.75 0 01-1.06 1.06L1 11l-1-1 1-1 3.712-3.712a.75.75 0 011.061 1.06l-.177.177c-.246.247-.492.407-.813.616-.535.349-1.277.832-2.57 2.072L2.5 9.5h15.25L20 8v4l-2.25-1.5z"/></symbol><symbol id="icon-arrow-right-20" viewBox="0 0 20 21"><title>icon-arrow-right-20</title><path fill-rule="evenodd" clip-rule="evenodd" d="M2.25 10H17.5l.288-.288c-1.294-1.239-2.036-1.722-2.57-2.07-.322-.21-.568-.37-.814-.617l-.177-.176a.75.75 0 111.06-1.061L19 9.5l1 1-1 1-3.713 3.713a.75.75 0 11-1.06-1.061l.177-.177c.246-.246.492-.407.813-.616.535-.348 1.277-.832 2.57-2.071L17.5 11H2.25L0 12.5v-4L2.25 10z"/></symbol><symbol id="icon-caret-down-20" viewBox="0 0 20 20"><title>icon-caret-down-20</title><path fill-rule="evenodd" clip-rule="evenodd" d="M6.525 7.396L6.35 7.22a.75.75 0 00-1.061 1.06L9 11.993l1 1 1-1 3.713-3.712a.75.75 0 10-1.061-1.061l-.177.177c-.246.246-.407.492-.616.813-.367.563-.884 1.357-2.276 2.783H9.418c-1.393-1.427-1.91-2.22-2.277-2.783-.209-.32-.37-.567-.616-.814z"/></symbol><symbol id="icon-caret-up-20" viewBox="0 0 20 20"><title>icon-caret-up-20</title><path fill-rule="evenodd" clip-rule="evenodd" d="M13.476 12.596l.176.177a.75.75 0 101.06-1.061L11.002 8l-1-1-1 1-3.713 3.712a.75.75 0 001.061 1.06l.177-.177c.246-.246.407-.492.616-.813.367-.563.884-1.356 2.276-2.783h1.165c1.393 1.427 1.91 2.22 2.277 2.783.209.321.37.567.616.814z"/></symbol><symbol id="icon-checkmark-20" viewBox="0 0 20 20"><title>icon-checkmark-20</title><path fill-rule="evenodd" clip-rule="evenodd" d="M0 0h20v20H0V0zm1 1h18v18H1V1zm14.334 4.47l-.177.176c-.246.247-.862.948-1.664 1.862-1.413 1.61-3.404 3.879-4.978 5.485H7.35c-1.393-1.427-1.91-2.22-2.277-2.783-.21-.321-.37-.567-.616-.814L4.28 9.22a.75.75 0 10-1.06 1.06l3.712 3.712 1 1 1-1 7.462-7.462a.75.75 0 00-1.06-1.06z"/></symbol><symbol id="icon-chevron-left" viewBox="0 0 21 21"><title>icon-chevron-left</title><path fill-rule="evenodd" clip-rule="evenodd" d="M13.096 7.025l.177-.176a.75.75 0 00-1.061-1.061L8.5 9.5l-1 1 1 1 3.712 3.713a.75.75 0 001.06-1.061l-.177-.177c-.246-.246-.492-.407-.813-.616-.563-.367-1.356-.884-2.783-2.276V9.918c1.427-1.393 2.22-1.91 2.783-2.277.321-.209.567-.37.814-.616z"/></symbol><symbol id="icon-chevron-right" viewBox="0 0 21 21"><title>icon-chevron-right</title><path fill-rule="evenodd" clip-rule="evenodd" d="M7.896 13.975l-.176.176a.75.75 0 001.06 1.061l3.713-3.712 1-1-1-1L8.78 5.787a.75.75 0 00-1.06 1.061l.177.177c.246.246.492.407.813.616.563.367 1.356.884 2.783 2.276v1.165c-1.427 1.393-2.22 1.91-2.783 2.276-.32.21-.567.37-.814.617z"/></symbol><symbol id="icon-close-20" viewBox="0 0 20 20"><title>icon-close-20</title><path fill-rule="evenodd" clip-rule="evenodd" d="M5.396 6.525l-.176-.177a.75.75 0 011.06-1.06L9.993 9l.003.003L10 9l3.713-3.712a.75.75 0 111.06 1.06l-.177.177c-.246.246-.492.407-.813.616-.563.367-1.357.884-2.783 2.277v1.164c1.426 1.393 2.22 1.91 2.783 2.277.32.209.567.37.813.616l.177.177a.75.75 0 01-1.06 1.06L10 11l-.004-.004-.003.004-3.712 3.712a.75.75 0 11-1.061-1.06l.177-.177c.246-.247.492-.407.813-.616.563-.367 1.357-.884 2.783-2.277V9.418C7.566 8.025 6.773 7.508 6.21 7.14c-.32-.21-.567-.37-.814-.616z"/></symbol><symbol id="icon-close-70" viewBox="0 0 70 70"><title>icon-close-70</title><path fill-rule="evenodd" clip-rule="evenodd" d="M8.647 9.768l-.176-.177a.75.75 0 111.06-1.06l24.47 24.468H34h2L60.47 8.53a.75.75 0 111.06 1.06l-.176.178c-.247.246-3.011 2.924-6.614 6.415v.002h-.001l-.003.003h-.001C48.323 22.402 39.257 31.186 37 33.416v3.167c2.258 2.23 11.326 11.017 17.739 17.231 3.603 3.492 6.368 6.17 6.615 6.417l.176.177a.75.75 0 01-1.06 1.06L36 37h-2.002L9.53 61.469a.75.75 0 11-1.06-1.061l.176-.177c.247-.246 3.012-2.925 6.615-6.417h.001c6.413-6.214 15.48-15 17.738-17.231v-3.168C30.74 31.183 21.676 22.4 15.264 16.187v-.001l-.002-.001a3208.514 3208.514 0 01-6.615-6.417z"/></symbol><symbol id="icon-contract-20" viewBox="0 0 20 20"><title>icon-contract-20</title><path fill-rule="evenodd" clip-rule="evenodd" d="M8.503 10.503h-.005c-1.976.021-3.339.166-4.54.294h-.001C2.947 10.905 2.052 11 1 11a1 1 0 110-2c1.392 0 2.354.108 3.384.223 1.095.123 2.266.254 4.114.274h.005L10 8l1.497 1.497h.005c1.976-.021 3.339-.166 4.54-.294C17.053 9.095 17.949 9 19 9a1 1 0 110 2c-1.392 0-2.354-.108-3.384-.223-1.095-.123-2.266-.254-4.114-.274h-.005L10 12l-1.497-1.497z"/></symbol><symbol id="icon-dbl-chevron-left" viewBox="0 0 21 21"><title>icon-dbl-chevron-left</title><path fill-rule="evenodd" clip-rule="evenodd" d="M15.096 7.025l.177-.176a.75.75 0 00-1.061-1.06L10.499 9.5l-1 1 1 1 3.713 3.713a.75.75 0 001.06-1.06l-.177-.178c-.246-.246-.492-.406-.813-.616-.563-.367-1.356-.883-2.783-2.276V9.918c1.427-1.393 2.22-1.91 2.783-2.276.321-.21.567-.37.814-.617zm-4.823-.176l-.177.176c-.247.247-.493.407-.814.616-.563.367-1.356.884-2.783 2.277v1.165c1.427 1.392 2.22 1.91 2.783 2.276.32.21.567.37.813.616l.177.177a.75.75 0 01-1.06 1.06L5.499 11.5l-1-1 1-1 3.713-3.712a.75.75 0 011.06 1.06z"/></symbol><symbol id="icon-dbl-chevron-right" viewBox="0 0 21 21"><title>icon-dbl-chevron-right</title><path fill-rule="evenodd" clip-rule="evenodd" d="M5.896 13.975l-.176.176a.75.75 0 101.06 1.06l3.713-3.711 1-1-1-1L6.78 5.787a.75.75 0 00-1.061 1.06l.177.178c.246.246.492.406.813.616.563.367 1.356.883 2.783 2.276v1.165c-1.427 1.393-2.22 1.91-2.783 2.276-.32.21-.567.37-.814.617zm4.824.176l.176-.176c.247-.247.493-.407.814-.617.563-.367 1.356-.883 2.783-2.276V9.917c-1.427-1.392-2.22-1.91-2.783-2.276-.32-.21-.567-.37-.813-.616l-.177-.177a.75.75 0 011.06-1.06L15.494 9.5l1 1-1 1-3.713 3.712a.75.75 0 01-1.06-1.06z"/></symbol><symbol id="icon-dot-empty" viewBox="0 0 20 20"><title>icon-dot-empty</title><path fill-rule="evenodd" clip-rule="evenodd" d="M10 14a4 4 0 100-8 4 4 0 000 8zm0 1a5 5 0 100-10 5 5 0 000 10z"/></symbol><symbol id="icon-dot-filled" viewBox="0 0 20 20"><title>icon-dot-filled</title><path fill-rule="evenodd" clip-rule="evenodd" d="M9.5 9L9 3h2l-.5 6h-1zm-.757 1.28L2.882 8.903 3.5 7l5.552 2.33-.31.95zm8.375-1.378l-5.86 1.379-.31-.951L16.5 7l.618 1.902zm-6.927 2.686l3.122 5.148 1.618-1.176L11 11l-.81.588zm-3.504 5.148l3.122-5.148-.81-.588-3.93 4.56 1.618 1.176z"/></symbol><symbol id="icon-download-20" viewBox="0 0 20 20"><title>icon-download-20</title><path fill-rule="evenodd" clip-rule="evenodd" d="M10.5 2.25V13.5l.288.288c1.24-1.294 1.723-2.036 2.07-2.57.21-.322.37-.568.617-.814l.177-.177a.75.75 0 011.06 1.06L11 15l-1 1-1-1-3.712-3.713a.75.75 0 111.06-1.06l.177.177c.246.246.407.492.616.813.349.535.832 1.277 2.071 2.57L9.5 13.5V2.25L8 0h4l-1.5 2.25zM2 12H0v8h20v-8h-2l1 2v5H1v-5l1-2z"/></symbol><symbol id="icon-email-20" viewBox="0 0 20 20"><title>icon-email-20</title><path fill-rule="evenodd" clip-rule="evenodd" d="M3 4H2v12h16V4H3zm13.118 1H3.882L10 11.933 16.118 5zM10.5 12.5l-.5.5-.5-.5L3 6v8l3-3 .5.5L3.778 15h12.444L13.5 11.5l.5-.5 3 3V6l-6.5 6.5z"/></symbol><symbol id="icon-expand-20" viewBox="0 0 20 21"><title>icon-expand-20</title><path fill-rule="evenodd" clip-rule="evenodd" d="M10.777 4.884C10.892 3.854 11 2.892 11 1.5a1 1 0 10-2 0c0 1.051.095 1.948.203 2.957.128 1.202.273 2.565.294 4.541v.005l-.994.994h-.005c-1.848-.02-3.02-.151-4.114-.274C3.354 9.608 2.392 9.5 1 9.5a1 1 0 100 2c1.052 0 1.948-.095 2.957-.203 1.202-.128 2.565-.273 4.541-.294h.005l.994.994v.005c-.02 1.848-.151 3.02-.274 4.114C9.108 17.146 9 18.108 9 19.5a1 1 0 102 0c0-1.052-.095-1.948-.203-2.957-.128-1.202-.273-2.565-.294-4.541v-.005l.994-.994h.005c1.848.02 3.02.151 4.114.274 1.03.115 1.992.223 3.384.223a1 1 0 100-2c-1.052 0-1.948.095-2.957.203-1.202.128-2.565.273-4.541.294h-.005l-.994-.994v-.005c.02-1.848.151-3.02.274-4.114z"/></symbol><symbol id="icon-external-20" viewBox="0 0 20 20"><title>icon-external-20</title><path fill-rule="evenodd" clip-rule="evenodd" d="M12.75 1.5H13c.348 0 .636-.06 1.01-.14C14.713 1.212 15.72 1 18 1v.293l-9.943 9.943L5 12l3 3 .764-3.057L18.707 2H19c0 2.28-.212 3.288-.36 3.99-.08.374-.14.662-.14 1.01v.25a.75.75 0 001.5 0V0h-7.25a.75.75 0 000 1.5zM6 6l2 1V5H0v1h6zM0 6h1v13h13v-5l-1-2h2v8H0V6z"/></symbol><symbol id="icon-menu-20" viewBox="0 0 20 20"><title>icon-menu-20</title><path fill-rule="evenodd" clip-rule="evenodd" d="M5.263 3.203C4.117 3.095 3.1 3 1.91 3a.91.91 0 00-.91.91v.18c0 .503.407.91.91.91.895 0 1.82-.084 2.912-.183 1.37-.124 3.003-.272 5.174-.309 2.021.035 3.461.17 4.74.29 1.147.107 2.165.202 3.355.202A.91.91 0 0019 4.09v-.18a.91.91 0 00-.91-.91c-.895 0-1.82.084-2.912.183-1.37.124-3.003.272-5.174.309-2.021-.035-3.461-.17-4.74-.29zm0 6C4.117 9.095 3.1 9 1.91 9a.91.91 0 00-.91.91v.18c0 .503.407.91.91.91.895 0 1.82-.084 2.912-.183 1.37-.124 3.003-.272 5.174-.309 2.021.035 3.461.17 4.74.29 1.147.107 2.165.202 3.355.202a.91.91 0 00.909-.91v-.18a.91.91 0 00-.91-.91c-.895 0-1.82.084-2.912.183-1.37.124-3.003.272-5.174.309-2.021-.035-3.461-.17-4.74-.29zm0 6c1.28.12 2.72.254 4.741.289 2.17-.037 3.804-.185 5.174-.309 1.092-.1 2.017-.183 2.913-.183a.91.91 0 01.909.91v.18a.91.91 0 01-.91.91c-1.19 0-2.207-.095-3.353-.203-1.28-.12-2.72-.254-4.741-.289-2.17.037-3.804.185-5.174.309-1.092.1-2.017.183-2.913.183A.91.91 0 011 16.09v-.18a.91.91 0 01.91-.91c1.19 0 2.207.095 3.353.203z"/></symbol><symbol id="icon-phone-20" viewBox="0 0 20 20"><title>icon-phone-20</title><g clip-path="url(#clip0_1854_5501)"><path fill-rule="evenodd" clip-rule="evenodd" d="M3.17 7.706a4 4 0 001.052 1.858l5.113 5.113a4.001 4.001 0 001.858 1.052l1.567.391a4 4 0 003.799-1.052l.826-.826-3.535-3.536-1.415 1.414 2.122 2.122-.354.353-2.424-1.818-.404.404a1.5 1.5 0 01-2.122 0L5.718 9.645a1.5 1.5 0 010-2.12l2.475-2.476-3.536-3.535-.826.826a4 4 0 00-.526.65l.822.822 1.237 1.237-.353.354-2.116-1.587a3.999 3.999 0 00-.116 2.323l.391 1.567-.97.242-.392-1.567a5 5 0 011.316-4.748L3.95.807a1 1 0 011.414 0L8.9 4.342a1 1 0 010 1.414L6.425 8.231a.5.5 0 000 .707l3.536 3.536a.5.5 0 00.707 0l2.475-2.475a1 1 0 011.414 0l3.535 3.535a1 1 0 010 1.415l-.826.826a5 5 0 01-4.748 1.315l-1.568-.39a5 5 0 01-2.323-1.315L3.515 10.27A5 5 0 012.2 7.948l.97-.242z"/></g><defs><clipPath id="clip0_1854_5501"><path d="M0 0h20v20H0z"/></clipPath></defs></symbol><symbol id="icon-plus-20" viewBox="0 0 20 20"><title>icon-plus-20</title><path fill-rule="evenodd" clip-rule="evenodd" d="M10.777 4.384C10.892 3.354 11 2.392 11 1a1 1 0 10-2 0c0 1.051.095 1.948.203 2.957.128 1.202.273 2.565.294 4.541v.005l-.994.994h-.005c-1.848-.02-3.02-.151-4.114-.274C3.354 9.108 2.392 9 1 9a1 1 0 100 2c1.052 0 1.948-.095 2.957-.203 1.202-.128 2.565-.273 4.541-.294h.005l.994.994v.005c-.02 1.848-.151 3.02-.274 4.114C9.108 16.646 9 17.608 9 19a1 1 0 102 0c0-1.052-.095-1.948-.203-2.957-.128-1.202-.273-2.565-.294-4.541v-.005l.994-.994h.005c1.848.02 3.02.151 4.114.274 1.03.115 1.992.223 3.384.223a1 1 0 100-2c-1.052 0-1.948.095-2.957.203-1.202.128-2.565.273-4.541.294h-.005l-.994-.994v-.005c.02-1.848.151-3.02.274-4.114z"/></symbol><symbol id="icon-search-20" viewBox="0 0 20 20"><title>icon-search-20</title><path fill-rule="evenodd" clip-rule="evenodd" d="M8 15A7 7 0 108 1a7 7 0 000 14zm0 1c1.955 0 3.745-.7 5.135-1.865L16 17c1 1 2 3 2 3a2 2 0 002-2s-2-1-3-2l-2.865-2.865A8 8 0 108 16zM3 8c0-3 2-5 5-5 .5 0 .5.5.5.5s0 .5-.5.5C5 4 3.5 6 3 8z"/></symbol><symbol id="icon-social-email" viewBox="0 0 20 20"><title>icon-social-email</title><path fill-rule="evenodd" clip-rule="evenodd" d="M3 4H2v12h16V4H3zm13.118 1H3.882L10 11.933 16.118 5zM10.5 12.5l-.5.5-.5-.5L3 6v8l3-3 .5.5L3.778 15h12.444L13.5 11.5l.5-.5 3 3V6l-6.5 6.5z"/></symbol><symbol id="icon-social-facebook" viewBox="0 0 20 20"><title>icon-social-facebook</title><path d="M18 2.926v14.148c0 .53-.4.926-.933.926h-4v-6.215H15.2l.267-2.38h-2.4V7.818c0-.661.133-1.19 1.2-1.19H15.6V4.512c-.267 0-.933-.132-1.867-.132-1.866 0-3.066 1.058-3.066 3.174v1.719H8.4v2.38h2.133v6.215h-7.6A.908.908 0 012 16.942V2.926c0-.53.4-.926.933-.926H17.2c.4 0 .8.397.8.926z"/></symbol><symbol id="icon-social-instagram" viewBox="0 0 20 20"><title>icon-social-instagram</title><g clip-path="url(#clip0_1914_14077)"><path fill-rule="evenodd" clip-rule="evenodd" d="M10.145 0H5.942c-.843 0-1.586.199-2.146.349l-.318.083c-.58.287-1.16.72-1.739 1.295-.58.575-1.014 1.15-1.16 1.726C.29 4.173.146 4.893 0 5.9v8.346c0 .837.2 1.575.351 2.13.03.113.06.218.084.316.29.72.58 1.295 1.16 1.726.579.576 1.159.864 1.738 1.151.58.288 1.45.432 2.464.432h8.406c.843 0 1.586-.199 2.146-.349l.318-.083c.724-.287 1.304-.575 1.739-1.15.435-.576.87-1.152 1.16-1.727.29-.576.434-1.44.434-2.446V5.899c0-.837-.2-1.575-.351-2.13-.03-.113-.06-.219-.084-.316-.29-.72-.58-1.295-1.16-1.726a7.51 7.51 0 01-.533-.451c-.347-.312-.67-.604-1.06-.7-.58-.288-1.45-.432-2.464-.432C13.188 0 12.898 0 10.145 0zm0 1.87h4.058c1.014 0 1.594.144 1.884.288.435.144.87.432 1.16.72.29.287.58.72.724 1.15.145.289.29.864.29 1.871v8.058c0 1.007-.145 1.583-.29 1.87a3.13 3.13 0 01-.725 1.151c-.29.288-.724.576-1.159.72-.29.144-.87.288-1.884.288H6.087c-1.015 0-1.594-.144-1.884-.288a3.157 3.157 0 01-1.16-.72 3.13 3.13 0 01-.724-1.15c-.145-.288-.29-.864-.29-1.871V5.899c0-1.007.145-1.582.29-1.87a3.13 3.13 0 01.724-1.151 3.16 3.16 0 011.16-.72c.29-.144.87-.287 1.884-.287h4.058zm0 11.511c-1.883 0-3.333-1.439-3.333-3.31 0-1.87 1.45-3.309 3.334-3.309 1.884 0 3.333 1.44 3.333 3.31s-1.45 3.309-3.333 3.309zm0-8.49c-2.898 0-5.217 2.303-5.217 5.18 0 2.878 2.32 5.18 5.218 5.18s5.217-2.302 5.217-5.18c0-2.877-2.319-5.18-5.217-5.18zM15.653 5.9c.58 0 1.159-.432 1.159-1.151 0-.72-.58-1.295-1.16-1.151-.58 0-1.159.431-1.159 1.15 0 .576.435 1.152 1.16 1.152z"/></g><defs><clipPath id="clip0_1914_14077"><path d="M0 0h20v20H0z"/></clipPath></defs></symbol><symbol id="icon-social-twitter" viewBox="0 0 20 20"><title>icon-social-twitter</title><path d="M20 4.027c-.676.27-1.486.54-2.297.676.81-.54 1.486-1.352 1.756-2.298-.81.406-1.621.811-2.567.946C16.082 2.541 15.135 2 13.919 2c-2.297 0-4.054 1.892-4.054 4.054 0 .27 0 .676.135.946a11.259 11.259 0 01-8.649-4.054c-.27.54-.54 1.216-.54 2.027 0 1.486.675 2.703 1.757 3.378-.676 0-1.352-.27-1.892-.54 0 2.027 1.351 3.649 3.243 4.054-.135.135-.54.135-.946.135-.27 0-.54 0-.81-.135.54 1.757 2.161 2.973 3.918 2.973-1.351 1.08-3.108 1.757-5.135 1.757H0a11.93 11.93 0 006.216 1.756c7.568 0 11.622-6.216 11.622-11.621v-.54A8.225 8.225 0 0020 4.026z"/></symbol><symbol id="icon-social-youtube" viewBox="0 0 20 20"><title>icon-social-youtube</title><path d="M19.58 5.235a2.549 2.549 0 00-1.773-1.809C16.25 3 10 3 10 3s-6.25 0-7.818.426c-.864.23-1.534.922-1.773 1.809C0 6.825 0 10.143 0 10.143s0 3.318.42 4.908a2.55 2.55 0 001.773 1.808c1.557.427 7.807.427 7.807.427s6.25 0 7.818-.427c.864-.23 1.534-.921 1.773-1.808.409-1.59.409-4.908.409-4.908s0-3.318-.42-4.908zM7.954 13.161V7.124l5.227 3.019-5.227 3.018z"/></symbol><symbol id="icon-sort-toggle" viewBox="0 0 20 20"><title>icon-sort-toggle</title><path fill-rule="evenodd" clip-rule="evenodd" d="M14 17l1-1 2.47-2.47a.75.75 0 10-1.06-1.06l-.178.176c-.276.277-.372.481-.489.73-.148.316-.33.704-.962 1.405l-.281-.28V6.25L16 4h-4l1.5 2.25v8.25l-.281.281c-.632-.701-.814-1.089-.962-1.405-.117-.248-.212-.452-.49-.73l-.176-.176a.75.75 0 00-1.06 1.06L13 16l1 1zM3.59 7.53l.177-.176c.277-.277.372-.481.489-.73.148-.316.33-.704.962-1.405l.281.28v8.251L4 16h4l-1.5-2.25V5.5l.281-.281c.633.701.814 1.089.962 1.405.117.248.212.452.49.73l.176.176a.75.75 0 101.06-1.06L7.002 4 6 3 5 4 2.53 6.47a.75.75 0 101.06 1.06z"/></symbol><symbol id="logo-neubauer" viewBox="0 0 141 40"><title>logo-neubauer</title><path fill-rule="evenodd" clip-rule="evenodd" d="M79.37 0h.858l3.67 8.153h-1l-.954-2.146h-4.338l-.954 2.146h-.954L79.37 0zm2.288 5.197l-1.86-4.148-1.859 4.148h3.719zM1.134.047h.858l5.101 6.485V.048h.906v8.105h-.715L2.039 1.526v6.627h-.905V.048zm16.019 20.74c0-3.767 2.812-6.627 6.674-6.627 4.339 0 6.532 3.146 6.532 6.436 0 3.766-2.908 6.532-6.532 6.532-4.148 0-6.674-2.956-6.674-6.341zm11.299.381c0-3.099-1.383-6.436-4.959-6.436-1.954 0-4.481 1.335-4.481 5.435 0 2.765 1.335 6.388 5.054 6.388 2.24 0 4.386-1.668 4.386-5.387zM2.659 15.781c1.383-1.05 3.1-1.574 5.054-1.574 1.001 0 2.431.191 3.337.43.08.015.143.031.2.045.113.029.197.05.325.05 0 .429.095 1.62.286 2.765-.096.143-.382.143-.525.048-.286-1.288-1.144-2.718-3.862-2.718-2.86 0-5.292 1.812-5.292 5.721 0 3.957 2.48 6.103 5.578 6.103 2.432 0 3.48-1.573 3.91-2.67.143-.095.429-.048.477.095-.143.954-.62 2.193-.906 2.575a3.47 3.47 0 00-.668.19c-.429.143-1.764.43-2.956.43-1.668 0-3.29-.334-4.672-1.24-1.478-1.049-2.67-2.717-2.67-5.149.048-2.24.954-4.005 2.384-5.101zm33.469-.906c1.192.095 1.24.429 1.24 2.384v6.722c0 1.955-.048 2.24-1.145 2.336l-.572.048c-.095.143-.048.429.048.477 1.049-.048 1.62-.048 2.431-.048h1.716c1.955 0 3.72 0 4.673.047.286-.524.81-2.431.81-2.622 0-.095-.381-.19-.477-.095-.381.954-.858 1.62-1.24 1.86-.285.142-.714.238-2.288.238-1.478 0-1.859-.239-2.05-.43-.333-.333-.381-.81-.381-2.002v-6.53c0-2.003.048-2.289 1.144-2.384l.43-.048c.095-.095.047-.429-.048-.477-.906.048-1.574.048-2.289.048-.763 0-1.383 0-2.431-.048-.143.048-.143.382-.048.477l.477.048zm15.351 2.384c0-1.955-.047-2.289-1.24-2.384l-.476-.048c-.096-.095-.096-.429.048-.477 1.048.048 1.668.048 2.431.048.715 0 1.383 0 2.289-.048.095.048.142.382.047.477l-.429.048c-1.096.095-1.144.381-1.144 2.384v6.531c0 1.192.047 1.669.381 2.003.191.19.572.429 2.05.429 1.574 0 2.003-.096 2.289-.239.381-.238.858-.905 1.24-1.859.095-.095.476 0 .476.095 0 .191-.524 2.098-.81 2.622-.954-.047-2.718-.047-4.673-.047h-1.716c-.81 0-1.383 0-2.431.047-.096-.047-.144-.333-.048-.476l.572-.048c1.096-.095 1.144-.381 1.144-2.336v-6.722zm12.968-2.384c1.096.143 1.144.429 1.144 2.384h-.095v6.817c0 1.955-.096 2.241-1.144 2.336l-.62.048c-.096.143-.048.43.047.477 1.145-.048 1.764-.048 2.575-.048h1.669c1.668 0 3.337 0 5.006.048.238-.525.715-1.955.858-2.622-.096-.191-.334-.239-.477-.143-.477.953-1.001 1.62-1.335 1.811-.381.191-.953.286-2.384.286-1.668 0-2.05-.19-2.288-.429-.286-.333-.334-.953-.334-1.954v-2.623c0-.524.048-.524.62-.524h1.097c.715 0 1.144 0 1.43.095.381.096.477.382.572.715l.19.716c.096.143.382.143.477 0 0-.19-.019-.438-.04-.711v-.002a14.776 14.776 0 01-.055-1.1c0-.402.03-.82.057-1.185.02-.283.038-.534.038-.721-.047-.095-.381-.095-.476 0l-.143.763c-.096.476-.191.572-.43.667-.19.048-.762.096-1.573.096h-1.096c-.572 0-.62 0-.62-.525v-3.766c0-.715 0-.763.572-.763h1.335c.81 0 1.43 0 1.812.095.926.22 1.118.809 1.368 1.575l.044.135.018.054c.095.096.381.048.477-.047-.048-.81-.191-2.146-.286-2.48-.239.048-1.335.048-2.527.048h-3.528c-.763 0-1.383 0-2.193-.048-.143.048-.143.382-.048.477l.286.048zm25.65 10.06c0 .762.095 1.191.429 1.334.047.048.047.191 0 .239-.239 0-.572.095-.906.19-1.001.287-2.336.477-3.338.477-2.24 0-4.29-.62-5.72-2.098-1.145-1.144-1.717-2.622-1.717-4.243 0-1.573.525-3.194 1.669-4.433 1.24-1.335 3.099-2.194 5.96-2.194 1.048 0 2.05.191 2.383.286.334.096.954.191 1.144.191 0 .62.096 1.574.286 2.718-.047.143-.381.19-.524.047-.525-2.05-1.955-2.67-3.862-2.67-3.623 0-5.244 2.575-5.244 5.388 0 3.623 1.86 6.436 5.626 6.436 1.144 0 1.859-.238 2.05-.572.095-.143.19-.477.19-1.049v-.763c0-1.573-.047-1.668-1.24-1.811l-.81-.096c-.143-.095-.143-.429 0-.477.525.048 1.574.048 2.67.048.715 0 1.383 0 2.002-.047.144.095.144.333 0 .476l-.286.048c-.81.095-.81.62-.81 1.573v1.002h.048zm6.865-10.012c1.096.095 1.144.38 1.144 2.383v6.675c0 2.002-.047 2.24-1.144 2.384l-.477.047c-.095.143-.047.43.048.477.953-.047 1.573-.047 2.384-.047.762 0 1.382 0 2.336.047.143-.047.143-.381.047-.477l-.476-.047c-1.097-.143-1.144-.382-1.144-2.384v-6.675c0-1.954.047-2.288 1.144-2.384l.476-.047c.096-.095.048-.43-.047-.477-.954.048-1.574.048-2.336.048-.81 0-1.43 0-2.384-.048-.143.048-.143.382-.048.477l.477.047zm20.167 4.243c0-1.145-.048-3.338-.334-3.862-.143-.238-.477-.334-.953-.382l-.477-.047c-.096-.143-.096-.382.047-.43.716.048 1.431.048 2.146.048.81 0 1.287 0 1.955-.047.143.095.143.334.047.429l-.429.047c-.477.048-.81.191-.953.43-.286.62-.286 2.765-.286 3.814v2.097c0 1.621-.286 3.338-1.335 4.482-.811.858-2.193 1.383-3.576 1.383-1.287 0-2.575-.239-3.528-1.05-1.001-.81-1.478-2.192-1.478-4.433V17.21c0-1.955-.048-2.288-1.144-2.384l-.477-.047c-.095-.096-.095-.382.048-.43a41.13 41.13 0 002.336.048c.763 0 1.382 0 2.288-.048.096.048.143.382.048.43l-.429.047c-1.097.095-1.144.43-1.144 2.384v4.052c0 3.004.953 5.006 3.814 5.006 2.717 0 3.766-2.145 3.766-5.006v-2.097h.048zm14.112 3.539c-.143-.292-.286-.583-.429-.87l-2.098-4.338c-.572-1.192-1.049-2.384-.954-3.099-.619.048-1.144.048-1.573.048-.477 0-.906 0-1.478-.048-.19.095-.19.382-.095.477l.286.047c1.144.143 1.287.43 1.239 1.622 0 1.048-.095 2.622-.19 4.195-.079 1.019-.143 1.794-.2 2.491l-.001.008v.002c-.047.57-.09 1.09-.133 1.647-.095 1.287-.334 1.43-1.144 1.525l-.429.048c-.096.095-.048.381.047.477.62-.048 1.288-.048 1.907-.048h.001c.715 0 1.477 0 2.097.048.096-.048.143-.382 0-.477l-.715-.048c-.763-.095-.858-.381-.858-1.764 0-1.293.061-2.616.109-3.68v-.002l.034-.752c.048-1.096.095-2.193.191-3.337h.047c.191.43.394.894.596 1.359.203.465.406.93.596 1.359l1.669 3.623c.117.261.271.587.438.943l.003.005.001.002c.443.942.985 2.092 1.227 2.817.047.095.143.095.19.095.096 0 .143-.048.191-.095.334-.859 1.144-2.623 2.002-4.291l1.669-3.29c.165-.31.393-.77.609-1.21l.001-.002c.242-.49.47-.953.582-1.145l.048 7.744c0 1.192 0 1.478-.906 1.574l-.525.047c-.095.143-.095.382.048.477.763-.047 1.621-.047 2.288-.047.668 0 1.431 0 2.193.047.143-.095.143-.381.048-.477l-.62-.047c-.835-.093-.857-.547-.902-1.45l-.004-.076c-.099-1.855-.129-4.101-.154-5.971l-.001-.005c-.011-.82-.021-1.566-.035-2.177 0-1.287.143-1.668 1.335-1.764l.381-.047c.095-.095.095-.382 0-.477-.572.048-1.192.048-1.669.048-.381 0-.81 0-1.43-.048-.045.857-.517 1.8-1.294 3.352l-.136.271-1.764 3.576c-.144.287-.283.578-.421.869-.323.674-.643 1.344-1.009 1.944h-.048c-.286-.54-.572-1.123-.858-1.705zM2.231 36.472c0 .112 0 .171.029.203.033.035.104.035.256.035h.62c.381 0 .667 0 .763-.047.095-.048.19-.096.238-.286l.096-.334c.047-.048.19-.048.238 0 0 .082-.009.2-.019.333-.013.177-.029.383-.029.573 0 .19.016.38.029.544.01.123.019.232.019.314-.048.048-.19.048-.239 0l-.095-.334c-.048-.143-.095-.286-.286-.334-.143-.047-.334-.047-.667-.047h-.668c-.152 0-.223 0-.256.035-.03.032-.03.091-.03.203v1.24c0 .906 0 1.049.525 1.096l.286.048c.047.048.047.19 0 .238-.283 0-.497-.014-.694-.026a7.312 7.312 0 00-.498-.021c-.382 0-.668 0-1.097.047-.048-.047-.048-.143 0-.238l.19-.143c.525-.048.525-.19.525-1.097V35.28c0-.906 0-1.049-.524-1.096H.8c-.048-.048-.048-.191 0-.239.197 0 .368.013.534.025.156.012.306.023.467.023h1.621c.572 0 1.097 0 1.192-.048 0 .43 0 .81.048 1.144-.048.048-.143.096-.191.048-.048-.381-.19-.715-.62-.858-.19-.048-.477-.048-.858-.048h-.524c-.136 0-.208 0-.245.036-.042.04-.042.122-.042.298v1.907h.048zm7.294-2.622c-1.812 0-3.147 1.335-3.147 3.099 0 1.62 1.192 3.003 3.147 3.051 1.668 0 3.05-1.335 3.05-3.099 0-1.573-1-3.051-3.05-3.051zm-.144.238c1.67 0 2.337 1.573 2.337 3.051 0 1.764-1.002 2.527-2.05 2.527-1.764 0-2.384-1.716-2.384-3.003 0-1.955 1.192-2.575 2.097-2.575zm5.626 1.24c0-.858-.047-1.001-.381-1.05l-.286-.047c-.048-.047-.048-.19 0-.238.476-.048 1.096-.048 1.954-.048.525 0 1.05.048 1.478.286.43.239.716.62.716 1.24 0 .858-.668 1.287-1.097 1.478-.048.047 0 .143.048.19.715 1.145 1.192 1.86 1.764 2.337a.906.906 0 00.62.238c.047 0 .047.095 0 .143-.096.048-.239.048-.382.048-.763 0-1.192-.239-1.812-1.097-.106-.15-.232-.355-.364-.572a10.27 10.27 0 00-.494-.763c-.143-.19-.286-.286-.62-.286-.381 0-.429 0-.429.19v1.097c0 .906 0 1.05.525 1.097l.19.048c.048.047.048.19 0 .238-.197 0-.38-.013-.559-.025a8.807 8.807 0 00-1.586.025c-.048-.048-.048-.143 0-.238l.238-.048c.525-.048.525-.19.525-1.097v-3.146h-.048zm.715 1.24c0 .142 0 .238.048.285.048.048.143.048.62.048.334 0 .667-.048.906-.238.238-.191.429-.477.429-1.097 0-.715-.43-1.382-1.43-1.382-.573 0-.573.047-.573.286v2.097zm11.729-2.718c-.906 0-1.717.238-2.384.763-.668.524-1.145 1.335-1.002 2.288 0 1.144.525 1.955 1.24 2.431.62.43 1.383.573 2.193.573.572 0 1.192-.143 1.383-.191.095-.048.19-.095.286-.095.143-.143.381-.715.429-1.192-.048-.096-.19-.096-.238-.048-.239.477-.716 1.24-1.86 1.24-1.43 0-2.622-1.002-2.622-2.861 0-1.812 1.144-2.67 2.48-2.67 1.286 0 1.668.668 1.81 1.287.049.048.192.048.24 0a9.294 9.294 0 01-.144-1.287c-.047 0-.143 0-.238-.047a8.36 8.36 0 00-1.573-.191zm8.486 2.336c0-.525 0-1.573-.19-1.812-.048-.095-.24-.19-.43-.19h-.238c-.048-.048-.048-.191 0-.191.166 0 .333.012.5.024.167.012.334.023.5.023.382 0 .62 0 .907-.047a.145.145 0 010 .19h-.191c-.238 0-.381.096-.43.191-.142.286-.142 1.287-.142 1.812v1.001c0 .763-.143 1.573-.62 2.098-.381.429-1.049.667-1.669.667-.62 0-1.24-.095-1.668-.476-.477-.382-.668-1.05-.668-2.098V35.28c0-.906 0-1.049-.524-1.096h-.239c-.047-.048-.047-.191 0-.191.229 0 .43.013.618.026.166.011.323.022.48.022.38 0 .666 0 1.096-.048.047.047.047.19 0 .19h-.191c-.525.048-.525.191-.525 1.097v1.907c0 1.43.43 2.336 1.812 2.336 1.287 0 1.764-1.001 1.764-2.336v-1.001h.048zm2.67-1.955c.572.048.572.19.572 1.097h.047v3.146c0 .906 0 1.05-.524 1.097l-.286.048c-.048.095-.048.19 0 .238.477-.048.763-.048 1.144-.048h.81c.536 0 1.055.017 1.479.03h.001c.293.01.539.018.714.018.143-.238.381-1.144.381-1.24 0-.047-.19-.095-.238-.047-.143.429-.382.763-.572.858-.143.048-.334.095-1.097.095-.667 0-.858-.095-.953-.19-.143-.143-.191-.382-.191-.954v-3.051c0-.906 0-1.05.524-1.097h.191c.048-.047.048-.19 0-.238-.429.047-.763.047-1.096.047-.152 0-.304-.01-.47-.02a9.792 9.792 0 00-.675-.027c-.047.047-.047.19 0 .238h.239zm7.58 4.243c0 .906 0 1.05.525 1.097l.286.048c.047.047.047.19 0 .238-.292 0-.51-.015-.703-.028-.155-.01-.294-.02-.442-.02-.333 0-.667 0-1.24.048-.047-.048-.047-.19 0-.238l.334-.048c.525-.048.525-.19.525-1.097v-3.957c0-.143 0-.214-.036-.25-.035-.036-.107-.036-.25-.036h-.477c-.381 0-.858 0-1.096.239-.191.19-.286.381-.382.62-.047.047-.19 0-.238-.048.143-.382.286-.954.334-1.335.014 0 .033-.005.053-.01.048-.01.104-.023.137.01.048.286.334.286.763.286h3.576c.477 0 .572 0 .667-.239.048 0 .143 0 .143.048-.095.382-.143 1.097-.143 1.335-.047.048-.19.048-.238 0l-.01-.051c-.045-.227-.096-.483-.228-.616-.191-.143-.525-.239-1.002-.239h-.62c-.134 0-.195 0-.222.03-.021.025-.02.07-.018.15l.002.047v4.016zm8.582-4.1c.19.239.19 1.287.19 1.812h-.047v1.001c0 1.335-.477 2.336-1.764 2.336-1.383 0-1.812-.906-1.812-2.336V35.28c0-.906 0-1.049.525-1.096h.19c.048 0 .048-.143 0-.191-.429.047-.715.047-1.096.047-.157 0-.313-.01-.48-.021a8.647 8.647 0 00-.617-.026c-.047 0-.047.143 0 .19h.239c.524.048.524.191.524 1.097v2.098c0 1.049.19 1.716.667 2.098.43.381 1.05.476 1.67.476.619 0 1.286-.238 1.668-.667.477-.525.62-1.335.62-2.098v-1.001c0-.525 0-1.526.143-1.812.047-.095.19-.19.429-.19h.19a.145.145 0 000-.191c-.286.047-.524.047-.905.047-.167 0-.334-.011-.501-.023a6.999 6.999 0 00-.5-.024c-.048 0-.048.143 0 .19h.238c.19 0 .381.096.429.191zm3.48.954c0-.858-.048-1.001-.381-1.05l-.286-.047c-.048-.047-.048-.19 0-.238.476-.048 1.096-.048 1.954-.048.525 0 1.05.048 1.478.286.43.239.715.62.715 1.24 0 .858-.667 1.287-1.096 1.478-.048.047 0 .143.048.19.715 1.145 1.192 1.86 1.764 2.337a.906.906 0 00.62.238c.047 0 .047.095 0 .143-.096.048-.239.048-.382.048-.763 0-1.192-.239-1.812-1.097-.106-.15-.232-.355-.364-.572a10.27 10.27 0 00-.494-.763c-.143-.19-.286-.286-.62-.286-.381 0-.429 0-.429.19v1.097c0 .906 0 1.05.525 1.097l.19.048c.048.047.048.19 0 .238a7.96 7.96 0 01-.56-.025 7.118 7.118 0 00-.489-.023c-.38 0-.667 0-1.096.048-.048-.048-.048-.143 0-.238l.238-.048c.525-.048.525-.19.525-1.097v-3.146h-.048zm.715 1.24c0 .142 0 .238.048.285.048.048.143.048.62.048.333 0 .667-.048.906-.238.238-.191.429-.477.429-1.097 0-.715-.43-1.382-1.43-1.382-.525 0-.573.047-.573.286v2.097zm5.292-2.337c.525.048.525.19.525 1.097v3.146c0 .906 0 1.05-.525 1.097h-.333c-.048.095-.048.19 0 .238.524-.047.81-.047 1.191-.047h.811c.405 0 .799.011 1.192.023.393.012.787.024 1.192.024.095-.238.334-.953.381-1.24-.047-.047-.19-.095-.238-.047-.239.477-.477.763-.62.858-.19.096-.477.143-1.144.143-.763 0-.954-.095-1.05-.19-.142-.143-.19-.43-.19-.906v-1.24c0-.112 0-.171.03-.203.033-.035.105-.035.256-.035h.525c.334 0 .524 0 .667.047.19.048.239.191.286.334l.096.334c.047.048.19.048.238 0 0-.082-.009-.19-.019-.315a6.723 6.723 0 01-.029-.543c0-.19.016-.395.029-.572.01-.135.019-.252.019-.334-.048-.048-.19-.048-.238 0l-.048.381c0 .191-.095.239-.19.286-.096.048-.382.048-.764.048h-.524c-.238 0-.286 0-.286-.238v-1.764c0-.176 0-.259.041-.298.038-.036.11-.036.245-.036h.62c.381 0 .667 0 .858.048.432.13.512.376.63.74l.037.118c.048.047.191.047.239 0a20.504 20.504 0 01-.041-.4c-.034-.345-.068-.69-.102-.792-.096.047-.62.047-1.192.047h-1.669a7.05 7.05 0 01-.524-.023c-.167-.012-.334-.024-.525-.024-.047.047-.047.19 0 .238h.143zm12.158 3.528c-.048-.19-.096-.238-.382-.238h-1.335c-.238 0-.286.047-.334.19l-.285.906c-.144.382-.191.62-.191.716 0 .095.047.143.238.19l.286.048c.048.048.048.19 0 .238-.238 0-.524 0-.906-.047-.286 0-.62 0-.858.047-.047-.047-.047-.19 0-.238l.286-.048c.19 0 .43-.095.525-.429.06-.184.148-.394.255-.648v-.002c.142-.34.317-.76.508-1.305l.905-2.383c.143-.334.191-.477.143-.62.191-.048.382-.239.477-.334.048 0 .096 0 .143.096.096.38.239.81.382 1.191l1.191 3.528c.239.763.382.906.763.954l.239.048c.047.047.047.19 0 .238a7.02 7.02 0 01-.525-.024 7.076 7.076 0 00-.524-.024c-.43 0-.763 0-1.001.048-.048-.048-.096-.19 0-.238l.238-.048c.19 0 .286-.048.286-.143 0-.059-.018-.136-.043-.243a6.3 6.3 0 01-.052-.234l-.43-1.192zm-1.764-.763c-.023.09-.035.138-.016.163.02.028.08.028.206.028h1.097c.238 0 .286-.047.19-.286l-.476-1.43a4.654 4.654 0 00-.137-.42c-.02-.057-.04-.109-.054-.152-.034.034-.069.142-.12.307l-.001.001v.001c-.02.064-.043.136-.07.215l-.62 1.573zm10.44 2.861c-.047-.19-.047-1.24-.047-1.526h.095v-2.145c0-.382 0-1.478.143-1.812 0-.095.191-.143.477-.19h.143c.048-.096.048-.191 0-.239-.286.048-.524.048-.906.048a5.8 5.8 0 01-.457-.022 7.763 7.763 0 00-.592-.026c-.047.048-.047.19 0 .239h.143c.334.047.477.095.525.19.19.239.19 1.383.19 1.812v1.907c0 .19 0 .334-.047.381a18.65 18.65 0 01-.77-.836c-.21-.238-.442-.498-.708-.785l-.858-.953-.105-.122c-.38-.439-1.249-1.446-1.42-1.833-.144.048-.287.048-.43.048-.143 0-.62 0-1.001-.048-.048.048-.048.19 0 .239h.143c.19 0 .381.047.524.19.191.191.191.382.191.62v2.575l.003.274c.008.5.02 1.262-.098 1.537-.048.096-.191.143-.382.19l-.238.049c-.048.095-.048.19 0 .238.286-.048.524-.048.906-.048.161 0 .322.011.489.023.178.012.362.025.56.025.047-.048.047-.19 0-.238l-.287-.048c-.19-.048-.38-.095-.428-.19-.144-.24-.144-1.383-.144-1.813v-1.907c0-.285 0-.476.048-.572.094.125.392.475.653.782.138.162.266.311.348.41l2.05 2.336c.763.859 1.05 1.192 1.145 1.335.095 0 .143-.047.143-.095zm3.004-4.72c0-.62-.047-.81-.429-.858l-.19-.048c-.048-.047-.096-.19 0-.238.762-.048 1.477-.048 2.192-.048.763 0 1.383.048 1.955.286 1.192.43 1.812 1.43 1.812 2.622 0 1.145-.525 2.098-1.526 2.623-.572.286-1.287.429-1.954.429-.336 0-.67-.017-.948-.03-.197-.01-.364-.018-.483-.018-.381 0-.667 0-1.096.048-.048-.048-.048-.143 0-.239l.19-.047c.525-.048.525-.191.525-1.097v-3.385h-.048zm.715 3.147c0 .476.048.763.191.953.19.286.524.382 1.097.382 1.716 0 2.479-1.145 2.479-2.766 0-.953-.477-2.622-2.765-2.622-.525 0-.811.048-.859.143-.047.048-.095.286-.095.668v3.242h-.048zm9.663 1.35c.204.104.627.318 1.35.318 1.145 0 1.86-.667 1.812-1.573 0-.858-.524-1.383-1.096-1.716l-.716-.43c-.333-.19-.762-.572-.762-1.096 0-.429.19-1.001 1.048-1.001.859 0 1.097.572 1.192 1.001.048.048.191 0 .239-.048 0-.381-.048-.905-.143-1.096-.048 0-.191 0-.286-.048a4.209 4.209 0 00-.811-.095c-1.144 0-1.812.667-1.812 1.525 0 .716.525 1.24.954 1.526l.858.524c.62.43.715.859.715 1.24 0 .525-.333 1.001-1.096 1.001-1.05 0-1.383-.906-1.526-1.335 0-.047-.143 0-.19.048 0 .43.142 1.049.238 1.24l.032.016zm4.974-2.685c0-1.764 1.335-3.1 3.146-3.1 2.05 0 3.052 1.479 3.052 3.052 0 1.764-1.383 3.099-3.052 3.099-1.954-.048-3.146-1.43-3.146-3.051zm5.292.19c0-1.478-.668-3.05-2.336-3.05-.906 0-2.098.619-2.098 2.574 0 1.287.62 3.003 2.384 3.003 1.049 0 2.05-.762 2.05-2.526zm6.055-3.29c-.906 0-1.717.24-2.384.764-.668.524-1.097 1.335-1.001 2.288 0 1.144.524 1.955 1.239 2.431.62.43 1.383.573 2.193.573.572 0 1.192-.143 1.383-.191.095-.048.191-.095.286-.095.143-.143.381-.715.429-1.192-.048-.096-.191-.096-.238-.048-.239.477-.715 1.24-1.86 1.24-1.43 0-2.622-1.002-2.622-2.861 0-1.812 1.144-2.67 2.479-2.67 1.288 0 1.669.668 1.812 1.287.048.048.191.048.238 0a9.342 9.342 0 01-.143-1.287c-.095 0-.143 0-.238-.047a8.306 8.306 0 00-1.573-.191zm4.29 1.479c0-.954 0-1.097-.524-1.144h-.238c-.048-.048-.048-.191 0-.239.228 0 .429.014.617.026.166.011.323.022.479.022.334 0 .668 0 1.097-.048.047.048.047.19 0 .239h-.239c-.524.047-.524.19-.524 1.144v3.146c0 .954 0 1.05.524 1.145l.239.047c.047.048.047.191 0 .239-.228 0-.429-.014-.618-.026a7.107 7.107 0 00-.479-.022c-.381 0-.667 0-1.096.048-.048-.048-.048-.143 0-.239l.238-.047c.524-.048.524-.191.524-1.145v-3.146zm3.338-1.097c.524.048.524.19.524 1.097v3.146c0 .906 0 1.05-.524 1.097h-.382c-.047.095-.047.19 0 .238.525-.047.811-.047 1.192-.047h.811c.405 0 .798.011 1.192.023.393.012.786.024 1.192.024.095-.238.333-.953.381-1.24-.048-.047-.191-.095-.238-.047-.239.477-.477.763-.62.858-.191.096-.477.143-1.144.143-.763 0-.954-.095-1.049-.19-.096-.143-.143-.43-.143-.906v-1.24c0-.238 0-.238.286-.238h.524c.334 0 .525 0 .668.047.19.048.238.191.286.334l.095.334c.048.048.191.048.238 0 0-.082-.008-.19-.019-.315a6.886 6.886 0 01-.028-.543c0-.19.015-.396.028-.573a4.56 4.56 0 00.019-.333c-.047-.048-.19-.048-.238 0l-.048.381c-.047.191-.095.239-.19.286-.096.048-.382.048-.763.048h-.525c-.238 0-.286 0-.286-.238v-1.764c0-.176 0-.259.042-.298.037-.036.109-.036.244-.036h.62c.382 0 .668 0 .858.048.432.13.512.376.63.74v.001l.038.117c.047.047.19.047.238 0l-.041-.4c-.034-.344-.068-.69-.102-.792-.095.047-.62.047-1.192.047h-1.668c-.191 0-.358-.011-.525-.023a7.029 7.029 0 00-.524-.024c-.048.047-.048.19 0 .238h.143zm8.677 4.243c0 .906 0 1.05.524 1.097l.286.048c.048.047.048.19 0 .238-.291 0-.509-.015-.703-.028-.154-.01-.293-.02-.441-.02-.334 0-.667 0-1.24.048-.047-.048-.047-.19 0-.238l.334-.048c.525-.048.525-.19.525-1.097v-3.957c0-.143 0-.214-.036-.25-.036-.036-.107-.036-.25-.036h-.477c-.382 0-.858 0-1.097.239-.19.19-.286.381-.381.62-.048.047-.191 0-.239-.048.144-.382.287-.954.334-1.335a.268.268 0 00.058-.01c.043-.011.085-.022.085.01.048.286.334.286.763.286h3.576c.477 0 .572 0 .667-.239.048 0 .143 0 .143.048-.095.382-.143 1.097-.143 1.335-.047.048-.19.048-.238 0l-.01-.051c-.045-.227-.096-.483-.229-.616-.19-.143-.524-.239-1.001-.239h-.62c-.135 0-.195 0-.222.03-.021.025-.02.07-.018.15l.001.034.001.031v3.998h.048zm7.056 1.145c-.477-.048-.525-.191-.525-1.145v-.476c0-.668.048-.763.429-1.43l.573-.954.134-.241v-.001c.35-.63.585-1.056 1.01-1.14l.238-.048c.095-.096.048-.191 0-.239-.286.048-.524.048-.81.048-.138 0-.264-.011-.396-.023a5.065 5.065 0 00-.463-.025c-.047.048-.047.19 0 .239h.144c.238.047.381.095.381.143 0 .06-.137.318-.298.62l-.001.001c-.09.17-.188.352-.273.523a22.998 22.998 0 01-.811 1.478 73.849 73.849 0 01-1-1.954l-.001-.001c-.048-.096-.286-.572-.286-.667 0-.048.095-.096.381-.143h.096c.048-.096.048-.191-.048-.239-.238.048-.524.048-.953.048-.205 0-.395-.014-.572-.026a6.143 6.143 0 00-.43-.022c-.047.048-.047.19 0 .239l.239.047c.286.048.429.096.715.668l1.049 2.05c.238.477.286.62.286 1.096v.43c0 .953 0 1.096-.525 1.144l-.286.047c-.047.096-.047.191 0 .239.477-.048.763-.048 1.145-.048.148 0 .296.01.461.02.206.013.439.028.731.028.047-.048.047-.191 0-.239l-.334-.047zM26.449.048h-5.864v8.01h5.912v-.811h-5.006V4.434h4.434v-.81H21.49V.857h4.958v-.81zm12.062 4.72V.048h.906V4.72c0 1.764.906 2.717 2.48 2.717 1.477 0 2.43-.905 2.43-2.67V.048h.907v4.625c0 2.336-1.335 3.576-3.385 3.576-1.955.048-3.338-1.192-3.338-3.48zM61.157.048h-3.48v8.057h3.576c1.764 0 2.956-.81 2.956-2.193 0-1.097-.763-1.669-1.717-1.955.62-.286 1.288-.81 1.288-1.86V2.05a1.76 1.76 0 00-.525-1.287c-.429-.43-1.192-.715-2.098-.715zm1.717 2.193c0 .953-.763 1.43-1.86 1.43v-.048h-2.431V.858h2.479c1.192 0 1.812.525 1.812 1.335v.048zm.476 3.67c0 .907-.762 1.431-2.002 1.431v.048H58.63V4.53h2.575c1.383 0 2.145.524 2.145 1.382zM95.39.049v4.72c0 2.288 1.382 3.528 3.337 3.48 2.05 0 3.385-1.24 3.385-3.576V.048h-.906v4.72c0 1.764-.953 2.67-2.431 2.67-1.574 0-2.48-.954-2.48-2.718V.048h-.905zm19.213 0h5.864v.81h-4.958v2.765h4.434v.81h-4.434v2.814h5.006v.81h-5.912V.047zm21.549 0h-3.528v8.01h.906V4.91h2.336l2.336 3.146h1.145l-2.48-3.29c1.288-.19 2.194-1 2.194-2.336 0-.62-.239-1.191-.62-1.573-.477-.524-1.287-.81-2.289-.81zm2.05 2.479c0 1.049-.905 1.668-2.097 1.668h-2.432V.905h2.479c1.288 0 2.05.573 2.05 1.574v.048z"/></symbol><symbol id="logo-uchicago" viewBox="0 0 199 40"><title>logo-uchicago</title><path d="M5.931 29.077a5.567 5.567 0 01-.935-.412c.17.687.414 1.353.726 1.988.22.413.592-.576.21-1.576zm-.94-11.41c0 .92-2.595 2.243-3.703 2.84 1.715.59 3.336-.995 3.142-.612-.194.383-2.307 2.282-3.212 3.246.711.2 1.362-.378 1.88-.815.516-.438 1.49-1.68 1.362-1.084-1.522 1.88-2.72 5.777-1.99 6.026.423-.885 2.173-5.39 2.283-5.37.11.02-.14 1.189-.174 1.989a12.97 12.97 0 00.268 4.176c.19-.258.373-.253.671-.233.035-.165 0-.12-.164-.368-.497-.647.075-1.522-.159-2.059-.194-.447-.303-.09-.392-.556.198-.11.42-.173.646-.184.159-1.745.74-2.63.497-1.532-.13.487-.197.988-.199 1.492a.56.56 0 01.16.064c.03 0 2.928-4.753 1.322-1.446a17.951 17.951 0 01-1.07 1.6 1.8 1.8 0 01.468.667c0 .044 3.883-5.101 1.243-.955-.164.254-.954 1.104-1.158 1.352 0 .035.074.965.074.965a6.535 6.535 0 001.303-1.213c-.035-.527.09-.457.114-.994.124-.08.284.139.497.313.09.084 2.66-4.39 1.05-1.034a8.017 8.017 0 01-.856 1.228c.186.286.338.593.453.914 0 0 3.435-4.946 1.352-1.198-.164.294-1.198 1.537-1.183 1.571.253.622.497 1.223.472 1.223a2.207 2.207 0 01.84-2.222 1.353 1.353 0 00.661 1.158c.13.115.378.607.408.19.085-1.224-.313-1.194-.606-1.716-.07-.124-.06-.403 0-.388 2.485.075 2.386 2.387 2.799 2.387a2.262 2.262 0 010-1.646 1.357 1.357 0 01-.368-1.62c-.746-.771-.319-2.407.04-2.75-.498-.696.109-1.168 0-1.596-.2-1.491-1.547-1.059-1.85-2.486-.209.254-.602 1.129-.418 1.417.184.289.662.358.687.602 0 .104.044.393-.03.452-.254.045-.428-.189-.691-.293-.498-.209-1.79.661-1.865-.105-.05-.497.164-.134.14-.581-.025-.448-.254-.134-.26-.731 0-.432.523-.572.563-.746.094-.432.875.637 1.337-.497-.268.04-.805-.15-.756-.413.135-.706.15-2.416-1.451-2.048-.572.134-2.173.995-2.397.06-.576.994.562.84.91.82a.78.78 0 01-.73.16c-.9.59-4.192 2.684-5.146 3.21 1.262.593 3.226-.645 3.256-.645l-.07.015zm3.162 8.437c-.447.448-.601.458-.576.652.12.261.288.498.497.696.263.213.363.407.169-.22a3.65 3.65 0 01-.1-1.128h.01zm7.115-9.734a.85.85 0 00-.408-.438c-.8-.382-2.332.443-2.317-.755 0 0-.546.407-.298.835.572.994 2.163-.234 3.023.358zM3.227 4.383a1.03 1.03 0 000 2.054 1.03 1.03 0 000-2.054zm0 4.097a1.029 1.029 0 10-.143 2.053 1.029 1.029 0 00.143-2.053zm1.407-2.377h1.193V4.93H4.634v1.173zm0 4.087h1.193V9.017H4.634v1.173zm3.251-1.283c-.537.329-.442.692-.263.915.203-.135.397-.282.581-.442a1.422 1.422 0 01-.318-.473zm1.238-1.814v-.279a.552.552 0 00-.239-.353c-.064 0-.199.12-.273.24a.368.368 0 00.04.352c.164.199.238.204.497.04h-.025zm.025.582v-.468c-.17.105-.234.184-.408.08-.283.228.15.368.239.442a.552.552 0 01.169-.054zm2.177-3.292c.095-.07.319-.323.468-.467a.711.711 0 01-.289-.293c-.258.203-.308.348-.179.76zm1.905.249l-.373.298c.054.11.422.373.626.279.204-.095.298-.294.11-.398a3.484 3.484 0 00-.364-.18zm.154-.318l.174-.144a1.223 1.223 0 00-.498-.274c-.104 0-.318.08-.238.189a.528.528 0 00.338.264.656.656 0 00.174 0l.05-.035zm.541 5.324a2.14 2.14 0 000-.358c0-.104-.313-.308-.367-.308-.055 0-.07.035-.15.164a.42.42 0 00.025.298.661.661 0 00.498.204h-.005zm-.432.03c-.283.239.035.458.124.532a2.63 2.63 0 01.318-.104.323.323 0 01-.03-.12v-.238a.497.497 0 01-.427-.07h.015zm-.646.373l-.174.194-.17.169c-.129-.134-.223-.16-.243-.264v-.875l-.258-.124c-.125.105-.22.06-.11-.035l.403-.377h.1l.258.377v.806c.094.1 0 .1.199.134l-.005-.005zm-.08-2.6a.82.82 0 01.229-.83 5.77 5.77 0 01.462-.363c.14.084.249.144.318.179 0 .07-.054.203-.204.213-.223 0-.397-.054-.497.08-.1.134 0 .497.125.636.124.14.422.244.497.12.074-.125.184-.08.08.064a3.342 3.342 0 00-.274.428.76.76 0 01-.696-.527h-.04zm.368 2.65a.75.75 0 01.254-.527.84.84 0 01-.06-.497c.155-.203.368-.354.611-.433.15 0 .373.308.498.452-.035.04.044.935.044.995 0 .06.2.124.249.055.05-.07.12 0 .06.064-.06.065-.284.234-.353.318a2.098 2.098 0 01-.378-.298 1.715 1.715 0 00-.632.333.498.498 0 01-.273-.497l-.02.035zm1.825-2.302l-.18.194-.228.194c-.13-.135-.219-.17-.244-.274v-.875l-.253-.124c-.12.11-.219.06-.11-.035l.403-.373h.095l.174.259v.93c.119.099.119.089.318.124l.025-.02zm-.244-2.844c-.497-.05-.358-.204-.278-.199.457.03.353.209.278.2zm0-.288c-.497 0-.358-.204-.278-.2.407.026.353.195.278.2zM14.323 5.7l.209.214v.223l-.154.14h-.13l-.148-.12V5.9l.223-.2zm-.219-1.77a5.075 5.075 0 01-.457.388.2.2 0 01.1.034c.353.204.497.498.129.771a1.452 1.452 0 01-.83.333 1.387 1.387 0 01-.706-.293l.497-.472c-.219-.17-.423-.393-.254-.652a1.169 1.169 0 01.855-.497c.246.037.47.16.632.348l.034.04zm-1.868 1.09c-.094.05-.288.248-.442.248a.92.92 0 01-.96-.994.994.994 0 01.82-.9c.25 0 .309.234.453.363-.214.174-.562.522-.77.73a.676.676 0 00.8.389c.223-.055.303.044.1.144v.02zm-1.531-1.05c-.085.085-.279.204-.353.264-.1-.06-.219-.234-.284-.283-.03.025-.084.054-.139.09v1.287a1.377 1.377 0 01-.382 0V4.199c0-.134-.16-.179-.353-.233.125-.131.261-.251.407-.358.17.129.274.129.353.228a3.13 3.13 0 00.383-.243c.08.094.229.243.283.313.075-.08.17 0 .085.07V3.97zm-1.61 2.183c.148 0 .273.284.402.428-.033.33-.047.662-.04.994.03.05.134.11.179.07.045-.04.12 0 .055.06-.065.059-.348.308-.423.387a.457.457 0 01-.154-.348.72.72 0 00-.452.303.557.557 0 01-.358-.457c0-.204.134-.318.278-.452a.433.433 0 01-.075-.065.805.805 0 01-.054-.447.994.994 0 01.641-.498v.025zM8.8 5.631c-.065-.094-.08-.179-.219-.144-.313.144-.67.158-.994.04a.81.81 0 01-.492-.8 1.089 1.089 0 01.576-.85c.296-.105.619-.105.915 0 .1.029.174 0 .179-.11.005-.11.11-.055.11 0v.93c0 .064-.135.07-.13 0a2.516 2.516 0 00-.06-.408.572.572 0 00-.994-.08c-.09.151-.14.322-.149.497.004.187.054.37.144.532a.562.562 0 00.994-.07.805.805 0 00.08-.387c0-.055.124-.065.124 0v.656c.01.068.04.131.09.18.08.124 0 .218-.12.069L8.8 5.63zm-1.706.95c.206-.248.473-.437.776-.547.08.094.174.239.293.393a2.56 2.56 0 00-.308.293c-.055-.06-.353-.497-.567-.194a.73.73 0 00.155.96.8.8 0 00.65.149 1.817 1.817 0 00-.238.373.73.73 0 01-.716-.21.905.905 0 01-.045-1.217zm.16 2.983c.094-.652.725-.915.914-1.044.083.256.226.488.418.676-.214.174-.706.586-.89.726.104.189.497.323.622.179.124-.145.213-.065.109.064a2.738 2.738 0 00-.338.542c-.284-.124-.875-.497-.79-1.118l-.045-.025zm1.536-.517c.139-.114.271-.235.398-.363.104.169.154.328.248.397.13-.109.338-.243.438-.348a.497.497 0 01.268.498c0 .333.055.85.055.994 0 .144 0 .045.114 0s.124 0 .055.08c-.07.08-.398.283-.497.382a.76.76 0 01-.09-.581 4.77 4.77 0 000-.756c0-.11-.164-.144-.233-.204-.07.05-.134.104-.194.164v1.273a3.084 3.084 0 01-.333 0V9.454a.676.676 0 00-.234-.377l.005-.03zm1.73-1.139c-.095.085-.308-.05-.383-.179-.1-.36-.12-.739-.06-1.108 0 0-.07-.095-.149-.115-.08-.02-.119-.064.04-.13a1.77 1.77 0 00.542-.655c.04-.105.095 0 .04.094a.905.905 0 00-.05.587c.154.016.309.016.462 0 .05 0 .045.159 0 .154-.044-.005-.546.06-.546.06-.01.28.02.562.089.835 0 0 .16.139.219.084.06-.054.144 0 .06.075-.085.074-.145.194-.26.283l-.004.015zm.209 1.124a2.31 2.31 0 00.437-.686c.03-.11.095-.07.085.044a3.476 3.476 0 00-.06.612c0 .035.249.035.328.035.08 0 .055.154 0 .154-.054 0-.328.04-.328.04-.032.207-.02.419.035.621.104.1.189.17.333 0 .07-.07.144 0 .06.07-.115.12-.212.255-.289.402-.044.12-.308.03-.392-.094-.135-.199-.075-.602-.085-.994 0 0-.253-.125-.13-.224l.006.02zm1.79-.746a4.144 4.144 0 00-.324.343 3.027 3.027 0 01-.338-.273.656.656 0 00.333-.309.433.433 0 00.329.239zm-.806-1.939c.284.09.701 0 .83.398.13.398-.114.9-.442.925-.328.024-.497-.07-.676-.055-.07 0-.125.03-.134.104-.01.075-.12.12-.14 0a5.911 5.911 0 01-.08-.67c0-.13.12-.145.145 0 .02.135.08.262.174.362a.905.905 0 00.82.07.332.332 0 00-.044-.498c-.165-.109-.836-.263-.95-.457-.194-.328.154-.597.303-.686a1.12 1.12 0 01.612-.09c.094 0 .219.03.223-.07.005-.099.085-.089.095 0 .03.294.06.115.05.428 0 .145-.05.145-.11.035-.06-.11-.452-.417-.78-.204-.328.214-.18.348.08.418l.024-.01zm1.02 5.096a7.457 7.457 0 012.714.776V2.773s-2.153-1.492-5.658-.16c-1.029.398-3.535.065-3.535.065v9.65c2.198.15 5.061-.994 6.463-.89l.015.005zm3.435 3.102a.65.65 0 01-.16.304l.582-.294a3.409 3.409 0 00-.547-.303.447.447 0 01.16.293h-.035zm.905 0c-.537.105-.94.691-1.552.443-.08-.055-.243-.095-.223-.219.126.064.262.104.402.12a.413.413 0 01-.04-.607c-.367.233-.497.169-.497.045a.93.93 0 01.94-.234c.314.181.647.325.994.427l-.024.025zm-1.492-1.108a.875.875 0 00-.76.532c-.184.184-.175-.309-.552-.095-.16.214.258.691.159.721-.408.124-.358-.612-.587-.631-.333.119-1.178.89-.348 1.491 0-.412.756-.86.994.05a.994.994 0 011.144.686c1.153.204.82.97.79.97a.996.996 0 00-1.417-.403c-.189.124-.497.243-.676.08a.498.498 0 00.562.427c.72-.2.905.497.353.656.12.184.348.174.557.045.188-.13.344-.3.457-.497.2.94-.994 1.034-1.377 1.088.06.2.189.244.428.314-1.258.044-1.492 1.223-1.432 1.904.283 0 .72-.597.68-.244-.889.945-1.192 2.213-.72 3.018.224-.09.293-.338.373-.537.035 0 .497.179-.239 1.054-.05.229-.308.915.254 1.079.153-.215.233-.473.229-.736.164-.065.273.462.208.626-.736.304-.641 2.556.21 3.769a3.977 3.977 0 010-2.913c.263-.696.84-2.262.854-2.243.318.408.741 2.153.741 2.894.457-.398.547-.835.925-1.134.179.627.248 1.04.393 1.596.183-.542.666-1.153 0-2.903.144-.13.402.606.497.572.094-.035.159-.393-.08-1.08a1.463 1.463 0 01-.497-1.168c.06-.04.278.686.537.726.088-.524.138-1.054.149-1.586a2.356 2.356 0 00-.736-1.183 1.492 1.492 0 01-.402-.994c.298.278.233.497.497.591.098-.514 0-1.046-.274-1.491-.179-.293-.094-.254.12-.075.278.328.144.303.382.438.497-1.233.05-1.492.085-1.561.035-.07.403.576.72.323-.496-.274-.496-.686-.556-1.129-.045-.353-.273-.497-.184-.572.497.388.656-.04.671-.129-.1.055-.557.115-.611-.591 0-.279-.453-.403-.453-.403.264-.05 1.109-.1.91-.935a.731.731 0 01-.88.388.393.393 0 00.279-.457c-.826.497-1.492-.458-2.332-.338l-.045-.01zm7.16-8.72c.215.147.449.266.695.352.01-.13.01-.262 0-.392 0-.11-.368-.309-.427-.309-.06 0-.164.11-.254.234-.09.124-.035.09 0 .114h-.015zm.407.994a.775.775 0 01.308-.09 1.508 1.508 0 010-.159V5.14a3.56 3.56 0 01-.562-.244l.085.045a.632.632 0 00.174.77h-.005zm.005 1.988c.133.223.319.41.542.542.162-.23.233-.511.199-.79 0-.214-.304-.453-.542-.537a.586.586 0 00-.2.785zm-4.808 2.024c-.179.338-.03.407.07.497.113-.054.223-.115.328-.184v-.303c-.209 0-.273.064-.403 0l.005-.01zm.393-.085c.01-.124.01-.248 0-.373 0-.109-.224-.273-.288-.278-.065-.005-.12.025-.21.154a.611.611 0 000 .368.546.546 0 00.498.13zm.298.87c-.129-.1-.238-.124-.283-.278a2.547 2.547 0 00-.661.462.74.74 0 01-.219-.497.994.994 0 01.298-.557l-.034-.03a.537.537 0 01-.045-.407c.074-.105.373-.497.606-.532.16 0 .289.184.423.333a7.5 7.5 0 000 .84c.149.16.209.199.298.14.09-.06.124 0 .065.059-.06.06-.348.408-.428.497l-.02-.03zm.83-1.387s-.328-.134-.178-.209a1.4 1.4 0 00.571-.497c.04-.104.145-.06.09.05a.95.95 0 00-.06.457c0 .035.214.055.303.055.09 0 .05.16 0 .16h-.318a5.88 5.88 0 000 .993.243.243 0 00.313.05c.075-.07.155 0 .065.07s-.209.288-.333.338a.393.393 0 01-.408-.16 3.62 3.62 0 01-.05-1.262l.006-.045zm.587-1.153a1.63 1.63 0 01-.497-.453c-.204.259-.253.498-.621.577a1.291 1.291 0 00.397-.96.591.591 0 00-.367-.571c-.14.07-.264.159-.339.194-.074.035-.099-.09-.044-.12.223-.13.434-.28.631-.447a.542.542 0 01.408.313c.148-.118.289-.244.422-.378.155.164.354.28.572.333-.234.393-.746.16-.82.06a.343.343 0 000 .398c.185.245.448.42.745.497-.154.176-.32.342-.497.497l.01.06zm.343 1.342c.154-.169.319-.278.413-.378.125.087.229.2.303.333 0 .22-.05.677-.035.84.015.165.632.264.662.03.02-.22.02-.44 0-.66 0-.105-.259-.155-.383-.14.169-.174.308-.303.417-.403.15.116.28.253.388.408-.02.308-.02.617 0 .925.04.149.025.159.14.233-.115.11-.2.155-.279.239-.12-.035-.318-.209-.303-.368a3.476 3.476 0 01-.716.313c-.154-.159-.269-.199-.279-.387a4.07 4.07 0 000-.83.318.318 0 00-.298-.155h-.03zm2.019-1.635a1.222 1.222 0 01.88-1.11.954.954 0 01.611.856 1.642 1.642 0 01-.308.726 3.775 3.775 0 00-.497.422c-.497 0-.76-.606-.75-.9l.064.006zm.005 1.914c.129-.075.427-.348.532-.418.137.108.262.232.373.368.134-.077.262-.166.382-.264.14.096.27.204.388.324.08-.075.18 0 .09.074-.09.075-.289.259-.363.318-.13-.1-.253-.21-.368-.328a.782.782 0 01-.15.09v1.238a1.554 1.554 0 01-.407 0V9.827c0-.139-.288-.228-.467-.233l-.01-.005zm1.998-1.765a1.854 1.854 0 01-.323-.05c-.11-.035-.065-.154 0-.154.098.005.195.022.288.05.065.024.095.164 0 .154h.035zm-.035-.299a1.526 1.526 0 01-.323-.05c-.109-.03-.064-.153 0-.153.1.002.199.019.294.05.064.03.09.158 0 .153h.03zm-.82-1.904l-.383.418a.497.497 0 01-.213-.308c-.235.06-.451.176-.632.338a1.06 1.06 0 01-.229-.607 1.03 1.03 0 01.264-.601h.03a1.247 1.247 0 01-.17-.115.174.174 0 010-.214c.075-.099.314-.397.548-.437a.805.805 0 01.621.273 8.73 8.73 0 00-.035.995c.086.095.179.183.279.263l-.08-.005zm-2.45 1.531a.691.691 0 00.412.677.94.94 0 00.497.025c.07 0 .05-.03.1-.08s.114 0 .069.045c-.045.044-.462.447-.577.527a.497.497 0 01-.497-.16.994.994 0 01-.348-.994c.055-.383.691-.71.835-.795.06.06.348.363.498.462a.52.52 0 01-.363.134c-.16 0-.264-.129-.368-.248a.721.721 0 00-.259.407zm.824-3.067c-.07 0-.79.085-.79.085-.012.332.01.665.065.994 0 .074.09.184.174.114.084-.07.159.05.07.12-.09.07-.21.353-.284.402-.075.05-.279-.164-.333-.308a5.168 5.168 0 01-.144-1.253s-.338-.144-.174-.209c.28-.15.508-.38.656-.66.04-.11.139-.066.09.044a.63.63 0 00-.05.497 4.6 4.6 0 00.715 0c.055 0 .055.16 0 .16l.005.014zm-1.675 1.079l-.298.383h-.279a.8.8 0 01-.253-.353v-.925l-.343-.199c-.065.085-.19.085-.144 0l.497-.418h.104l.303.304v.954a.607.607 0 00.453.249l-.04.005zm-.343-1.89l-.169.145h-.179l-.14-.14v-.268l.224-.189.224.219v.234h.04zm-.96 0a.497.497 0 00-.323.383c-.035.174-.591 1.8-.66 1.91a10.783 10.783 0 00-.876-1.99c-.154-.228-.303-.183-.447-.188-.145-.005-.085-.13.03-.12.114.01 1.044.1 1.297.135.09 0 .095.1-.025.134-.12.035-.204.085-.204.154.096.326.222.643.378.945.166-.357.273-.738.318-1.129-.064-.169-.09-.199-.218-.208-.13-.01-.125-.09 0-.115.232-.034.466-.049.7-.045.125 0 .14.08-.03.125l.06.01zm-2.048 2.919c.35-.162.736-.225 1.119-.184.11.03.218 0 .218-.05s.1-.054.1 0v.806c0 .064-.1.06-.1 0a.368.368 0 00-.084-.264.82.82 0 00-1.288.045c-.119.154-.159.418-.03.462.262.03.527.021.786-.025.203-.03.404-.07.602-.124.044 0 .104-.064.104 0v.423c0 .08-.065.04-.104 0-.2-.033-.4-.05-.602-.05a3.705 3.705 0 00-.81-.08c-.135.04-.03.25.09.403a.761.761 0 001.217.095.339.339 0 00.095-.259c0-.06.104-.07.104 0v.686c0 .055-.104.07-.104 0s-.07-.114-.21-.07c-.374.122-.78.11-1.148-.034-.308-.18-.576-.234-.586-.91a1.154 1.154 0 01.631-.885v.015zm-.497 2.068h.462v1.775c0 .144.14.194.269.134.13-.06.12 0 .04.09a2.765 2.765 0 00-.388.447c-.16-.11-.338-.248-.323-.378 0-.238-.05-1.894-.06-2.083v.015zm2.073 3.147c.994 0 4.793 1.05 6.632.925v-9.58c-1.701.199-3.426.03-5.056-.498-1.914-.706-4.549.527-4.549.527v9.447s.995-.786 2.983-.786l-.01-.035zm6.97-2.868v1.83a4.474 4.474 0 002.153-.732 1.024 1.024 0 011.094.07S28.97 8.5 27.936 8.644c-1.87.268-2.084-.114-2.084-.114l.005.01zM29.1 5.88c0 .12.03.199.035.253 0-.054 0-.134-.035-.253a1.149 1.149 0 00-1.213-1.08c-.378 0-.835.458-1.989-.049v1.83c.473.139 1.775-.602 2.292-.83.373-.16.9-.055.925.129H29.1zM27.826 25.1c-.074-2.893-1.84-6.105-1.342-5.518 1.208 1.491 1.596 4.732 2.426 7.522 0 0 .532.273.418-3.267a6.045 6.045 0 00-.672-2.336c-.7-1.313-2.127-3.53-2.083-3.545.343-.279 1.179 1.63 1.904 2.381.539.452 1.181.76 1.87.9-1.05-2.033-3.59-3.947-3.326-4.186 1.87 1.755 2.486 1.84 2.54 1.745l-1.685-1.636c-.497-.636-1.104-1.128-.994-1.108.75.164-.393-.627-1.278-.865-.16-.045-.413-.055-.423-.135-.01-.08.21-.08.393-.134a.323.323 0 00.249-.303 1.59 1.59 0 01-.995-.134c-.596-.279-1.665-.597-2.157-.403-.239.066-.46.181-.652.338-.134-.055-.497-.298-1.044.343-.172.167-.3.373-.373.602 0 .427 0 0 .115.427.045.17-.15.497-.935.746a.338.338 0 00-.229.403.746.746 0 01.756-.07c.716.338.855-.194 1.303-.572 0 0-.125.497 0 .497.557.115.373.532.298.597-.701.627-.408.865-.661 1.248a1.184 1.184 0 01-1.144.497c-.75 0 .995-1.153-.676-1.626.259.433.363.78-.214 1.119-.363.214-.179 1.288-1.113.79 0 0-.075.796-.184.83 1.238 1.12.532 1.726.611 3.312.398.994-.04 1.491-.139 1.551a2.601 2.601 0 00.557 1.616c.308.402-.03 1.029.288 1.461.294-1.034.602-.601.686-2.038a1.59 1.59 0 01.875-.691c0 .865.314 1.65.249 2.019.317-.067.642-.085.964-.055a.56.56 0 01.323.442 4.282 4.282 0 00-.62.368c-.447.387-.777.89-.956 1.452a16.745 16.745 0 001.651-1.452c.103-.235.188-.478.254-.726 0-.03-.796-.497-.995-.93-.69-1.337 1.07.796 1.109.607.087-.322.23-.627.423-.9a2.734 2.734 0 01-.806-.954c-1.004-1.69 1.07.716 1.07.716.55-.314.55.104.62.551 0 .04.935.726.995.771.234-.23.423-.5.557-.8 0-.03-1.676-1.527-1.989-2.024-2.327-3.977 1.884 1.77 2.083 1.611.121-.43.167-.877.134-1.322a5.639 5.639 0 01-1.297-1.397c-1.954-3.227 1.282.964 1.282.934-.04-.69-.606-3.689-.213-2.789.525 1.38.768 2.85.716 4.326.223-.363 1.128-.721 1.491-.81l-.015.004zm-3.649 3.177s-.308-.234-.328-.189c-.05.134-.12.288-.209.472-.09.184.164.045.537-.283zm-.124-1.203a5.892 5.892 0 01-.12.765c0 .03.294.15.433.269a4.19 4.19 0 00.572-.527c-.045-.03-.855-.73-.855-.701 0 .03 0 .08-.03.194zm2.485 1.665c.358-.303.567-.82 1.03-.994-.348-.318-.691.318-.87.094.33-.444.525-.974.561-1.526 0-.343.413-.661.498-.85a3.584 3.584 0 00-1.611.994c-.657.94-.657 1.79-3.505 3.068-.144 0 .532-.497.72-1.06.09-.263.468-1.49.21-2.087a2.1 2.1 0 00-.637 1.243c-.428 1.173-.661 1.282-1.73 1.988-.144.095-.965 1.362-2.029 1.427.11-.03.045-.293.408-.527 1.193-.78.736-2.486 2.292-2.75-.775-.273-1.307.498-1.447.404.627-.87.075-1.606.17-2.312a.87.87 0 00-.438.576c-.12 1.263-.706 1.492-.766 2.029.125.9-.596 1.6-1.128 2.237a1.278 1.278 0 01.696-1.427c.363-.238-.035-.96-.035-.96-.15.786-.592 1.03-.865 1.07-.274.04.845-1.1.72-2.138-.054-.462-.188-.259-.263-.776-.934 1.04-.248 1.68-1.208 2.879a6.332 6.332 0 00-.686 1.59c0-1.49.06-1.053.721-2.256.542-.995-.03-1.92-.104-2.516-1.189.82-1.09 2.396-1.124 2.058-.1-.492-.1-1 0-1.491.264-.89-.298-2.247-.298-2.247-1.666 2.61-.269 5.662-.373 5.623-.721-1.13-1.248-1.179-1.407-2.044-.085-.497-.945-3.057-2.52-3.102.795.686.6.78.655 1.899-.497 2.804 3.421 3.097 3.157 4.554-.537-.86-1.357-1.228-2.595-1.9-.547-.432-1.168-.625-1.198-1.307a2.37 2.37 0 000-1.034c-.06-.457-.497-.179-.845-1.138-.711.641-.448 1.367-.393 1.78.063.264.063.54 0 .805a4.688 4.688 0 01-.72-.855c-.498-.651-.498-1.442-.756-1.989-.12-.253-.289-.601-.388-.606a4.057 4.057 0 00.398 2.674.995.995 0 01-.23.274 1.955 1.955 0 01-1.317-1.203.84.84 0 00-.184 1.044c-1.228-.632 0-3.068-1.735-2.983.433.497.16 1.074.12 1.636 0 .914 1.153 1.625 1.153 1.625-1.298-.437-1.561.17-1.546.17 1.581.608 3.24.993 4.927 1.143.388.04.94.497.85.497-.388-.03-1.153-.527-2.257.452.651 0 1.099 1.074 2.152.468 2.73-.771 3.74.581 4.187.93-.095.168-2.098-1.258-3.684-.314-.846.497-2.203.05-3.267-.746.428 1.094 2.257 2.332 2.859 2.332.74 0 1.685-.965 2.764-.915 1.72.085 1.959 1.621 1.77 1.492 0 0-1.352-2.238-3.092.154a3.478 3.478 0 012.854.174c.129.06-.234.462-.498.75-.169.19-.895 1.263-1.675.204-.12-.159-.497-1.143-2.948-.93.924.418 1.949 1.492 2.456 1.99 1.287 1.272 3.231-1.547 3.306-1.234.036.468.209.914.497 1.283.433.86-.547.716-1.079.497 0 0 .994 1.581 1.864.701.94-.994-1.232-1.71-.541-2.486.387-.437 1.755.995 2.371.995 1.67.184 1.581-1.397 2.486-1.352a1.33 1.33 0 00-1.894-.17c-.557.647-1.199.214-1.646-.134a.925.925 0 00-.994-.273c-.174 0 .348-.612 1.029-.497a5.966 5.966 0 003.45-.463c.617-.348.965-.934 1.656-1.596-.214.04-1.492.751-1.904.96a2.074 2.074 0 01-2.138-.18c-.239 0-.174-.178.194-.297 1.262-.284 2.133-1.392 3.336-1.835 1.317-.582 2.983-.179 4.126-1.288l-.075.025zm-.422 2.133a6.094 6.094 0 00.96-2.332c-.302.391-.7.698-1.154.89-.303.965-.16 1.954.194 1.442zm4.569-7.954C29.432 36.4 18.146 38.693 15.74 39.13c-.194.075-13.617-1.65-15-16.163V1.53s12.857-1.66 29.89 0l.055 21.388zm.785.124V.769C13.538-.961 0 .769 0 .769v22.327C1.427 38.23 15.6 40 15.735 40c2.53-.457 14.418-2.849 15.735-16.904v-.054zM197.701 2.817v-.055a37.468 37.468 0 01-.039-1.754v-.13l-.125.03c-.164.035-.994.035-1.779.035h-2.456c-.498 0-.95 0-1.542-.04h-.049c-.11.055-.13.209-.135.259a.267.267 0 00.095.253l.258.045c.677.08.711.154.711 1.581v4.808c0 1.411-.034 1.491-.711 1.566l-.367.044-.035.025a.337.337 0 00-.075.289.265.265 0 00.038.119.27.27 0 00.086.09h.025c.627 0 1.074-.04 1.666-.04.591 0 .994 0 1.775.04h.049a.303.303 0 00.13-.26.26.26 0 00-.095-.249l-.497-.053c-.681-.06-.721-.145-.721-1.566V6.009c0-.258 0-.258.338-.258h.91c.333-.016.666.004.994.06a.532.532 0 01.358.432l.139.552h.025a.386.386 0 00.497 0v-.552c0-.18-.029-.497-.029-.78 0-.284 0-.558.029-.811.03-.254 0-.393 0-.542v-.055a.305.305 0 00-.253-.104.342.342 0 00-.259.094l-.139.577c-.074.323-.164.358-.268.393a5.215 5.215 0 01-1.104.074h-.91c-.338 0-.338 0-.338-.258V1.992c0-.433 0-.433.298-.433h.816c.424-.022.85.004 1.268.08.571.15.745.532.86 1.188v.035l.029.025a.31.31 0 00.204.07.316.316 0 00.289-.14h.039zm-8.948 2.6c0-2.257-1.492-4.683-4.738-4.683a4.736 4.736 0 00-4.858 4.818c0 2.302 1.671 4.628 4.858 4.628a4.647 4.647 0 004.411-2.927 4.649 4.649 0 00.327-1.836zm-1.542.413c0 2.754-1.63 3.729-3.022 3.729-2.755 0-3.481-2.79-3.481-4.44 0-2.784 1.666-3.768 3.093-3.768 2.525 0 3.42 2.41 3.42 4.474l-.01.005zm-11.743 22.825c0 5.767 4.296 10.863 11.41 10.863a10.933 10.933 0 007.947-3.223 10.948 10.948 0 003.18-7.963c0-5.638-3.719-10.993-11.122-10.993-6.602 0-11.41 4.907-11.41 11.316h-.005zm3.207-1.024c0-7.02 4.325-9.292 7.661-9.292 6.12 0 8.452 5.702 8.452 10.992 0 6.314-3.654 9.197-7.497 9.197-6.319 0-8.626-6.154-8.626-10.897h.01zm-6.264-26.21a.309.309 0 00.079-.118.306.306 0 00.015-.141.306.306 0 00-.134-.239h-.06c-.836.055-1.674.055-2.51 0h-.05a.279.279 0 00-.139.204.33.33 0 00.089.293l.274.03c.163.01.322.054.467.13a15.043 15.043 0 01-.776 1.595l-.059.115a45.535 45.535 0 01-1.164 2.098c-.353-.637-.696-1.338-1.029-2.014-.129-.263-.258-.532-.392-.79a7.284 7.284 0 01-.403-.995c0-.025.06-.08.472-.139l.209-.03a.343.343 0 00.075-.318.243.243 0 00-.16-.184h-.034c-.328 0-.806.04-1.422.04-.617 0-1.109 0-1.541-.04h-.045a.272.272 0 00-.124.199.36.36 0 00.074.293l.025.03.408.075c.353.06.532.09.994.96l1.576 3.072a2.57 2.57 0 01.418 1.61v.682c0 1.451-.035 1.52-.706 1.595l-.453.045h-.025a.35.35 0 00-.069.293.256.256 0 00.036.118.256.256 0 00.088.086h.05c.721 0 1.188-.04 1.745-.04.557 0 1.019 0 1.814.04h.05a.272.272 0 00.087-.087.268.268 0 00.037-.116.34.34 0 00-.074-.294l-.547-.045c-.616-.044-.706-.149-.706-1.595v-.687c0-.994.03-1.098.612-2.112l.84-1.457.218-.383c.527-.92.905-1.58 1.492-1.68l.403-.07-.025-.03zm-5.191 16.34a19.06 19.06 0 00-4.071-.496c-4.843 0-8.015 1.491-10.157 3.748a10.985 10.985 0 00-2.884 7.597 10.085 10.085 0 002.948 7.273c2.486 2.486 5.966 3.56 9.775 3.56a24.863 24.863 0 005.737-.835 7.237 7.237 0 011.571-.288.269.269 0 00.076-.167.27.27 0 00-.051-.176c-.577-.224-.771-.995-.771-2.277v-1.795c0-1.636.03-2.53 1.377-2.695l.497-.065a.562.562 0 00-.029-.8 55.012 55.012 0 01-3.396.095c-1.889 0-3.654-.03-4.584-.095a.528.528 0 00-.134.62c.031.07.077.13.134.18l1.412.16c1.989.223 2.083.417 2.083 3.107v1.283a3.581 3.581 0 01-.318 1.824c-.353.542-1.541.96-3.525.96-6.463 0-9.615-4.843-9.615-10.993 0-4.807 2.724-9.232 8.949-9.232 3.271 0 5.672 1.089 6.567 4.55.194.193.771.158.865-.095a36.255 36.255 0 01-.497-4.649 7.58 7.58 0 01-1.988-.273l.029-.025zM162.249.74V.67c-.05-.1-.189-.11-.244-.11a.381.381 0 00-.124 0h-.035v.03c-.169.298-.243.323-.954.323h-5.519c-.597 0-.865-.03-.92-.328V.59h-.025a.26.26 0 00-.183-.055.493.493 0 00-.199.04l-.035.025v.045a14.625 14.625 0 01-.497 1.988v.08a.371.371 0 00.497.13c.121-.337.318-.64.577-.886.293-.268.959-.308 1.576-.308h.735c.299 0 .299 0 .299.323v5.966c0 1.447-.085 1.492-.736 1.566l-.497.04h-.045a.292.292 0 00-.119.268.28.28 0 00.129.244h.05c.815 0 1.307-.04 1.854-.04.547 0 .955 0 1.745.04h.025a.3.3 0 00.129-.259.275.275 0 00-.094-.253l-.497-.055c-.667-.06-.706-.144-.706-1.566V1.957a.843.843 0 010-.283.721.721 0 01.263-.025h1.024a2.587 2.587 0 011.492.313c.186.265.289.58.293.905v.03a.312.312 0 00.244.094.302.302 0 00.278-.144v-.03a7.963 7.963 0 01.194-1.988l.025-.09zm-12.171 7.095V3.08c0-1.462.04-1.551.721-1.606l.363-.03a.284.284 0 00.109-.258c0-.045 0-.204-.129-.259h-.049c-.632.025-1.104.04-1.651.04-.547 0-1.034 0-1.68-.04h-.025a.304.304 0 00-.13.259.272.272 0 00.095.254l.358.029c.681.06.721.15.721 1.606v4.753c0 1.436-.035 1.491-.726 1.596l-.368.044h-.025a.346.346 0 00-.074.294.245.245 0 00.036.117.256.256 0 00.088.086h.05c.681 0 1.128-.04 1.68-.04s.994 0 1.651.04h.049a.304.304 0 00.129-.258.275.275 0 00-.094-.254l-.378-.054c-.686-.085-.721-.16-.721-1.596v.03zm-2.694 30.326c-1.377-.159-1.795-.64-2.725-3.395l-4.39-12.896a90.782 90.782 0 01-1.412-4.296.457.457 0 00-.497-.288 3.57 3.57 0 01-1.665 1.218c.094.497-.095 1.118-.547 2.277l-3.272 8.655c-1.347 3.59-2.242 5.673-2.818 7.15-.448 1.153-1.154 1.491-1.924 1.57l-1.059.095a.624.624 0 00.064.8c.865-.03 2.019-.094 3.078-.094 1.491.03 2.485.03 3.336.094a.502.502 0 00.2-.612.494.494 0 00-.136-.188l-1.059-.094c-.77-.065-.929-.259-.929-.642.134-.91.37-1.803.706-2.66l1.123-3.365c.224-.672.418-.771 1.218-.771h4.838c.959 0 1.088.094 1.312.8l1.407 4.36a6.53 6.53 0 01.418 1.7c0 .324-.448.498-1.119.578l-.93.094a.546.546 0 00-.082.63.523.523 0 00.147.17c.93-.03 2.148-.094 3.684-.094 1.442 0 2.565.03 3.878.094a.634.634 0 000-.8l-.865-.104.02.014zm-8.268-8.715h-3.943c-.899 0-.929-.03-.671-.77l2.019-5.613c.222-.644.479-1.274.77-1.89h.06c.281.66.527 1.334.736 2.019l1.75 5.245c.288.865.223.994-.701.994l-.02.015zm1.805-26.697c0-.498.193-1.382 1.491-1.382 1.178 0 1.536.765 1.72 1.431v.04a.265.265 0 00.204.08.363.363 0 00.293-.13v-.03a6.058 6.058 0 00-.243-1.665v-.065h-.075a1.803 1.803 0 01-.442-.074c-.414-.11-.84-.17-1.268-.18-1.69 0-2.829.965-2.829 2.402a2.987 2.987 0 001.492 2.382l1.267.83a1.91 1.91 0 011.054 1.76 1.407 1.407 0 01-.462 1.066 1.425 1.425 0 01-1.104.366c-1.352 0-1.944-1.044-2.197-1.914v-.03a.241.241 0 00-.204-.094.35.35 0 00-.278.109v.064c.024.654.15 1.3.372 1.914v.025h.025a4.27 4.27 0 002.133.497c1.76 0 2.948-1.034 2.948-2.575 0-1.069-.561-1.934-1.715-2.65l-1.069-.666c-.407-.254-1.089-.79-1.089-1.556l-.024.045zm-3.366 7.288a.219.219 0 00.041-.3.2.2 0 00-.081-.063h-.03a1.548 1.548 0 01-.865-.348c-.92-.77-1.65-1.9-2.665-3.53a.416.416 0 01-.079-.184 2.575 2.575 0 001.695-2.311 2.083 2.083 0 00-1.163-1.96 4.878 4.878 0 00-2.277-.412c-1.223 0-2.173.035-2.983.104h-.035a.27.27 0 00-.139.229.308.308 0 00.109.279l.453.054c.437.055.497.15.497 1.462v4.798c0 1.411-.035 1.491-.711 1.566l-.373.044-.025.03a.367.367 0 00-.065.303.265.265 0 00.125.189h.049c.592 0 1.079-.04 1.666-.04s.994 0 1.586.04h.05a.294.294 0 00.129-.228.306.306 0 00-.085-.274l-.308-.045c-.686-.094-.711-.154-.711-1.566V6.158c0-.189 0-.189.527-.189s.686.125.865.383c.179.259.438.666.666 1.03.229.362.463.735.642.994.915 1.307 1.611 1.725 2.848 1.725.21.006.419-.018.622-.07h.025v.005zm-4.027-4.972a2.184 2.184 0 01-1.313.329c-.282.013-.565 0-.845-.04a2.26 2.26 0 010-.368V1.848c0-.299 0-.323.766-.323a1.867 1.867 0 012.033 1.953 1.826 1.826 0 01-.626 1.576l-.015.01zm-6.901 3.013v-.06a.343.343 0 00-.219-.176.345.345 0 00-.278.042l-.03.04a3.146 3.146 0 01-.905 1.218 3.916 3.916 0 01-1.665.19c-1.114 0-1.397-.135-1.541-.274-.145-.14-.229-.637-.229-1.318V5.875c0-.259 0-.259.338-.259h.776c.332-.015.666.006.994.065.184.045.278.169.338.432l.119.522v.045a.326.326 0 00.249.094.277.277 0 00.263-.124v-.551c0-.194-.029-.498-.029-.786 0-.288 0-.567.029-.815.03-.249 0-.388 0-.532V3.94a.288.288 0 00-.268-.124.326.326 0 00-.249.094l-.129.592c-.06.303-.134.353-.253.387a4.887 4.887 0 01-1.104.075h-.746c-.338 0-.338 0-.338-.273V1.997c0-.433 0-.433.298-.433h.96c.426-.016.852.011 1.273.08.606.154.73.537.914 1.119l.025.08v.034a.275.275 0 00.219.084.343.343 0 00.278-.119v-.224c-.03-.55-.098-1.099-.203-1.64l-.03-.09h-.09c-.149.035-.994.035-1.78.035h-2.51c-.497 0-.955 0-1.571-.04h-.025c-.11.055-.129.21-.134.259a.258.258 0 00.094.254l.259.044c.686.08.725.17.725 1.581V7.83c0 1.446-.084 1.491-.735 1.566l-.498.044-.024.025a.337.337 0 00-.075.289.265.265 0 00.038.119.27.27 0 00.086.09h.025c.771 0 1.238-.04 1.815-.04h1.203c1.163 0 2.337 0 3.58.04h.064l.03-.06c.27-.603.48-1.23.626-1.874l.04.05zm-9.163-6.662a.354.354 0 00.075-.288.273.273 0 00-.119-.209h-.055c-.447 0-.855.04-1.288.04-.527 0-1.029 0-1.382-.04h-.054a.305.305 0 00-.097.103.307.307 0 00-.038.136.312.312 0 00.015.142.31.31 0 00.075.121h.025l.268.03c.468.055.497.15.497.15a1.33 1.33 0 01-.114.496c-.229.582-.865 2.113-1.243 2.983l-.363.85a68.253 68.253 0 01-.825 1.905 149.833 149.833 0 01-1.805-4.395 16.71 16.71 0 01-.656-1.83c0-.04.134-.1.537-.154l.229-.03h.024a.332.332 0 00-.039-.497h-.055c-.592.03-1.059.04-1.611.04s-.994 0-1.382-.04h-.065a.312.312 0 00-.096.103.307.307 0 00-.038.136.316.316 0 00.095.259h.024l.274.029c.497.06.696.298.994 1.034l2.377 5.807c.239.576.443 1.165.611 1.765v.05h.05c.076.03.157.047.239.05a.384.384 0 00.203-.055h.03v-.035c.229-.716.87-2.292 1.387-3.48l.721-1.64a32.118 32.118 0 011.492-3.058.739.739 0 01.611-.418l.438-.03V1.41l.034.005zm-8.715 18.59a10.648 10.648 0 00-4.037 8.49 10.342 10.342 0 004.549 8.815c2.342 1.571 5.096 2.148 7.98 2.148a19.033 19.033 0 005.066-.736c.364-.14.74-.247 1.123-.318.498-.606 1.313-2.724 1.537-4.39a.672.672 0 00-.831-.13 6.835 6.835 0 01-6.672 4.59c-5.255 0-9.52-3.72-9.52-10.44 0-6.633 4.166-9.745 9.068-9.745 4.649 0 6.09 2.486 6.573 4.678a.674.674 0 00.865-.064c-.254-1.954-.418-3.978-.448-4.713a2.286 2.286 0 01-.895-.13 24.678 24.678 0 00-5.672-.77c-3.341 0-6.324.905-8.661 2.73l-.025-.016zm-4.101-12.171V3.08c0-1.447.044-1.551.721-1.606l.357-.03a.285.285 0 00.095-.254c0-.044 0-.203-.129-.258h-.05a39.77 39.77 0 01-1.651.04c-.546 0-1.034 0-1.68-.04h-.025c-.109.055-.129.209-.134.259a.265.265 0 00.014.139.27.27 0 00.08.114l.358.03c.676.06.721.164.721 1.606v4.753c0 1.436-.035 1.491-.726 1.596l-.368.044a.344.344 0 00-.07.138.34.34 0 00-.004.156.246.246 0 00.037.117.245.245 0 00.087.086h.025c.676 0 1.124-.04 1.68-.04.557 0 .995 0 1.651.04h.025c.109-.054.129-.213.134-.258a.265.265 0 00-.014-.14.27.27 0 00-.08-.114l-.378-.054c-.681-.085-.716-.16-.716-1.596l.04.025zm-6.702 26.24V22.669c0-3.396.064-3.943 1.954-4.102l.8-.064c.194-.13.129-.706-.064-.8a92.04 92.04 0 01-3.978.094c-1.287 0-2.436-.035-4.037-.095-.194.095-.258.671-.064.8l.8.065c1.89.16 1.954.706 1.954 4.102v11.435c0 3.395-.065 3.848-1.954 4.071l-.8.095a.616.616 0 00.064.8 93.58 93.58 0 014.037-.094c1.343 0 2.372.03 3.978.094.193-.094.258-.67.064-.8l-.8-.095c-1.89-.228-1.954-.676-1.954-4.076v-.025zM99.6 1.415a.343.343 0 00.085-.273.293.293 0 00-.13-.219h-.064c-.437 0-.785.04-1.367.04-.472 0-.91 0-1.571-.04h-.04a.238.238 0 00-.15.199.348.348 0 00.09.308l.259.03c.457.06.691.124.756.219.159.253.253 1.238.253 2.71v3.246c-.462-.497-.95-.995-1.551-1.696l-1.86-2.083C92.99 2.365 92.234 1.4 92.065.968l-.03-.075h-.079c-.2.028-.4.041-.602.04-.233 0-.944 0-1.491-.04h-.055a.268.268 0 00-.134.2.362.362 0 00.08.297l.263.03c.28.013.547.114.766.289a1.128 1.128 0 01.268.89v3.977c.035.867-.02 1.735-.164 2.59-.03.07-.144.16-.497.209l-.398.045h-.025a.313.313 0 00-.08.253.333.333 0 00.12.234h.065c.462 0 .82-.04 1.382-.04.452 0 .905 0 1.556.04h.065a.294.294 0 00.119-.2.368.368 0 00-.07-.277l-.024-.035-.463-.045c-.318 0-.542-.1-.601-.204-.144-.253-.23-1.243-.23-2.714V3.598a5.593 5.593 0 01.03-.676c.215.238.568.656.886 1.029.218.258.417.497.552.646l3.117 3.55c1.029 1.173 1.521 1.755 1.7 1.989l.03.044h.055a.343.343 0 00.353-.219v-.04c0-.153-.04-.685-.04-2.326V4.219c0-.686 0-2.108.189-2.525 0-.035.179-.15.67-.224l.22-.03h.034v-.025zm-11.971 0a.343.343 0 00.07-.278.275.275 0 00-.125-.194h-.065c-.462.025-.825.04-1.397.04-.571 0-.994 0-1.516-.04h-.065a.312.312 0 00-.119.209.32.32 0 00.07.263l.03.035.377.03c.309 0 .498.11.587.229.154.273.244 1.238.244 2.714V5.96c0 1.576-.448 3.45-2.57 3.45-1.78 0-2.61-1.098-2.61-3.48V3.046c0-1.422.044-1.521.705-1.581l.348-.03a.278.278 0 00.095-.248.308.308 0 00-.13-.254h-.024c-.632.025-1.084.04-1.636.04-.552 0-1.02 0-1.65-.04h-.05a.31.31 0 00-.135.249.253.253 0 00.095.248l.358.03c.661.06.706.16.706 1.581v3.152c0 1.616.333 2.61 1.079 3.232.737.55 1.646.82 2.565.76a3.62 3.62 0 002.625-.994c.646-.696.965-1.76.965-3.262V4.438c0-.676 0-2.262.178-2.68a.705.705 0 01.582-.263l.363-.03.03-.035.02-.015zM72.277 18.503c.194-.13.13-.706-.064-.8a75.665 75.665 0 01-3.719.094c-1.377 0-2.486-.065-4.037-.095-.194.095-.258.671-.065.8l.836.065c1.665.13 1.889.671 1.889 4.037v11.54c0 3.365-.065 3.683-1.86 4.007l-.541.094a.616.616 0 00.064.8c1.248-.03 2.342-.094 3.719-.094 1.248 0 2.342.03 4.072.094.194-.094.258-.67.064-.8l-.93-.094c-1.794-.194-1.953-.642-1.953-4.008v-4.519c0-.96.065-1.024 1.6-1.024h9.168c1.537 0 1.601.065 1.601 1.024v4.52c0 3.365 0 3.683-1.954 4.007l-.606.094a.617.617 0 00.064.8 80.664 80.664 0 013.878-.094c1.313 0 2.342.03 3.878.094.194-.094.259-.67.065-.8l-.77-.094c-1.86-.224-1.925-.642-1.925-4.008V22.604c0-3.366.065-3.848 1.924-4.037l.671-.064c.194-.13.13-.706-.064-.8-1.442.064-2.53.094-3.784.094a92.48 92.48 0 01-3.877-.095c-.194.095-.259.671-.065.8l.621.085c1.89.194 1.954.671 1.954 4.037v3.684c0 .994-.064 1.024-1.6 1.024h-9.183c-1.537 0-1.601-.03-1.601-1.024v-3.704c0-3.366.064-3.848 1.924-4.037l.606-.064zm-1.292-10.44v-.06a.347.347 0 00-.497-.135l-.035.04c-.197.478-.505.9-.9 1.233a3.918 3.918 0 01-1.665.19c-1.114 0-1.398-.135-1.542-.274-.144-.14-.228-.637-.228-1.318V5.875c0-.259 0-.259.338-.259h.795c.333-.015.666.006.994.065.184.045.284.169.338.432l.11.542V6.7a.322.322 0 00.249.095.283.283 0 00.298-.14v-.552c0-.193-.03-.497-.03-.785 0-.288 0-.567.03-.815.03-.249 0-.388 0-.532v-.025a.294.294 0 00-.269-.124.323.323 0 00-.248.094l-.13.592c-.06.303-.134.353-.253.387a4.852 4.852 0 01-1.104.075h-.775c-.338 0-.338 0-.338-.273v-2.7c0-.433 0-.433.298-.433h.96c.425-.016.852.011 1.272.08.612.154.73.537.915 1.119l.025.08v.034a.28.28 0 00.218.084.338.338 0 00.279-.119v-.229c-.03-.55-.099-1.099-.204-1.64l-.03-.09h-.09c-.148.035-.994.035-1.78.035h-2.51c-.497 0-.954 0-1.57-.04h-.026a.303.303 0 00-.129.259.258.258 0 00.095.253l.258.045c.686.08.726.17.726 1.581v4.808c0 1.446-.085 1.491-.736 1.566l-.497.044v.025a.348.348 0 00-.075.294.253.253 0 00.125.204h.025c.77 0 1.237-.04 1.814-.04h1.203c1.164 0 2.337 0 3.575.04h.065l.03-.06c.265-.602.473-1.228.62-1.87l.006.035zm-11.161-.21V3.052c0-1.422.04-1.492.706-1.581h.323a.278.278 0 00.094-.254c0-.044 0-.203-.13-.258h-.024c-.646.03-1.089.04-1.571.04-.577 0-1.044 0-1.61-.04h-.026a.302.302 0 00-.129.258.264.264 0 00.094.254l.299.045c.68.07.72.159.72 1.58v1.537c0 .323 0 .323-.566.323h-3.818c-.567 0-.567 0-.567-.323V3.056c0-1.422.04-1.492.71-1.581h.299a.289.289 0 00.095-.254c0-.044 0-.203-.135-.258h-.025c-.606.03-1.053.04-1.546.04h-1.715c-.11.054-.13.208-.134.258a.26.26 0 00.094.254h.025l.373.03c.587.044.691.164.691 1.58v4.808c0 1.392-.025 1.447-.69 1.566l-.26.045a.35.35 0 00-.074.293.253.253 0 00.124.204h1.551c.498 0 .93 0 1.696.04h.025a.302.302 0 00.129-.259.274.274 0 00-.095-.248l-.432-.055c-.641-.07-.721-.134-.721-1.566V5.989c0-.323 0-.323.567-.323h3.818c.567 0 .567 0 .567.323v1.884c0 1.422 0 1.452-.726 1.566l-.288.045v.025a.348.348 0 00-.075.293.268.268 0 00.124.204h.025c.641-.03 1.104-.04 1.61-.04.508 0 .995 0 1.612.04h.025c.109-.054.129-.209.134-.258a.263.263 0 00-.095-.254l-.363-.055c-.67-.094-.7-.169-.7-1.58l-.015-.005zM48.856.74V.665c-.05-.1-.199-.11-.244-.11a.383.383 0 00-.124 0h-.035v.03c-.174.298-.243.323-.954.323H41.98c-.596 0-.865-.03-.92-.328V.55a.263.263 0 00-.183-.054.427.427 0 00-.2.044l-.034.025V.61a14.567 14.567 0 01-.497 1.988v.08a.373.373 0 00.497.13c.12-.336.318-.64.577-.886.293-.268.96-.308 1.57-.308h.736c.299 0 .299 0 .299.323v5.966c0 1.447-.085 1.492-.736 1.566l-.497.04h-.045a.294.294 0 00-.12.269.284.284 0 00.125.243h.025c.815 0 1.313-.04 1.854-.04.542 0 .955 0 1.745.04h.025a.304.304 0 00.13-.258.258.258 0 00-.095-.249l-.497-.055c-.666-.06-.706-.144-.706-1.566V1.927a.948.948 0 010-.288.726.726 0 01.263-.025h.95a2.585 2.585 0 011.491.313c.187.266.29.58.294.905v.03a.314.314 0 00.243.094.288.288 0 00.274-.144v-.03a8.8 8.8 0 01.209-1.988l.1-.055zm-9.093 27.762a10.341 10.341 0 004.55 8.814c2.34 1.571 5.095 2.148 7.954 2.148a18.95 18.95 0 005.06-.736c.365-.14.74-.247 1.124-.318.498-.606 1.313-2.724 1.537-4.39a.676.676 0 00-.836-.13 6.835 6.835 0 01-6.687 4.585c-5.255 0-9.52-3.72-9.52-10.44 0-6.633 4.166-9.745 9.068-9.745 4.649 0 6.09 2.486 6.573 4.678a.676.676 0 00.865-.064c-.259-1.954-.418-3.978-.448-4.713a2.285 2.285 0 01-.895-.13 24.685 24.685 0 00-5.672-.77c-3.331 0-6.314.895-8.656 2.724a10.664 10.664 0 00-4.032 8.497l.015-.01z"/></symbol></svg>