<svg xmlns="http://www.w3.org/2000/svg"><symbol id="icon-arrow-right-20" viewBox="0 0 20 21"><title>icon-arrow-right-20</title><path fill-rule="evenodd" clip-rule="evenodd" d="M2.25 10H17.5l.288-.288c-1.294-1.239-2.036-1.722-2.57-2.07-.322-.21-.568-.37-.814-.617l-.177-.176a.75.75 0 111.06-1.061L19 9.5l1 1-1 1-3.713 3.713a.75.75 0 11-1.06-1.061l.177-.177c.246-.246.492-.407.813-.616.535-.348 1.277-.832 2.57-2.071L17.5 11H2.25L0 12.5v-4L2.25 10z"/></symbol><symbol id="icon-caret-down-20" viewBox="0 0 20 20"><title>icon-caret-down-20</title><path fill-rule="evenodd" clip-rule="evenodd" d="M6.525 7.396L6.35 7.22a.75.75 0 00-1.061 1.06L9 11.993l1 1 1-1 3.713-3.712a.75.75 0 10-1.061-1.061l-.177.177c-.246.246-.407.492-.616.813-.367.563-.884 1.357-2.276 2.783H9.418c-1.393-1.427-1.91-2.22-2.277-2.783-.209-.32-.37-.567-.616-.814z"/></symbol><symbol id="icon-chevron-left" viewBox="0 0 21 21"><title>icon-chevron-left</title><path fill-rule="evenodd" clip-rule="evenodd" d="M13.096 7.025l.177-.176a.75.75 0 00-1.061-1.061L8.5 9.5l-1 1 1 1 3.712 3.713a.75.75 0 001.06-1.061l-.177-.177c-.246-.246-.492-.407-.813-.616-.563-.367-1.356-.884-2.783-2.276V9.918c1.427-1.393 2.22-1.91 2.783-2.277.321-.209.567-.37.814-.616z"/></symbol><symbol id="icon-chevron-right" viewBox="0 0 21 21"><title>icon-chevron-right</title><path fill-rule="evenodd" clip-rule="evenodd" d="M7.896 13.975l-.176.176a.75.75 0 001.06 1.061l3.713-3.712 1-1-1-1L8.78 5.787a.75.75 0 00-1.06 1.061l.177.177c.246.246.492.407.813.616.563.367 1.356.884 2.783 2.276v1.165c-1.427 1.393-2.22 1.91-2.783 2.276-.32.21-.567.37-.814.617z"/></symbol><symbol id="icon-close-20" viewBox="0 0 20 20"><title>icon-close-20</title><path fill-rule="evenodd" clip-rule="evenodd" d="M5.396 6.525l-.176-.177a.75.75 0 011.06-1.06L9.993 9l.003.003L10 9l3.713-3.712a.75.75 0 111.06 1.06l-.177.177c-.246.246-.492.407-.813.616-.563.367-1.357.884-2.783 2.277v1.164c1.426 1.393 2.22 1.91 2.783 2.277.32.209.567.37.813.616l.177.177a.75.75 0 01-1.06 1.06L10 11l-.004-.004-.003.004-3.712 3.712a.75.75 0 11-1.061-1.06l.177-.177c.246-.247.492-.407.813-.616.563-.367 1.357-.884 2.783-2.277V9.418C7.566 8.025 6.773 7.508 6.21 7.14c-.32-.21-.567-.37-.814-.616z"/></symbol><symbol id="icon-dbl-chevron-left" viewBox="0 0 21 21"><title>icon-dbl-chevron-left</title><path fill-rule="evenodd" clip-rule="evenodd" d="M15.096 7.025l.177-.176a.75.75 0 00-1.061-1.06L10.499 9.5l-1 1 1 1 3.713 3.713a.75.75 0 001.06-1.06l-.177-.178c-.246-.246-.492-.406-.813-.616-.563-.367-1.356-.883-2.783-2.276V9.918c1.427-1.393 2.22-1.91 2.783-2.276.321-.21.567-.37.814-.617zm-4.823-.176l-.177.176c-.247.247-.493.407-.814.616-.563.367-1.356.884-2.783 2.277v1.165c1.427 1.392 2.22 1.91 2.783 2.276.32.21.567.37.813.616l.177.177a.75.75 0 01-1.06 1.06L5.499 11.5l-1-1 1-1 3.713-3.712a.75.75 0 011.06 1.06z"/></symbol><symbol id="icon-dbl-chevron-right" viewBox="0 0 21 21"><title>icon-dbl-chevron-right</title><path fill-rule="evenodd" clip-rule="evenodd" d="M5.896 13.975l-.176.176a.75.75 0 101.06 1.06l3.713-3.711 1-1-1-1L6.78 5.787a.75.75 0 00-1.061 1.06l.177.178c.246.246.492.406.813.616.563.367 1.356.883 2.783 2.276v1.165c-1.427 1.393-2.22 1.91-2.783 2.276-.32.21-.567.37-.814.617zm4.824.176l.176-.176c.247-.247.493-.407.814-.617.563-.367 1.356-.883 2.783-2.276V9.917c-1.427-1.392-2.22-1.91-2.783-2.276-.32-.21-.567-.37-.813-.616l-.177-.177a.75.75 0 011.06-1.06L15.494 9.5l1 1-1 1-3.713 3.712a.75.75 0 01-1.06-1.06z"/></symbol><symbol id="icon-email-20" viewBox="0 0 20 20"><title>icon-email-20</title><path fill-rule="evenodd" clip-rule="evenodd" d="M3 4H2v12h16V4H3zm13.118 1H3.882L10 11.933 16.118 5zM10.5 12.5l-.5.5-.5-.5L3 6v8l3-3 .5.5L3.778 15h12.444L13.5 11.5l.5-.5 3 3V6l-6.5 6.5z"/></symbol><symbol id="icon-menu-20" viewBox="0 0 20 20"><title>icon-menu-20</title><path fill-rule="evenodd" clip-rule="evenodd" d="M5.263 3.203C4.117 3.095 3.1 3 1.91 3a.91.91 0 00-.91.91v.18c0 .503.407.91.91.91.895 0 1.82-.084 2.912-.183 1.37-.124 3.003-.272 5.174-.309 2.021.035 3.461.17 4.74.29 1.147.107 2.165.202 3.355.202A.91.91 0 0019 4.09v-.18a.91.91 0 00-.91-.91c-.895 0-1.82.084-2.912.183-1.37.124-3.003.272-5.174.309-2.021-.035-3.461-.17-4.74-.29zm0 6C4.117 9.095 3.1 9 1.91 9a.91.91 0 00-.91.91v.18c0 .503.407.91.91.91.895 0 1.82-.084 2.912-.183 1.37-.124 3.003-.272 5.174-.309 2.021.035 3.461.17 4.74.29 1.147.107 2.165.202 3.355.202a.91.91 0 00.909-.91v-.18a.91.91 0 00-.91-.91c-.895 0-1.82.084-2.912.183-1.37.124-3.003.272-5.174.309-2.021-.035-3.461-.17-4.74-.29zm0 6c1.28.12 2.72.254 4.741.289 2.17-.037 3.804-.185 5.174-.309 1.092-.1 2.017-.183 2.913-.183a.91.91 0 01.909.91v.18a.91.91 0 01-.91.91c-1.19 0-2.207-.095-3.353-.203-1.28-.12-2.72-.254-4.741-.289-2.17.037-3.804.185-5.174.309-1.092.1-2.017.183-2.913.183A.91.91 0 011 16.09v-.18a.91.91 0 01.91-.91c1.19 0 2.207.095 3.353.203z"/></symbol><symbol id="icon-plus-20" viewBox="0 0 20 20"><title>icon-plus-20</title><path fill-rule="evenodd" clip-rule="evenodd" d="M10.777 4.384C10.892 3.354 11 2.392 11 1a1 1 0 10-2 0c0 1.051.095 1.948.203 2.957.128 1.202.273 2.565.294 4.541v.005l-.994.994h-.005c-1.848-.02-3.02-.151-4.114-.274C3.354 9.108 2.392 9 1 9a1 1 0 100 2c1.052 0 1.948-.095 2.957-.203 1.202-.128 2.565-.273 4.541-.294h.005l.994.994v.005c-.02 1.848-.151 3.02-.274 4.114C9.108 16.646 9 17.608 9 19a1 1 0 102 0c0-1.052-.095-1.948-.203-2.957-.128-1.202-.273-2.565-.294-4.541v-.005l.994-.994h.005c1.848.02 3.02.151 4.114.274 1.03.115 1.992.223 3.384.223a1 1 0 100-2c-1.052 0-1.948.095-2.957.203-1.202.128-2.565.273-4.541.294h-.005l-.994-.994v-.005c.02-1.848.151-3.02.274-4.114z"/></symbol><symbol id="icon-search-20" viewBox="0 0 20 20"><title>icon-search-20</title><path fill-rule="evenodd" clip-rule="evenodd" d="M8 15A7 7 0 108 1a7 7 0 000 14zm0 1c1.955 0 3.745-.7 5.135-1.865L16 17c1 1 2 3 2 3a2 2 0 002-2s-2-1-3-2l-2.865-2.865A8 8 0 108 16zM3 8c0-3 2-5 5-5 .5 0 .5.5.5.5s0 .5-.5.5C5 4 3.5 6 3 8z"/></symbol><symbol id="logo-neubauer" viewBox="0 0 141 40"><title>logo-neubauer</title><path fill-rule="evenodd" clip-rule="evenodd" d="M79.37 0h.858l3.67 8.153h-1l-.954-2.146h-4.338l-.954 2.146h-.954L79.37 0zm2.288 5.197l-1.86-4.148-1.859 4.148h3.719zM1.134.047h.858l5.101 6.485V.048h.906v8.105h-.715L2.039 1.526v6.627h-.905V.048zm16.019 20.74c0-3.767 2.812-6.627 6.674-6.627 4.339 0 6.532 3.146 6.532 6.436 0 3.766-2.908 6.532-6.532 6.532-4.148 0-6.674-2.956-6.674-6.341zm11.299.381c0-3.099-1.383-6.436-4.959-6.436-1.954 0-4.481 1.335-4.481 5.435 0 2.765 1.335 6.388 5.054 6.388 2.24 0 4.386-1.668 4.386-5.387zM2.659 15.781c1.383-1.05 3.1-1.574 5.054-1.574 1.001 0 2.431.191 3.337.43.08.015.143.031.2.045.113.029.197.05.325.05 0 .429.095 1.62.286 2.765-.096.143-.382.143-.525.048-.286-1.288-1.144-2.718-3.862-2.718-2.86 0-5.292 1.812-5.292 5.721 0 3.957 2.48 6.103 5.578 6.103 2.432 0 3.48-1.573 3.91-2.67.143-.095.429-.048.477.095-.143.954-.62 2.193-.906 2.575a3.47 3.47 0 00-.668.19c-.429.143-1.764.43-2.956.43-1.668 0-3.29-.334-4.672-1.24-1.478-1.049-2.67-2.717-2.67-5.149.048-2.24.954-4.005 2.384-5.101zm33.469-.906c1.192.095 1.24.429 1.24 2.384v6.722c0 1.955-.048 2.24-1.145 2.336l-.572.048c-.095.143-.048.429.048.477 1.049-.048 1.62-.048 2.431-.048h1.716c1.955 0 3.72 0 4.673.047.286-.524.81-2.431.81-2.622 0-.095-.381-.19-.477-.095-.381.954-.858 1.62-1.24 1.86-.285.142-.714.238-2.288.238-1.478 0-1.859-.239-2.05-.43-.333-.333-.381-.81-.381-2.002v-6.53c0-2.003.048-2.289 1.144-2.384l.43-.048c.095-.095.047-.429-.048-.477-.906.048-1.574.048-2.289.048-.763 0-1.383 0-2.431-.048-.143.048-.143.382-.048.477l.477.048zm15.351 2.384c0-1.955-.047-2.289-1.24-2.384l-.476-.048c-.096-.095-.096-.429.048-.477 1.048.048 1.668.048 2.431.048.715 0 1.383 0 2.289-.048.095.048.142.382.047.477l-.429.048c-1.096.095-1.144.381-1.144 2.384v6.531c0 1.192.047 1.669.381 2.003.191.19.572.429 2.05.429 1.574 0 2.003-.096 2.289-.239.381-.238.858-.905 1.24-1.859.095-.095.476 0 .476.095 0 .191-.524 2.098-.81 2.622-.954-.047-2.718-.047-4.673-.047h-1.716c-.81 0-1.383 0-2.431.047-.096-.047-.144-.333-.048-.476l.572-.048c1.096-.095 1.144-.381 1.144-2.336v-6.722zm12.968-2.384c1.096.143 1.144.429 1.144 2.384h-.095v6.817c0 1.955-.096 2.241-1.144 2.336l-.62.048c-.096.143-.048.43.047.477 1.145-.048 1.764-.048 2.575-.048h1.669c1.668 0 3.337 0 5.006.048.238-.525.715-1.955.858-2.622-.096-.191-.334-.239-.477-.143-.477.953-1.001 1.62-1.335 1.811-.381.191-.953.286-2.384.286-1.668 0-2.05-.19-2.288-.429-.286-.333-.334-.953-.334-1.954v-2.623c0-.524.048-.524.62-.524h1.097c.715 0 1.144 0 1.43.095.381.096.477.382.572.715l.19.716c.096.143.382.143.477 0 0-.19-.019-.438-.04-.711v-.002a14.776 14.776 0 01-.055-1.1c0-.402.03-.82.057-1.185.02-.283.038-.534.038-.721-.047-.095-.381-.095-.476 0l-.143.763c-.096.476-.191.572-.43.667-.19.048-.762.096-1.573.096h-1.096c-.572 0-.62 0-.62-.525v-3.766c0-.715 0-.763.572-.763h1.335c.81 0 1.43 0 1.812.095.926.22 1.118.809 1.368 1.575l.044.135.018.054c.095.096.381.048.477-.047-.048-.81-.191-2.146-.286-2.48-.239.048-1.335.048-2.527.048h-3.528c-.763 0-1.383 0-2.193-.048-.143.048-.143.382-.048.477l.286.048zm25.65 10.06c0 .762.095 1.191.429 1.334.047.048.047.191 0 .239-.239 0-.572.095-.906.19-1.001.287-2.336.477-3.338.477-2.24 0-4.29-.62-5.72-2.098-1.145-1.144-1.717-2.622-1.717-4.243 0-1.573.525-3.194 1.669-4.433 1.24-1.335 3.099-2.194 5.96-2.194 1.048 0 2.05.191 2.383.286.334.096.954.191 1.144.191 0 .62.096 1.574.286 2.718-.047.143-.381.19-.524.047-.525-2.05-1.955-2.67-3.862-2.67-3.623 0-5.244 2.575-5.244 5.388 0 3.623 1.86 6.436 5.626 6.436 1.144 0 1.859-.238 2.05-.572.095-.143.19-.477.19-1.049v-.763c0-1.573-.047-1.668-1.24-1.811l-.81-.096c-.143-.095-.143-.429 0-.477.525.048 1.574.048 2.67.048.715 0 1.383 0 2.002-.047.144.095.144.333 0 .476l-.286.048c-.81.095-.81.62-.81 1.573v1.002h.048zm6.865-10.012c1.096.095 1.144.38 1.144 2.383v6.675c0 2.002-.047 2.24-1.144 2.384l-.477.047c-.095.143-.047.43.048.477.953-.047 1.573-.047 2.384-.047.762 0 1.382 0 2.336.047.143-.047.143-.381.047-.477l-.476-.047c-1.097-.143-1.144-.382-1.144-2.384v-6.675c0-1.954.047-2.288 1.144-2.384l.476-.047c.096-.095.048-.43-.047-.477-.954.048-1.574.048-2.336.048-.81 0-1.43 0-2.384-.048-.143.048-.143.382-.048.477l.477.047zm20.167 4.243c0-1.145-.048-3.338-.334-3.862-.143-.238-.477-.334-.953-.382l-.477-.047c-.096-.143-.096-.382.047-.43.716.048 1.431.048 2.146.048.81 0 1.287 0 1.955-.047.143.095.143.334.047.429l-.429.047c-.477.048-.81.191-.953.43-.286.62-.286 2.765-.286 3.814v2.097c0 1.621-.286 3.338-1.335 4.482-.811.858-2.193 1.383-3.576 1.383-1.287 0-2.575-.239-3.528-1.05-1.001-.81-1.478-2.192-1.478-4.433V17.21c0-1.955-.048-2.288-1.144-2.384l-.477-.047c-.095-.096-.095-.382.048-.43a41.13 41.13 0 002.336.048c.763 0 1.382 0 2.288-.048.096.048.143.382.048.43l-.429.047c-1.097.095-1.144.43-1.144 2.384v4.052c0 3.004.953 5.006 3.814 5.006 2.717 0 3.766-2.145 3.766-5.006v-2.097h.048zm14.112 3.539c-.143-.292-.286-.583-.429-.87l-2.098-4.338c-.572-1.192-1.049-2.384-.954-3.099-.619.048-1.144.048-1.573.048-.477 0-.906 0-1.478-.048-.19.095-.19.382-.095.477l.286.047c1.144.143 1.287.43 1.239 1.622 0 1.048-.095 2.622-.19 4.195-.079 1.019-.143 1.794-.2 2.491l-.001.008v.002c-.047.57-.09 1.09-.133 1.647-.095 1.287-.334 1.43-1.144 1.525l-.429.048c-.096.095-.048.381.047.477.62-.048 1.288-.048 1.907-.048h.001c.715 0 1.477 0 2.097.048.096-.048.143-.382 0-.477l-.715-.048c-.763-.095-.858-.381-.858-1.764 0-1.293.061-2.616.109-3.68v-.002l.034-.752c.048-1.096.095-2.193.191-3.337h.047c.191.43.394.894.596 1.359.203.465.406.93.596 1.359l1.669 3.623c.117.261.271.587.438.943l.003.005.001.002c.443.942.985 2.092 1.227 2.817.047.095.143.095.19.095.096 0 .143-.048.191-.095.334-.859 1.144-2.623 2.002-4.291l1.669-3.29c.165-.31.393-.77.609-1.21l.001-.002c.242-.49.47-.953.582-1.145l.048 7.744c0 1.192 0 1.478-.906 1.574l-.525.047c-.095.143-.095.382.048.477.763-.047 1.621-.047 2.288-.047.668 0 1.431 0 2.193.047.143-.095.143-.381.048-.477l-.62-.047c-.835-.093-.857-.547-.902-1.45l-.004-.076c-.099-1.855-.129-4.101-.154-5.971l-.001-.005c-.011-.82-.021-1.566-.035-2.177 0-1.287.143-1.668 1.335-1.764l.381-.047c.095-.095.095-.382 0-.477-.572.048-1.192.048-1.669.048-.381 0-.81 0-1.43-.048-.045.857-.517 1.8-1.294 3.352l-.136.271-1.764 3.576c-.144.287-.283.578-.421.869-.323.674-.643 1.344-1.009 1.944h-.048c-.286-.54-.572-1.123-.858-1.705zM2.231 36.472c0 .112 0 .171.029.203.033.035.104.035.256.035h.62c.381 0 .667 0 .763-.047.095-.048.19-.096.238-.286l.096-.334c.047-.048.19-.048.238 0 0 .082-.009.2-.019.333-.013.177-.029.383-.029.573 0 .19.016.38.029.544.01.123.019.232.019.314-.048.048-.19.048-.239 0l-.095-.334c-.048-.143-.095-.286-.286-.334-.143-.047-.334-.047-.667-.047h-.668c-.152 0-.223 0-.256.035-.03.032-.03.091-.03.203v1.24c0 .906 0 1.049.525 1.096l.286.048c.047.048.047.19 0 .238-.283 0-.497-.014-.694-.026a7.312 7.312 0 00-.498-.021c-.382 0-.668 0-1.097.047-.048-.047-.048-.143 0-.238l.19-.143c.525-.048.525-.19.525-1.097V35.28c0-.906 0-1.049-.524-1.096H.8c-.048-.048-.048-.191 0-.239.197 0 .368.013.534.025.156.012.306.023.467.023h1.621c.572 0 1.097 0 1.192-.048 0 .43 0 .81.048 1.144-.048.048-.143.096-.191.048-.048-.381-.19-.715-.62-.858-.19-.048-.477-.048-.858-.048h-.524c-.136 0-.208 0-.245.036-.042.04-.042.122-.042.298v1.907h.048zm7.294-2.622c-1.812 0-3.147 1.335-3.147 3.099 0 1.62 1.192 3.003 3.147 3.051 1.668 0 3.05-1.335 3.05-3.099 0-1.573-1-3.051-3.05-3.051zm-.144.238c1.67 0 2.337 1.573 2.337 3.051 0 1.764-1.002 2.527-2.05 2.527-1.764 0-2.384-1.716-2.384-3.003 0-1.955 1.192-2.575 2.097-2.575zm5.626 1.24c0-.858-.047-1.001-.381-1.05l-.286-.047c-.048-.047-.048-.19 0-.238.476-.048 1.096-.048 1.954-.048.525 0 1.05.048 1.478.286.43.239.716.62.716 1.24 0 .858-.668 1.287-1.097 1.478-.048.047 0 .143.048.19.715 1.145 1.192 1.86 1.764 2.337a.906.906 0 00.62.238c.047 0 .047.095 0 .143-.096.048-.239.048-.382.048-.763 0-1.192-.239-1.812-1.097-.106-.15-.232-.355-.364-.572a10.27 10.27 0 00-.494-.763c-.143-.19-.286-.286-.62-.286-.381 0-.429 0-.429.19v1.097c0 .906 0 1.05.525 1.097l.19.048c.048.047.048.19 0 .238-.197 0-.38-.013-.559-.025a8.807 8.807 0 00-1.586.025c-.048-.048-.048-.143 0-.238l.238-.048c.525-.048.525-.19.525-1.097v-3.146h-.048zm.715 1.24c0 .142 0 .238.048.285.048.048.143.048.62.048.334 0 .667-.048.906-.238.238-.191.429-.477.429-1.097 0-.715-.43-1.382-1.43-1.382-.573 0-.573.047-.573.286v2.097zm11.729-2.718c-.906 0-1.717.238-2.384.763-.668.524-1.145 1.335-1.002 2.288 0 1.144.525 1.955 1.24 2.431.62.43 1.383.573 2.193.573.572 0 1.192-.143 1.383-.191.095-.048.19-.095.286-.095.143-.143.381-.715.429-1.192-.048-.096-.19-.096-.238-.048-.239.477-.716 1.24-1.86 1.24-1.43 0-2.622-1.002-2.622-2.861 0-1.812 1.144-2.67 2.48-2.67 1.286 0 1.668.668 1.81 1.287.049.048.192.048.24 0a9.294 9.294 0 01-.144-1.287c-.047 0-.143 0-.238-.047a8.36 8.36 0 00-1.573-.191zm8.486 2.336c0-.525 0-1.573-.19-1.812-.048-.095-.24-.19-.43-.19h-.238c-.048-.048-.048-.191 0-.191.166 0 .333.012.5.024.167.012.334.023.5.023.382 0 .62 0 .907-.047a.145.145 0 010 .19h-.191c-.238 0-.381.096-.43.191-.142.286-.142 1.287-.142 1.812v1.001c0 .763-.143 1.573-.62 2.098-.381.429-1.049.667-1.669.667-.62 0-1.24-.095-1.668-.476-.477-.382-.668-1.05-.668-2.098V35.28c0-.906 0-1.049-.524-1.096h-.239c-.047-.048-.047-.191 0-.191.229 0 .43.013.618.026.166.011.323.022.48.022.38 0 .666 0 1.096-.048.047.047.047.19 0 .19h-.191c-.525.048-.525.191-.525 1.097v1.907c0 1.43.43 2.336 1.812 2.336 1.287 0 1.764-1.001 1.764-2.336v-1.001h.048zm2.67-1.955c.572.048.572.19.572 1.097h.047v3.146c0 .906 0 1.05-.524 1.097l-.286.048c-.048.095-.048.19 0 .238.477-.048.763-.048 1.144-.048h.81c.536 0 1.055.017 1.479.03h.001c.293.01.539.018.714.018.143-.238.381-1.144.381-1.24 0-.047-.19-.095-.238-.047-.143.429-.382.763-.572.858-.143.048-.334.095-1.097.095-.667 0-.858-.095-.953-.19-.143-.143-.191-.382-.191-.954v-3.051c0-.906 0-1.05.524-1.097h.191c.048-.047.048-.19 0-.238-.429.047-.763.047-1.096.047-.152 0-.304-.01-.47-.02a9.792 9.792 0 00-.675-.027c-.047.047-.047.19 0 .238h.239zm7.58 4.243c0 .906 0 1.05.525 1.097l.286.048c.047.047.047.19 0 .238-.292 0-.51-.015-.703-.028-.155-.01-.294-.02-.442-.02-.333 0-.667 0-1.24.048-.047-.048-.047-.19 0-.238l.334-.048c.525-.048.525-.19.525-1.097v-3.957c0-.143 0-.214-.036-.25-.035-.036-.107-.036-.25-.036h-.477c-.381 0-.858 0-1.096.239-.191.19-.286.381-.382.62-.047.047-.19 0-.238-.048.143-.382.286-.954.334-1.335.014 0 .033-.005.053-.01.048-.01.104-.023.137.01.048.286.334.286.763.286h3.576c.477 0 .572 0 .667-.239.048 0 .143 0 .143.048-.095.382-.143 1.097-.143 1.335-.047.048-.19.048-.238 0l-.01-.051c-.045-.227-.096-.483-.228-.616-.191-.143-.525-.239-1.002-.239h-.62c-.134 0-.195 0-.222.03-.021.025-.02.07-.018.15l.002.047v4.016zm8.582-4.1c.19.239.19 1.287.19 1.812h-.047v1.001c0 1.335-.477 2.336-1.764 2.336-1.383 0-1.812-.906-1.812-2.336V35.28c0-.906 0-1.049.525-1.096h.19c.048 0 .048-.143 0-.191-.429.047-.715.047-1.096.047-.157 0-.313-.01-.48-.021a8.647 8.647 0 00-.617-.026c-.047 0-.047.143 0 .19h.239c.524.048.524.191.524 1.097v2.098c0 1.049.19 1.716.667 2.098.43.381 1.05.476 1.67.476.619 0 1.286-.238 1.668-.667.477-.525.62-1.335.62-2.098v-1.001c0-.525 0-1.526.143-1.812.047-.095.19-.19.429-.19h.19a.145.145 0 000-.191c-.286.047-.524.047-.905.047-.167 0-.334-.011-.501-.023a6.999 6.999 0 00-.5-.024c-.048 0-.048.143 0 .19h.238c.19 0 .381.096.429.191zm3.48.954c0-.858-.048-1.001-.381-1.05l-.286-.047c-.048-.047-.048-.19 0-.238.476-.048 1.096-.048 1.954-.048.525 0 1.05.048 1.478.286.43.239.715.62.715 1.24 0 .858-.667 1.287-1.096 1.478-.048.047 0 .143.048.19.715 1.145 1.192 1.86 1.764 2.337a.906.906 0 00.62.238c.047 0 .047.095 0 .143-.096.048-.239.048-.382.048-.763 0-1.192-.239-1.812-1.097-.106-.15-.232-.355-.364-.572a10.27 10.27 0 00-.494-.763c-.143-.19-.286-.286-.62-.286-.381 0-.429 0-.429.19v1.097c0 .906 0 1.05.525 1.097l.19.048c.048.047.048.19 0 .238a7.96 7.96 0 01-.56-.025 7.118 7.118 0 00-.489-.023c-.38 0-.667 0-1.096.048-.048-.048-.048-.143 0-.238l.238-.048c.525-.048.525-.19.525-1.097v-3.146h-.048zm.715 1.24c0 .142 0 .238.048.285.048.048.143.048.62.048.333 0 .667-.048.906-.238.238-.191.429-.477.429-1.097 0-.715-.43-1.382-1.43-1.382-.525 0-.573.047-.573.286v2.097zm5.292-2.337c.525.048.525.19.525 1.097v3.146c0 .906 0 1.05-.525 1.097h-.333c-.048.095-.048.19 0 .238.524-.047.81-.047 1.191-.047h.811c.405 0 .799.011 1.192.023.393.012.787.024 1.192.024.095-.238.334-.953.381-1.24-.047-.047-.19-.095-.238-.047-.239.477-.477.763-.62.858-.19.096-.477.143-1.144.143-.763 0-.954-.095-1.05-.19-.142-.143-.19-.43-.19-.906v-1.24c0-.112 0-.171.03-.203.033-.035.105-.035.256-.035h.525c.334 0 .524 0 .667.047.19.048.239.191.286.334l.096.334c.047.048.19.048.238 0 0-.082-.009-.19-.019-.315a6.723 6.723 0 01-.029-.543c0-.19.016-.395.029-.572.01-.135.019-.252.019-.334-.048-.048-.19-.048-.238 0l-.048.381c0 .191-.095.239-.19.286-.096.048-.382.048-.764.048h-.524c-.238 0-.286 0-.286-.238v-1.764c0-.176 0-.259.041-.298.038-.036.11-.036.245-.036h.62c.381 0 .667 0 .858.048.432.13.512.376.63.74l.037.118c.048.047.191.047.239 0a20.504 20.504 0 01-.041-.4c-.034-.345-.068-.69-.102-.792-.096.047-.62.047-1.192.047h-1.669a7.05 7.05 0 01-.524-.023c-.167-.012-.334-.024-.525-.024-.047.047-.047.19 0 .238h.143zm12.158 3.528c-.048-.19-.096-.238-.382-.238h-1.335c-.238 0-.286.047-.334.19l-.285.906c-.144.382-.191.62-.191.716 0 .095.047.143.238.19l.286.048c.048.048.048.19 0 .238-.238 0-.524 0-.906-.047-.286 0-.62 0-.858.047-.047-.047-.047-.19 0-.238l.286-.048c.19 0 .43-.095.525-.429.06-.184.148-.394.255-.648v-.002c.142-.34.317-.76.508-1.305l.905-2.383c.143-.334.191-.477.143-.62.191-.048.382-.239.477-.334.048 0 .096 0 .143.096.096.38.239.81.382 1.191l1.191 3.528c.239.763.382.906.763.954l.239.048c.047.047.047.19 0 .238a7.02 7.02 0 01-.525-.024 7.076 7.076 0 00-.524-.024c-.43 0-.763 0-1.001.048-.048-.048-.096-.19 0-.238l.238-.048c.19 0 .286-.048.286-.143 0-.059-.018-.136-.043-.243a6.3 6.3 0 01-.052-.234l-.43-1.192zm-1.764-.763c-.023.09-.035.138-.016.163.02.028.08.028.206.028h1.097c.238 0 .286-.047.19-.286l-.476-1.43a4.654 4.654 0 00-.137-.42c-.02-.057-.04-.109-.054-.152-.034.034-.069.142-.12.307l-.001.001v.001c-.02.064-.043.136-.07.215l-.62 1.573zm10.44 2.861c-.047-.19-.047-1.24-.047-1.526h.095v-2.145c0-.382 0-1.478.143-1.812 0-.095.191-.143.477-.19h.143c.048-.096.048-.191 0-.239-.286.048-.524.048-.906.048a5.8 5.8 0 01-.457-.022 7.763 7.763 0 00-.592-.026c-.047.048-.047.19 0 .239h.143c.334.047.477.095.525.19.19.239.19 1.383.19 1.812v1.907c0 .19 0 .334-.047.381a18.65 18.65 0 01-.77-.836c-.21-.238-.442-.498-.708-.785l-.858-.953-.105-.122c-.38-.439-1.249-1.446-1.42-1.833-.144.048-.287.048-.43.048-.143 0-.62 0-1.001-.048-.048.048-.048.19 0 .239h.143c.19 0 .381.047.524.19.191.191.191.382.191.62v2.575l.003.274c.008.5.02 1.262-.098 1.537-.048.096-.191.143-.382.19l-.238.049c-.048.095-.048.19 0 .238.286-.048.524-.048.906-.048.161 0 .322.011.489.023.178.012.362.025.56.025.047-.048.047-.19 0-.238l-.287-.048c-.19-.048-.38-.095-.428-.19-.144-.24-.144-1.383-.144-1.813v-1.907c0-.285 0-.476.048-.572.094.125.392.475.653.782.138.162.266.311.348.41l2.05 2.336c.763.859 1.05 1.192 1.145 1.335.095 0 .143-.047.143-.095zm3.004-4.72c0-.62-.047-.81-.429-.858l-.19-.048c-.048-.047-.096-.19 0-.238.762-.048 1.477-.048 2.192-.048.763 0 1.383.048 1.955.286 1.192.43 1.812 1.43 1.812 2.622 0 1.145-.525 2.098-1.526 2.623-.572.286-1.287.429-1.954.429-.336 0-.67-.017-.948-.03-.197-.01-.364-.018-.483-.018-.381 0-.667 0-1.096.048-.048-.048-.048-.143 0-.239l.19-.047c.525-.048.525-.191.525-1.097v-3.385h-.048zm.715 3.147c0 .476.048.763.191.953.19.286.524.382 1.097.382 1.716 0 2.479-1.145 2.479-2.766 0-.953-.477-2.622-2.765-2.622-.525 0-.811.048-.859.143-.047.048-.095.286-.095.668v3.242h-.048zm9.663 1.35c.204.104.627.318 1.35.318 1.145 0 1.86-.667 1.812-1.573 0-.858-.524-1.383-1.096-1.716l-.716-.43c-.333-.19-.762-.572-.762-1.096 0-.429.19-1.001 1.048-1.001.859 0 1.097.572 1.192 1.001.048.048.191 0 .239-.048 0-.381-.048-.905-.143-1.096-.048 0-.191 0-.286-.048a4.209 4.209 0 00-.811-.095c-1.144 0-1.812.667-1.812 1.525 0 .716.525 1.24.954 1.526l.858.524c.62.43.715.859.715 1.24 0 .525-.333 1.001-1.096 1.001-1.05 0-1.383-.906-1.526-1.335 0-.047-.143 0-.19.048 0 .43.142 1.049.238 1.24l.032.016zm4.974-2.685c0-1.764 1.335-3.1 3.146-3.1 2.05 0 3.052 1.479 3.052 3.052 0 1.764-1.383 3.099-3.052 3.099-1.954-.048-3.146-1.43-3.146-3.051zm5.292.19c0-1.478-.668-3.05-2.336-3.05-.906 0-2.098.619-2.098 2.574 0 1.287.62 3.003 2.384 3.003 1.049 0 2.05-.762 2.05-2.526zm6.055-3.29c-.906 0-1.717.24-2.384.764-.668.524-1.097 1.335-1.001 2.288 0 1.144.524 1.955 1.239 2.431.62.43 1.383.573 2.193.573.572 0 1.192-.143 1.383-.191.095-.048.191-.095.286-.095.143-.143.381-.715.429-1.192-.048-.096-.191-.096-.238-.048-.239.477-.715 1.24-1.86 1.24-1.43 0-2.622-1.002-2.622-2.861 0-1.812 1.144-2.67 2.479-2.67 1.288 0 1.669.668 1.812 1.287.048.048.191.048.238 0a9.342 9.342 0 01-.143-1.287c-.095 0-.143 0-.238-.047a8.306 8.306 0 00-1.573-.191zm4.29 1.479c0-.954 0-1.097-.524-1.144h-.238c-.048-.048-.048-.191 0-.239.228 0 .429.014.617.026.166.011.323.022.479.022.334 0 .668 0 1.097-.048.047.048.047.19 0 .239h-.239c-.524.047-.524.19-.524 1.144v3.146c0 .954 0 1.05.524 1.145l.239.047c.047.048.047.191 0 .239-.228 0-.429-.014-.618-.026a7.107 7.107 0 00-.479-.022c-.381 0-.667 0-1.096.048-.048-.048-.048-.143 0-.239l.238-.047c.524-.048.524-.191.524-1.145v-3.146zm3.338-1.097c.524.048.524.19.524 1.097v3.146c0 .906 0 1.05-.524 1.097h-.382c-.047.095-.047.19 0 .238.525-.047.811-.047 1.192-.047h.811c.405 0 .798.011 1.192.023.393.012.786.024 1.192.024.095-.238.333-.953.381-1.24-.048-.047-.191-.095-.238-.047-.239.477-.477.763-.62.858-.191.096-.477.143-1.144.143-.763 0-.954-.095-1.049-.19-.096-.143-.143-.43-.143-.906v-1.24c0-.238 0-.238.286-.238h.524c.334 0 .525 0 .668.047.19.048.238.191.286.334l.095.334c.048.048.191.048.238 0 0-.082-.008-.19-.019-.315a6.886 6.886 0 01-.028-.543c0-.19.015-.396.028-.573a4.56 4.56 0 00.019-.333c-.047-.048-.19-.048-.238 0l-.048.381c-.047.191-.095.239-.19.286-.096.048-.382.048-.763.048h-.525c-.238 0-.286 0-.286-.238v-1.764c0-.176 0-.259.042-.298.037-.036.109-.036.244-.036h.62c.382 0 .668 0 .858.048.432.13.512.376.63.74v.001l.038.117c.047.047.19.047.238 0l-.041-.4c-.034-.344-.068-.69-.102-.792-.095.047-.62.047-1.192.047h-1.668c-.191 0-.358-.011-.525-.023a7.029 7.029 0 00-.524-.024c-.048.047-.048.19 0 .238h.143zm8.677 4.243c0 .906 0 1.05.524 1.097l.286.048c.048.047.048.19 0 .238-.291 0-.509-.015-.703-.028-.154-.01-.293-.02-.441-.02-.334 0-.667 0-1.24.048-.047-.048-.047-.19 0-.238l.334-.048c.525-.048.525-.19.525-1.097v-3.957c0-.143 0-.214-.036-.25-.036-.036-.107-.036-.25-.036h-.477c-.382 0-.858 0-1.097.239-.19.19-.286.381-.381.62-.048.047-.191 0-.239-.048.144-.382.287-.954.334-1.335a.268.268 0 00.058-.01c.043-.011.085-.022.085.01.048.286.334.286.763.286h3.576c.477 0 .572 0 .667-.239.048 0 .143 0 .143.048-.095.382-.143 1.097-.143 1.335-.047.048-.19.048-.238 0l-.01-.051c-.045-.227-.096-.483-.229-.616-.19-.143-.524-.239-1.001-.239h-.62c-.135 0-.195 0-.222.03-.021.025-.02.07-.018.15l.001.034.001.031v3.998h.048zm7.056 1.145c-.477-.048-.525-.191-.525-1.145v-.476c0-.668.048-.763.429-1.43l.573-.954.134-.241v-.001c.35-.63.585-1.056 1.01-1.14l.238-.048c.095-.096.048-.191 0-.239-.286.048-.524.048-.81.048-.138 0-.264-.011-.396-.023a5.065 5.065 0 00-.463-.025c-.047.048-.047.19 0 .239h.144c.238.047.381.095.381.143 0 .06-.137.318-.298.62l-.001.001c-.09.17-.188.352-.273.523a22.998 22.998 0 01-.811 1.478 73.849 73.849 0 01-1-1.954l-.001-.001c-.048-.096-.286-.572-.286-.667 0-.048.095-.096.381-.143h.096c.048-.096.048-.191-.048-.239-.238.048-.524.048-.953.048-.205 0-.395-.014-.572-.026a6.143 6.143 0 00-.43-.022c-.047.048-.047.19 0 .239l.239.047c.286.048.429.096.715.668l1.049 2.05c.238.477.286.62.286 1.096v.43c0 .953 0 1.096-.525 1.144l-.286.047c-.047.096-.047.191 0 .239.477-.048.763-.048 1.145-.048.148 0 .296.01.461.02.206.013.439.028.731.028.047-.048.047-.191 0-.239l-.334-.047zM26.449.048h-5.864v8.01h5.912v-.811h-5.006V4.434h4.434v-.81H21.49V.857h4.958v-.81zm12.062 4.72V.048h.906V4.72c0 1.764.906 2.717 2.48 2.717 1.477 0 2.43-.905 2.43-2.67V.048h.907v4.625c0 2.336-1.335 3.576-3.385 3.576-1.955.048-3.338-1.192-3.338-3.48zM61.157.048h-3.48v8.057h3.576c1.764 0 2.956-.81 2.956-2.193 0-1.097-.763-1.669-1.717-1.955.62-.286 1.288-.81 1.288-1.86V2.05a1.76 1.76 0 00-.525-1.287c-.429-.43-1.192-.715-2.098-.715zm1.717 2.193c0 .953-.763 1.43-1.86 1.43v-.048h-2.431V.858h2.479c1.192 0 1.812.525 1.812 1.335v.048zm.476 3.67c0 .907-.762 1.431-2.002 1.431v.048H58.63V4.53h2.575c1.383 0 2.145.524 2.145 1.382zM95.39.049v4.72c0 2.288 1.382 3.528 3.337 3.48 2.05 0 3.385-1.24 3.385-3.576V.048h-.906v4.72c0 1.764-.953 2.67-2.431 2.67-1.574 0-2.48-.954-2.48-2.718V.048h-.905zm19.213 0h5.864v.81h-4.958v2.765h4.434v.81h-4.434v2.814h5.006v.81h-5.912V.047zm21.549 0h-3.528v8.01h.906V4.91h2.336l2.336 3.146h1.145l-2.48-3.29c1.288-.19 2.194-1 2.194-2.336 0-.62-.239-1.191-.62-1.573-.477-.524-1.287-.81-2.289-.81zm2.05 2.479c0 1.049-.905 1.668-2.097 1.668h-2.432V.905h2.479c1.288 0 2.05.573 2.05 1.574v.048z"/></symbol></svg>