<svg width="20" height="20" viewBox="0 0 20 20" xmlns="http://www.w3.org/2000/svg">
<path fill-rule="evenodd" clip-rule="evenodd" d="M17.75 10.5003L2.49994 10.5003L2.21224 10.788C3.50616 12.0274 4.24791 12.5108 4.78248 12.8591C5.1035 13.0683 5.34981 13.2288 5.59612 13.4751L5.7729 13.6519C6.06579 13.9448 6.06579 14.4197 5.7729 14.7126C5.48 15.0055 5.00513 15.0055 4.71224 14.7126L0.999927 11.0003L1.00002 11.0002L0.999939 11.0002L-2.15579e-07 10.0002L1.00006 9.00017L1.00024 9.00017L4.71247 5.28794C5.00536 4.99505 5.48023 4.99505 5.77313 5.28794C6.06602 5.58083 6.06602 6.05571 5.77313 6.3486L5.59635 6.52538C5.35004 6.77169 5.10373 6.9322 4.78271 7.1414C4.24812 7.48977 3.50635 7.97316 2.21237 9.21261L2.50006 9.50029L17.75 9.50029L20 8.00029L20 12.0003L17.75 10.5003Z" />
</svg>
