<svg width="20" height="20" viewBox="0 0 20 20" xmlns="http://www.w3.org/2000/svg">
<path d="M18 2.92562V17.0744C18 17.6033 17.6 18 17.0667 18H13.0667V11.7851H15.2L15.4667 9.40496H13.0667V7.81818C13.0667 7.15702 13.2 6.6281 14.2667 6.6281H15.6V4.5124C15.3333 4.5124 14.6667 4.38017 13.7333 4.38017C11.8667 4.38017 10.6667 5.43802 10.6667 7.55372V9.27273H8.4V11.6529H10.5333V17.8678H2.93333C2.4 17.8678 2 17.4711 2 16.9421V2.92562C2 2.39669 2.4 2 2.93333 2H17.2C17.6 2 18 2.39669 18 2.92562Z" />
</svg>
