<svg width="20" height="20" viewBox="0 0 20 20" xmlns="http://www.w3.org/2000/svg">
<path fill-rule="evenodd" clip-rule="evenodd" d="M13.9998 17L14.9997 16.0001L14.9997 15.9999L14.9999 16.0001L17.4698 13.5303C17.7627 13.2374 17.7627 12.7626 17.4698 12.4697C17.1769 12.1768 16.702 12.1768 16.4091 12.4697L16.2324 12.6464C15.9555 12.9233 15.8598 13.1274 15.7434 13.3757C15.5952 13.6918 15.4134 14.0798 14.7809 14.7812L14.4999 14.5001L14.4999 6.25003L15.9999 4L11.9999 4L13.4999 6.24998L13.4999 14.4999L13.2188 14.781C12.5867 14.08 12.405 13.6922 12.2568 13.3762C12.1404 13.1279 12.0448 12.9238 11.7679 12.6469L11.5911 12.4701C11.2982 12.1773 10.8234 12.1773 10.5305 12.4701C10.2376 12.763 10.2376 13.2379 10.5305 13.5308L12.9997 15.9998L12.9997 15.9999L13.9998 17ZM3.59111 7.53034L3.76789 7.35355C4.04477 7.07668 4.14042 6.87263 4.25682 6.62432C4.40503 6.30815 4.58688 5.92023 5.21933 5.21885L5.50037 5.49988L5.50038 13.75L4.00037 16L8.00037 16L6.50038 13.75L6.50037 5.50012L6.78145 5.21904C7.41351 5.92003 7.59527 6.30778 7.74342 6.62384C7.8598 6.87212 7.95545 7.07616 8.23235 7.35307L8.40914 7.52985C8.70203 7.82274 9.17689 7.82274 9.46978 7.52985C9.76268 7.23696 9.76267 6.76208 9.46976 6.46919L7.00055 4.00018L7.00055 4.00006L6.00049 3L5.00055 3.99994L5.00055 4.00006L5.00037 3.99988L2.53047 6.46967C2.23757 6.76256 2.23756 7.23744 2.53046 7.53034C2.82335 7.82323 3.29822 7.82323 3.59111 7.53034Z" />
</svg>
