<svg width="20" height="20" viewBox="0 0 20 20" xmlns="http://www.w3.org/2000/svg">
<path fill-rule="evenodd" clip-rule="evenodd" d="M13.4755 12.5957L13.6523 12.7725C13.9452 13.0654 14.4201 13.0654 14.7129 12.7725C15.0058 12.4796 15.0058 12.0048 14.7129 11.7119L11.0007 7.99963L11.0007 7.99945L10.0007 6.99939L9.00072 7.99933L9.00072 7.99941L9.00063 7.99932L5.28832 11.7116C4.99542 12.0045 4.99542 12.4794 5.28832 12.7723C5.58121 13.0652 6.05608 13.0652 6.34898 12.7723L6.52575 12.5955C6.77206 12.3492 6.93257 12.1029 7.14177 11.7819C7.50875 11.2187 8.02556 10.4257 9.41817 8.99939L10.0007 8.99939L10.5829 8.99939C11.9756 10.4258 12.4925 11.2189 12.8595 11.7821C13.0687 12.1031 13.2292 12.3494 13.4755 12.5957Z" />
</svg>
