<svg width="20" height="20" viewBox="0 0 20 20" xmlns="http://www.w3.org/2000/svg">
<path fill-rule="evenodd" clip-rule="evenodd" d="M10.5003 2.25V17.5001L10.788 17.7878C12.0274 16.4938 12.5108 15.7521 12.8591 15.2175C13.0683 14.8965 13.2288 14.6502 13.4751 14.4039L13.6519 14.2271C13.9448 13.9342 14.4197 13.9342 14.7126 14.2271C15.0055 14.52 15.0055 14.9949 14.7126 15.2878L11.0003 19.0001L11.0002 19V19.0001L10.0002 20L9.00017 18.9999V18.9998L5.28794 15.2875C4.99505 14.9946 4.99505 14.5198 5.28794 14.2269C5.58084 13.934 6.05571 13.934 6.3486 14.2269L6.52538 14.4037C6.77169 14.65 6.9322 14.8963 7.1414 15.2173C7.48977 15.7519 7.97316 16.4936 9.21261 17.7876L9.50029 17.4999V2.25L8.00029 0H12.0003L10.5003 2.25Z" />
</svg>
