<svg width="21" height="21" viewBox="0 0 21 21" xmlns="http://www.w3.org/2000/svg">
<path fill-rule="evenodd" clip-rule="evenodd" d="M13.0957 7.02547L13.2725 6.84869C13.5654 6.5558 13.5654 6.08092 13.2725 5.78803C12.9796 5.49514 12.5048 5.49514 12.2119 5.78803L8.49963 9.50026L8.49945 9.50026L7.49939 10.5003L8.49933 11.5003L8.49941 11.5003L8.49932 11.5003L12.2116 15.2127C12.5045 15.5056 12.9794 15.5056 13.2723 15.2127C13.5652 14.9198 13.5652 14.4449 13.2723 14.152L13.0955 13.9752C12.8492 13.7289 12.6029 13.5684 12.2819 13.3592C11.7187 12.9922 10.9257 12.4754 9.49934 11.0828L9.49927 10.5003L9.49934 9.91816C10.9258 8.52534 11.7189 8.00849 12.2821 7.64149C12.6031 7.43229 12.8494 7.27178 13.0957 7.02547Z" />
</svg>
