<svg width="20" height="20" viewBox="0 0 20 20" xmlns="http://www.w3.org/2000/svg">
<path fill-rule="evenodd" clip-rule="evenodd" d="M10.5 2.25V13.5L10.7878 13.7878C12.0271 12.4939 12.5105 11.7521 12.8588 11.2176C13.068 10.8965 13.2286 10.6502 13.4749 10.4039L13.6516 10.2271C13.9445 9.93425 14.4194 9.93425 14.7123 10.2271C15.0052 10.52 15.0052 10.9949 14.7123 11.2878L11 15.0001L10.9999 15.0001L10 16L8.99994 14.9999V14.9997L5.28773 11.2875C4.99483 10.9946 4.99483 10.5198 5.28773 10.2269C5.58062 9.93398 6.05549 9.93398 6.34839 10.2269L6.52516 10.4036C6.77147 10.65 6.93198 10.8963 7.14118 11.2173C7.48955 11.7519 7.97293 12.4936 9.21234 13.7876L9.5 13.4999V2.25L8 0H12L10.5 2.25ZM2 11.9999H0V19V19.9999V20H20V19.9999V19V11.9999H18L19 13.9999V19H1L1 13.9999L2 11.9999Z" />
</svg>
