<svg width="21" height="21" viewBox="0 0 21 21" xmlns="http://www.w3.org/2000/svg">
<path fill-rule="evenodd" clip-rule="evenodd" d="M7.89645 13.9745L7.71967 14.1513C7.42678 14.4442 7.42678 14.9191 7.71967 15.212C8.01256 15.5049 8.48744 15.5049 8.78033 15.212L12.4926 11.4997L12.4927 11.4997L13.4928 10.4997L12.4929 9.49974L12.4928 9.49974L12.4929 9.49965L8.78056 5.78734C8.48766 5.49445 8.01279 5.49445 7.7199 5.78734C7.427 6.08023 7.427 6.55511 7.7199 6.848L7.89667 7.02478C8.14298 7.27109 8.38929 7.4316 8.71032 7.6408C9.27345 8.00777 10.0665 8.52457 11.4927 9.91715L11.4927 10.4997L11.4927 11.0819C10.0663 12.4747 9.27325 12.9915 8.71009 13.3585C8.38906 13.5677 8.14276 13.7282 7.89645 13.9745Z" />
</svg>
