<svg width="20" height="20" viewBox="0 0 20 20" xmlns="http://www.w3.org/2000/svg">
<path fill-rule="evenodd" clip-rule="evenodd" d="M6.52547 7.39645L6.34869 7.21967C6.0558 6.92678 5.58092 6.92678 5.28803 7.21967C4.99514 7.51256 4.99514 7.98744 5.28803 8.28033L9.00026 11.9926V11.9927L10.0003 12.9928L11.0003 11.9929V11.9928L11.0003 11.9929L14.7127 8.28056C15.0056 7.98767 15.0056 7.51279 14.7127 7.2199C14.4198 6.92701 13.9449 6.92701 13.652 7.2199L13.4752 7.39668C13.2289 7.64298 13.0684 7.88929 12.8592 8.21032C12.4922 8.77346 11.9754 9.56651 10.5828 10.9928H10.0003H9.41811C8.02533 9.56636 7.50849 8.77326 7.14149 8.21009C6.93229 7.88906 6.77178 7.64276 6.52547 7.39645Z" />
</svg>
