<svg width="199" height="40" viewBox="0 0 199 40" xmlns="http://www.w3.org/2000/svg">
<path d="M5.93114 29.0773C5.6076 28.9687 5.29473 28.8306 4.99648 28.6647C5.1665 29.3517 5.40985 30.0184 5.72234 30.6534C5.94109 31.066 6.31396 30.0766 5.93114 29.0773ZM4.99151 17.6675C4.99151 18.5872 2.39632 19.9097 1.28765 20.5063C3.00286 21.0979 4.62361 19.512 4.42971 19.8948C4.23582 20.2776 2.12288 22.1767 1.21805 23.1412C1.92899 23.3401 2.58027 22.7634 3.09732 22.3259C3.61437 21.8884 4.58881 20.6455 4.45954 21.2421C2.93823 23.1213 1.74007 27.0191 2.4709 27.2677C2.89348 26.3827 4.64349 21.8784 4.75287 21.8983C4.86225 21.9182 4.61366 23.0865 4.57886 23.887C4.44172 25.2844 4.53239 26.6948 4.84733 28.0631C5.03625 27.8046 5.2202 27.8096 5.5185 27.8295C5.5533 27.6654 5.5185 27.7102 5.35444 27.4616C4.85727 26.8153 5.42901 25.9403 5.19534 25.4033C5.00145 24.9559 4.89207 25.3138 4.80259 24.8465C5.00122 24.7368 5.22227 24.6739 5.4489 24.6626C5.60799 22.9175 6.18967 22.0326 5.94606 23.1313C5.81569 23.6178 5.74885 24.1191 5.74719 24.6228C5.80322 24.636 5.85688 24.6578 5.90629 24.6874C5.93612 24.6874 8.83457 19.9345 7.22874 23.2407C6.90134 23.793 6.54452 24.3274 6.15984 24.8415C6.36444 25.025 6.5243 25.2529 6.62717 25.5077C6.62717 25.5525 10.51 20.4068 7.87008 24.5532C7.70601 24.8067 6.91552 25.6569 6.71169 25.9055C6.71169 25.9403 6.78626 26.87 6.78626 26.87C7.27376 26.5269 7.71202 26.1188 8.08883 25.6569C8.05403 25.1299 8.17832 25.1995 8.20317 24.6626C8.32746 24.583 8.48656 24.8018 8.70034 24.9758C8.78982 25.0603 11.3602 20.5858 9.74935 23.9417C9.50323 24.3768 9.21694 24.7879 8.89423 25.1697C9.0797 25.4562 9.2315 25.7631 9.34665 26.0844C9.34665 26.0844 12.782 21.1377 10.6989 24.8863C10.5349 25.1796 9.50077 26.4225 9.51568 26.4573C9.76923 27.0788 10.0128 27.6803 9.98799 27.6803C9.90156 27.2683 9.93474 26.8402 10.0836 26.4465C10.2325 26.0527 10.4908 25.7098 10.8282 25.458C10.8289 25.6918 10.8902 25.9214 11.006 26.1244C11.1219 26.3274 11.2885 26.4969 11.4894 26.6164C11.6187 26.7307 11.8673 27.2229 11.8971 26.8053C11.9816 25.5823 11.5839 25.6121 11.2906 25.0901C11.2209 24.9658 11.2309 24.6874 11.2906 24.7023C13.7764 24.7769 13.6769 27.0887 14.0896 27.0887C13.883 26.5596 13.883 25.9722 14.0896 25.4431C13.8573 25.2519 13.6951 24.989 13.6285 24.6956C13.5619 24.4022 13.5947 24.0951 13.7217 23.8223C12.9759 23.0517 13.4035 21.4161 13.7614 21.073C13.2643 20.377 13.8708 19.9047 13.7614 19.4772C13.5626 17.9857 12.2153 18.4182 11.912 16.9913C11.7032 17.2449 11.3104 18.1199 11.4944 18.4083C11.6783 18.6966 12.1556 18.7662 12.1805 19.0098C12.1805 19.1142 12.2252 19.4026 12.1506 19.4622C11.8971 19.507 11.7231 19.2733 11.4596 19.1689C10.9624 18.9601 9.6698 19.8301 9.59523 19.0645C9.54551 18.5673 9.75929 18.9303 9.73443 18.4828C9.70957 18.0354 9.48088 18.3486 9.47591 17.752C9.47591 17.3195 9.99793 17.1803 10.0377 17.0063C10.1322 16.5737 10.9127 17.6426 11.3751 16.5091C11.1066 16.5489 10.5697 16.3599 10.6194 16.0964C10.7536 15.3905 10.7685 13.6802 9.16767 14.0481C8.59593 14.1824 6.99507 15.0425 6.77135 14.1078C6.19464 15.1021 7.33314 14.948 7.68115 14.9281C7.58239 15.0137 7.46373 15.0731 7.33604 15.1009C7.20835 15.1287 7.07572 15.124 6.95033 15.0872C6.05046 15.6788 2.75925 17.7719 1.8047 18.2989C3.06749 18.8905 5.03128 17.6526 5.06111 17.6526L4.99151 17.6675ZM8.15346 26.1043C7.70601 26.5518 7.55189 26.5617 7.57675 26.7556C7.69606 27.0175 7.86488 27.2538 8.07391 27.4516C8.33741 27.6654 8.43684 27.8593 8.24295 27.2329C8.15125 26.8642 8.1177 26.4834 8.14351 26.1043H8.15346ZM15.2678 16.3699C15.1894 16.1795 15.0446 16.024 14.8602 15.9324C14.0597 15.5496 12.5285 16.3749 12.5434 15.1767C12.5434 15.1767 11.9965 15.5844 12.2451 16.0119C12.8168 17.0063 14.4078 15.7783 15.2678 16.3699V16.3699ZM3.22658 4.38331C2.96665 4.40141 2.72325 4.51744 2.54552 4.70798C2.36778 4.89852 2.26894 5.14939 2.26894 5.40995C2.26894 5.67052 2.36778 5.92138 2.54552 6.11192C2.72325 6.30246 2.96665 6.41849 3.22658 6.43659C3.48652 6.41849 3.72991 6.30246 3.90765 6.11192C4.08538 5.92138 4.18422 5.67052 4.18422 5.40995C4.18422 5.14939 4.08538 4.89852 3.90765 4.70798C3.72991 4.51744 3.48652 4.40141 3.22658 4.38331V4.38331ZM3.22658 8.47993C3.08575 8.47012 2.94441 8.48939 2.81135 8.53655C2.67829 8.5837 2.55635 8.65772 2.45312 8.75402C2.34989 8.85031 2.26758 8.96681 2.2113 9.09627C2.15501 9.22574 2.12597 9.3654 2.12597 9.50657C2.12597 9.64774 2.15501 9.7874 2.2113 9.91686C2.26758 10.0463 2.34989 10.1628 2.45312 10.2591C2.55635 10.3554 2.67829 10.4294 2.81135 10.4766C2.94441 10.5237 3.08575 10.543 3.22658 10.5332C3.48652 10.5151 3.72991 10.3991 3.90765 10.2085C4.08538 10.018 4.18422 9.76713 4.18422 9.50657C4.18422 9.246 4.08538 8.99513 3.90765 8.80459C3.72991 8.61405 3.48652 8.49803 3.22658 8.47993V8.47993ZM4.63355 6.10349H5.82674V4.93019H4.63355V6.10349ZM4.63355 10.1902H5.82674V9.01686H4.63355V10.1902ZM7.88499 8.90749C7.34806 9.23561 7.44252 9.59854 7.6215 9.82227C7.82472 9.68747 8.01902 9.53966 8.20317 9.37979C8.06635 9.24542 7.95812 9.08477 7.88499 8.90749V8.90749ZM9.12292 7.09285C9.12292 6.9785 9.12292 6.87409 9.12292 6.81443C9.10853 6.74272 9.08001 6.67458 9.03905 6.61398C8.99808 6.55338 8.94547 6.50153 8.88429 6.46145C8.81965 6.46145 8.68542 6.58077 8.61085 6.70009C8.58714 6.7575 8.57836 6.81998 8.58531 6.8817C8.59226 6.94342 8.61473 7.00238 8.65062 7.05307C8.81468 7.25194 8.88926 7.25691 9.14778 7.09285H9.12292ZM9.14778 7.67452V7.20719C8.97875 7.3116 8.91412 7.39114 8.74011 7.28674C8.45673 7.51543 8.88926 7.65464 8.97875 7.72921C9.03177 7.70197 9.08885 7.6835 9.14778 7.67452V7.67452ZM11.3254 4.38331C11.4198 4.31371 11.6435 4.06016 11.7927 3.91598C11.6698 3.84875 11.5694 3.74671 11.5043 3.62265C11.2458 3.82649 11.1961 3.97067 11.3254 4.38331ZM13.2295 4.63189L12.8566 4.93019C12.9113 5.03957 13.2792 5.30306 13.483 5.2086C13.6869 5.11414 13.7813 4.91528 13.5924 4.81087C13.475 4.74422 13.3538 4.68446 13.2295 4.63189V4.63189ZM13.3836 4.31371L13.5576 4.16953C13.4156 4.04067 13.2453 3.94701 13.0604 3.89609C12.956 3.89609 12.7423 3.97564 12.8218 4.08502C12.8566 4.15017 12.9046 4.20729 12.9628 4.25269C13.0211 4.29808 13.0882 4.33073 13.1599 4.34851C13.2176 4.35624 13.2761 4.35624 13.3339 4.34851L13.3836 4.31371ZM13.9255 9.63832C13.9352 9.51919 13.9352 9.39948 13.9255 9.28036C13.9255 9.17595 13.6123 8.97212 13.5576 8.97212C13.5029 8.97212 13.488 9.00692 13.4085 9.13618C13.3801 9.23532 13.3889 9.34141 13.4333 9.43448C13.4973 9.50136 13.5746 9.55406 13.6603 9.58917C13.7459 9.62429 13.838 9.64103 13.9305 9.63832H13.9255ZM13.493 9.66814C13.2096 9.90678 13.5278 10.1255 13.6173 10.2001C13.721 10.1586 13.8273 10.1237 13.9355 10.0957C13.918 10.0582 13.9078 10.0177 13.9056 9.97639C13.9056 9.93164 13.9056 9.83718 13.9056 9.73775C13.8337 9.75915 13.7579 9.76402 13.6839 9.75196C13.6098 9.73991 13.5395 9.71125 13.4781 9.66814H13.493ZM12.8467 10.041L12.6727 10.2349L12.5036 10.4039C12.3744 10.2697 12.2799 10.2449 12.26 10.1404V9.26544L12.0015 9.14115C11.8772 9.24556 11.7827 9.20081 11.8921 9.10635L12.2948 8.72851H12.3943L12.6528 9.10635V9.91176C12.7472 10.0112 12.6528 10.0112 12.8516 10.046L12.8467 10.041ZM12.7671 7.44086C12.7245 7.29487 12.7234 7.13992 12.7638 6.99331C12.8041 6.84669 12.8845 6.71419 12.9958 6.6106C13.0903 6.53105 13.314 6.34213 13.4582 6.24767C13.5974 6.33219 13.7068 6.39185 13.7764 6.42665C13.7764 6.49625 13.7217 6.63049 13.5725 6.64043C13.3488 6.64043 13.1748 6.58574 13.0754 6.71997C12.9759 6.85421 13.0754 7.21714 13.1997 7.35634C13.3239 7.49555 13.6222 7.59995 13.6968 7.47566C13.7714 7.35137 13.8808 7.39611 13.7764 7.54029C13.6745 7.67569 13.5831 7.81862 13.5029 7.96785C13.3468 7.9621 13.1963 7.90843 13.0718 7.81415C12.9473 7.71987 12.8548 7.58953 12.8069 7.44086H12.7671ZM13.135 10.0907C13.1399 9.9904 13.1648 9.89205 13.2084 9.80153C13.2519 9.71101 13.3132 9.63015 13.3886 9.56374V9.56374C13.3186 9.40793 13.2978 9.23451 13.3289 9.06658C13.4841 8.86365 13.6974 8.71278 13.9404 8.63405C14.0896 8.63405 14.3133 8.94229 14.4376 9.08646C14.4028 9.12624 14.4823 10.0211 14.4823 10.0808C14.4823 10.1404 14.6812 10.2051 14.7309 10.1355C14.7806 10.0659 14.8502 10.1355 14.7906 10.2001C14.7309 10.2647 14.5072 10.4338 14.4376 10.5183C14.3006 10.4337 14.1738 10.3336 14.0597 10.22C13.8282 10.2855 13.6131 10.399 13.4283 10.5531C13.3375 10.508 13.2626 10.4362 13.2137 10.3473C13.1649 10.2585 13.1443 10.1568 13.1549 10.0559L13.135 10.0907ZM14.9596 7.78887L14.7806 7.98276L14.5519 8.17666C14.4227 8.04243 14.3332 8.00762 14.3083 7.90322V7.02821L14.0548 6.90392C13.9355 7.0133 13.836 6.96358 13.9454 6.86912L14.3481 6.49625H14.4426L14.6166 6.75478V7.68447C14.7359 7.7839 14.7359 7.77396 14.9347 7.80876L14.9596 7.78887ZM14.716 4.94511C14.2188 4.89539 14.358 4.74127 14.4376 4.74624C14.895 4.77607 14.7906 4.95505 14.716 4.94511ZM14.716 4.65675C14.2188 4.65675 14.358 4.45292 14.4376 4.45789C14.8453 4.48275 14.7906 4.65178 14.716 4.65675ZM14.3232 5.70079L14.532 5.91457V6.13829L14.3779 6.2775H14.2487L14.0995 6.15818V5.89966L14.3232 5.70079ZM14.1045 3.93089C13.9598 4.06905 13.8071 4.19854 13.6471 4.31868C13.6828 4.32113 13.7171 4.33315 13.7465 4.35348C14.0995 4.55732 14.2437 4.85064 13.8758 5.12408C13.641 5.31975 13.3505 5.43632 13.0455 5.45718C12.7874 5.42747 12.5428 5.32583 12.3396 5.16386C12.5185 4.99482 12.7124 4.81087 12.8367 4.69155C12.618 4.52252 12.4141 4.2988 12.5832 4.04027C12.6807 3.8999 12.8078 3.78263 12.9555 3.69673C13.1033 3.61083 13.2681 3.55839 13.4383 3.54311C13.6837 3.57962 13.9078 3.70313 14.0697 3.89112L14.1045 3.93089ZM12.2352 5.01968C12.1407 5.0694 11.9468 5.26826 11.7927 5.26826C11.6621 5.27436 11.5316 5.25253 11.4101 5.20424C11.2886 5.15594 11.1788 5.08229 11.088 4.98819C10.9972 4.89409 10.9275 4.78171 10.8835 4.65854C10.8396 4.53538 10.8224 4.40426 10.8332 4.27394C10.8508 4.05424 10.941 3.84664 11.0895 3.68375C11.238 3.52087 11.4363 3.41194 11.6535 3.37407C11.9021 3.37407 11.9617 3.60774 12.1059 3.737C11.8921 3.91101 11.5441 4.25902 11.3353 4.46783C11.3993 4.61833 11.5156 4.74056 11.6628 4.81186C11.8099 4.88316 11.978 4.89871 12.1357 4.85562C12.3594 4.80093 12.439 4.90036 12.2352 4.99979V5.01968ZM10.7039 3.97067C10.6194 4.05518 10.4255 4.1745 10.3509 4.23416C10.2515 4.1745 10.1322 4.0005 10.0675 3.95078C10.0377 3.97564 9.98301 4.00547 9.92832 4.04027C9.92832 4.15462 9.92832 5.2086 9.92832 5.32792C9.80134 5.34574 9.67249 5.34574 9.54551 5.32792C9.54551 5.1738 9.54551 4.3336 9.54551 4.19936C9.54551 4.06513 9.38642 4.02038 9.19253 3.9657C9.31763 3.83463 9.45405 3.71484 9.6002 3.60774C9.76923 3.737 9.87364 3.737 9.95318 3.83643C10.0865 3.7645 10.2144 3.68309 10.336 3.59282C10.4155 3.68729 10.5647 3.83643 10.6194 3.90604C10.694 3.82649 10.7884 3.90604 10.7039 3.97564V3.97067ZM9.09309 6.15321C9.24224 6.15321 9.36653 6.43659 9.4958 6.58077C9.4626 6.91111 9.44932 7.24315 9.45602 7.57509C9.48585 7.62481 9.59026 7.68447 9.635 7.6447C9.67975 7.60492 9.75432 7.6447 9.68969 7.70436C9.62506 7.76401 9.34167 8.01259 9.2671 8.09214C9.21793 8.0486 9.17872 7.99498 9.15212 7.93493C9.12553 7.87487 9.11218 7.8098 9.11298 7.74413C8.92832 7.78217 8.76591 7.89103 8.66056 8.0474C8.56459 8.01148 8.48038 7.94977 8.41722 7.86907C8.35407 7.78837 8.31441 7.6918 8.30261 7.59001C8.30261 7.38617 8.43684 7.27182 8.58102 7.13759C8.55378 7.11896 8.52875 7.09728 8.50644 7.07296C8.446 6.93206 8.42702 6.77683 8.45175 6.62551C8.51769 6.50221 8.60889 6.3942 8.7194 6.30853C8.82991 6.22286 8.95725 6.16147 9.09309 6.12835V6.15321ZM8.79977 5.63119C8.73514 5.53673 8.72022 5.45221 8.58102 5.48701C8.26777 5.63081 7.91042 5.6451 7.58669 5.52678C7.43166 5.46104 7.30095 5.34864 7.21274 5.20519C7.12454 5.06174 7.08321 4.89437 7.0945 4.72635C7.11324 4.54813 7.17569 4.37729 7.27629 4.22899C7.37689 4.08069 7.51254 3.95951 7.67121 3.87621C7.96716 3.77157 8.29004 3.77157 8.58599 3.87621C8.68542 3.90604 8.76 3.87621 8.76497 3.76683C8.76994 3.65745 8.87434 3.71214 8.87434 3.76683C8.87434 3.82152 8.87434 4.63189 8.87434 4.69653C8.87434 4.76116 8.74011 4.76613 8.74508 4.69653C8.73637 4.55923 8.71642 4.42288 8.68542 4.28885C8.64298 4.19654 8.5767 4.11721 8.49341 4.05902C8.41013 4.00084 8.31284 3.96589 8.21156 3.95779C8.11029 3.94969 8.00868 3.96872 7.9172 4.01293C7.82572 4.05713 7.74768 4.12492 7.6911 4.20931C7.60166 4.36042 7.55046 4.53108 7.54195 4.70647C7.54631 4.89284 7.59578 5.07537 7.68612 5.23843C7.73982 5.32609 7.81654 5.39733 7.90793 5.44441C7.99932 5.49148 8.10186 5.51257 8.20441 5.5054C8.30696 5.49822 8.40557 5.46304 8.48951 5.4037C8.57344 5.34435 8.63949 5.26311 8.68045 5.16883C8.73881 5.0482 8.76615 4.91491 8.75999 4.78104C8.75999 4.72635 8.88429 4.71641 8.88429 4.78104C8.88429 4.84567 8.88429 5.38261 8.88429 5.4373C8.89338 5.50525 8.92487 5.56823 8.97377 5.61627C9.05332 5.74056 8.97378 5.83503 8.85446 5.68588L8.79977 5.63119ZM7.0945 6.58077C7.29961 6.33255 7.56739 6.14373 7.87008 6.03389C7.94962 6.12835 8.04408 6.27253 8.1634 6.42665C8.05269 6.5157 7.94959 6.61382 7.85516 6.71997C7.80047 6.66032 7.50218 6.22281 7.2884 6.52608C7.19201 6.67711 7.15445 6.85828 7.18286 7.03517C7.21127 7.21207 7.30368 7.37236 7.44252 7.4856C7.53392 7.55591 7.63944 7.60564 7.75185 7.63138C7.86426 7.65713 7.9809 7.65827 8.0938 7.63475C7.99892 7.74853 7.91874 7.87381 7.85516 8.00762C7.72807 8.0403 7.59454 8.03815 7.46857 8.00141C7.3426 7.96466 7.22884 7.89468 7.13925 7.79882C6.98138 7.63786 6.88929 7.42376 6.88102 7.19846C6.87274 6.97315 6.94887 6.75288 7.0945 6.58077V6.58077ZM7.25359 9.56374C7.34806 8.91246 7.97945 8.64896 8.16837 8.5197C8.2508 8.77556 8.39411 9.00759 8.58599 9.19584C8.37221 9.36985 7.88002 9.78249 7.69607 9.9217C7.80047 10.1106 8.19323 10.2449 8.31752 10.1007C8.44181 9.9565 8.5313 10.036 8.4269 10.1653C8.29346 10.3321 8.18 10.514 8.08883 10.7072C7.80544 10.5829 7.21382 10.2101 7.29834 9.5886L7.25359 9.56374ZM8.78983 9.04669C8.92859 8.93267 9.06134 8.81153 9.18755 8.68376C9.29196 8.8528 9.34167 9.01189 9.43614 9.08149C9.5654 8.97212 9.7742 8.83788 9.87364 8.73348C9.96356 8.7793 10.0374 8.85141 10.0854 8.94022C10.1333 9.02902 10.1531 9.13032 10.1421 9.23064C10.1421 9.56374 10.1968 10.0808 10.1968 10.225C10.1968 10.3691 10.1968 10.2697 10.3111 10.225C10.4255 10.1802 10.4354 10.225 10.3658 10.3045C10.2962 10.3841 9.9681 10.5879 9.86867 10.6873C9.81586 10.6012 9.78075 10.5054 9.76539 10.4055C9.75002 10.3056 9.75471 10.2037 9.77918 10.1056C9.79892 9.85414 9.79892 9.60147 9.77918 9.34996C9.77918 9.24058 9.61511 9.20578 9.54551 9.14612C9.47646 9.19537 9.41161 9.25024 9.35162 9.31019C9.35162 9.45437 9.35162 10.4537 9.35162 10.5829C9.24067 10.5889 9.12947 10.5889 9.01852 10.5829C9.01852 10.389 9.01852 9.6234 9.01852 9.45437C8.98541 9.30569 8.90308 9.17256 8.78485 9.07652L8.78983 9.04669ZM10.5199 7.90819C10.4255 7.99271 10.2117 7.85847 10.1371 7.72921C10.037 7.36836 10.0167 6.99005 10.0775 6.62054C10.0775 6.62054 10.0079 6.52608 9.92832 6.50619C9.84878 6.48631 9.80901 6.44156 9.9681 6.37693C10.1994 6.20551 10.3854 5.98025 10.51 5.72068C10.5498 5.61627 10.6045 5.72068 10.5498 5.81514C10.4683 5.99968 10.4508 6.20617 10.5001 6.40179C10.6537 6.41831 10.8087 6.41831 10.9624 6.40179C11.0121 6.40179 11.0072 6.56088 10.9624 6.55591C10.9177 6.55094 10.4155 6.61557 10.4155 6.61557C10.4058 6.89681 10.436 7.17801 10.505 7.4508C10.505 7.4508 10.6641 7.59001 10.7238 7.53532C10.7834 7.48063 10.868 7.53532 10.7834 7.60989C10.6989 7.68447 10.6393 7.80379 10.5249 7.89328L10.5199 7.90819ZM10.7288 9.03178C10.9142 8.83088 11.0623 8.59856 11.1663 8.34569C11.1961 8.23632 11.2607 8.27609 11.2508 8.39044C11.2129 8.59212 11.1929 8.79675 11.1911 9.00195C11.1911 9.03675 11.4397 9.03675 11.5192 9.03675C11.5988 9.03675 11.5739 9.19087 11.5192 9.19087C11.4646 9.19087 11.1911 9.23064 11.1911 9.23064C11.1589 9.43794 11.1707 9.6497 11.2259 9.85209C11.3303 9.95153 11.4148 10.0211 11.559 9.85209C11.6286 9.78249 11.7032 9.85209 11.6187 9.9217C11.5041 10.0417 11.407 10.1772 11.3303 10.3244C11.2856 10.4437 11.0221 10.3542 10.9376 10.2299C10.8033 10.0311 10.863 9.62837 10.853 9.23561C10.853 9.23561 10.5995 9.11132 10.7238 9.01189L10.7288 9.03178ZM12.5185 8.28603C12.4044 8.39415 12.2965 8.50869 12.1954 8.62908C12.0763 8.54616 11.9633 8.45478 11.8573 8.35564C12.0015 8.29577 12.1196 8.18649 12.1904 8.0474C12.2214 8.11097 12.2676 8.16597 12.3248 8.20758C12.382 8.24918 12.4485 8.27612 12.5185 8.28603V8.28603ZM11.7131 6.3471C11.9965 6.43659 12.4141 6.3471 12.5434 6.74483C12.6727 7.14256 12.4291 7.6447 12.1009 7.66955C11.7728 7.69441 11.6038 7.59995 11.4248 7.61487C11.3552 7.61487 11.3005 7.6447 11.2906 7.71927C11.2806 7.79384 11.1712 7.83859 11.1513 7.71927C11.112 7.49725 11.0855 7.27316 11.0718 7.0481C11.0718 6.91884 11.1911 6.90392 11.216 7.0481C11.2352 7.18412 11.2959 7.31089 11.39 7.41103C11.5115 7.48668 11.6492 7.53243 11.7918 7.54453C11.9344 7.55663 12.0778 7.53473 12.2103 7.48063C12.2427 7.44633 12.2675 7.40553 12.2829 7.36094C12.2984 7.31634 12.3042 7.26897 12.3 7.22197C12.2957 7.17496 12.2816 7.12939 12.2584 7.08827C12.2352 7.04715 12.2036 7.01143 12.1656 6.98347C12.0015 6.87409 11.3303 6.71997 11.216 6.52608C11.0221 6.19795 11.3701 5.92949 11.5192 5.84C11.7106 5.75307 11.9226 5.72205 12.1308 5.75051C12.2252 5.75051 12.3495 5.78034 12.3545 5.68091C12.3594 5.58147 12.439 5.59142 12.4489 5.68091C12.4788 5.97423 12.5086 5.79525 12.4987 6.10847C12.4987 6.25264 12.4489 6.25264 12.3893 6.14327C12.3296 6.03389 11.9369 5.72565 11.6087 5.93943C11.2806 6.15321 11.4298 6.28744 11.6883 6.35705L11.7131 6.3471ZM12.7323 11.443C13.6783 11.5263 14.5996 11.7896 15.4468 12.2186V2.77251C15.4468 2.77251 13.2941 1.28102 9.78912 2.61341C8.75999 3.01114 6.2543 2.67805 6.2543 2.67805V12.328C8.45176 12.4771 11.3154 11.3336 12.7174 11.438L12.7323 11.443ZM16.1677 14.5453C16.1427 14.6588 16.0878 14.7635 16.0086 14.8486L16.5903 14.5552C16.4177 14.4376 16.2346 14.3361 16.0434 14.252C16.1323 14.3256 16.1893 14.4307 16.2025 14.5453H16.1677ZM17.0725 14.5453C16.5356 14.6497 16.1329 15.2364 15.5214 14.9878C15.4419 14.9331 15.2778 14.8933 15.2977 14.769C15.4236 14.8327 15.5601 14.8731 15.7004 14.8883C15.6559 14.8525 15.6193 14.8079 15.5929 14.7572C15.5665 14.7065 15.551 14.6508 15.5473 14.5938C15.5435 14.5368 15.5517 14.4796 15.5712 14.4259C15.5907 14.3722 15.6211 14.3231 15.6606 14.2818C15.2927 14.5155 15.1634 14.4508 15.1634 14.3266C15.2835 14.205 15.4347 14.119 15.6004 14.0777C15.7662 14.0365 15.9401 14.0418 16.1031 14.0929C16.4166 14.274 16.7503 14.4175 17.0974 14.5204L17.0725 14.5453ZM15.5811 13.4366C15.4171 13.445 15.2589 13.4994 15.1244 13.5934C14.9899 13.6875 14.8845 13.8175 14.8204 13.9686C14.6365 14.1525 14.6464 13.6604 14.2686 13.8741C14.1095 14.0879 14.5271 14.5652 14.4276 14.595C14.02 14.7193 14.0697 13.9835 13.841 13.9636C13.5079 14.0829 12.6627 14.8535 13.493 15.4551C13.493 15.0425 14.2487 14.595 14.4873 15.5048C14.729 15.4572 14.9798 15.501 15.1911 15.6278C15.4024 15.7545 15.559 15.9552 15.6308 16.1909C16.7842 16.3947 16.4511 17.1604 16.4213 17.1604C16.3597 17.036 16.2728 16.926 16.1662 16.8372C16.0595 16.7485 15.9355 16.6831 15.802 16.6451C15.6686 16.6072 15.5287 16.5976 15.3913 16.617C15.2539 16.6364 15.1221 16.6843 15.0044 16.7577C14.8154 16.882 14.5072 17.0013 14.3282 16.8372C14.3368 16.9023 14.3581 16.965 14.391 17.0218C14.424 17.0786 14.4678 17.1283 14.52 17.168C14.5723 17.2078 14.6319 17.2368 14.6953 17.2534C14.7588 17.27 14.825 17.2739 14.89 17.2648C15.6109 17.0659 15.7948 17.7619 15.243 17.921C15.3623 18.105 15.591 18.095 15.7998 17.9658C15.9875 17.8363 16.1438 17.6664 16.2572 17.4686C16.4561 18.4083 15.2629 18.5027 14.8801 18.5574C14.9397 18.7563 15.069 18.801 15.3076 18.8706C14.0498 18.9154 13.8161 20.0936 13.8758 20.7747C14.1592 20.7747 14.5967 20.1782 14.5569 20.5311C13.667 21.4757 13.3637 22.7435 13.836 23.5489C14.0597 23.4594 14.1293 23.2108 14.2089 23.012C14.2437 23.012 14.7061 23.1909 13.9703 24.066C13.9205 24.2946 13.662 24.9807 14.2238 25.1448C14.3767 24.9303 14.4568 24.6724 14.4525 24.409C14.6166 24.3444 14.7259 24.8714 14.6613 25.0354C13.9255 25.3387 14.02 27.5908 14.8701 28.8039C14.5016 27.8677 14.5016 26.8267 14.8701 25.8905C15.1336 25.1945 15.7103 23.6285 15.7252 23.6483C16.0434 24.056 16.466 25.8011 16.466 26.5418C16.9234 26.1441 17.0129 25.7066 17.3907 25.4083C17.5697 26.0347 17.6393 26.4474 17.7835 27.0042C17.9674 26.4623 18.4497 25.8508 17.7835 24.1008C17.9277 23.9715 18.1862 24.7073 18.2806 24.6725C18.3751 24.6377 18.4397 24.2797 18.2011 23.5937C18.0357 23.4488 17.9051 23.2686 17.819 23.0663C17.733 22.864 17.6936 22.6449 17.7039 22.4253C17.7636 22.3855 17.9824 23.1114 18.2409 23.1512C18.3292 22.6269 18.3791 22.0968 18.39 21.5652C18.2696 21.1057 18.0132 20.6932 17.6542 20.382C17.4013 20.112 17.2578 19.7576 17.2515 19.3877C17.5498 19.6661 17.4852 19.8848 17.7487 19.9793C17.8472 19.4654 17.7496 18.9333 17.4752 18.4878C17.2963 18.1945 17.3808 18.2342 17.5946 18.4132C17.873 18.7414 17.7387 18.7165 17.9774 18.8507C18.4745 17.6178 18.0271 17.3592 18.0619 17.2896C18.0967 17.22 18.4646 17.8663 18.7828 17.6128C18.2856 17.3394 18.2856 16.9267 18.226 16.4842C18.1812 16.1312 17.9525 15.9871 18.042 15.9125C18.5392 16.3003 18.6983 15.8727 18.7132 15.7832C18.6137 15.8379 18.1564 15.8976 18.1017 15.1916C18.1017 14.9132 17.6493 14.7889 17.6493 14.7889C17.9128 14.7392 18.7579 14.6895 18.5591 13.8543C18.4841 14.0144 18.3536 14.142 18.1918 14.2133C18.03 14.2846 17.8479 14.2948 17.6791 14.242C17.7747 14.2152 17.8566 14.153 17.9083 14.0681C17.96 13.9833 17.9775 13.882 17.9575 13.7846C17.1322 14.2818 16.466 13.3273 15.6258 13.4466L15.5811 13.4366ZM22.7402 4.71641C22.9555 4.8644 23.1896 4.9831 23.4362 5.0694C23.4455 4.93864 23.4455 4.80739 23.4362 4.67664C23.4362 4.56726 23.0683 4.3684 23.0087 4.3684C22.949 4.3684 22.8446 4.47777 22.7551 4.60206C22.6656 4.72635 22.7203 4.69155 22.7551 4.71641H22.7402ZM23.1479 5.71073C23.2432 5.65974 23.3482 5.62925 23.4561 5.62124C23.4533 5.56825 23.4533 5.51515 23.4561 5.46215C23.4561 5.41741 23.4561 5.28318 23.4561 5.139C23.2622 5.07408 23.0742 4.99258 22.8943 4.89539L22.9788 4.94013C22.9159 5.06922 22.8988 5.21591 22.9304 5.35601C22.9621 5.49611 23.0405 5.62123 23.1528 5.71073H23.1479ZM23.1528 7.69938C23.2855 7.92237 23.4718 8.10865 23.6947 8.24129C23.8572 8.01177 23.9281 7.72987 23.8936 7.4508C23.8936 7.23702 23.5903 6.99838 23.3517 6.91387C23.2239 6.99409 23.1319 7.12048 23.0949 7.26678C23.0578 7.41307 23.0786 7.568 23.1528 7.69938V7.69938ZM18.3453 9.72283C18.1663 10.0609 18.3154 10.1305 18.4149 10.22C18.5283 10.1662 18.6379 10.1047 18.743 10.036C18.743 9.97639 18.743 9.86204 18.743 9.73278C18.5342 9.73278 18.4696 9.79741 18.3403 9.73278L18.3453 9.72283ZM18.738 9.63832C18.7474 9.5142 18.7474 9.38956 18.738 9.26544C18.738 9.15607 18.5143 8.992 18.4497 8.98703C18.3851 8.98206 18.3304 9.01189 18.2409 9.14115C18.2031 9.26088 18.2031 9.38933 18.2409 9.50905C18.3068 9.56967 18.3866 9.61315 18.4733 9.63569C18.56 9.65823 18.6509 9.65913 18.738 9.63832ZM19.0363 10.5083C18.9071 10.4089 18.7977 10.3841 18.753 10.2299C18.5094 10.3479 18.2862 10.504 18.0917 10.6923C17.9585 10.5603 17.8803 10.3826 17.873 10.1951C17.9092 9.98204 18.014 9.78656 18.1713 9.63832L18.1365 9.60848C18.0682 9.48387 18.0521 9.33727 18.0917 9.20081C18.1663 9.09641 18.4646 8.70365 18.6983 8.66885C18.8574 8.66885 18.9866 8.8528 19.1209 9.00195C19.1052 9.2818 19.1052 9.5623 19.1209 9.84215C19.27 10.0012 19.3297 10.041 19.4192 9.98136C19.5086 9.9217 19.5434 9.98136 19.4838 10.041C19.4241 10.1007 19.1358 10.4487 19.0562 10.5382L19.0363 10.5083ZM19.8666 9.12127C19.8666 9.12127 19.5385 8.98703 19.6876 8.91246C19.9198 8.80171 20.1174 8.62984 20.2594 8.4153C20.2991 8.31089 20.4035 8.35564 20.3488 8.46501C20.2917 8.61025 20.2712 8.76735 20.2892 8.9224C20.2892 8.9572 20.503 8.97709 20.5925 8.97709C20.6819 8.97709 20.6422 9.13618 20.5925 9.13618H20.2743C20.2457 9.46701 20.2457 9.79968 20.2743 10.1305C20.3119 10.1748 20.3642 10.2042 20.4217 10.2133C20.4791 10.2224 20.5379 10.2107 20.5875 10.1802C20.6621 10.1106 20.7416 10.1802 20.6521 10.2498C20.5626 10.3194 20.4433 10.5382 20.319 10.5879C20.2429 10.6048 20.1636 10.5987 20.091 10.5704C20.0184 10.5421 19.9558 10.4928 19.9113 10.4288C19.8208 10.014 19.804 9.5866 19.8616 9.16601L19.8666 9.12127ZM20.4532 7.96785C20.2579 7.85321 20.0886 7.69913 19.9561 7.51543C19.7522 7.77396 19.7025 8.01259 19.3346 8.09214C19.4637 7.9684 19.5657 7.81924 19.6341 7.65409C19.7026 7.48893 19.736 7.31136 19.7324 7.13262C19.7373 7.01106 19.7046 6.89094 19.6387 6.78863C19.5729 6.68632 19.4771 6.60679 19.3645 6.56088C19.2253 6.63049 19.101 6.71997 19.0264 6.75478C18.9518 6.78958 18.927 6.66529 18.9816 6.63546C19.2045 6.50455 19.4157 6.35486 19.613 6.18801C19.7016 6.20239 19.7852 6.23853 19.8564 6.2932C19.9275 6.34786 19.984 6.41934 20.0207 6.50122C20.1686 6.38334 20.3097 6.25719 20.4433 6.12338C20.598 6.28697 20.7965 6.4026 21.015 6.45648C20.7814 6.84924 20.2693 6.61557 20.1947 6.51614C20.1534 6.57422 20.1312 6.64372 20.1312 6.715C20.1312 6.78628 20.1534 6.85579 20.1947 6.91387C20.3798 7.15925 20.6428 7.33453 20.9405 7.41103C20.7857 7.58738 20.6196 7.75345 20.4433 7.90819L20.4532 7.96785ZM20.7963 9.31019C20.9504 9.14115 21.1145 9.03178 21.2089 8.93235C21.3342 9.01872 21.4379 9.13267 21.5122 9.26544C21.5122 9.48419 21.4625 9.94159 21.4774 10.1056C21.4923 10.2697 22.1088 10.3691 22.1386 10.1355C22.1587 9.91553 22.1587 9.6942 22.1386 9.47425C22.1386 9.36985 21.8801 9.32013 21.7558 9.33505C21.9248 9.16104 22.0641 9.03178 22.1734 8.93235C22.3226 9.04778 22.4534 9.18524 22.5612 9.34002C22.5417 9.64795 22.5417 9.95681 22.5612 10.2647C22.601 10.4139 22.5861 10.4238 22.7004 10.4984C22.5861 10.6078 22.5016 10.6525 22.422 10.737C22.3027 10.7022 22.1038 10.5282 22.1187 10.3691C21.8926 10.5001 21.6525 10.6052 21.4028 10.6824C21.2487 10.5233 21.1344 10.4835 21.1244 10.2946C21.1527 10.0185 21.1527 9.74034 21.1244 9.46431C21.094 9.41336 21.05 9.37193 20.9973 9.3447C20.9445 9.31747 20.8853 9.30551 20.8261 9.31019H20.7963ZM22.8148 7.67452C22.8284 7.4213 22.9204 7.17858 23.0781 6.97995C23.2357 6.78132 23.4512 6.63662 23.6947 6.56585C23.8692 6.63288 24.0201 6.74964 24.1288 6.90165C24.2375 7.05365 24.2992 7.23423 24.3063 7.42097C24.264 7.68439 24.1582 7.93354 23.998 8.14683C23.8204 8.27309 23.6541 8.41448 23.5009 8.56942C23.0037 8.56942 22.7402 7.96288 22.7501 7.66955L22.8148 7.67452ZM22.8197 9.5886C22.949 9.51403 23.2473 9.24059 23.3517 9.17098C23.4892 9.27947 23.6142 9.40286 23.7246 9.53888C23.8591 9.46155 23.9871 9.37343 24.1074 9.27539C24.2463 9.37092 24.3762 9.4791 24.4952 9.59854C24.5747 9.52397 24.6742 9.59854 24.5847 9.67312C24.4952 9.74769 24.2963 9.93164 24.2217 9.9913C24.0918 9.89042 23.9689 9.7808 23.8538 9.66317C23.8076 9.69843 23.7576 9.72845 23.7047 9.75266C23.7047 9.87198 23.7047 10.8713 23.7047 10.9906C23.5694 11.0085 23.4323 11.0085 23.297 10.9906C23.297 10.8315 23.297 9.96644 23.297 9.82724C23.297 9.68803 23.0087 9.59854 22.8297 9.59357L22.8197 9.5886ZM24.8183 7.82367C24.7094 7.81665 24.6012 7.80001 24.4952 7.77396C24.3858 7.73916 24.4305 7.61984 24.4952 7.61984C24.5929 7.625 24.6897 7.64169 24.7835 7.66955C24.8482 7.69441 24.878 7.83362 24.7835 7.82367H24.8183ZM24.7835 7.52538C24.6743 7.52042 24.566 7.50376 24.4604 7.47566C24.351 7.44583 24.3957 7.32154 24.4604 7.32154C24.56 7.32389 24.6588 7.34063 24.7537 7.37126C24.8183 7.40109 24.8432 7.53035 24.7537 7.52538H24.7835ZM23.9632 5.62124L23.5804 6.03886C23.4716 5.96797 23.3949 5.85734 23.3666 5.73062C23.1322 5.79146 22.9158 5.90736 22.7352 6.06869C22.5975 5.89539 22.5175 5.68327 22.5065 5.46215C22.5267 5.23833 22.6192 5.02715 22.77 4.86059H22.7998C22.7405 4.82717 22.6839 4.78893 22.6308 4.74624C22.607 4.71569 22.5941 4.67807 22.5941 4.63935C22.5941 4.60063 22.607 4.56301 22.6308 4.53246C22.7054 4.43303 22.944 4.13473 23.1777 4.09496C23.2949 4.09254 23.4113 4.11576 23.5186 4.16299C23.626 4.21022 23.7217 4.28032 23.7991 4.3684C23.7686 4.69891 23.757 5.03089 23.7643 5.36272C23.8498 5.45802 23.9429 5.54614 24.0428 5.62622L23.9632 5.62124ZM21.5122 7.1525C21.5034 7.29392 21.5382 7.43462 21.612 7.55557C21.6858 7.67651 21.795 7.77184 21.9248 7.82865C22.0853 7.88148 22.2571 7.89006 22.422 7.8535C22.4916 7.8535 22.4717 7.82367 22.5214 7.77396C22.5712 7.72424 22.6358 7.77396 22.591 7.8187C22.5463 7.86345 22.1287 8.26615 22.0143 8.34569C21.9249 8.36787 21.831 8.36474 21.7432 8.33665C21.6554 8.30855 21.5771 8.2566 21.5172 8.1866C21.3719 8.07009 21.2622 7.91511 21.2007 7.73932C21.1391 7.56352 21.1282 7.37398 21.1692 7.19228C21.2238 6.80946 21.8602 6.48134 22.0044 6.39682C22.0641 6.45648 22.3524 6.75975 22.5016 6.85918C22.4022 6.94877 22.2723 6.99681 22.1386 6.99341C21.9795 6.99341 21.8751 6.86415 21.7707 6.74483C21.6403 6.84697 21.549 6.99094 21.5122 7.1525V7.1525ZM22.3375 4.08502C22.2679 4.08502 21.547 4.16953 21.547 4.16953C21.5345 4.50231 21.5562 4.83549 21.6116 5.16386C21.6116 5.23843 21.7011 5.34781 21.7856 5.2782C21.8702 5.2086 21.9447 5.32792 21.8552 5.39752C21.7658 5.46713 21.6464 5.75051 21.5719 5.80022C21.4973 5.84994 21.2934 5.63616 21.2388 5.49198C21.1398 5.08181 21.0913 4.66107 21.0946 4.23914C21.0946 4.23914 20.7565 4.09496 20.9206 4.03033C21.2004 3.88034 21.429 3.65005 21.5768 3.3691C21.6166 3.25973 21.716 3.30447 21.6663 3.41385C21.6246 3.48897 21.5987 3.57182 21.5902 3.6573C21.5816 3.74279 21.5906 3.82912 21.6166 3.91101C21.8549 3.92961 22.0942 3.92961 22.3325 3.91101C22.3872 3.91101 22.3872 4.0701 22.3325 4.0701L22.3375 4.08502ZM20.6621 5.16386L20.3638 5.54667H20.0853C19.9699 5.45465 19.8821 5.33248 19.8318 5.19369V4.26897L19.4888 4.0701C19.4241 4.15462 19.2998 4.15462 19.3446 4.0701L19.8417 3.65248H19.9461L20.2494 3.95575V4.9103C20.3019 4.98247 20.3697 5.04216 20.4479 5.08513C20.5261 5.12809 20.6128 5.15328 20.7018 5.15889L20.6621 5.16386ZM20.319 3.27464L20.15 3.41882H19.971L19.8318 3.27961V3.01114L20.0555 2.82222L20.2792 3.04097V3.27464H20.319ZM19.3595 3.27464C19.2766 3.30413 19.2029 3.35511 19.1462 3.42237C19.0894 3.48963 19.0515 3.57075 19.0363 3.65746C19.0015 3.83146 18.4447 5.45718 18.3751 5.56656C18.1511 4.87591 17.858 4.20965 17.5001 3.57791C17.346 3.34922 17.1968 3.39396 17.0527 3.38899C16.9085 3.38402 16.9681 3.25973 17.0825 3.26967C17.1968 3.27961 18.1265 3.3691 18.3801 3.4039C18.4696 3.4039 18.4745 3.50334 18.3552 3.53814C18.2359 3.57294 18.1514 3.62265 18.1514 3.69226C18.2469 4.01847 18.3734 4.33479 18.5292 4.63686C18.6949 4.28008 18.8023 3.89907 18.8474 3.50831C18.7828 3.33927 18.7579 3.30944 18.6287 3.2995C18.4994 3.28956 18.5044 3.21001 18.6287 3.18515C18.8607 3.15108 19.0952 3.13611 19.3297 3.14041C19.454 3.14041 19.4689 3.21995 19.2998 3.2647L19.3595 3.27464ZM17.3112 6.19298C17.6604 6.03116 18.0471 5.96756 18.4298 6.00903C18.5392 6.03886 18.6485 6.00903 18.6485 5.95932C18.6485 5.9096 18.748 5.90463 18.748 5.95932C18.748 6.014 18.748 6.70009 18.748 6.76472C18.748 6.82935 18.6485 6.82438 18.6485 6.76472C18.6557 6.66924 18.6254 6.57471 18.564 6.50122C18.4839 6.40656 18.3834 6.33129 18.27 6.28107C18.1566 6.23086 18.0333 6.20701 17.9094 6.21131C17.7854 6.21562 17.6641 6.24797 17.5544 6.30594C17.4448 6.3639 17.3497 6.44597 17.2764 6.54597C17.1571 6.70009 17.1173 6.96358 17.2466 7.00833C17.5082 7.03736 17.7727 7.02899 18.0321 6.98347C18.2348 6.95362 18.4357 6.91212 18.6336 6.85918C18.6784 6.85918 18.738 6.79455 18.738 6.85918C18.738 6.92381 18.738 7.20222 18.738 7.28177C18.738 7.36131 18.6734 7.32154 18.6336 7.28177C18.4348 7.24905 18.2336 7.23243 18.0321 7.23205C17.7657 7.17583 17.4939 7.14916 17.2217 7.1525C17.0875 7.19228 17.1919 7.40109 17.3112 7.55521C17.3744 7.65575 17.4602 7.74011 17.5618 7.80153C17.6635 7.86294 17.778 7.89972 17.8964 7.9089C18.0148 7.91808 18.1337 7.89942 18.2436 7.8544C18.3535 7.80939 18.4513 7.73927 18.5292 7.64967C18.5622 7.61561 18.5877 7.57499 18.604 7.53045C18.6202 7.48591 18.627 7.43845 18.6237 7.39114C18.6237 7.33148 18.7281 7.32154 18.7281 7.39114C18.7281 7.46075 18.7281 8.02254 18.7281 8.07723C18.7281 8.13191 18.6237 8.14683 18.6237 8.07723C18.6237 8.00762 18.5541 7.96288 18.4149 8.00762C18.0396 8.12922 17.6337 8.11692 17.2664 7.97282C16.9582 7.79384 16.6897 7.73916 16.6798 7.06302C16.7042 6.87497 16.7746 6.69585 16.8847 6.54149C16.9948 6.38713 17.1413 6.26231 17.3112 6.17807V6.19298ZM16.814 8.26118C16.9035 8.26118 17.1819 8.26118 17.2764 8.26118C17.2764 8.46501 17.2764 9.89187 17.2764 10.036C17.2764 10.1802 17.4156 10.2299 17.5448 10.1703C17.6741 10.1106 17.6642 10.1703 17.5846 10.2598C17.4397 10.3946 17.3097 10.5446 17.1968 10.7072C17.0377 10.5978 16.8588 10.4586 16.8737 10.3294C16.8737 10.0907 16.824 8.43518 16.814 8.24626V8.26118ZM18.8872 11.4082C19.8815 11.4082 23.6798 12.4572 25.5193 12.3329V2.75262C23.8178 2.95179 22.0933 2.78223 20.4632 2.25546C18.5491 1.54949 15.9142 2.78245 15.9142 2.78245V12.2285C15.9142 12.2285 16.9085 11.443 18.8971 11.443L18.8872 11.4082ZM25.8574 8.53959V10.3691C26.6259 10.3149 27.3674 10.0632 28.0101 9.63832C28.1803 9.54512 28.3734 9.50218 28.5671 9.5145C28.7607 9.52682 28.9469 9.5939 29.1039 9.70792C29.1039 9.70792 28.9696 8.49981 27.9355 8.64399C26.0662 8.91246 25.8524 8.52964 25.8524 8.52964L25.8574 8.53959ZM29.0989 5.87977C29.0989 5.99909 29.1287 6.07864 29.1337 6.13332C29.1337 6.07864 29.1337 5.99909 29.0989 5.87977C29.081 5.57589 28.9431 5.29157 28.7157 5.08927C28.4882 4.88698 28.1897 4.78327 27.8858 4.80093C27.508 4.80093 27.0506 5.25832 25.8972 4.75121V6.58077C26.3695 6.71997 27.672 5.9792 28.1891 5.75051C28.562 5.59142 29.089 5.69582 29.1138 5.87977H29.0989ZM27.8262 25.1001C27.7516 22.2066 25.9867 18.9949 26.4838 19.5816C27.6919 21.073 28.0797 24.3145 28.91 27.1036C28.91 27.1036 29.4419 27.3771 29.3276 23.8373C29.2644 23.021 29.0361 22.226 28.6564 21.5006C27.9554 20.1881 26.5286 17.9708 26.5733 17.9558C26.9164 17.6774 27.7516 19.5865 28.4774 20.3372C29.0156 20.7886 29.6583 21.0979 30.3468 21.2371C29.2978 19.2037 26.7573 17.2896 27.0208 17.051C28.8901 18.806 29.5066 18.8905 29.5613 18.796L27.8759 17.1604C27.3787 16.524 26.7722 16.0318 26.8816 16.0517C27.6323 16.2158 26.4888 15.4253 25.6038 15.1866C25.4448 15.1419 25.1912 15.132 25.1813 15.0524C25.1713 14.9729 25.3901 14.9729 25.574 14.9182C25.643 14.9019 25.7046 14.8634 25.7496 14.8086C25.7945 14.7538 25.8201 14.6857 25.8226 14.6149C25.4854 14.6786 25.1366 14.6315 24.8283 14.4807C24.2317 14.2023 23.1628 13.8841 22.6706 14.078C22.4324 14.1443 22.2106 14.2595 22.0193 14.416C21.8851 14.3614 21.5221 14.1177 20.9753 14.7591C20.8033 14.9258 20.6752 15.1324 20.6024 15.3607C20.6024 15.7882 20.6024 15.3607 20.7167 15.7882C20.7615 15.9572 20.5676 16.2854 19.7821 16.534C19.6999 16.5594 19.6304 16.6152 19.5879 16.69C19.5455 16.7648 19.5331 16.853 19.5534 16.9367C19.6616 16.8585 19.7888 16.8108 19.9217 16.7985C20.0546 16.7863 20.1884 16.81 20.3091 16.8671C21.025 17.2051 21.1642 16.6732 21.6116 16.2953C21.6116 16.2953 21.4873 16.7925 21.6116 16.7925C22.1685 16.9068 21.9845 17.3244 21.9099 17.3891C21.2089 18.0155 21.5023 18.2541 21.2487 18.6369C21.1233 18.818 20.9498 18.9605 20.7478 19.0484C20.5457 19.1362 20.3232 19.1659 20.1052 19.1341C19.3545 19.1341 21.0996 17.9807 19.4291 17.5084C19.6876 17.9409 19.792 18.2889 19.2153 18.627C18.8524 18.8408 19.0363 19.9147 18.1017 19.4175C18.1017 19.4175 18.0271 20.2129 17.9177 20.2478C19.1557 21.3664 18.4497 21.9729 18.5292 23.5589C18.927 24.5532 18.4895 25.0503 18.39 25.11C18.3883 25.6959 18.5845 26.2653 18.9468 26.7258C19.2551 27.1285 18.917 27.7549 19.2352 28.1874C19.5285 27.1533 19.8368 27.5859 19.9213 26.1491C20.12 25.8207 20.4308 25.5753 20.7963 25.458C20.7963 26.3231 21.1095 27.1086 21.0449 27.4765C21.3618 27.41 21.6869 27.3915 22.0094 27.4218C22.0965 27.4618 22.172 27.5235 22.2285 27.601C22.2851 27.6784 22.3209 27.7691 22.3325 27.8643C22.1154 27.9692 21.9075 28.0923 21.7111 28.2322C21.2654 28.619 20.935 29.1214 20.7565 29.6839C21.3379 29.2367 21.8893 28.7517 22.4071 28.2322C22.5101 27.9971 22.5949 27.7544 22.6606 27.5063C22.6606 27.4765 21.8652 27.0092 21.6663 26.5766C20.9753 25.2393 22.7352 27.3721 22.775 27.1832C22.8622 26.8608 23.0052 26.5563 23.1976 26.2833C22.8591 26.0315 22.5834 25.7048 22.3922 25.3287C21.3879 23.6384 23.4611 26.0447 23.4611 26.0447C24.0129 25.7314 24.0129 26.1491 24.0825 26.5965C24.0825 26.6363 25.0172 27.3224 25.0769 27.3671C25.3112 27.1377 25.5001 26.8662 25.6337 26.5667C25.6337 26.5369 23.9582 25.0404 23.645 24.5432C21.3183 20.5659 25.5293 26.3131 25.7281 26.154C25.8492 25.7243 25.8946 25.2768 25.8624 24.8316C25.3537 24.443 24.9149 23.9705 24.5648 23.4346C22.6109 20.208 25.8475 24.3991 25.8475 24.3692C25.8077 23.6782 25.2409 20.6803 25.6337 21.5801C26.1589 22.9596 26.4023 24.4303 26.3496 25.9055C26.5733 25.5425 27.4781 25.1846 27.8411 25.0951L27.8262 25.1001ZM24.177 28.2769C24.177 28.2769 23.8687 28.0433 23.8489 28.088C23.7991 28.2222 23.7295 28.3764 23.6401 28.5603C23.5506 28.7443 23.8041 28.605 24.177 28.2769V28.2769ZM24.0527 27.0738C24.0298 27.3313 23.9899 27.5871 23.9334 27.8394C23.9334 27.8692 24.2267 27.9886 24.3659 28.1079C24.5724 27.9503 24.7638 27.7739 24.9376 27.5809C24.8929 27.5511 24.0825 26.8501 24.0825 26.8799C24.0825 26.9097 24.0825 26.9594 24.0527 27.0738V27.0738ZM26.5385 28.7393C26.8965 28.436 27.1053 27.919 27.5676 27.745C27.2196 27.4268 26.8766 28.0631 26.6976 27.8394C27.0282 27.3955 27.2233 26.8654 27.2594 26.3131C27.2594 25.9701 27.672 25.6519 27.7566 25.463C27.1402 25.6441 26.5839 25.9875 26.1458 26.4573C25.4895 27.3969 25.4895 28.2471 22.6408 29.5248C22.4966 29.5248 23.1727 29.0276 23.3616 28.4658C23.4511 28.2023 23.829 26.9744 23.5705 26.3778C23.223 26.7075 22.9985 27.146 22.9341 27.6207C22.5065 28.794 22.2729 28.9033 21.204 29.6093C21.0598 29.7038 20.2395 30.9715 19.1755 31.0362C19.2849 31.0063 19.2203 30.7428 19.5832 30.5092C20.7764 29.7286 20.319 28.0234 21.8751 27.7599C21.0996 27.4864 20.5676 28.257 20.4284 28.1626C21.0548 27.2925 20.503 26.5567 20.5974 25.8508C20.4874 25.9099 20.3913 25.9919 20.3158 26.0915C20.2404 26.191 20.1872 26.3056 20.1599 26.4275C20.0406 27.6903 19.4539 27.919 19.3943 28.4559C19.5186 29.3558 18.7977 30.0568 18.2657 30.6931C18.2038 30.4116 18.2389 30.1175 18.3652 29.8585C18.4916 29.5995 18.7018 29.3908 18.9618 29.2663C19.3247 29.0276 18.927 28.3068 18.927 28.3068C18.7778 29.0923 18.3353 29.3359 18.0619 29.3756C17.7885 29.4154 18.9071 28.2769 18.7828 27.2379C18.7281 26.7755 18.5939 26.9793 18.5193 26.4623C17.5846 27.5013 18.2707 28.1427 17.3112 29.3408C17.0107 29.8372 16.7798 30.3725 16.6251 30.9318C16.6251 29.4403 16.6848 29.8778 17.346 28.6746C17.8879 27.6803 17.3162 26.7556 17.2416 26.159C16.0534 26.9793 16.1528 28.5553 16.118 28.2173C16.018 27.7251 16.018 27.2179 16.118 26.7258C16.3815 25.8359 15.8197 24.4786 15.8197 24.4786C14.1542 27.0887 15.5512 30.1413 15.4468 30.1015C14.7259 28.9729 14.1989 28.9232 14.0399 28.0582C13.9553 27.561 13.0952 25.0006 11.5192 24.9559C12.3147 25.642 12.1208 25.7364 12.1755 26.855C11.6783 29.659 15.596 29.9524 15.3325 31.409C14.7955 30.549 13.9752 30.1811 12.7373 29.5099C12.1904 29.0774 11.569 28.8835 11.5391 28.2023C11.6152 27.8618 11.6152 27.5088 11.5391 27.1682C11.4795 26.7109 11.042 26.9893 10.694 26.0297C9.98301 26.6711 10.2465 27.3969 10.3012 27.8096C10.3635 28.0744 10.3635 28.3501 10.3012 28.615C10.0276 28.3597 9.78563 28.0727 9.58031 27.7599C9.08315 27.1086 9.08315 26.3181 8.82463 25.7712C8.70531 25.5177 8.53627 25.1697 8.43684 25.1647C8.25963 26.0755 8.4 27.0196 8.83457 27.8394C8.77543 27.9436 8.69796 28.0362 8.60588 28.1129C8.30652 28.0313 8.03089 27.8797 7.80179 27.6705C7.57268 27.4612 7.3967 27.2005 7.2884 26.9097C7.14244 27.0361 7.04448 27.2089 7.01098 27.3991C6.97747 27.5892 7.01048 27.7851 7.10445 27.9538C5.87646 27.3224 7.10445 24.8863 5.36935 24.9708C5.80188 25.468 5.52844 26.0447 5.48867 26.6065C5.48867 27.5212 6.64209 28.2322 6.64209 28.2322C5.34449 27.7947 5.081 28.4012 5.09591 28.4012C6.67702 29.0097 8.3353 29.3946 10.0228 29.5447C10.4106 29.5845 10.9624 30.0418 10.8729 30.0418C10.4851 30.012 9.71952 29.5149 8.61582 30.4943C9.2671 30.4943 9.71455 31.5681 10.7685 30.9616C13.4979 30.191 14.5072 31.5433 14.9546 31.8913C14.8602 32.0603 12.8566 30.6335 11.2707 31.5781C10.4255 32.0752 9.06824 31.6278 8.00431 30.8323C8.43187 31.9261 10.2614 33.164 10.863 33.164C11.6038 33.164 12.5484 32.1995 13.6272 32.2492C15.3474 32.3338 15.586 33.87 15.3971 33.7407C15.3971 33.7407 14.0448 31.5035 12.3048 33.8949C12.7656 33.7201 13.2583 33.6453 13.7503 33.6753C14.2423 33.7053 14.7223 33.8394 15.1585 34.0689C15.2877 34.1285 14.9248 34.5312 14.6613 34.8196C14.4923 35.0085 13.7664 36.0824 12.9859 35.0234C12.8666 34.8643 12.4887 33.8799 10.0377 34.0937C10.9624 34.5113 11.9866 35.5852 12.4937 36.0824C13.7813 37.3551 15.7252 34.5362 15.7998 34.8494C15.836 35.3165 16.0089 35.7626 16.297 36.1321C16.7295 36.9922 15.7501 36.848 15.2181 36.6292C15.2181 36.6292 16.2125 38.2102 17.0825 37.3302C18.0221 36.3359 15.8495 35.62 16.5406 34.8444C16.9284 34.4069 18.2956 35.8388 18.912 35.8388C20.5825 36.0227 20.493 34.4417 21.3979 34.4865C21.2859 34.349 21.1476 34.2354 20.9911 34.1522C20.8346 34.0691 20.663 34.0181 20.4864 34.0024C20.3099 33.9866 20.132 34.0064 19.9632 34.0605C19.7944 34.1146 19.6381 34.202 19.5037 34.3174C18.9468 34.9637 18.3055 34.5312 17.8581 34.1832C17.7382 34.044 17.5796 33.9437 17.4026 33.895C17.2255 33.8463 17.0379 33.8514 16.8637 33.9098C16.6897 33.9098 17.2118 33.2983 17.8929 33.4126C19.0634 33.6049 20.2646 33.4439 21.3432 32.9502C21.9596 32.6022 22.3077 32.0156 22.9987 31.3544C22.7849 31.3941 21.5072 32.1051 21.0946 32.3139C20.7558 32.4818 20.3775 32.5539 20.0007 32.5224C19.6239 32.4909 19.2629 32.3569 18.9568 32.1349C18.7182 32.1349 18.7828 31.9559 19.1507 31.8366C20.4135 31.5532 21.2835 30.4445 22.4866 30.0021C23.8041 29.4204 25.4696 29.8231 26.6131 28.7144L26.5385 28.7393ZM26.1159 30.8721C26.5948 30.1702 26.9216 29.376 27.0754 28.5404C26.7738 28.9312 26.3766 29.2377 25.922 29.4303C25.6188 30.3948 25.7629 31.3842 26.1159 30.8721V30.8721ZM30.6848 22.9175C29.432 36.4005 18.1464 38.6925 15.7402 39.13C15.5463 39.2045 2.12288 37.4794 0.740772 22.9672V1.5296C0.740772 1.5296 13.5974 -0.13092 30.6302 1.5296L30.6848 22.9175ZM31.4704 23.0418V0.768944C13.5377 -0.96118 0 0.768944 0 0.768944V23.0965C1.42686 38.2301 15.6009 40 15.7352 40C18.2657 39.5426 30.1529 37.1513 31.4704 23.0965V23.0418ZM197.701 2.81725V2.79239V2.76256C197.677 2.2654 197.662 1.65389 197.662 1.00758V0.87832L197.537 0.908149C197.373 0.94295 196.543 0.94295 195.758 0.94295H193.302C192.804 0.94295 192.352 0.942951 191.76 0.903178H191.736H191.711C191.601 0.957866 191.581 1.11199 191.576 1.1617C191.568 1.20856 191.572 1.25688 191.589 1.30153C191.605 1.34618 191.634 1.38548 191.671 1.41525L191.929 1.46C192.606 1.53954 192.64 1.61412 192.64 3.04097V7.84853C192.64 9.26047 192.606 9.34002 191.929 9.41459L191.562 9.45934L191.527 9.48419C191.493 9.52356 191.469 9.56993 191.456 9.61986C191.444 9.66978 191.442 9.72197 191.452 9.77255C191.455 9.81458 191.468 9.8553 191.49 9.89152C191.511 9.92774 191.541 9.95849 191.576 9.98136H191.601C192.228 9.98136 192.675 9.94158 193.267 9.94158C193.858 9.94158 194.261 9.94159 195.042 9.98136H195.066H195.091C195.133 9.95243 195.166 9.91363 195.189 9.86848C195.211 9.82334 195.222 9.77328 195.221 9.72283C195.229 9.67673 195.224 9.62925 195.208 9.58546C195.191 9.54168 195.163 9.50324 195.126 9.47425L194.629 9.41956C193.948 9.35991 193.908 9.27539 193.908 7.8535V6.00903C193.908 5.75051 193.908 5.75051 194.246 5.75051H195.156C195.489 5.73514 195.822 5.75514 196.15 5.81017C196.244 5.84171 196.328 5.89893 196.391 5.97536C196.454 6.0518 196.495 6.14439 196.508 6.2427L196.647 6.79455H196.672C196.742 6.85372 196.83 6.88624 196.921 6.88624C197.012 6.88624 197.1 6.85372 197.169 6.79455V6.76969V6.73986C197.169 6.60065 197.169 6.42168 197.169 6.2427C197.169 6.06372 197.14 5.74554 197.14 5.46215C197.14 5.17877 197.14 4.90533 197.169 4.65178C197.199 4.39823 197.169 4.25902 197.169 4.10987V4.08004V4.05519C197.138 4.01969 197.099 3.99185 197.055 3.97376C197.011 3.95567 196.963 3.94782 196.916 3.95078C196.869 3.94782 196.821 3.95469 196.777 3.97095C196.732 3.9872 196.692 4.0125 196.657 4.04524L196.518 4.62195C196.444 4.94511 196.354 4.97991 196.25 5.01471C195.886 5.07862 195.516 5.10362 195.146 5.08928H194.236C193.898 5.08928 193.898 5.08928 193.898 4.83076V1.99196C193.898 1.55943 193.898 1.55943 194.196 1.55943H195.012C195.436 1.53661 195.862 1.56331 196.28 1.63898C196.851 1.78813 197.025 2.17094 197.14 2.82719V2.862L197.169 2.88685C197.227 2.93381 197.299 2.95852 197.373 2.95646C197.429 2.96134 197.486 2.95099 197.537 2.92649C197.587 2.90199 197.631 2.86425 197.662 2.81725H197.701ZM188.753 5.41741C188.753 3.16029 187.261 0.734143 184.015 0.734143C183.375 0.717248 182.74 0.830007 182.145 1.06562C181.551 1.30123 181.011 1.65481 180.557 2.10502C180.103 2.55523 179.745 3.09273 179.504 3.6851C179.264 4.27747 179.146 4.91242 179.157 5.55164C179.157 7.8535 180.828 10.1802 184.015 10.1802C184.642 10.1932 185.266 10.0787 185.849 9.84363C186.431 9.60855 186.96 9.25779 187.403 8.81257C187.846 8.36734 188.194 7.8369 188.426 7.25334C188.658 6.66977 188.769 6.0452 188.753 5.41741V5.41741ZM187.211 5.83005C187.211 8.58433 185.581 9.55877 184.189 9.55877C181.434 9.55877 180.708 6.76969 180.708 5.11911C180.708 2.335 182.374 1.35062 183.801 1.35062C186.326 1.35062 187.221 3.76186 187.221 5.82508L187.211 5.83005ZM175.468 28.6548C175.468 34.4218 179.764 39.5178 186.878 39.5178C188.352 39.5436 189.815 39.2715 191.18 38.7177C192.546 38.1639 193.786 37.3399 194.825 36.2952C195.864 35.2505 196.681 34.0065 197.228 32.638C197.774 31.2696 198.038 29.8048 198.005 28.3316C198.005 22.6938 194.286 17.3394 186.883 17.3394C180.281 17.3394 175.473 22.2463 175.473 28.6548H175.468ZM178.675 27.6306C178.675 20.6107 183 18.3386 186.336 18.3386C192.456 18.3386 194.788 24.0411 194.788 29.3309C194.788 35.6449 191.134 38.5284 187.291 38.5284C180.972 38.5284 178.665 32.3735 178.665 27.6306H178.675ZM172.411 1.42023C172.446 1.38789 172.473 1.34751 172.49 1.30251C172.506 1.25751 172.511 1.20921 172.505 1.1617C172.503 1.11427 172.489 1.06806 172.466 1.02666C172.443 0.985265 172.41 0.949812 172.371 0.923065H172.341H172.311C171.475 0.977769 170.637 0.977769 169.801 0.923065H169.776H169.751C169.714 0.944052 169.682 0.973359 169.658 1.00871C169.633 1.04406 169.618 1.08451 169.612 1.1269C169.602 1.17939 169.605 1.23343 169.621 1.28447C169.636 1.33552 169.664 1.38208 169.701 1.42023V1.42023L169.975 1.45006C170.138 1.45954 170.297 1.5036 170.442 1.57932C170.215 2.12601 169.956 2.65889 169.666 3.17521L169.607 3.28956C169.284 3.91101 168.916 4.58218 168.443 5.38758C168.09 4.75121 167.747 4.05021 167.414 3.37407C167.285 3.11058 167.156 2.84211 167.022 2.58359C166.863 2.26235 166.729 1.93003 166.619 1.58926C166.619 1.5644 166.679 1.50971 167.091 1.45006L167.3 1.42023C167.338 1.37758 167.365 1.32614 167.378 1.27059C167.391 1.21503 167.39 1.1571 167.375 1.10204C167.366 1.06013 167.348 1.02108 167.32 0.988795C167.292 0.956511 167.256 0.932129 167.215 0.918092H167.181C166.853 0.918092 166.375 0.957866 165.759 0.957866C165.142 0.957866 164.65 0.957865 164.218 0.918092H164.198H164.173C164.139 0.940203 164.11 0.969453 164.089 1.0038C164.067 1.03815 164.054 1.07676 164.049 1.11696C164.038 1.16832 164.04 1.22129 164.053 1.27202C164.066 1.32275 164.09 1.36998 164.123 1.41028L164.148 1.44011L164.556 1.51469C164.909 1.57435 165.088 1.60418 165.55 2.47421L167.126 5.54667C167.44 6.02244 167.587 6.58909 167.544 7.15748V7.83859C167.544 9.2903 167.509 9.3599 166.838 9.43448L166.385 9.47922H166.36C166.328 9.51977 166.304 9.56718 166.292 9.61796C166.28 9.66873 166.28 9.72156 166.291 9.77255C166.293 9.81412 166.306 9.85446 166.327 9.89001C166.349 9.92556 166.379 9.95523 166.415 9.97639H166.44H166.465C167.186 9.97639 167.653 9.93661 168.21 9.93661C168.767 9.93661 169.229 9.93661 170.024 9.97639H170.049H170.074C170.109 9.95459 170.139 9.92477 170.161 9.88935C170.182 9.85393 170.195 9.81391 170.198 9.77255C170.209 9.72121 170.208 9.66807 170.195 9.61722C170.182 9.56636 170.158 9.51916 170.124 9.47922V9.47922L169.577 9.43448C168.961 9.38973 168.871 9.28533 168.871 7.83859V7.1525C168.871 6.15818 168.901 6.05378 169.483 5.03957L170.323 3.58288L170.541 3.20007C171.068 2.28032 171.446 1.61909 172.033 1.51966L172.436 1.45006L172.411 1.42023ZM167.22 17.7619C165.885 17.4503 164.52 17.2836 163.149 17.2648C158.306 17.2648 155.134 18.7563 152.992 21.0134C151.095 23.0841 150.063 25.8024 150.108 28.61C150.088 29.9579 150.339 31.2961 150.845 32.5454C151.352 33.7947 152.104 34.9298 153.056 35.8835C155.542 38.3693 159.022 39.4432 162.831 39.4432C164.769 39.3895 166.694 39.1092 168.568 38.6079C169.079 38.4542 169.606 38.3575 170.139 38.3196C170.183 38.2749 170.21 38.2156 170.215 38.1527C170.219 38.0897 170.201 38.0272 170.164 37.9766C169.587 37.7528 169.393 36.9822 169.393 35.6995V33.9048C169.393 32.2691 169.423 31.3742 170.77 31.2102L171.267 31.1455C171.319 31.0913 171.358 31.0275 171.385 30.9577C171.411 30.8879 171.423 30.8136 171.42 30.7391C171.417 30.6646 171.4 30.5914 171.368 30.5237C171.337 30.4561 171.293 30.3954 171.238 30.3451C170.179 30.4097 169.09 30.4396 167.842 30.4396C165.953 30.4396 164.188 30.4097 163.258 30.3451C163.201 30.395 163.155 30.4566 163.124 30.5256C163.093 30.5946 163.077 30.6695 163.077 30.7453C163.077 30.8211 163.093 30.896 163.124 30.9651C163.155 31.0341 163.201 31.0956 163.258 31.1455L164.67 31.3046C166.659 31.5284 166.753 31.7223 166.753 34.4119V35.6946C166.809 36.3201 166.699 36.9493 166.435 37.5192C166.082 38.0611 164.894 38.4787 162.91 38.4787C156.447 38.4787 153.295 33.6363 153.295 27.4864C153.295 22.6789 156.019 18.2541 162.244 18.2541C165.515 18.2541 167.916 19.3429 168.811 22.8032C169.005 22.9971 169.582 22.9623 169.676 22.7087C169.411 21.1716 169.244 19.6188 169.179 18.0602C168.507 18.0575 167.838 17.9656 167.191 17.7868L167.22 17.7619ZM162.249 0.739114V0.704312V0.669511C162.199 0.570079 162.06 0.560137 162.005 0.560137C161.964 0.553366 161.922 0.553366 161.881 0.560137H161.846V0.589965C161.677 0.888263 161.603 0.913121 160.892 0.913121H155.373C154.776 0.913121 154.508 0.883292 154.453 0.584995V0.589965H154.428C154.376 0.549261 154.311 0.529736 154.245 0.535277C154.176 0.53473 154.108 0.54827 154.046 0.575051L154.011 0.599909V0.644653C153.892 1.31838 153.726 1.98291 153.514 2.6333V2.67308V2.71285C153.564 2.79402 153.644 2.85269 153.736 2.87675C153.829 2.9008 153.927 2.8884 154.011 2.84211C154.132 2.50633 154.329 2.20334 154.588 1.95716C154.881 1.68869 155.547 1.64892 156.164 1.64892H156.899C157.198 1.64892 157.198 1.64892 157.198 1.97208V7.93802C157.198 9.38476 157.113 9.42951 156.462 9.50408L155.965 9.54386H155.92C155.878 9.57416 155.845 9.61494 155.824 9.66207C155.803 9.70921 155.795 9.76103 155.801 9.81232C155.799 9.86066 155.81 9.90854 155.833 9.95126C155.856 9.99397 155.889 10.03 155.93 10.0559H155.955H155.98C156.795 10.0559 157.287 10.0162 157.834 10.0162C158.381 10.0162 158.789 10.0162 159.579 10.0559H159.604C159.645 10.027 159.679 9.9882 159.701 9.94306C159.724 9.89792 159.735 9.84785 159.733 9.79741C159.741 9.75058 159.736 9.70258 159.72 9.65813C159.703 9.61367 159.675 9.57429 159.639 9.54386L159.142 9.48917C158.475 9.42951 158.436 9.34499 158.436 7.92311V1.95716C158.42 1.86331 158.42 1.76763 158.436 1.67378C158.521 1.64941 158.61 1.64099 158.699 1.64892H159.723C160.241 1.60108 160.76 1.71023 161.215 1.96213C161.401 2.22734 161.504 2.54271 161.508 2.86697V2.8968C161.539 2.92915 161.577 2.95434 161.62 2.97064C161.662 2.98695 161.707 2.99398 161.752 2.99126C161.807 2.99487 161.862 2.98335 161.911 2.95794C161.96 2.93253 162.001 2.8942 162.03 2.84708V2.81725C162.011 2.14885 162.076 1.4807 162.224 0.828603L162.249 0.739114ZM150.078 7.83362V3.08075C150.078 1.61909 150.118 1.5296 150.799 1.47492L151.162 1.44508C151.201 1.41488 151.231 1.37527 151.25 1.33003C151.27 1.28479 151.277 1.2354 151.271 1.18656C151.271 1.14182 151.271 0.982723 151.142 0.928036H151.117H151.093C150.461 0.952894 149.989 0.96781 149.442 0.96781C148.895 0.96781 148.408 0.967809 147.762 0.928036H147.737C147.696 0.957279 147.662 0.996137 147.64 1.04121C147.617 1.08628 147.606 1.13619 147.607 1.18656C147.6 1.23339 147.605 1.28138 147.621 1.32584C147.638 1.37029 147.665 1.40967 147.702 1.44011V1.44011L148.06 1.46994C148.741 1.5296 148.781 1.61909 148.781 3.07578V7.82865C148.781 9.26544 148.746 9.32013 148.055 9.42454L147.687 9.46928H147.662C147.628 9.5094 147.604 9.55662 147.591 9.60741C147.578 9.6582 147.577 9.71125 147.588 9.76261C147.59 9.80418 147.602 9.84452 147.624 9.88007C147.646 9.91562 147.676 9.94529 147.712 9.96644H147.737H147.762C148.443 9.96644 148.89 9.92667 149.442 9.92667C149.994 9.92667 150.436 9.92667 151.093 9.96644H151.117H151.142C151.183 9.9372 151.217 9.89834 151.239 9.85327C151.262 9.8082 151.273 9.75829 151.271 9.70792C151.279 9.66109 151.274 9.61309 151.258 9.56864C151.241 9.52418 151.213 9.4848 151.177 9.45437L150.799 9.39968C150.113 9.31516 150.078 9.24059 150.078 7.80379V7.83362ZM147.384 38.1605C146.007 38.0014 145.589 37.5192 144.659 34.7649L140.269 21.8685C139.772 20.4566 139.275 18.985 138.857 17.573C138.82 17.4754 138.75 17.3935 138.66 17.341C138.569 17.2885 138.464 17.2686 138.36 17.2847C137.937 17.8456 137.358 18.2692 136.695 18.5027C136.789 18.9999 136.6 19.6213 136.148 20.7797L132.876 29.4353C131.529 33.0248 130.634 35.1079 130.058 36.5845C129.61 37.7379 128.904 38.076 128.134 38.1555L127.075 38.25C126.99 38.3698 126.95 38.5156 126.962 38.6619C126.974 38.8082 127.036 38.9457 127.139 39.0504C128.004 39.0206 129.158 38.956 130.217 38.956C131.708 38.9858 132.702 38.9858 133.553 39.0504C133.619 39.0095 133.675 38.9534 133.716 38.8867C133.757 38.82 133.782 38.7446 133.788 38.6666C133.795 38.5886 133.782 38.5102 133.753 38.4378C133.723 38.3654 133.677 38.3011 133.617 38.25L132.558 38.1555C131.788 38.0909 131.629 37.897 131.629 37.5142C131.763 36.6037 131.999 35.7114 132.335 34.8544L133.458 31.4886C133.682 30.8174 133.876 30.718 134.676 30.718H139.514C140.473 30.718 140.602 30.8124 140.826 31.5184L142.233 35.8785C142.448 36.4239 142.589 36.9958 142.651 37.5788C142.651 37.902 142.203 38.076 141.532 38.1555L140.602 38.25C140.55 38.3048 140.51 38.3701 140.484 38.4415C140.459 38.513 140.449 38.5891 140.455 38.6647C140.461 38.7404 140.483 38.8138 140.52 38.8803C140.556 38.9468 140.606 39.0048 140.667 39.0504C141.597 39.0206 142.815 38.956 144.351 38.956C145.793 38.956 146.916 38.9858 148.229 39.0504C148.321 38.9376 148.372 38.7961 148.372 38.6502C148.372 38.5043 148.321 38.3629 148.229 38.25L147.364 38.1456L147.384 38.1605ZM139.116 29.4452H135.173C134.274 29.4452 134.244 29.4154 134.502 28.6746L136.521 23.0617C136.743 22.4183 137 21.7877 137.291 21.1725H137.351C137.632 21.8317 137.878 22.5055 138.087 23.191L139.837 28.436C140.125 29.3011 140.06 29.4303 139.136 29.4303L139.116 29.4452ZM140.921 2.74765C140.921 2.25049 141.114 1.36554 142.412 1.36554C143.59 1.36554 143.948 2.13117 144.132 2.79737V2.83714C144.159 2.86422 144.19 2.88534 144.226 2.89907C144.261 2.91279 144.298 2.9188 144.336 2.91668C144.392 2.91903 144.447 2.9086 144.498 2.88619C144.549 2.86378 144.594 2.82999 144.629 2.78742V2.75759C144.626 2.19382 144.544 1.63329 144.386 1.0921V1.02747H144.311C144.161 1.02111 144.013 0.996062 143.869 0.952893C143.455 0.842837 143.029 0.782749 142.601 0.773915C140.911 0.773915 139.772 1.73841 139.772 3.17521C139.806 3.66413 139.96 4.13718 140.22 4.55253C140.48 4.96788 140.839 5.31274 141.264 5.55662L142.531 6.38687C142.856 6.55046 143.127 6.80266 143.313 7.1142C143.5 7.42573 143.594 7.78381 143.585 8.14683C143.588 8.34716 143.548 8.54575 143.468 8.72958C143.389 8.9134 143.271 9.07831 143.123 9.2135C142.975 9.34869 142.8 9.45111 142.61 9.51404C142.42 9.57696 142.219 9.59899 142.019 9.57866C140.667 9.57866 140.075 8.53461 139.822 7.66458V7.63475C139.798 7.60348 139.767 7.57851 139.732 7.56203C139.696 7.54556 139.657 7.53809 139.618 7.54029C139.566 7.53703 139.515 7.54513 139.467 7.56403C139.419 7.58293 139.375 7.61216 139.34 7.64967V7.6795V7.7143C139.364 8.36775 139.49 9.01342 139.712 9.62837V9.65323H139.737C140.393 10.0015 141.128 10.1729 141.87 10.1504C143.63 10.1504 144.818 9.11629 144.818 7.57509C144.818 6.50619 144.257 5.64113 143.103 4.92522L142.034 4.25902C141.627 4.00547 140.945 3.46853 140.945 2.7029L140.921 2.74765ZM137.555 10.036C137.585 10.012 137.608 9.98057 137.622 9.94479C137.636 9.909 137.64 9.87018 137.634 9.83221C137.63 9.79755 137.617 9.7646 137.596 9.73668C137.575 9.70875 137.547 9.68683 137.515 9.67312H137.485C137.168 9.6489 136.866 9.52736 136.62 9.3251C135.7 8.5545 134.97 7.42594 133.955 5.79525C133.914 5.7412 133.887 5.67811 133.876 5.6113C134.356 5.43735 134.773 5.12472 135.075 4.71311C135.377 4.30149 135.549 3.80947 135.571 3.2995C135.589 2.89518 135.488 2.49444 135.282 2.14646C135.075 1.79849 134.771 1.51844 134.408 1.34068C133.693 1.02245 132.912 0.880921 132.131 0.928036C130.908 0.928036 129.958 0.962837 129.148 1.03244H129.113C129.072 1.05543 129.038 1.08854 129.013 1.12859C128.989 1.16863 128.975 1.21428 128.974 1.26114C128.967 1.31298 128.974 1.36561 128.993 1.41424C129.012 1.46287 129.043 1.50594 129.083 1.53954V1.53954L129.536 1.59423C129.973 1.64892 130.033 1.74338 130.033 3.05589V7.8535C130.033 9.26544 129.998 9.34499 129.322 9.41956L128.949 9.46431L128.924 9.49414C128.892 9.53678 128.869 9.58609 128.858 9.63852C128.847 9.69096 128.847 9.74522 128.859 9.79741C128.865 9.83615 128.879 9.8732 128.9 9.90588C128.922 9.93856 128.95 9.96604 128.984 9.98633H129.009H129.033C129.625 9.98633 130.112 9.94656 130.699 9.94656C131.286 9.94656 131.693 9.94655 132.285 9.98633H132.31H132.335C132.373 9.96117 132.404 9.92732 132.427 9.88756C132.449 9.8478 132.462 9.80327 132.464 9.75763C132.473 9.70862 132.471 9.65802 132.456 9.61032C132.441 9.56262 132.415 9.51929 132.379 9.48419V9.48419L132.071 9.43945C131.385 9.34499 131.36 9.28533 131.36 7.87339V6.15818C131.36 5.96926 131.36 5.96926 131.887 5.96926C132.414 5.96926 132.573 6.09355 132.752 6.35207C132.931 6.6106 133.19 7.01827 133.418 7.3812C133.647 7.74413 133.881 8.117 134.06 8.37552C134.975 9.68306 135.671 10.1007 136.908 10.1007C137.118 10.1068 137.327 10.0834 137.53 10.0311H137.555V10.036ZM133.528 5.06442C133.136 5.31038 132.677 5.4253 132.215 5.39255C131.933 5.40578 131.65 5.39247 131.37 5.35278C131.36 5.23034 131.36 5.10731 131.37 4.98488V1.84779C131.37 1.54949 131.37 1.52463 132.136 1.52463C132.402 1.50085 132.67 1.53443 132.922 1.62309C133.174 1.71176 133.405 1.85346 133.597 2.03863C133.79 2.2238 133.941 2.44814 134.039 2.69652C134.138 2.9449 134.182 3.21155 134.169 3.47848C134.2 3.77226 134.159 4.06916 134.05 4.34368C133.941 4.6182 133.767 4.86212 133.543 5.05448L133.528 5.06442ZM126.627 8.07723V8.0474V8.01757C126.605 7.97443 126.574 7.9364 126.536 7.90591C126.499 7.87542 126.455 7.85314 126.408 7.8405C126.361 7.82786 126.313 7.82515 126.265 7.83252C126.217 7.8399 126.171 7.8572 126.13 7.88333L126.1 7.92311C125.902 8.39674 125.592 8.81487 125.195 9.14115C124.66 9.32354 124.092 9.38799 123.53 9.33008C122.416 9.33008 122.133 9.19584 121.989 9.05664C121.844 8.91743 121.76 8.42027 121.76 7.73916V5.8748C121.76 5.61627 121.76 5.61627 122.098 5.61627H122.874C123.206 5.60073 123.54 5.62241 123.868 5.68091C124.052 5.72565 124.146 5.84994 124.206 6.11344L124.325 6.63546V6.6802C124.358 6.71268 124.397 6.7379 124.439 6.75419C124.482 6.77047 124.528 6.77745 124.574 6.77466C124.625 6.7803 124.677 6.77167 124.723 6.74973C124.77 6.72779 124.809 6.6934 124.837 6.65037V6.62551V6.59568C124.837 6.46642 124.837 6.29242 124.837 6.09852C124.837 5.90463 124.808 5.60136 124.808 5.313C124.808 5.02465 124.808 4.74624 124.837 4.49766C124.867 4.24908 124.837 4.10987 124.837 3.9657V3.94084C124.808 3.89819 124.767 3.86421 124.72 3.84237C124.673 3.82053 124.621 3.81162 124.569 3.81655C124.523 3.81376 124.477 3.82074 124.434 3.83702C124.392 3.85331 124.353 3.87853 124.32 3.91101L124.191 4.50263C124.131 4.8059 124.057 4.85562 123.938 4.89042C123.574 4.95701 123.203 4.98203 122.834 4.96499H122.088C121.75 4.96499 121.75 4.96499 121.75 4.69155V1.99693C121.75 1.5644 121.75 1.5644 122.048 1.5644H123.008C123.434 1.5483 123.86 1.57495 124.281 1.64395C124.887 1.79807 125.011 2.18088 125.195 2.76256L125.22 2.84211V2.87691C125.248 2.90606 125.282 2.92873 125.32 2.94333C125.358 2.95792 125.399 2.9641 125.439 2.96143C125.491 2.96418 125.544 2.95485 125.592 2.93416C125.64 2.91348 125.683 2.88198 125.717 2.84211V2.81228V2.61839C125.687 2.0675 125.619 1.51934 125.514 0.977753L125.484 0.888264H125.394C125.245 0.923065 124.4 0.923065 123.614 0.923065H121.104C120.607 0.923065 120.149 0.923064 119.533 0.883291H119.508C119.398 0.937979 119.379 1.0921 119.374 1.14182C119.364 1.18868 119.368 1.23718 119.385 1.28194C119.402 1.32669 119.43 1.36595 119.468 1.39537L119.727 1.44011C120.413 1.51966 120.452 1.60915 120.452 3.02109V7.82865C120.452 9.27539 120.368 9.32013 119.717 9.3947L119.219 9.43945L119.195 9.46431C119.161 9.50368 119.137 9.55005 119.124 9.59997C119.111 9.64989 119.11 9.70209 119.12 9.75266C119.123 9.79469 119.136 9.83541 119.158 9.87163C119.179 9.90786 119.209 9.9386 119.244 9.96147H119.269C120.04 9.96147 120.507 9.9217 121.084 9.9217H122.287C123.45 9.9217 124.624 9.9217 125.867 9.96147H125.931L125.961 9.90181C126.231 9.29928 126.441 8.67144 126.587 8.02751L126.627 8.07723ZM117.464 1.41525C117.497 1.3752 117.52 1.32879 117.533 1.27908C117.546 1.22937 117.548 1.17751 117.539 1.1269C117.536 1.08539 117.524 1.04508 117.503 1.00895C117.482 0.972813 117.454 0.941765 117.42 0.918092H117.395H117.365C116.918 0.918092 116.51 0.957866 116.077 0.957866C115.55 0.957866 115.048 0.957865 114.695 0.918092H114.665H114.641C114.601 0.944261 114.568 0.979582 114.544 1.0211C114.521 1.06262 114.508 1.10912 114.506 1.15673C114.5 1.20456 114.505 1.25313 114.521 1.29878C114.536 1.34443 114.562 1.38595 114.596 1.42023H114.621L114.889 1.45006C115.357 1.50474 115.386 1.59921 115.386 1.59921C115.38 1.77073 115.342 1.93952 115.272 2.09637C115.043 2.67805 114.407 4.20931 114.029 5.07934L113.666 5.92949C113.413 6.53105 113.104 7.26188 112.841 7.83362C112.209 6.3819 111.628 4.92522 111.036 3.4387C110.782 2.84208 110.563 2.2312 110.38 1.60915C110.38 1.56937 110.514 1.50972 110.917 1.45503L111.146 1.4252H111.17C111.203 1.39123 111.228 1.35071 111.244 1.30631C111.26 1.26192 111.266 1.21466 111.262 1.16767C111.259 1.12067 111.245 1.07501 111.222 1.0337C111.2 0.992392 111.168 0.956376 111.131 0.928036H111.106H111.076C110.484 0.957865 110.017 0.96781 109.465 0.96781C108.913 0.96781 108.471 0.967809 108.083 0.928036H108.048H108.018C107.979 0.954205 107.946 0.989526 107.922 1.03104C107.899 1.07256 107.886 1.11907 107.884 1.16667C107.879 1.21411 107.885 1.26206 107.901 1.30687C107.918 1.35167 107.944 1.39214 107.979 1.4252H108.003L108.277 1.45503C108.774 1.51469 108.973 1.75332 109.271 2.48912L111.648 8.29598C111.887 8.87151 112.091 9.46088 112.259 10.0609V10.1106H112.309C112.385 10.1414 112.466 10.1582 112.548 10.1603C112.619 10.1613 112.69 10.1424 112.751 10.1056H112.781V10.0708C113.01 9.35493 113.651 7.77893 114.168 6.59071L114.889 4.95008C115.332 3.90522 115.83 2.8846 116.381 1.89253C116.437 1.77539 116.523 1.67513 116.63 1.60183C116.738 1.52853 116.863 1.48476 116.992 1.47492L117.43 1.44508V1.41028L117.464 1.41525ZM108.749 20.0041C107.471 21.0159 106.442 22.3077 105.742 23.78C105.042 25.2523 104.69 26.8656 104.712 28.4957C104.671 30.2284 105.066 31.9438 105.861 33.484C106.656 35.0243 107.825 36.34 109.261 37.3104C111.603 38.8814 114.357 39.4581 117.241 39.4581C118.955 39.4421 120.659 39.1946 122.307 38.7223C122.671 38.582 123.047 38.4755 123.43 38.4041C123.928 37.7976 124.743 35.6797 124.967 34.0142C124.864 33.9013 124.725 33.827 124.574 33.8035C124.423 33.78 124.269 33.8087 124.136 33.8849C123.658 35.2608 122.753 36.4481 121.553 37.2735C120.353 38.0989 118.92 38.5195 117.464 38.4737C112.209 38.4737 107.944 34.7549 107.944 28.0333C107.944 21.4012 112.11 18.2889 117.012 18.2889C121.661 18.2889 123.102 20.7747 123.585 22.9672C123.713 23.0596 123.871 23.1037 124.029 23.0919C124.187 23.0801 124.336 23.0131 124.45 22.9026C124.196 20.9488 124.032 18.9253 124.002 18.1895C123.698 18.2064 123.394 18.1625 123.107 18.0602C121.253 17.5842 119.349 17.3256 117.435 17.2896C114.094 17.2896 111.111 18.1945 108.774 20.0191L108.749 20.0041ZM104.648 7.83362V3.08075C104.648 1.63401 104.692 1.5296 105.369 1.47492L105.726 1.44508C105.762 1.41377 105.789 1.37428 105.805 1.33008C105.822 1.28587 105.827 1.2383 105.821 1.19153C105.821 1.14679 105.821 0.987696 105.692 0.933008H105.667H105.642C105.011 0.957866 104.538 0.97278 103.991 0.97278C103.445 0.97278 102.957 0.972781 102.311 0.933008H102.286C102.177 0.987696 102.157 1.14181 102.152 1.19153C102.144 1.23836 102.149 1.28636 102.166 1.33081C102.182 1.37527 102.21 1.41465 102.246 1.44508V1.44508L102.604 1.47492C103.28 1.53457 103.325 1.63898 103.325 3.08075V7.83362C103.325 9.27041 103.29 9.3251 102.599 9.42951L102.231 9.47425C102.198 9.51437 102.173 9.56159 102.161 9.61238C102.148 9.66317 102.146 9.71623 102.157 9.76758C102.159 9.80915 102.172 9.84949 102.194 9.88504C102.215 9.92059 102.245 9.95025 102.281 9.97141H102.306C102.982 9.97141 103.43 9.93164 103.986 9.93164C104.543 9.93164 104.981 9.93164 105.637 9.97141H105.662C105.771 9.91672 105.791 9.75763 105.796 9.71289C105.804 9.66606 105.799 9.61806 105.782 9.57361C105.766 9.52916 105.738 9.48977 105.702 9.45934L105.324 9.40465C104.643 9.32013 104.608 9.24556 104.608 7.80876L104.648 7.83362ZM97.9459 34.0738V22.6689C97.9459 19.2733 98.0105 18.7264 99.8997 18.5673L100.7 18.5027C100.894 18.3735 100.829 17.7967 100.636 17.7023C99.0347 17.7669 97.9459 17.7967 96.6582 17.7967C95.3706 17.7967 94.2222 17.7619 92.6213 17.7023C92.4274 17.7967 92.3628 18.3735 92.5567 18.5027L93.3571 18.5673C95.2463 18.7264 95.3109 19.2733 95.3109 22.6689V34.1037C95.3109 37.4993 95.2463 37.9517 93.3571 38.1754L92.5567 38.2699C92.47 38.389 92.4289 38.5352 92.4408 38.6821C92.4526 38.8289 92.5167 38.9666 92.6213 39.0703C94.2222 39.0057 95.3159 38.9758 96.6582 38.9758C98.0006 38.9758 99.0297 39.0057 100.636 39.0703C100.829 38.9758 100.894 38.3991 100.7 38.2699L99.8997 38.1754C98.0105 37.9467 97.9459 37.4993 97.9459 34.0987V34.0738ZM99.6014 1.41525C99.6344 1.37845 99.659 1.33496 99.6736 1.28777C99.6882 1.24058 99.6924 1.19079 99.686 1.14182C99.6822 1.09799 99.6686 1.05558 99.6462 1.01772C99.6239 0.979851 99.5933 0.947503 99.5567 0.923065H99.5269H99.4921C99.0546 0.923065 98.7066 0.962837 98.1249 0.962837C97.6526 0.962837 97.2151 0.962838 96.5538 0.923065H96.5141C96.4733 0.939309 96.4379 0.966461 96.4116 1.00154C96.3852 1.03662 96.3691 1.07828 96.3649 1.12193C96.354 1.17672 96.3564 1.23333 96.372 1.28698C96.3876 1.34063 96.4159 1.38975 96.4544 1.43017V1.43017L96.7129 1.46C97.1703 1.51966 97.404 1.58429 97.4686 1.67875C97.6277 1.9323 97.7222 2.91668 97.7222 4.38828V7.25194C97.7222 7.3812 97.7222 7.53035 97.7222 7.63475C97.2598 7.13759 96.7726 6.64043 96.171 5.93943L94.3116 3.85632C92.9892 2.36483 92.2335 1.40034 92.0645 0.96781L92.0346 0.893234H91.9551C91.7558 0.921072 91.5547 0.934366 91.3535 0.933008C91.1199 0.933008 90.4089 0.933007 89.862 0.893234H89.8322H89.8074C89.7711 0.913701 89.7401 0.942323 89.7168 0.976837C89.6935 1.01135 89.6785 1.05081 89.6731 1.0921C89.6636 1.14461 89.6658 1.19857 89.6796 1.25013C89.6933 1.30169 89.7183 1.34958 89.7527 1.3904V1.3904L90.0162 1.42023C90.2954 1.43334 90.5633 1.53425 90.7818 1.70858C90.8872 1.82935 90.9656 1.97117 91.0119 2.12462C91.0582 2.27806 91.0713 2.43961 91.0503 2.5985V6.5758C91.0845 7.44254 91.0295 8.31051 90.8862 9.16601C90.8564 9.23561 90.742 9.3251 90.389 9.37482L89.9913 9.41956H89.9664C89.9354 9.45341 89.9122 9.49367 89.8985 9.53749C89.8847 9.5813 89.8808 9.62761 89.8869 9.67312C89.8899 9.71811 89.9021 9.76203 89.9226 9.80219C89.9431 9.84236 89.9715 9.87794 90.0062 9.90678H90.036H90.0708C90.5332 9.90678 90.8912 9.86701 91.453 9.86701C91.9054 9.86701 92.3578 9.86701 93.0091 9.90678H93.0439H93.0737C93.1061 9.88349 93.1333 9.85383 93.1539 9.81964C93.1744 9.78545 93.1877 9.74743 93.193 9.70792C93.2007 9.65921 93.1984 9.60947 93.1865 9.56165C93.1745 9.51382 93.1531 9.46888 93.1234 9.42951L93.0986 9.3947L92.6362 9.34996C92.318 9.34996 92.0943 9.25053 92.0346 9.14612C91.8905 8.89257 91.8059 7.90322 91.8059 6.43162V3.5978C91.8022 3.37202 91.8122 3.14623 91.8358 2.92166C92.0496 3.16029 92.4025 3.57791 92.7207 3.95078C92.9395 4.20931 93.1383 4.44794 93.2726 4.59709L96.3898 8.14683C97.4189 9.32013 97.9111 9.90181 98.0901 10.1355L98.1199 10.1802H98.1746C98.2492 10.1874 98.3242 10.1698 98.3879 10.1303C98.4517 10.0908 98.5007 10.0315 98.5276 9.96147V9.9217C98.5276 9.76758 98.4878 9.23561 98.4878 7.59498V4.21925C98.4878 3.53316 98.4878 2.11128 98.6767 1.69367C98.6767 1.65886 98.8557 1.54452 99.3479 1.46994L99.5666 1.44011H99.6014V1.41525ZM87.6298 1.41525C87.6608 1.37663 87.6831 1.33174 87.6951 1.28368C87.7071 1.23562 87.7086 1.18552 87.6994 1.13684C87.694 1.09743 87.6801 1.05966 87.6587 1.02617C87.6372 0.992685 87.6087 0.964283 87.5751 0.94295H87.5453H87.5105C87.0481 0.967808 86.6852 0.982724 86.1134 0.982724C85.5417 0.982724 85.1191 0.982723 84.5971 0.94295H84.5623H84.5325C84.4998 0.968177 84.4724 0.999613 84.452 1.03545C84.4315 1.07128 84.4183 1.11081 84.4131 1.15176C84.4045 1.19809 84.4063 1.24577 84.4183 1.29134C84.4303 1.3369 84.4524 1.37923 84.4828 1.41525L84.5126 1.45006L84.8904 1.47989C85.1987 1.47989 85.3876 1.58926 85.4771 1.70858C85.6312 1.98202 85.7207 2.94651 85.7207 4.42308V5.95932C85.7207 7.53532 85.2732 9.40962 83.1504 9.40962C81.3705 9.40962 80.5403 8.31089 80.5403 5.92949V3.04595C80.5403 1.62406 80.585 1.52463 81.2462 1.46497L81.5942 1.43514C81.6295 1.40487 81.6566 1.36627 81.6731 1.32286C81.6896 1.27944 81.6949 1.23259 81.6887 1.18656C81.6891 1.13702 81.6776 1.08811 81.6551 1.04397C81.6326 0.999835 81.5998 0.961773 81.5594 0.933008V0.933008H81.5346C80.9032 0.957866 80.4508 0.97278 79.8989 0.97278C79.3471 0.97278 78.8797 0.972781 78.2483 0.933008H78.2235H78.1986C78.1581 0.960742 78.1247 0.997772 78.1013 1.04101C78.078 1.08426 78.0653 1.13245 78.0644 1.18159C78.0556 1.22771 78.0597 1.27537 78.0764 1.31926C78.0931 1.36315 78.1216 1.40154 78.1588 1.43017L78.5168 1.46C79.178 1.51966 79.2228 1.61909 79.2228 3.04097V6.19298C79.2228 7.80876 79.5559 8.80308 80.3016 9.42454C81.0388 9.97561 81.9485 10.2454 82.867 10.1852C83.3487 10.2026 83.829 10.1236 84.2798 9.95288C84.7306 9.78213 85.1427 9.52306 85.492 9.19087C86.1383 8.49484 86.4565 7.43092 86.4565 5.92949V4.438C86.4565 3.76186 86.4565 2.17591 86.6355 1.7583C86.7049 1.67176 86.7937 1.6028 86.8948 1.55702C86.9959 1.51124 87.1063 1.48992 87.2171 1.4948L87.5801 1.46497L87.6099 1.43017L87.6298 1.41525ZM72.2774 18.5027C72.4713 18.3735 72.4067 17.7967 72.2128 17.7023C70.8356 17.7669 69.727 17.7967 68.494 17.7967C67.1169 17.7967 66.0082 17.7321 64.4571 17.7023C64.2632 17.7967 64.1985 18.3735 64.3924 18.5027L65.2277 18.5673C66.8932 18.6966 67.1169 19.2385 67.1169 22.6043V34.1434C67.1169 37.5092 67.0522 37.8274 65.2575 38.1506L64.7156 38.245C64.6289 38.3642 64.5878 38.5104 64.5997 38.6572C64.6116 38.804 64.6756 38.9418 64.7802 39.0454C66.0281 39.0156 67.1218 38.951 68.499 38.951C69.7469 38.951 70.8406 38.9808 72.5707 39.0454C72.7646 38.951 72.8293 38.3743 72.6354 38.245L71.7057 38.1506C69.9109 37.9567 69.7518 37.5092 69.7518 34.1434V29.6242C69.7518 28.6647 69.8165 28.6001 71.3527 28.6001H80.5204C82.0566 28.6001 82.1212 28.6647 82.1212 29.6242V34.1434C82.1212 37.5092 82.1212 37.8274 80.1674 38.1506L79.5608 38.245C79.4742 38.3642 79.4331 38.5104 79.445 38.6572C79.4568 38.804 79.5208 38.9418 79.6255 39.0454C81.0374 38.9808 82.1908 38.951 83.5033 38.951C84.8158 38.951 85.845 38.9808 87.3812 39.0454C87.5751 38.951 87.6397 38.3743 87.4458 38.245L86.6752 38.1506C84.8159 37.9268 84.7512 37.5092 84.7512 34.1434V22.6043C84.7512 19.2385 84.8159 18.7563 86.6752 18.5673L87.3464 18.5027C87.5403 18.3735 87.4757 17.7967 87.2818 17.7023C85.84 17.7669 84.7512 17.7967 83.4984 17.7967C82.2455 17.7967 81.0971 17.7619 79.6205 17.7023C79.4266 17.7967 79.362 18.3735 79.5559 18.5027L80.1773 18.5872C82.0665 18.7811 82.1312 19.2584 82.1312 22.6242V26.3082C82.1312 27.3025 82.0665 27.3323 80.5303 27.3323H71.3477C69.8115 27.3323 69.7469 27.3025 69.7469 26.3082V22.6043C69.7469 19.2385 69.8115 18.7563 71.6709 18.5673L72.2774 18.5027ZM70.9848 8.06231V8.03248V8.00265C70.9627 7.95952 70.9318 7.92149 70.8941 7.891C70.8564 7.8605 70.8127 7.83822 70.7659 7.82559C70.7191 7.81295 70.6702 7.81023 70.6222 7.81761C70.5743 7.82498 70.5285 7.84229 70.4876 7.86842L70.4528 7.90819C70.2563 8.38552 69.9477 8.80845 69.553 9.14115C69.0179 9.32354 68.4498 9.38799 67.8875 9.33008C66.7738 9.33008 66.4905 9.19584 66.3463 9.05664C66.2021 8.91743 66.1176 8.42027 66.1176 7.73916V5.8748C66.1176 5.61627 66.1176 5.61627 66.4556 5.61627H67.2511C67.5839 5.60073 67.9174 5.62241 68.2454 5.68091C68.4294 5.72565 68.5288 5.84994 68.5835 6.11344L68.6929 6.65534V6.70009C68.7252 6.73257 68.7641 6.75779 68.807 6.77407C68.8499 6.79036 68.8957 6.79734 68.9415 6.79455C68.9995 6.80529 69.0594 6.79765 69.1129 6.7727C69.1664 6.74774 69.2107 6.70672 69.2398 6.65534V6.63049V6.60065C69.2398 6.47139 69.2398 6.29739 69.2398 6.10349C69.2398 5.9096 69.2099 5.60633 69.2099 5.31798C69.2099 5.02962 69.2099 4.75121 69.2398 4.50263C69.2696 4.25405 69.2398 4.11484 69.2398 3.97067V3.94581C69.21 3.90316 69.1695 3.86918 69.1223 3.84734C69.0752 3.8255 69.023 3.81659 68.9713 3.82152C68.9255 3.81873 68.8797 3.82571 68.8368 3.842C68.794 3.85828 68.7551 3.8835 68.7227 3.91598L68.5934 4.5076C68.5338 4.81087 68.4592 4.86059 68.3399 4.89539C67.976 4.96224 67.6057 4.98726 67.2362 4.96996H66.4606C66.1226 4.96996 66.1226 4.96996 66.1226 4.69653V1.99693C66.1226 1.5644 66.1226 1.5644 66.4209 1.5644H67.3804C67.8062 1.5483 68.2326 1.57495 68.6531 1.64395C69.2646 1.79807 69.3839 2.18088 69.5679 2.76256L69.5927 2.84211V2.87691C69.6209 2.90606 69.655 2.92873 69.6928 2.94333C69.7306 2.95792 69.7711 2.9641 69.8115 2.96143C69.864 2.96456 69.9165 2.95541 69.9648 2.9347C70.0131 2.91398 70.056 2.88228 70.0899 2.84211V2.81228V2.61341C70.0595 2.06252 69.9914 1.51436 69.8861 0.97278L69.8562 0.883291H69.7668C69.6176 0.918092 68.7724 0.918092 67.9869 0.918092H65.4762C64.9791 0.918092 64.5217 0.918093 63.9052 0.87832H63.8804C63.839 0.907252 63.8055 0.946048 63.7829 0.991192C63.7604 1.03634 63.7494 1.0864 63.7511 1.13684C63.7419 1.18371 63.7458 1.23221 63.7625 1.27697C63.7792 1.32172 63.8079 1.36098 63.8455 1.3904L64.1041 1.43514C64.7902 1.51469 64.8299 1.60418 64.8299 3.01612V7.82367C64.8299 9.27041 64.7454 9.31516 64.0941 9.38973L63.597 9.43448V9.45934C63.5633 9.49946 63.539 9.54668 63.5261 9.59747C63.5132 9.64826 63.5119 9.70131 63.5224 9.75266C63.5248 9.79423 63.5374 9.83457 63.5591 9.87012C63.5807 9.90567 63.6108 9.93534 63.6467 9.9565H63.6715C64.4421 9.9565 64.9095 9.91672 65.4862 9.91672H66.6893C67.8527 9.91672 69.026 9.91673 70.2639 9.9565H70.3285L70.3584 9.89684C70.624 9.29471 70.8321 8.66881 70.9798 8.02751L70.9848 8.06231ZM59.8235 7.8535V3.05092C59.8235 1.62903 59.8633 1.55943 60.5295 1.46994H60.8079H60.8526C60.8886 1.4392 60.9162 1.39978 60.9327 1.35541C60.9493 1.31105 60.9542 1.2632 60.9471 1.21639C60.9471 1.17165 60.9471 1.01255 60.8178 0.957866H60.793C60.1467 0.987696 59.7042 0.997638 59.2219 0.997638C58.6452 0.997638 58.1779 0.997639 57.6111 0.957866H57.5863C57.5449 0.986798 57.5114 1.02559 57.4889 1.07074C57.4663 1.11588 57.4554 1.16595 57.457 1.21639C57.4484 1.26325 57.4526 1.31157 57.4692 1.35622C57.4859 1.40087 57.5143 1.44017 57.5515 1.46994L57.8498 1.51469C58.5309 1.58429 58.5707 1.67378 58.5707 3.09566V4.63189C58.5707 4.95505 58.5707 4.95505 58.0039 4.95505H54.1857C53.6189 4.95505 53.6189 4.95505 53.6189 4.63189V3.05589C53.6189 1.63401 53.6587 1.5644 54.3299 1.47492H54.5834H54.6282C54.6635 1.4436 54.6905 1.40411 54.707 1.35991C54.7235 1.3157 54.7288 1.26813 54.7226 1.22136C54.7226 1.17662 54.7226 1.01752 54.5884 0.962837H54.5635C53.957 0.992667 53.5096 1.00261 53.0174 1.00261C52.6693 1.00261 52.3661 1.00261 52.023 1.00261H51.327H51.3022C51.1928 1.0573 51.1729 1.21142 51.1679 1.26114C51.1587 1.308 51.1627 1.3565 51.1793 1.40126C51.196 1.44601 51.2247 1.48527 51.2624 1.51469H51.2872L51.6601 1.54452C52.2468 1.58926 52.3512 1.70858 52.3512 3.12549V7.93305C52.3512 9.3251 52.3263 9.37979 51.6601 9.49911L51.4016 9.54386C51.3679 9.58398 51.3437 9.63119 51.3307 9.68198C51.3178 9.73278 51.3166 9.78583 51.327 9.83718C51.3294 9.87875 51.342 9.91909 51.3637 9.95464C51.3853 9.99019 51.4154 10.0199 51.4513 10.041H51.4762H52.0081C52.3263 10.041 52.6495 10.041 53.0024 10.041C53.4996 10.041 53.9321 10.041 54.6978 10.0808H54.7226C54.764 10.0519 54.7975 10.0131 54.82 9.96792C54.8426 9.92277 54.8536 9.87271 54.8519 9.82227C54.8586 9.77622 54.8534 9.72922 54.8369 9.68572C54.8204 9.64222 54.793 9.60366 54.7574 9.57368L54.3249 9.519C53.6836 9.44939 53.604 9.38476 53.604 7.95294V5.98915C53.604 5.66599 53.604 5.66599 54.1708 5.66599H57.989C58.5557 5.66599 58.5557 5.66599 58.5557 5.98915V7.87339C58.5557 9.29527 58.5557 9.3251 57.8299 9.43945L57.5415 9.48419V9.50905C57.5078 9.54918 57.4836 9.59639 57.4707 9.64718C57.4578 9.69797 57.4565 9.75103 57.467 9.80238C57.4706 9.84364 57.4836 9.88351 57.5052 9.91887C57.5268 9.95423 57.5562 9.98413 57.5913 10.0062H57.6161C58.2574 9.97638 58.7198 9.96644 59.2269 9.96644C59.734 9.96644 60.2212 9.96644 60.8377 10.0062H60.8626C60.972 9.95153 60.9918 9.79741 60.9968 9.74769C61.0055 9.70084 61.0012 9.65251 60.9846 9.60786C60.968 9.56322 60.9395 9.52391 60.9024 9.49414L60.5394 9.43945C59.8683 9.34499 59.8384 9.27041 59.8384 7.85847L59.8235 7.8535ZM48.8561 0.739114V0.699342V0.66454C48.8064 0.565108 48.6572 0.555164 48.6125 0.555164C48.5714 0.548394 48.5294 0.548394 48.4882 0.555164H48.4534V0.584995C48.2794 0.883292 48.2098 0.908149 47.4989 0.908149H41.9804C41.3838 0.908149 41.1153 0.878319 41.0606 0.580022V0.550193C41.0083 0.509489 40.9427 0.489964 40.8767 0.495505C40.8077 0.49417 40.7395 0.509521 40.6778 0.54025L40.643 0.565108V0.609852C40.5242 1.28358 40.358 1.94811 40.1458 2.5985V2.63827V2.67805C40.1963 2.75922 40.2761 2.81789 40.3686 2.84195C40.4611 2.866 40.5594 2.8536 40.643 2.80731V2.80731C40.7639 2.47153 40.9613 2.16853 41.2197 1.92236C41.513 1.65389 42.1792 1.61412 42.7907 1.61412H43.5265C43.8248 1.61412 43.8248 1.61412 43.8248 1.93727V7.90322C43.8248 9.34996 43.7403 9.39471 43.089 9.46928L42.5919 9.50905H42.5471C42.5054 9.53936 42.4724 9.58014 42.4514 9.62727C42.4305 9.67441 42.4223 9.72623 42.4278 9.77752C42.4263 9.82531 42.4369 9.87272 42.4586 9.91531C42.4804 9.9579 42.5125 9.99431 42.5521 10.0211H42.577C43.3923 10.0211 43.8895 9.98136 44.4314 9.98136C44.9733 9.98136 45.3859 9.98136 46.1764 10.0211H46.2013C46.2426 9.9922 46.2761 9.9534 46.2987 9.90826C46.3213 9.86311 46.3322 9.81305 46.3305 9.76261C46.3388 9.7165 46.3343 9.66902 46.3177 9.62524C46.3011 9.58146 46.2729 9.54302 46.2361 9.51402L45.7389 9.45934C45.0727 9.39968 45.0329 9.31516 45.0329 7.89328V1.92733C45.0182 1.83178 45.0182 1.73453 45.0329 1.63898C45.1185 1.61461 45.2078 1.60619 45.2964 1.61412H46.246C46.7634 1.56628 47.2831 1.67543 47.7375 1.92733C47.9241 2.19254 48.0264 2.50791 48.0308 2.83217V2.862C48.0622 2.89435 48.1003 2.91954 48.1423 2.93584C48.1844 2.95215 48.2294 2.95918 48.2744 2.95646C48.329 2.96086 48.3837 2.94964 48.4321 2.9241C48.4805 2.89857 48.5207 2.85979 48.5479 2.81228V2.81228V2.78245C48.5417 2.11379 48.6118 1.4466 48.7567 0.793802L48.8561 0.739114ZM39.763 28.5006C39.7218 30.2334 40.1168 31.9488 40.9117 33.489C41.7065 35.0293 42.8758 36.345 44.3121 37.3153C46.6537 38.8864 49.408 39.4631 52.2666 39.4631C53.9792 39.4477 55.6817 39.2001 57.3278 38.7273C57.6917 38.5869 58.0678 38.4804 58.4513 38.4091C58.9485 37.8025 59.7639 35.6846 59.9876 34.0191C59.8837 33.9059 59.7445 33.8314 59.5926 33.8079C59.4408 33.7844 59.2855 33.8133 59.1523 33.8899C58.6726 35.2674 57.7649 36.4553 56.5618 37.28C55.3587 38.1048 53.9233 38.523 52.4655 38.4737C47.2105 38.4737 42.9449 34.7549 42.9449 28.0333C42.9449 21.4012 47.1111 18.2889 52.0131 18.2889C56.6616 18.2889 58.1033 20.7747 58.5856 22.9672C58.7145 23.0596 58.8717 23.1037 59.0298 23.0919C59.188 23.0801 59.3369 23.0131 59.4506 22.9026C59.1921 20.9488 59.033 18.9253 59.0032 18.1895C58.6993 18.2064 58.395 18.1625 58.1083 18.0602C56.2537 17.5842 54.35 17.3256 52.4357 17.2896C49.1047 17.2896 46.1217 18.1845 43.7801 20.0141C42.5033 21.0279 41.4759 22.3209 40.7769 23.7939C40.0779 25.2668 39.726 26.8804 39.7481 28.5106L39.763 28.5006Z" />
</svg>
